<svg width="163" height="50" viewBox="0 0 163 50" fill="none" xmlns="http://www.w3.org/2000/svg">
<rect x="1.59389" y="0.695454" width="160.783" height="48.6087" rx="6.85507" fill="black"/>
<rect x="1.59389" y="0.695454" width="160.783" height="48.6087" rx="6.85507" stroke="#A6A6A6" stroke-width="1.24638"/>
<path fill-rule="evenodd" clip-rule="evenodd" d="M33.0729 25.7949C33.1002 23.6804 34.2087 21.7273 36.0101 20.6198C34.8685 18.9894 33.0249 17.9928 31.0356 17.9306C28.9426 17.7109 26.9136 19.183 25.847 19.183C24.7599 19.183 23.1178 17.9524 21.3495 17.9887C19.0229 18.0639 16.9065 19.3546 15.7745 21.3887C13.3641 25.5621 15.1621 31.6956 17.4711 35.069C18.6264 36.7209 19.9766 38.5661 21.7432 38.5007C23.472 38.429 24.1177 37.3983 26.2045 37.3983C28.272 37.3983 28.8777 38.5007 30.6803 38.4591C32.5353 38.429 33.7041 36.7999 34.8189 35.1323C35.6489 33.9553 36.2876 32.6544 36.7114 31.2779C34.5081 30.346 33.0755 28.1871 33.0729 25.7949Z" fill="white"/>
<path fill-rule="evenodd" clip-rule="evenodd" d="M29.6675 15.7129C30.679 14.4987 31.1773 12.938 31.0566 11.3623C29.5114 11.5246 28.0839 12.2632 27.0588 13.4308C26.0465 14.5828 25.5337 16.09 25.6333 17.6204C27.1993 17.6365 28.6862 16.9335 29.6675 15.7129Z" fill="white"/>
<path d="M52.5763 16.1835V10.5291H54.2093C54.6584 10.5291 55.036 10.5937 55.3422 10.723C55.6484 10.8455 55.8968 11.0292 56.0873 11.2741C56.2846 11.5123 56.4241 11.8049 56.5058 12.1519C56.5942 12.4921 56.6385 12.88 56.6385 13.3154C56.6385 13.7645 56.5908 14.149 56.4956 14.4688C56.4071 14.7818 56.2914 15.0437 56.1486 15.2547C56.0057 15.4656 55.8424 15.6323 55.6586 15.7548C55.4817 15.8773 55.3014 15.9725 55.1177 16.0406C54.934 16.1018 54.7605 16.1427 54.5972 16.1631C54.4339 16.1767 54.2978 16.1835 54.1889 16.1835H52.5763ZM51.6067 9.71254V17H54.1073C54.7128 17 55.2368 16.9149 55.6791 16.7448C56.1213 16.5747 56.4854 16.3298 56.7712 16.01C57.0569 15.6834 57.2679 15.2853 57.404 14.8158C57.54 14.3395 57.6081 13.7952 57.6081 13.1828C57.6081 12.0124 57.3053 11.1415 56.6997 10.5699C56.0941 9.99833 55.23 9.71254 54.1073 9.71254H51.6067ZM59.4871 14.3667C59.4871 14.0469 59.528 13.7645 59.6096 13.5196C59.6981 13.2678 59.8171 13.0569 59.9668 12.8868C60.1165 12.7167 60.29 12.5874 60.4874 12.4989C60.6915 12.4105 60.9058 12.3662 61.1304 12.3662C61.3549 12.3662 61.5659 12.4105 61.7632 12.4989C61.9673 12.5874 62.1442 12.7167 62.2939 12.8868C62.4436 13.0569 62.5593 13.2678 62.6409 13.5196C62.7294 13.7645 62.7736 14.0469 62.7736 14.3667C62.7736 14.6865 62.7294 14.9723 62.6409 15.2241C62.5593 15.469 62.4436 15.6766 62.2939 15.8467C62.1442 16.01 61.9673 16.1358 61.7632 16.2243C61.5659 16.3128 61.3549 16.357 61.1304 16.357C60.9058 16.357 60.6915 16.3128 60.4874 16.2243C60.29 16.1358 60.1165 16.01 59.9668 15.8467C59.8171 15.6766 59.6981 15.469 59.6096 15.2241C59.528 14.9723 59.4871 14.6865 59.4871 14.3667ZM58.5685 14.3667C58.5685 14.7546 58.623 15.1152 58.7318 15.4486C58.8407 15.782 59.004 16.0746 59.2218 16.3264C59.4395 16.5713 59.7083 16.7652 60.0281 16.9081C60.3479 17.0442 60.7153 17.1123 61.1304 17.1123C61.5522 17.1123 61.9197 17.0442 62.2327 16.9081C62.5525 16.7652 62.8213 16.5713 63.039 16.3264C63.2567 16.0746 63.42 15.782 63.5289 15.4486C63.6378 15.1152 63.6922 14.7546 63.6922 14.3667C63.6922 13.9789 63.6378 13.6182 63.5289 13.2848C63.42 12.9446 63.2567 12.652 63.039 12.4071C62.8213 12.1553 62.5525 11.958 62.2327 11.8151C61.9197 11.6722 61.5522 11.6007 61.1304 11.6007C60.7153 11.6007 60.3479 11.6722 60.0281 11.8151C59.7083 11.958 59.4395 12.1553 59.2218 12.4071C59.004 12.652 58.8407 12.9446 58.7318 13.2848C58.623 13.6182 58.5685 13.9789 58.5685 14.3667ZM70.145 17L71.829 11.7232H70.9309L69.7469 16.0406H69.7265L68.6242 11.7232H67.675L66.6135 16.0406H66.5931L65.3989 11.7232H64.4395L66.1338 17H67.0728L68.1343 12.8051H68.1547L69.2264 17H70.145ZM72.858 11.7232V17H73.7255V14.0197C73.7255 13.7815 73.7562 13.5638 73.8174 13.3665C73.8854 13.1623 73.9841 12.9854 74.1134 12.8357C74.2427 12.686 74.4026 12.5704 74.5931 12.4887C74.7904 12.4071 75.0218 12.3662 75.2871 12.3662C75.6206 12.3662 75.8825 12.4615 76.073 12.652C76.2636 12.8425 76.3588 13.1011 76.3588 13.4277V17H77.2264V13.5298C77.2264 13.244 77.1958 12.9854 77.1345 12.7541C77.0801 12.5159 76.9814 12.3118 76.8385 12.1417C76.6956 11.9716 76.5085 11.8389 76.2772 11.7436C76.0458 11.6484 75.7566 11.6007 75.4096 11.6007C74.6271 11.6007 74.0556 11.9206 73.6949 12.5602H73.6745V11.7232H72.858ZM78.7845 9.71254V17H79.6521V9.71254H78.7845ZM81.833 14.3667C81.833 14.0469 81.8739 13.7645 81.9555 13.5196C82.044 13.2678 82.163 13.0569 82.3127 12.8868C82.4624 12.7167 82.6359 12.5874 82.8333 12.4989C83.0374 12.4105 83.2517 12.3662 83.4763 12.3662C83.7008 12.3662 83.9118 12.4105 84.1091 12.4989C84.3132 12.5874 84.4901 12.7167 84.6398 12.8868C84.7895 13.0569 84.9052 13.2678 84.9868 13.5196C85.0753 13.7645 85.1195 14.0469 85.1195 14.3667C85.1195 14.6865 85.0753 14.9723 84.9868 15.2241C84.9052 15.469 84.7895 15.6766 84.6398 15.8467C84.4901 16.01 84.3132 16.1358 84.1091 16.2243C83.9118 16.3128 83.7008 16.357 83.4763 16.357C83.2517 16.357 83.0374 16.3128 82.8333 16.2243C82.6359 16.1358 82.4624 16.01 82.3127 15.8467C82.163 15.6766 82.044 15.469 81.9555 15.2241C81.8739 14.9723 81.833 14.6865 81.833 14.3667ZM80.9144 14.3667C80.9144 14.7546 80.9689 15.1152 81.0777 15.4486C81.1866 15.782 81.3499 16.0746 81.5677 16.3264C81.7854 16.5713 82.0542 16.7652 82.374 16.9081C82.6938 17.0442 83.0612 17.1123 83.4763 17.1123C83.8981 17.1123 84.2656 17.0442 84.5786 16.9081C84.8984 16.7652 85.1672 16.5713 85.3849 16.3264C85.6026 16.0746 85.7659 15.782 85.8748 15.4486C85.9837 15.1152 86.0381 14.7546 86.0381 14.3667C86.0381 13.9789 85.9837 13.6182 85.8748 13.2848C85.7659 12.9446 85.6026 12.652 85.3849 12.4071C85.1672 12.1553 84.8984 11.958 84.5786 11.8151C84.2656 11.6722 83.8981 11.6007 83.4763 11.6007C83.0612 11.6007 82.6938 11.6722 82.374 11.8151C82.0542 11.958 81.7854 12.1553 81.5677 12.4071C81.3499 12.652 81.1866 12.9446 81.0777 13.2848C80.9689 13.6182 80.9144 13.9789 80.9144 14.3667ZM91.9397 16.9796C91.79 17.068 91.5825 17.1123 91.3171 17.1123C91.0926 17.1123 90.9123 17.051 90.7762 16.9286C90.6469 16.7993 90.5823 16.5917 90.5823 16.306C90.3441 16.5917 90.0651 16.7993 89.7453 16.9286C89.4323 17.051 89.0921 17.1123 88.7247 17.1123C88.4865 17.1123 88.2586 17.0851 88.0408 17.0306C87.8299 16.9762 87.6462 16.8911 87.4897 16.7755C87.3332 16.6598 87.2073 16.5101 87.112 16.3264C87.0236 16.1358 86.9794 15.9079 86.9794 15.6425C86.9794 15.3431 87.0304 15.0982 87.1324 14.9077C87.2345 14.7171 87.3672 14.564 87.5305 14.4484C87.7006 14.3259 87.8911 14.234 88.1021 14.1728C88.3198 14.1116 88.5409 14.0605 88.7655 14.0197C89.0036 13.9721 89.2282 13.938 89.4391 13.9176C89.6569 13.8904 89.8474 13.8564 90.0107 13.8156C90.174 13.7679 90.3033 13.7033 90.3985 13.6216C90.4938 13.5332 90.5414 13.4073 90.5414 13.244C90.5414 13.0535 90.504 12.9004 90.4292 12.7847C90.3611 12.669 90.2693 12.5806 90.1536 12.5193C90.0447 12.4581 89.9188 12.4173 89.7759 12.3969C89.6399 12.3764 89.5038 12.3662 89.3677 12.3662C89.0002 12.3662 88.694 12.4377 88.4491 12.5806C88.2041 12.7167 88.0714 12.9786 88.051 13.3665H87.1835C87.1971 13.0399 87.2651 12.7643 87.3876 12.5397C87.5101 12.3152 87.6734 12.1349 87.8775 11.9988C88.0817 11.8559 88.313 11.7538 88.5716 11.6926C88.8369 11.6314 89.1193 11.6007 89.4187 11.6007C89.6569 11.6007 89.8916 11.6178 90.123 11.6518C90.3611 11.6858 90.5754 11.7572 90.766 11.8661C90.9565 11.9682 91.1096 12.1145 91.2253 12.305C91.3409 12.4955 91.3988 12.7439 91.3988 13.0501V15.765C91.3988 15.9691 91.409 16.1188 91.4294 16.2141C91.4566 16.3094 91.5383 16.357 91.6744 16.357C91.7492 16.357 91.8377 16.34 91.9397 16.306V16.9796ZM90.5312 14.2749C90.4224 14.3565 90.2795 14.4177 90.1025 14.4586C89.9256 14.4926 89.7385 14.5232 89.5412 14.5504C89.3507 14.5708 89.1567 14.5981 88.9594 14.6321C88.7621 14.6593 88.5852 14.7069 88.4287 14.775C88.2722 14.843 88.1429 14.9417 88.0408 15.071C87.9456 15.1934 87.8979 15.3636 87.8979 15.5813C87.8979 15.7242 87.9252 15.8467 87.9796 15.9487C88.0408 16.044 88.1157 16.1222 88.2041 16.1835C88.2994 16.2447 88.4083 16.2889 88.5307 16.3162C88.6532 16.3434 88.7825 16.357 88.9186 16.357C89.2044 16.357 89.4493 16.3196 89.6535 16.2447C89.8576 16.1631 90.0243 16.0644 90.1536 15.9487C90.2829 15.8262 90.3781 15.697 90.4394 15.5609C90.5006 15.418 90.5312 15.2853 90.5312 15.1628V14.2749ZM93.5841 14.4075C93.5841 14.149 93.6113 13.8972 93.6657 13.6523C93.7202 13.4073 93.8086 13.1896 93.9311 12.999C94.0536 12.8085 94.2169 12.6554 94.421 12.5397C94.6252 12.4241 94.8735 12.3662 95.1661 12.3662C95.4655 12.3662 95.7207 12.4241 95.9316 12.5397C96.1425 12.6486 96.3126 12.7949 96.4419 12.9786C96.578 13.1623 96.6767 13.3767 96.7379 13.6216C96.7991 13.8598 96.8298 14.1082 96.8298 14.3667C96.8298 14.6117 96.7991 14.8532 96.7379 15.0914C96.6835 15.3295 96.5916 15.5439 96.4623 15.7344C96.333 15.9181 96.1663 16.0678 95.9622 16.1835C95.7581 16.2992 95.5097 16.357 95.2171 16.357C94.9382 16.357 94.6932 16.3026 94.4823 16.1937C94.2781 16.0848 94.108 15.9385 93.9719 15.7548C93.8427 15.5711 93.744 15.3636 93.6759 15.1322C93.6147 14.8941 93.5841 14.6525 93.5841 14.4075ZM97.6667 17V9.71254H96.7991V12.4275H96.7787C96.6835 12.271 96.5644 12.1417 96.4215 12.0396C96.2854 11.9308 96.1391 11.8457 95.9826 11.7845C95.8261 11.7164 95.6696 11.6688 95.5131 11.6416C95.3566 11.6144 95.2103 11.6007 95.0742 11.6007C94.6728 11.6007 94.319 11.6756 94.0128 11.8253C93.7134 11.9682 93.4616 12.1655 93.2575 12.4173C93.0602 12.6622 92.9105 12.9514 92.8084 13.2848C92.7131 13.6182 92.6655 13.9721 92.6655 14.3463C92.6655 14.7205 92.7165 15.0744 92.8186 15.4078C92.9207 15.7412 93.0704 16.0338 93.2677 16.2855C93.4718 16.5373 93.7236 16.738 94.023 16.8877C94.3292 17.0374 94.6864 17.1123 95.0947 17.1123C95.4621 17.1123 95.7989 17.0476 96.1051 16.9183C96.4113 16.7891 96.6358 16.5781 96.7787 16.2855H96.7991V17H97.6667ZM102.883 14.3667C102.883 14.0469 102.924 13.7645 103.006 13.5196C103.094 13.2678 103.213 13.0569 103.363 12.8868C103.513 12.7167 103.686 12.5874 103.883 12.4989C104.088 12.4105 104.302 12.3662 104.526 12.3662C104.751 12.3662 104.962 12.4105 105.159 12.4989C105.363 12.5874 105.54 12.7167 105.69 12.8868C105.84 13.0569 105.955 13.2678 106.037 13.5196C106.125 13.7645 106.17 14.0469 106.17 14.3667C106.17 14.6865 106.125 14.9723 106.037 15.2241C105.955 15.469 105.84 15.6766 105.69 15.8467C105.54 16.01 105.363 16.1358 105.159 16.2243C104.962 16.3128 104.751 16.357 104.526 16.357C104.302 16.357 104.088 16.3128 103.883 16.2243C103.686 16.1358 103.513 16.01 103.363 15.8467C103.213 15.6766 103.094 15.469 103.006 15.2241C102.924 14.9723 102.883 14.6865 102.883 14.3667ZM101.965 14.3667C101.965 14.7546 102.019 15.1152 102.128 15.4486C102.237 15.782 102.4 16.0746 102.618 16.3264C102.836 16.5713 103.104 16.7652 103.424 16.9081C103.744 17.0442 104.111 17.1123 104.526 17.1123C104.948 17.1123 105.316 17.0442 105.629 16.9081C105.949 16.7652 106.217 16.5713 106.435 16.3264C106.653 16.0746 106.816 15.782 106.925 15.4486C107.034 15.1152 107.088 14.7546 107.088 14.3667C107.088 13.9789 107.034 13.6182 106.925 13.2848C106.816 12.9446 106.653 12.652 106.435 12.4071C106.217 12.1553 105.949 11.958 105.629 11.8151C105.316 11.6722 104.948 11.6007 104.526 11.6007C104.111 11.6007 103.744 11.6722 103.424 11.8151C103.104 11.958 102.836 12.1553 102.618 12.4071C102.4 12.652 102.237 12.9446 102.128 13.2848C102.019 13.6182 101.965 13.9789 101.965 14.3667ZM108.315 11.7232V17H109.183V14.0197C109.183 13.7815 109.213 13.5638 109.275 13.3665C109.343 13.1623 109.441 12.9854 109.571 12.8357C109.7 12.686 109.86 12.5704 110.05 12.4887C110.248 12.4071 110.479 12.3662 110.744 12.3662C111.078 12.3662 111.34 12.4615 111.53 12.652C111.721 12.8425 111.816 13.1011 111.816 13.4277V17H112.684V13.5298C112.684 13.244 112.653 12.9854 112.592 12.7541C112.537 12.5159 112.439 12.3118 112.296 12.1417C112.153 11.9716 111.966 11.8389 111.734 11.7436C111.503 11.6484 111.214 11.6007 110.867 11.6007C110.084 11.6007 109.513 11.9206 109.152 12.5602H109.132V11.7232H108.315ZM118.44 11.7232V10.1412H117.572V11.7232H116.674V12.4887H117.572V15.8467C117.572 16.0916 117.596 16.2889 117.644 16.4386C117.692 16.5883 117.763 16.704 117.858 16.7857C117.96 16.8673 118.09 16.9252 118.246 16.9592C118.409 16.9864 118.603 17 118.828 17H119.491V16.2345H119.093C118.957 16.2345 118.845 16.2311 118.756 16.2243C118.675 16.2107 118.61 16.1869 118.562 16.1529C118.515 16.1188 118.481 16.0712 118.46 16.01C118.447 15.9487 118.44 15.8671 118.44 15.765V12.4887H119.491V11.7232H118.44ZM120.659 9.71254V17H121.527V14.0197C121.527 13.7815 121.557 13.5638 121.619 13.3665C121.687 13.1623 121.785 12.9854 121.915 12.8357C122.044 12.686 122.204 12.5704 122.394 12.4887C122.592 12.4071 122.823 12.3662 123.088 12.3662C123.422 12.3662 123.684 12.4615 123.874 12.652C124.065 12.8425 124.16 13.1011 124.16 13.4277V17H125.028V13.5298C125.028 13.244 124.997 12.9854 124.936 12.7541C124.881 12.5159 124.783 12.3118 124.64 12.1417C124.497 11.9716 124.31 11.8389 124.078 11.7436C123.847 11.6484 123.558 11.6007 123.211 11.6007C123.054 11.6007 122.891 11.6178 122.721 11.6518C122.558 11.6858 122.398 11.7402 122.241 11.8151C122.092 11.8831 121.955 11.975 121.833 12.0907C121.71 12.1995 121.615 12.3356 121.547 12.4989H121.527V9.71254H120.659ZM130.199 13.8564H127.168C127.181 13.6523 127.225 13.4617 127.3 13.2848C127.375 13.1011 127.477 12.9412 127.606 12.8051C127.736 12.669 127.889 12.5636 128.066 12.4887C128.249 12.4071 128.454 12.3662 128.678 12.3662C128.896 12.3662 129.093 12.4071 129.27 12.4887C129.454 12.5636 129.61 12.669 129.74 12.8051C129.876 12.9344 129.981 13.0909 130.056 13.2746C130.138 13.4583 130.185 13.6523 130.199 13.8564ZM131.036 15.3261H130.178C130.104 15.6732 129.947 15.9317 129.709 16.1018C129.478 16.2719 129.178 16.357 128.811 16.357C128.525 16.357 128.277 16.3094 128.066 16.2141C127.855 16.1188 127.681 15.993 127.545 15.8365C127.409 15.6732 127.31 15.4894 127.249 15.2853C127.188 15.0744 127.161 14.8532 127.168 14.6219H131.117C131.131 14.3021 131.1 13.9653 131.026 13.6114C130.958 13.2576 130.828 12.931 130.638 12.6316C130.454 12.3322 130.206 12.0873 129.893 11.8967C129.586 11.6994 129.199 11.6007 128.729 11.6007C128.368 11.6007 128.035 11.6688 127.729 11.8049C127.429 11.941 127.168 12.1315 126.943 12.3764C126.725 12.6214 126.555 12.9106 126.433 13.244C126.31 13.5774 126.249 13.9448 126.249 14.3463C126.263 14.7478 126.32 15.1186 126.422 15.4588C126.531 15.799 126.691 16.0916 126.902 16.3366C127.113 16.5815 127.372 16.7721 127.678 16.9081C127.991 17.0442 128.358 17.1123 128.78 17.1123C129.379 17.1123 129.876 16.9626 130.27 16.6632C130.665 16.3638 130.92 15.9181 131.036 15.3261Z" fill="white"/>
<path d="M71.8991 27.536C74.7631 27.5361 76.651 29.8 76.651 33.2969C76.651 36.8036 74.7741 39.0565 71.9417 39.0565C70.4777 39.1331 69.0987 38.3663 68.3913 37.0823H68.3377V42.6715H66.0214V27.6541H68.2635V29.531H68.3061C69.0449 28.255 70.4254 27.4885 71.8991 27.536ZM84.3191 27.5361C87.1831 27.5361 89.0709 29.8 89.0709 33.2969C89.0709 36.8036 87.194 39.0565 84.3617 39.0565C82.8977 39.1331 81.5187 38.3663 80.8112 37.0823H80.7576V42.6715H78.4414V27.6541H80.6834V29.531H80.726C81.4648 28.255 82.8454 27.4885 84.3191 27.5361ZM100.948 23.2029C104.218 23.2029 106.461 25.0371 106.536 27.7076H104.198C104.058 26.163 102.781 25.2307 100.915 25.2307C99.0492 25.2307 97.7724 26.174 97.7724 27.547C97.7724 28.6412 98.5879 29.2851 100.583 29.778L102.288 30.1967C105.464 30.9477 106.783 32.2233 106.783 34.4872C106.783 37.3828 104.477 39.1964 100.808 39.1964C97.3756 39.1964 95.0581 37.4254 94.9084 34.6259L97.2795 34.626C97.4511 36.1609 98.9421 37.1686 100.98 37.1686C102.932 37.1686 104.337 36.1608 104.337 34.7769C104.337 33.5756 103.489 32.8562 101.484 32.3633L99.4777 31.8801C96.6356 31.1936 95.3162 29.8644 95.3162 27.7076C95.3162 25.0371 97.6434 23.2029 100.948 23.2029ZM120.522 27.5154C123.794 27.5154 125.876 29.7464 125.876 33.2969C125.876 36.8571 123.805 39.0784 120.522 39.0784C117.241 39.0784 115.171 36.8571 115.171 33.2969C115.171 29.7464 117.262 27.5154 120.522 27.5154ZM139.279 27.5154C142.401 27.5154 144.364 29.66 144.364 33.0815V33.875H136.394V34.015C136.32 34.8551 136.61 35.6867 137.191 36.2982C137.772 36.9098 138.587 37.2423 139.43 37.2113C140.554 37.3166 141.614 36.6712 142.036 35.6241L144.235 35.6241C143.924 37.6726 141.929 39.0784 139.376 39.0784C136.094 39.0784 134.056 36.879 134.056 33.3504C134.056 29.8109 136.105 27.5154 139.279 27.5154ZM111.782 24.9837V27.6541H113.928V29.4884H111.782V35.7093C111.782 36.6757 112.212 37.1261 113.155 37.1261C113.41 37.1217 113.664 37.1038 113.917 37.0725V38.8958C113.493 38.9751 113.062 39.0109 112.63 39.0029C110.346 39.0029 109.455 38.1448 109.455 35.9564V29.4884H107.814V27.6541H109.455V24.9837H111.782ZM58.9948 23.461L64.5828 38.9385H62.0413L60.6258 34.7551H54.7262L53.3094 38.9385H50.8105L56.3986 23.461H58.9948ZM132.762 27.536C133.029 27.5351 133.295 27.5641 133.556 27.6225V29.789C133.219 29.686 132.867 29.6388 132.515 29.649C131.834 29.6214 131.175 29.8928 130.711 30.3919C130.247 30.8911 130.024 31.5681 130.102 32.2452V38.9384H127.785V27.6541H129.994V29.5748H130.048C130.356 28.3384 131.489 27.4874 132.762 27.536ZM120.522 29.4239C118.646 29.4239 117.531 30.8723 117.531 33.2969C117.531 35.7422 118.646 37.1687 120.522 37.1687C122.399 37.1687 123.516 35.7422 123.516 33.2969C123.516 30.8614 122.399 29.4239 120.522 29.4239ZM71.2881 29.5103C69.5184 29.5103 68.328 31.0439 68.328 33.2969C68.328 35.5706 69.5184 37.0932 71.2881 37.0932C73.0895 37.0932 74.2702 35.6022 74.2702 33.2969C74.2702 31.0123 73.0895 29.5103 71.2881 29.5103ZM83.7081 29.5103C81.9383 29.5103 80.7479 31.0439 80.7479 33.2969C80.7479 35.5706 81.9383 37.0932 83.7081 37.0932C85.5095 37.0932 86.6901 35.6022 86.6901 33.2969C86.6901 31.0123 85.5095 29.5103 83.7081 29.5103ZM57.7083 26.0353H57.6438L55.3372 32.8246H60.0136L57.7083 26.0353ZM139.279 29.3922C138.517 29.3877 137.785 29.6876 137.245 30.2255C136.706 30.7633 136.403 31.4944 136.405 32.2562H142.047C142.089 31.5013 141.814 30.7631 141.289 30.2195C140.763 29.6758 140.035 29.376 139.279 29.3922Z" fill="white"/>
</svg>
