<svg width="53" height="55" viewBox="0 0 53 55" fill="none" xmlns="http://www.w3.org/2000/svg">
<path d="M50.1602 27.5016C50.1602 41.3216 39.492 52.5266 26.334 52.5266C13.176 52.5266 2.50781 41.3216 2.50781 27.5016C2.50781 13.6816 13.176 2.47656 26.334 2.47656C39.492 2.47656 50.1602 13.6816 50.1602 27.5016Z" fill="#ABD7EF"/>
<path d="M37.6386 17.4198V43.2298C37.6386 44.0198 37.0293 44.6598 36.2771 44.6598H16.3879C15.6357 44.6598 15.0264 44.0198 15.0264 43.2298V11.7698C15.0264 10.9798 15.6357 10.3398 16.3879 10.3398H30.8978L37.6386 17.4198Z" fill="white"/>
<path d="M28.2694 16.7266H17.6631V18.1566H28.2694V16.7266Z" fill="#6C6969"/>
<path d="M28.2694 13.1992H17.6631V14.6292H28.2694V13.1992Z" fill="#6C6969"/>
<path d="M35.2173 20.25H17.4512V21.68H35.2173V20.25Z" fill="#6C6969"/>
<path d="M37.6403 17.4198H32.2609C31.5088 17.4198 30.8994 16.7798 30.8994 15.9898V10.3398L37.6403 17.4198Z" fill="#A8B6C2"/>
<path d="M32.1117 30.8122H29.1792V41.8022H23.4809V30.8122H20.5532L26.3324 24.7422L32.1117 30.8122Z" fill="#6C6969"/>
</svg>
