<svg width="626" height="626" viewBox="0 0 626 626" fill="none" xmlns="http://www.w3.org/2000/svg">
<circle cx="313" cy="313" r="313" fill="#0C8BFB" fill-opacity="0.1"/>
<circle cx="313" cy="313" r="221" fill="#0C8BFB" fill-opacity="0.15"/>
<circle cx="313" cy="313" r="179" fill="url(#paint0_radial_6000_105291)"/>
<path d="M70.6878 222.294C70.0698 223.759 69.2579 224.973 68.2521 225.936C67.2249 226.891 66.0905 227.509 64.8489 227.788C63.6073 228.068 62.3471 227.948 61.0683 227.428L62.6837 223.599C63.6782 223.905 64.6212 223.86 65.513 223.462C66.4136 223.044 67.1155 222.239 67.6186 221.046C68.1395 219.811 68.2472 218.728 67.9417 217.795C67.6149 216.853 66.972 216.187 66.0129 215.797C65.2669 215.494 64.5667 215.466 63.9125 215.715C63.267 215.943 62.6796 216.329 62.1502 216.874C61.6296 217.397 60.9817 218.164 60.2066 219.172C59.2227 220.439 58.3491 221.444 57.5859 222.188C56.8102 222.902 55.8743 223.404 54.7782 223.694C53.6822 223.983 52.4414 223.847 51.0561 223.283C49.7772 222.763 48.7907 221.994 48.0964 220.977C47.4021 219.959 47.0376 218.781 47.0028 217.443C46.9679 216.106 47.2639 214.694 47.8907 213.208C48.7823 211.095 50.054 209.59 51.706 208.693C53.3455 207.766 55.1339 207.611 57.0713 208.227L55.4029 212.181C54.5665 211.915 53.7149 212.01 52.8481 212.466C51.9813 212.923 51.3096 213.716 50.8329 214.846C50.4003 215.871 50.3136 216.816 50.5728 217.682C50.832 218.547 51.4625 219.183 52.4642 219.591C53.1462 219.868 53.7949 219.899 54.4102 219.683C55.013 219.438 55.5747 219.054 56.0953 218.53C56.6159 218.006 57.2549 217.261 58.0124 216.294C59.0264 215.015 59.9258 214.008 60.7103 213.273C61.5037 212.517 62.4591 211.999 63.5764 211.718C64.6813 211.407 65.9371 211.538 67.3438 212.11C68.4734 212.569 69.4111 213.306 70.1568 214.32C70.9114 215.313 71.355 216.51 71.4875 217.913C71.6076 219.285 71.341 220.746 70.6878 222.294Z" fill="url(#paint1_linear_6000_105291)"/>
<path d="M63.5526 199.088L73.0285 203.651C73.6706 203.96 74.2077 204.042 74.6399 203.897C75.0616 203.722 75.4501 203.278 75.8057 202.566L76.8723 200.431L79.8238 201.852L78.4525 204.597C77.6702 206.163 76.6981 207.183 75.5359 207.658C74.3738 208.133 72.9539 207.966 71.2762 207.158L61.8003 202.596L60.8098 204.578L57.9204 203.187L58.9109 201.205L54.6545 199.155L56.4068 195.648L60.6632 197.697L62.7051 193.61L65.5944 195.001L63.5526 199.088Z" fill="url(#paint2_linear_6000_105291)"/>
<path d="M72.2813 194.743C70.6363 193.781 69.3803 192.598 68.5133 191.195C67.6581 189.772 67.2319 188.284 67.2349 186.731C67.2298 185.146 67.6523 183.653 68.5023 182.252C69.2698 180.988 70.1945 180.039 71.2765 179.407C72.3505 178.743 73.4353 178.349 74.5308 178.225L72.1525 176.835L74.1891 173.478L90.5697 183.058L88.5331 186.414L86.0953 184.989C86.5259 186.005 86.7036 187.15 86.6286 188.424C86.5536 189.698 86.1382 190.958 85.3826 192.203C84.5443 193.585 83.4202 194.641 82.0101 195.371C80.5802 196.09 79.0145 196.414 77.313 196.341C75.6035 196.238 73.9263 195.705 72.2813 194.743ZM80.3279 181.616C79.1982 180.955 78.0755 180.615 76.9597 180.595C75.8558 180.556 74.8615 180.778 73.9768 181.262C73.0921 181.747 72.39 182.417 71.8705 183.273C71.351 184.129 71.085 185.054 71.0723 186.049C71.0399 187.032 71.2982 188 71.8472 188.954C72.3883 189.876 73.2236 190.668 74.3533 191.329C75.483 191.989 76.6098 192.345 77.7335 192.396C78.8691 192.427 79.8892 192.207 80.7937 191.734C81.6901 191.23 82.3922 190.56 82.8999 189.723C83.4194 188.867 83.6855 187.942 83.6981 186.948C83.7107 185.953 83.4366 184.989 82.8758 184.055C82.3069 183.089 81.4576 182.276 80.3279 181.616Z" fill="url(#paint3_linear_6000_105291)"/>
<path d="M82.4672 165.982C81.9966 164.976 81.8111 163.943 81.9108 162.883C82.0046 161.792 82.4245 160.714 83.1706 159.651L86.533 161.926L85.9637 162.737C85.0867 163.986 84.7421 165.156 84.9299 166.245C85.1308 167.316 86.0291 168.392 87.6248 169.471L95.8885 175.06L93.6503 178.249L77.9494 167.629L80.1876 164.44L82.4672 165.982Z" fill="url(#paint4_linear_6000_105291)"/>
<path d="M91.7494 154.069L100.123 160.376C100.69 160.803 101.201 160.988 101.653 160.929C102.102 160.839 102.572 160.479 103.063 159.85L104.538 157.964L107.146 159.928L105.25 162.354C104.169 163.737 103.011 164.549 101.776 164.79C100.542 165.03 99.1832 164.592 97.7007 163.475L89.327 157.168L87.9579 158.92L85.4046 156.997L86.7738 155.245L83.0125 152.412L85.4349 149.313L89.1961 152.146L92.0187 148.534L94.572 150.457L91.7494 154.069Z" fill="url(#paint5_linear_6000_105291)"/>
<path d="M113.114 125.174L125.273 152.496L122.449 155.391L118.43 146.347L99.6893 138.94L102.728 135.823L116.936 141.886L110.29 128.069L113.114 125.174Z" fill="url(#paint6_linear_6000_105291)"/>
<path d="M136.042 130.025C134.689 131.19 133.2 131.945 131.575 132.29C129.934 132.617 128.315 132.505 126.717 131.953C125.104 131.384 123.651 130.376 122.358 128.929C121.081 127.498 120.268 125.954 119.921 124.294C119.574 122.635 119.69 121.03 120.267 119.478C120.845 117.926 121.819 116.561 123.189 115.381C124.559 114.201 126.065 113.432 127.708 113.072C129.35 112.712 130.987 112.809 132.617 113.364C134.248 113.918 135.702 114.91 136.979 116.34C138.257 117.77 139.061 119.323 139.39 120.997C139.72 122.671 139.586 124.307 138.989 125.906C138.394 127.472 137.412 128.846 136.042 130.025ZM133.783 127.497C134.546 126.84 135.097 126.049 135.437 125.124C135.794 124.184 135.861 123.177 135.638 122.104C135.416 121.03 134.848 119.982 133.935 118.961C133.023 117.939 132.055 117.251 131.033 116.897C129.995 116.525 128.987 116.444 128.008 116.654C127.03 116.864 126.159 117.297 125.396 117.954C124.633 118.611 124.081 119.402 123.742 120.327C123.419 121.237 123.387 122.214 123.644 123.258C123.886 124.285 124.464 125.309 125.376 126.33C126.73 127.846 128.17 128.684 129.696 128.847C131.224 128.977 132.586 128.527 133.783 127.497Z" fill="url(#paint7_linear_6000_105291)"/>
<path d="M150.18 94.6803L161.34 109.857L158.141 112.124L156.825 110.333C156.779 111.316 156.479 112.282 155.926 113.232C155.379 114.151 154.646 114.935 153.73 115.585C152.514 116.447 151.238 116.974 149.9 117.168C148.582 117.348 147.284 117.15 146.007 116.575C144.749 115.986 143.614 115.003 142.601 113.625L136.039 104.701L139.21 102.454L145.427 110.91C146.427 112.269 147.542 113.071 148.774 113.315C149.993 113.541 151.201 113.229 152.398 112.381C153.595 111.533 154.277 110.505 154.442 109.299C154.613 108.06 154.199 106.762 153.199 105.403L146.982 96.9469L150.18 94.6803Z" fill="url(#paint8_linear_6000_105291)"/>
<path d="M160.866 90.9609C160.84 89.8543 161.088 88.8338 161.608 87.8996C162.135 86.9342 162.956 86.1091 164.071 85.4241L166.238 88.8218L165.387 89.3445C164.077 90.1497 163.288 91.0888 163.02 92.1621C162.771 93.2233 163.161 94.5602 164.189 96.1727L169.514 104.523L166.17 106.578L156.053 90.7123L159.397 88.6574L160.866 90.9609Z" fill="url(#paint9_linear_6000_105291)"/>
<path d="M176.856 75.7744C176.223 76.1021 175.58 76.1666 174.925 75.968C174.27 75.7694 173.776 75.3596 173.442 74.7387C173.109 74.1178 173.043 73.4861 173.245 72.8435C173.448 72.2009 173.865 71.7158 174.497 71.3881C175.109 71.071 175.743 71.0117 176.397 71.2103C177.052 71.4089 177.546 71.8187 177.88 72.4396C178.214 73.0605 178.279 73.6922 178.077 74.3348C177.875 74.9774 177.468 75.4573 176.856 75.7744ZM190.392 96.8781C191.265 98.5004 191.476 99.8888 191.027 101.043C190.61 102.207 189.615 103.196 188.044 104.01L186.239 104.945L184.688 102.061L185.882 101.443C186.596 101.073 187.02 100.674 187.155 100.245C187.321 99.8265 187.237 99.3066 186.904 98.6857L176.26 78.8872L179.748 77.0796L190.392 96.8781Z" fill="url(#paint10_linear_6000_105291)"/>
<path d="M201.712 87.6767C200.06 88.377 198.407 88.646 196.753 88.4839C195.089 88.301 193.584 87.7058 192.236 86.6984C190.879 85.6701 189.812 84.2723 189.035 82.505C188.266 80.7585 187.977 79.0435 188.166 77.3598C188.355 75.6762 188.968 74.1832 190.003 72.881C191.038 71.5787 192.393 70.5729 194.066 69.8637C195.739 69.1544 197.413 68.8764 199.089 69.0295C200.764 69.1827 202.291 69.7689 203.669 70.7881C205.047 71.8074 206.121 73.1903 206.889 74.9368C207.657 76.6833 207.936 78.4029 207.725 80.0955C207.515 81.7881 206.876 83.3049 205.807 84.646C204.75 85.9572 203.385 86.9675 201.712 87.6767ZM200.354 84.5891C201.286 84.1941 202.058 83.6077 202.671 82.8299C203.305 82.0432 203.684 81.1054 203.809 80.0167C203.933 78.928 203.72 77.7599 203.172 76.5124C202.623 75.2649 201.918 74.3182 201.056 73.6722C200.184 73.0054 199.25 72.6243 198.253 72.5289C197.257 72.4334 196.292 72.5832 195.36 72.9782C194.428 73.3732 193.656 73.9596 193.043 74.7374C192.452 75.5062 192.115 76.4259 192.033 77.4967C191.942 78.5467 192.171 79.6954 192.72 80.9429C193.534 82.7934 194.641 84.026 196.042 84.6408C197.456 85.2258 198.893 85.2086 200.354 84.5891Z" fill="url(#paint11_linear_6000_105291)"/>
<path d="M226.057 58.3512L231.943 76.155L228.19 77.3504L227.496 75.2502C227.146 76.1713 226.559 77.0011 225.736 77.7395C224.928 78.4494 223.986 78.9756 222.911 79.3182C221.485 79.7726 220.105 79.8908 218.772 79.6727C217.46 79.4476 216.287 78.8691 215.251 77.9372C214.237 76.9982 213.463 75.721 212.929 74.1054L209.468 63.6364L213.188 62.4514L216.467 72.3711C216.994 73.9652 217.806 75.0637 218.902 75.6667C219.992 76.2481 221.239 76.3151 222.643 75.8677C224.048 75.4203 225.017 74.6472 225.551 73.5484C226.1 72.4211 226.111 71.0604 225.584 69.4664L222.305 59.5467L226.057 58.3512Z" fill="url(#paint12_linear_6000_105291)"/>
<path d="M237.334 58.0573C237.654 56.9958 238.206 56.098 238.992 55.364C239.794 54.6025 240.832 54.0624 242.107 53.7437L243.115 57.6282L242.142 57.8714C240.644 58.246 239.601 58.9042 239.012 59.8461C238.446 60.7823 238.402 62.1722 238.88 64.0157L241.358 73.5623L237.535 74.5183L232.828 56.3798L236.651 55.4238L237.334 58.0573Z" fill="url(#paint13_linear_6000_105291)"/>
<path d="M257.555 50.5695C259.034 50.3269 260.405 50.4121 261.668 50.8249C262.954 51.234 264.027 51.9764 264.889 53.052C265.75 54.1277 266.323 55.5032 266.608 57.1786L268.461 68.0681L264.604 68.7006L262.848 58.3806C262.567 56.7276 261.931 55.5346 260.941 54.8015C259.947 54.046 258.722 53.7877 257.266 54.0265C255.81 54.2653 254.725 54.9024 254.013 55.9377C253.319 56.9469 253.113 58.278 253.394 59.931L255.15 70.251L251.259 70.8891L248.118 52.427L252.009 51.7889L252.368 53.8998C252.876 53.0359 253.583 52.3115 254.489 51.7266C255.418 51.138 256.44 50.7523 257.555 50.5695Z" fill="url(#paint14_linear_6000_105291)"/>
<path d="M290.981 55.9342C291.036 56.6342 291.04 57.2699 290.993 57.8414L276.468 58.9436C276.7 60.4251 277.358 61.5791 278.441 62.4055C279.524 63.2319 280.802 63.5892 282.274 63.4775C284.39 63.3169 285.816 62.3342 286.553 60.5292L290.797 60.2072C290.357 61.9669 289.422 63.4575 287.991 64.6791C286.581 65.8764 284.761 66.5597 282.53 66.729C280.713 66.8669 279.048 66.5957 277.537 65.9153C276.047 65.2107 274.831 64.1672 273.889 62.7849C272.969 61.3783 272.433 59.7154 272.282 57.7961C272.131 55.8768 272.389 54.165 273.057 52.6605C273.747 51.1317 274.774 49.9181 276.137 49.0196C277.524 48.1193 279.149 47.5985 281.012 47.4572C282.806 47.321 284.435 47.5836 285.898 48.2448C287.362 48.906 288.54 49.907 289.432 51.2476C290.323 52.5656 290.839 54.1278 290.981 55.9342ZM286.78 55.0264C286.645 53.6056 286.037 52.5046 284.958 51.7234C283.878 50.9422 282.591 50.6083 281.096 50.7217C279.739 50.8247 278.611 51.3419 277.712 52.2732C276.812 53.182 276.327 54.3659 276.257 55.8249L286.78 55.0264Z" fill="url(#paint15_linear_6000_105291)"/>
<path d="M314.98 46.7583L302.96 74.1397L298.877 74.0933L302.86 65.0338L295.568 46.5376L299.963 46.5875L305.158 60.9153L310.897 46.7119L314.98 46.7583Z" fill="url(#paint16_linear_6000_105291)"/>
<path d="M333.333 51.1769L332.237 61.4819C332.162 62.1801 332.269 62.7034 332.557 63.0517C332.87 63.3798 333.428 63.585 334.231 63.6674L336.64 63.9145L336.298 67.1242L333.201 66.8066C331.434 66.6254 330.124 66.0811 329.269 65.1737C328.415 64.2664 328.085 62.9004 328.279 61.0759L329.375 50.771L327.138 50.5415L327.473 47.3994L329.71 47.6288L330.202 43L334.16 43.4059L333.668 48.0347L338.28 48.5077L337.945 51.6499L333.333 51.1769Z" fill="url(#paint17_linear_6000_105291)"/>
<path d="M348.267 69.1025C346.498 68.7782 344.974 68.0954 343.693 67.0543C342.417 65.9909 341.506 64.672 340.961 63.0975C340.42 61.5008 340.329 59.7563 340.689 57.864C341.045 55.994 341.78 54.4124 342.895 53.1192C344.009 51.826 345.366 50.9229 346.966 50.4098C348.565 49.8967 350.261 49.8044 352.052 50.1329C353.844 50.4614 355.391 51.1483 356.694 52.1936C357.997 53.2389 358.931 54.562 359.494 56.1629C360.058 57.7638 360.162 59.4992 359.806 61.3692C359.45 63.2393 358.704 64.8188 357.567 66.1078C356.43 67.3968 355.037 68.3049 353.388 68.8319C351.765 69.3408 350.058 69.431 348.267 69.1025ZM348.896 65.7966C349.894 65.9795 350.868 65.9162 351.819 65.6067C352.792 65.3014 353.64 64.7311 354.362 63.8959C355.084 63.0607 355.572 61.9752 355.826 60.6395C356.081 59.3038 356.034 58.1317 355.686 57.1233C355.342 56.0927 354.784 55.2646 354.011 54.6391C353.238 54.0136 352.353 53.6093 351.355 53.4264C350.357 53.2434 349.383 53.3067 348.432 53.6162C347.504 53.9299 346.702 54.5085 346.025 55.352C345.353 56.1733 344.889 57.2518 344.635 58.5875C344.258 60.5688 344.476 62.1985 345.289 63.4764C346.129 64.7363 347.331 65.5097 348.896 65.7966Z" fill="url(#paint18_linear_6000_105291)"/>
<path d="M364.679 61.9805C365.208 60.1739 366.053 58.6804 367.215 57.5C368.399 56.3259 369.756 55.5424 371.287 55.1496C372.847 54.7412 374.436 54.7653 376.055 55.2219C377.252 55.5596 378.351 56.1523 379.351 56.9999C380.379 57.832 381.113 58.7695 381.552 59.8122L384.094 51.1274L387.919 52.2063L380.847 76.367L377.022 75.2882L377.815 72.5782C376.94 73.2738 375.865 73.7481 374.59 74.0014C373.338 74.2608 372.003 74.1904 370.584 73.7901C368.987 73.3398 367.639 72.5353 366.538 71.3764C365.465 70.2021 364.748 68.798 364.386 67.1643C364.053 65.5151 364.151 63.7872 364.679 61.9805ZM379.66 66.2769C380.023 65.0362 380.072 63.8837 379.808 62.8194C379.565 61.7614 379.093 60.8741 378.39 60.1576C377.688 59.441 376.849 58.9452 375.874 58.67C374.898 58.3948 373.919 58.3778 372.936 58.619C371.96 58.8384 371.072 59.3302 370.272 60.0943C369.501 60.8429 368.934 61.8375 368.571 63.0782C368.207 64.3189 368.144 65.4791 368.38 66.5589C368.638 67.645 369.115 68.5571 369.811 69.2954C370.536 70.0182 371.375 70.5141 372.328 70.783C373.304 71.0582 374.283 71.0752 375.266 70.834C376.248 70.5928 377.128 70.087 377.906 69.3167C378.712 68.5308 379.297 67.5175 379.66 66.2769Z" fill="url(#paint19_linear_6000_105291)"/>
<path d="M389.215 68.699C389.921 66.9518 390.911 65.5466 392.185 64.4833C393.48 63.4284 394.909 62.7789 396.472 62.5349C398.064 62.2782 399.633 62.4505 401.177 63.0519C402.571 63.5947 403.671 64.3403 404.48 65.2885C405.318 66.224 405.886 67.2129 406.184 68.255L407.205 65.7289L410.904 67.1696L403.873 84.5681L400.174 83.1274L401.22 80.5381C400.266 81.1169 399.143 81.4711 397.85 81.6009C396.556 81.7306 395.223 81.5282 393.851 80.9936C392.329 80.4006 391.088 79.4788 390.129 78.2282C389.179 76.9566 388.605 75.4905 388.407 73.8298C388.24 72.1565 388.509 70.4462 389.215 68.699ZM403.696 74.4124C404.181 73.2125 404.345 72.0702 404.187 70.9856C404.051 69.9094 403.67 68.981 403.042 68.2006C402.414 67.4201 401.629 66.8461 400.685 66.4786C399.742 66.1111 398.769 66.0002 397.767 66.1459C396.773 66.2706 395.841 66.6748 394.969 67.3585C394.127 68.0295 393.463 68.9649 392.978 70.1648C392.493 71.3647 392.315 72.5133 392.442 73.6106C392.591 74.7162 392.975 75.6698 393.594 76.4713C394.243 77.2602 395.029 77.8342 395.951 78.1933C396.894 78.5608 397.867 78.6717 398.869 78.526C399.871 78.3802 400.797 77.9613 401.648 77.2693C402.528 76.5646 403.211 75.6122 403.696 74.4124Z" fill="url(#paint20_linear_6000_105291)"/>
<path d="M433.532 77.6495L410.467 97.0476L406.821 95.2425L414.458 88.827L416.199 69.0678L420.123 71.0105L418.367 86.1208L429.886 75.8444L433.532 77.6495Z" fill="url(#paint21_linear_6000_105291)"/>
<path d="M448.485 89.1835C449.555 88.7986 450.73 88.6874 452.009 88.8499C453.32 89.0062 454.569 89.4763 455.755 90.2602C457.152 91.1832 458.19 92.3465 458.869 93.75C459.547 95.1536 459.793 96.681 459.607 98.3322C459.433 99.9646 458.812 101.561 457.743 103.12C456.674 104.68 455.389 105.864 453.888 106.675C452.4 107.466 450.844 107.83 449.219 107.767C447.626 107.697 446.141 107.207 444.763 106.297C443.538 105.487 442.608 104.532 441.973 103.43C441.357 102.341 441.023 101.246 440.97 100.147L439.424 102.402L436.152 100.24L450.448 79.3837L453.72 81.5457L448.485 89.1835ZM454.413 100.92C455.147 99.8491 455.548 98.7767 455.617 97.7029C455.718 96.6229 455.53 95.6391 455.054 94.7514C454.61 93.8576 453.967 93.1325 453.125 92.5762C452.302 92.0325 451.375 91.7208 450.346 91.6411C449.335 91.574 448.33 91.7833 447.329 92.269C446.348 92.7673 445.491 93.552 444.756 94.623C444.022 95.694 443.598 96.7788 443.485 97.8775C443.403 98.9701 443.584 99.9633 444.028 100.857C444.491 101.764 445.135 102.489 445.958 103.032C446.8 103.589 447.726 103.9 448.737 103.967C449.779 104.028 450.798 103.8 451.792 103.283C452.805 102.779 453.679 101.991 454.413 100.92Z" fill="url(#paint22_linear_6000_105291)"/>
<path d="M481.735 109.63L455.017 123.807L451.841 121.287L460.686 116.6L466.639 97.6475L470.057 100.36L465.09 114.765L478.56 107.11L481.735 109.63Z" fill="url(#paint23_linear_6000_105291)"/>
<path d="M505.191 131.065C506.177 132.145 506.824 133.294 507.132 134.513C507.472 135.734 507.532 136.868 507.31 137.915L509.371 136.101L512.028 139.009L497.599 151.708C496.294 152.857 494.888 153.608 493.381 153.96C491.858 154.328 490.335 154.254 488.811 153.739C487.303 153.242 485.902 152.285 484.609 150.868C482.884 148.98 481.907 147.011 481.678 144.962C481.432 142.928 482.004 141.146 483.396 139.617L486.007 142.475C485.468 143.344 485.299 144.33 485.499 145.431C485.698 146.564 486.251 147.628 487.16 148.623C488.222 149.787 489.438 150.405 490.806 150.478C492.19 150.569 493.568 150.009 494.943 148.8L497.313 146.713C496.197 146.814 495.021 146.647 493.788 146.212C492.586 145.778 491.501 145.031 490.531 143.968C489.422 142.754 488.715 141.369 488.409 139.813C488.136 138.259 488.288 136.695 488.866 135.123C489.476 133.551 490.494 132.139 491.919 130.884C493.345 129.629 494.87 128.805 496.492 128.41C498.131 128.033 499.705 128.077 501.215 128.543C502.757 129.011 504.082 129.851 505.191 131.065ZM502.286 142.337C503.265 141.475 503.93 140.524 504.282 139.485C504.649 138.462 504.729 137.464 504.522 136.49C504.315 135.517 503.872 134.659 503.195 133.917C502.517 133.176 501.697 132.65 500.734 132.342C499.788 132.019 498.769 131.972 497.678 132.203C496.62 132.435 495.601 132.981 494.622 133.843C493.643 134.705 492.961 135.655 492.577 136.693C492.208 137.747 492.118 138.769 492.308 139.757C492.531 140.748 492.974 141.605 493.636 142.33C494.313 143.072 495.134 143.597 496.097 143.906C497.06 144.214 498.079 144.244 499.155 143.997C500.263 143.752 501.307 143.198 502.286 142.337Z" fill="url(#paint24_linear_6000_105291)"/>
<path d="M520.262 163.566C519.69 163.987 519.146 164.331 518.629 164.598L509.888 153.157C508.739 154.144 508.1 155.309 507.971 156.649C507.842 157.99 508.22 159.24 509.106 160.4C510.379 162.066 511.99 162.721 513.937 162.363L516.491 165.706C514.742 166.286 512.959 166.311 511.141 165.781C509.355 165.255 507.791 164.114 506.448 162.356C505.355 160.925 504.695 159.401 504.469 157.784C504.275 156.171 504.52 154.604 505.203 153.082C505.918 151.565 507.06 150.229 508.629 149.074C510.197 147.919 511.808 147.214 513.459 146.961C515.143 146.712 516.737 146.911 518.242 147.559C519.76 148.225 521.079 149.291 522.2 150.759C523.28 152.172 523.928 153.662 524.145 155.229C524.362 156.797 524.133 158.309 523.46 159.768C522.805 161.213 521.739 162.479 520.262 163.566ZM518.788 159.598C519.937 158.724 520.558 157.63 520.65 156.316C520.742 155.003 520.339 153.757 519.439 152.58C518.622 151.511 517.573 150.854 516.29 150.609C515.026 150.351 513.748 150.584 512.456 151.309L518.788 159.598Z" fill="url(#paint25_linear_6000_105291)"/>
<path d="M536.85 171.345C537.636 172.598 538.073 173.877 538.159 175.181C538.258 176.504 537.962 177.76 537.272 178.949C536.582 180.138 535.5 181.177 534.027 182.068L524.45 187.857L522.4 184.589L531.475 179.102C532.929 178.223 533.815 177.196 534.133 176.019C534.472 174.83 534.254 173.619 533.479 172.385C532.705 171.151 531.695 170.405 530.45 170.147C529.236 169.897 527.903 170.211 526.449 171.09L517.374 176.576L515.305 173.279L531.54 163.464L533.609 166.761L531.753 167.883C532.759 168.019 533.709 168.389 534.603 168.993C535.508 169.616 536.257 170.4 536.85 171.345Z" fill="url(#paint26_linear_6000_105291)"/>
<path d="M544.52 204.108C543.879 204.419 543.279 204.66 542.721 204.83L536.258 192.013C534.945 192.778 534.1 193.808 533.723 195.103C533.346 196.398 533.486 197.695 534.141 198.993C535.082 200.861 536.543 201.793 538.524 201.791L540.413 205.535C538.586 205.792 536.828 205.496 535.139 204.649C533.482 203.812 532.156 202.409 531.163 200.44C530.355 198.837 529.99 197.22 530.069 195.59C530.178 193.97 530.711 192.473 531.665 191.099C532.651 189.736 534.022 188.627 535.78 187.773C537.537 186.919 539.251 186.515 540.923 186.562C542.625 186.619 544.155 187.101 545.513 188.008C546.881 188.935 547.98 190.22 548.809 191.864C549.608 193.448 549.967 195.029 549.889 196.609C549.81 198.188 549.304 199.635 548.37 200.948C547.457 202.251 546.173 203.304 544.52 204.108ZM543.809 199.943C545.101 199.289 545.915 198.325 546.25 197.05C546.586 195.775 546.421 194.478 545.755 193.159C545.151 191.962 544.242 191.128 543.026 190.657C541.831 190.176 540.531 190.176 539.126 190.657L543.809 199.943Z" fill="url(#paint27_linear_6000_105291)"/>
<path d="M553.958 209.722C555.074 209.877 556.06 210.282 556.915 210.937C557.8 211.605 558.496 212.534 559.004 213.725L555.237 215.272L554.849 214.364C554.253 212.964 553.437 212.047 552.401 211.613C551.375 211.2 549.968 211.361 548.18 212.096L538.923 215.899L537.4 212.327L554.989 205.1L556.512 208.672L553.958 209.722Z" fill="url(#paint28_linear_6000_105291)"/>
<path d="M551.976 221.223C553.799 220.65 555.534 220.509 557.179 220.8C558.832 221.112 560.25 221.784 561.434 222.815C562.647 223.86 563.507 225.159 564.014 226.712C564.472 228.114 564.584 229.422 564.35 230.637C564.146 231.866 563.728 232.925 563.098 233.813L565.734 232.984L566.948 236.704L548.79 242.415L547.576 238.695L550.279 237.845C549.218 237.489 548.226 236.862 547.302 235.963C546.379 235.064 545.693 233.925 545.242 232.544C544.742 231.013 544.68 229.487 545.056 227.966C545.454 226.438 546.243 225.072 547.425 223.868C548.635 222.678 550.153 221.797 551.976 221.223ZM556.672 235.834C557.924 235.44 558.927 234.84 559.681 234.032C560.442 233.246 560.93 232.367 561.146 231.395C561.362 230.424 561.315 229.463 561.005 228.514C560.695 227.565 560.165 226.757 559.414 226.09C558.685 225.415 557.775 224.964 556.684 224.737C555.621 224.524 554.464 224.615 553.211 225.008C551.959 225.402 550.941 225.996 550.159 226.789C549.383 227.604 548.876 228.5 548.638 229.479C548.429 230.472 548.476 231.432 548.779 232.36C549.089 233.308 549.619 234.117 550.37 234.784C551.121 235.452 552.038 235.889 553.123 236.094C554.236 236.315 555.419 236.228 556.672 235.834Z" fill="url(#paint29_linear_6000_105291)"/>
<path d="M566.912 248.462L556.674 250.982C555.98 251.152 555.516 251.43 555.281 251.815C555.075 252.216 555.07 252.801 555.266 253.57L555.855 255.876L552.666 256.661L551.909 253.695C551.477 252.004 551.549 250.609 552.124 249.51C552.7 248.411 553.894 247.638 555.706 247.192L565.944 244.673L565.397 242.531L568.518 241.762L569.065 243.904L573.664 242.772L574.632 246.562L570.033 247.694L571.161 252.109L568.039 252.877L566.912 248.462Z" fill="url(#paint30_linear_6000_105291)"/>
<path d="M574.995 257.594C574.851 256.906 574.966 256.281 575.343 255.719C575.719 255.157 576.258 254.805 576.958 254.663C577.658 254.521 578.295 254.635 578.867 255.004C579.44 255.374 579.798 255.902 579.943 256.59C580.083 257.255 579.965 257.869 579.589 258.431C579.212 258.993 578.674 259.345 577.973 259.487C577.273 259.629 576.637 259.515 576.064 259.146C575.492 258.776 575.135 258.259 574.995 257.594ZM572.914 259.958L554.241 263.746L553.443 259.953L572.115 256.166L572.914 259.958Z" fill="url(#paint31_linear_6000_105291)"/>
<path d="M576.18 276.56C576.37 278.02 576.231 279.362 575.763 280.585C575.297 281.831 574.5 282.855 573.372 283.659C572.244 284.463 570.822 284.972 569.106 285.187L557.95 286.588L557.454 282.78L568.026 281.453C569.72 281.241 570.958 280.663 571.743 279.719C572.55 278.773 572.86 277.582 572.672 276.144C572.485 274.706 571.878 273.618 570.852 272.879C569.851 272.16 568.504 271.907 566.811 272.119L556.239 273.446L555.739 269.605L574.651 267.231L575.152 271.072L572.989 271.344C573.849 271.875 574.559 272.596 575.12 273.508C575.684 274.442 576.037 275.459 576.18 276.56Z" fill="url(#paint32_linear_6000_105291)"/>
<path d="M578.454 298.757C578.505 300.205 578.25 301.494 577.69 302.624C577.154 303.775 576.459 304.683 575.605 305.346L578.372 305.252L578.51 309.156L559.143 309.817C557.391 309.877 555.822 309.568 554.436 308.89C553.027 308.213 551.906 307.197 551.074 305.843C550.242 304.512 549.792 302.896 549.725 300.995C549.635 298.46 550.172 296.334 551.334 294.617C552.474 292.902 554.077 291.895 556.144 291.598L556.28 295.434C555.299 295.762 554.526 296.412 553.96 297.383C553.372 298.378 553.101 299.542 553.149 300.878C553.204 302.44 553.732 303.679 554.734 304.597C555.737 305.537 557.161 305.976 559.005 305.913L562.187 305.804C561.265 305.178 560.472 304.31 559.81 303.2C559.171 302.111 558.826 300.854 558.776 299.428C558.718 297.799 559.08 296.291 559.862 294.904C560.668 293.54 561.806 292.436 563.277 291.593C564.771 290.771 566.475 290.328 568.389 290.263C570.302 290.197 572.01 290.524 573.513 291.243C575.017 291.985 576.196 293.01 577.05 294.318C577.928 295.648 578.396 297.127 578.454 298.757ZM568.862 305.576C570.176 305.532 571.307 305.221 572.256 304.645C573.206 304.091 573.92 303.376 574.396 302.498C574.873 301.621 575.094 300.684 575.059 299.689C575.023 298.693 574.737 297.773 574.199 296.931C573.685 296.087 572.934 295.41 571.946 294.9C570.982 294.412 569.843 294.19 568.529 294.235C567.215 294.28 566.072 294.579 565.099 295.134C564.126 295.711 563.39 296.438 562.891 297.316C562.415 298.216 562.194 299.153 562.228 300.126C562.264 301.122 562.55 302.041 563.088 302.884C563.625 303.727 564.388 304.392 565.374 304.88C566.385 305.389 567.547 305.621 568.862 305.576Z" fill="url(#paint33_linear_6000_105291)"/>
<path d="M569.255 325.55C571.16 325.738 572.808 326.288 574.198 327.199C575.586 328.133 576.614 329.304 577.281 330.713C577.969 332.146 578.23 333.674 578.064 335.297C577.914 336.761 577.485 338.005 576.777 339.028C576.09 340.075 575.277 340.883 574.338 341.45L577.092 341.722L576.694 345.609L557.723 343.736L558.121 339.849L560.945 340.127C560.116 339.385 559.461 338.422 558.98 337.236C558.499 336.051 558.332 334.737 558.48 333.295C558.644 331.695 559.207 330.271 560.169 329.023C561.155 327.777 562.434 326.834 564.007 326.192C565.6 325.576 567.35 325.362 569.255 325.55ZM567.624 340.787C568.932 340.916 570.096 340.758 571.116 340.312C572.133 339.889 572.938 339.274 573.531 338.468C574.123 337.662 574.47 336.763 574.572 335.771C574.674 334.78 574.516 333.831 574.099 332.925C573.704 332.021 573.053 331.251 572.144 330.615C571.256 330.004 570.158 329.634 568.85 329.504C567.541 329.375 566.367 329.521 565.327 329.942C564.284 330.385 563.455 331.009 562.84 331.813C562.245 332.642 561.898 333.541 561.798 334.51C561.697 335.501 561.855 336.45 562.272 337.356C562.689 338.262 563.353 339.022 564.264 339.636C565.196 340.274 566.316 340.658 567.624 340.787Z" fill="url(#paint34_linear_6000_105291)"/>
<path d="M565.154 372.43C564.643 373.617 563.737 374.519 562.436 375.135C561.135 375.751 559.787 375.904 558.392 375.594C557.199 375.328 556.191 374.779 555.366 373.945C554.559 373.139 554.006 372.099 553.709 370.825C553.434 369.556 553.472 368.16 553.824 366.636L555.95 357.426L579.405 362.643L577.379 371.423C577.017 372.991 576.436 374.278 575.636 375.284C574.836 376.291 573.909 376.978 572.853 377.348C571.821 377.722 570.742 377.784 569.617 377.533C568.267 377.233 567.224 376.629 566.487 375.722C565.75 374.815 565.306 373.718 565.154 372.43ZM568.679 364.228L567.601 368.899C567.315 370.136 567.375 371.16 567.779 371.969C568.201 372.806 568.952 373.345 570.032 373.585C571.089 373.82 571.992 373.65 572.74 373.073C573.506 372.523 574.031 371.63 574.317 370.393L575.395 365.722L568.679 364.228ZM557.039 367.003C556.744 368.284 556.827 369.359 557.288 370.228C557.75 371.097 558.543 371.657 559.668 371.907C560.816 372.162 561.816 371.978 562.67 371.355C563.523 370.732 564.098 369.78 564.393 368.499L565.54 363.53L558.217 361.901L557.039 367.003Z" fill="url(#paint35_linear_6000_105291)"/>
<path d="M555.062 398.835C554.381 398.619 553.781 398.38 553.261 398.119L557.758 384.516C556.274 384.162 554.937 384.319 553.746 384.987C552.555 385.656 551.732 386.679 551.276 388.058C550.621 390.039 551.003 391.709 552.422 393.066L551.108 397.04C549.618 395.97 548.571 394.553 547.965 392.789C547.375 391.053 547.425 389.14 548.116 387.051C548.679 385.349 549.568 383.942 550.785 382.83C552.016 381.746 553.462 381.04 555.123 380.712C556.799 380.412 558.569 380.56 560.434 381.154C562.299 381.748 563.813 382.635 564.975 383.815C566.152 385.023 566.904 386.418 567.23 387.998C567.55 389.6 567.421 391.273 566.844 393.018C566.289 394.698 565.421 396.076 564.24 397.152C563.06 398.229 561.668 398.916 560.066 399.215C558.485 399.521 556.817 399.395 555.062 398.835ZM557.518 395.368C558.907 395.787 560.176 395.655 561.323 394.973C562.47 394.291 563.275 393.25 563.738 391.849C564.158 390.578 564.101 389.358 563.566 388.187C563.053 387.024 562.123 386.132 560.776 385.513L557.518 395.368Z" fill="url(#paint36_linear_6000_105291)"/>
<path d="M541.283 406.094C541.857 404.734 542.619 403.609 543.568 402.721C544.53 401.861 545.569 401.291 546.687 401.01C547.825 400.738 548.936 400.797 550.02 401.189L548.457 404.892C547.685 404.652 546.91 404.741 546.134 405.161C545.37 405.61 544.785 406.316 544.379 407.279C543.955 408.283 543.82 409.135 543.975 409.835C544.141 410.565 544.534 411.055 545.152 411.307C545.812 411.575 546.435 411.461 547.02 410.963C547.595 410.486 548.357 409.656 549.306 408.473C550.216 407.323 551.013 406.41 551.698 405.732C552.384 405.055 553.206 404.556 554.165 404.235C555.116 403.935 556.167 404.019 557.318 404.487C558.255 404.869 558.993 405.487 559.531 406.343C560.09 407.208 560.381 408.233 560.405 409.42C560.42 410.627 560.15 411.89 559.594 413.208C558.764 415.175 557.586 416.546 556.06 417.323C554.546 418.129 552.897 418.219 551.114 417.592L552.624 414.014C553.439 414.272 554.2 414.214 554.907 413.839C555.615 413.465 556.171 412.797 556.577 411.834C556.975 410.893 557.098 410.097 556.948 409.448C556.797 408.798 556.424 408.352 555.827 408.11C555.358 407.919 554.893 407.926 554.432 408.131C553.971 408.335 553.543 408.64 553.148 409.043C552.775 409.455 552.251 410.075 551.576 410.904C550.706 412.021 549.922 412.903 549.224 413.551C548.538 414.228 547.731 414.721 546.802 415.03C545.873 415.338 544.839 415.273 543.701 414.835C542.699 414.428 541.918 413.792 541.359 412.927C540.8 412.062 540.509 411.037 540.485 409.85C540.452 408.685 540.718 407.433 541.283 406.094Z" fill="url(#paint37_linear_6000_105291)"/>
<path d="M549.848 427.896C550.315 428.877 550.547 430.006 550.544 431.282C550.541 432.558 550.202 433.829 549.529 435.093C548.759 436.538 547.69 437.663 546.324 438.469C544.967 439.306 543.452 439.73 541.78 439.74C540.109 439.751 538.424 439.32 536.728 438.449C535.031 437.578 533.69 436.455 532.704 435.08C531.739 433.715 531.199 432.237 531.084 430.644C530.979 429.082 531.312 427.579 532.081 426.134C532.755 424.87 533.609 423.877 534.644 423.156C535.7 422.446 536.781 421.979 537.89 421.756L527.403 416.371L529.231 412.94L554.16 425.74L552.332 429.172L549.848 427.896ZM538.588 434.957C539.753 435.556 540.883 435.829 541.978 435.778C543.082 435.757 544.058 435.466 544.904 434.904C545.76 434.372 546.423 433.665 546.894 432.782C547.354 431.919 547.567 430.981 547.534 429.967C547.491 428.973 547.168 428.016 546.566 427.093C545.954 426.191 545.065 425.44 543.9 424.842C542.734 424.244 541.589 423.95 540.465 423.96C539.349 424.001 538.364 424.287 537.508 424.818C536.641 425.37 535.978 426.077 535.518 426.94C535.047 427.823 534.834 428.762 534.877 429.755C534.931 430.779 535.274 431.748 535.907 432.661C536.529 433.594 537.423 434.359 538.588 434.957Z" fill="url(#paint38_linear_6000_105291)"/>
<path d="M520.901 445.654C521.883 444.174 523.11 443.053 524.58 442.29C526.069 441.54 527.659 441.22 529.349 441.328C531.059 441.449 532.735 442.035 534.378 443.086C536.001 444.125 537.208 445.397 537.998 446.903C538.788 448.409 539.118 449.985 538.989 451.632C538.859 453.28 538.296 454.853 537.301 456.351C536.306 457.85 535.067 458.99 533.584 459.772C532.102 460.553 530.499 460.893 528.777 460.791C527.055 460.689 525.382 460.119 523.758 459.08C522.135 458.041 520.935 456.759 520.157 455.234C519.38 453.71 519.059 452.099 519.194 450.401C519.337 448.735 519.906 447.153 520.901 445.654ZM523.771 447.49C523.216 448.325 522.903 449.233 522.83 450.214C522.745 451.213 522.956 452.2 523.466 453.175C523.975 454.15 524.81 455.008 525.969 455.75C527.129 456.492 528.25 456.899 529.332 456.969C530.433 457.052 531.426 456.863 532.311 456.402C533.195 455.941 533.915 455.293 534.469 454.458C535.023 453.623 535.337 452.715 535.41 451.735C535.47 450.773 535.233 449.824 534.698 448.887C534.183 447.963 533.346 447.129 532.186 446.387C530.466 445.287 528.849 444.86 527.335 445.108C525.828 445.387 524.64 446.181 523.771 447.49Z" fill="url(#paint39_linear_6000_105291)"/>
<path d="M515.679 470.027L502.771 471.094L506.046 466.967L516.853 466.447L510.383 461.5L512.807 458.444L533.009 473.892L530.585 476.947L518.846 467.971L521.173 478.362L517.813 482.596L515.679 470.027Z" fill="url(#paint40_linear_6000_105291)"/>
<path d="M496.355 493.031C495.83 492.555 495.387 492.092 495.025 491.641L504.907 481.132C503.71 480.202 502.428 479.795 501.061 479.913C499.695 480.031 498.511 480.622 497.509 481.687C496.07 483.218 495.705 484.891 496.416 486.706L493.529 489.777C492.632 488.193 492.284 486.476 492.487 484.625C492.69 482.806 493.551 481.089 495.068 479.475C496.305 478.16 497.712 477.248 499.291 476.737C500.872 476.258 502.486 476.211 504.134 476.595C505.784 477.011 507.329 477.872 508.77 479.178C510.211 480.483 511.208 481.911 511.76 483.46C512.315 485.04 512.403 486.616 512.026 488.185C511.634 489.771 510.804 491.238 509.536 492.586C508.316 493.884 506.94 494.779 505.409 495.272C503.879 495.765 502.322 495.818 500.739 495.432C499.173 495.06 497.711 494.26 496.355 493.031ZM500.064 490.89C501.147 491.842 502.355 492.243 503.688 492.094C505.021 491.946 506.196 491.331 507.213 490.249C508.136 489.267 508.604 488.135 508.617 486.852C508.647 485.585 508.182 484.393 507.223 483.277L500.064 490.89Z" fill="url(#paint41_linear_6000_105291)"/>
<path d="M480.005 526.437L464.613 508.296L467.644 505.818L474.377 513.753L483.071 506.643L476.338 498.708L479.37 496.23L494.762 514.371L491.731 516.849L485.131 509.071L476.436 516.18L483.036 523.959L480.005 526.437Z" fill="url(#paint42_linear_6000_105291)"/>
<path d="M452.743 516.737C454.228 515.74 455.799 515.166 457.454 515.015C459.123 514.883 460.717 515.185 462.235 515.922C463.767 516.677 465.086 517.849 466.193 519.438C467.287 521.009 467.904 522.638 468.046 524.326C468.188 526.014 467.877 527.594 467.114 529.067C466.35 530.539 465.216 531.78 463.712 532.79C462.207 533.799 460.618 534.386 458.943 534.55C457.269 534.713 455.656 534.424 454.105 533.682C452.554 532.939 451.232 531.783 450.139 530.212C449.045 528.642 448.437 527.006 448.314 525.305C448.192 523.604 448.525 521.996 449.313 520.479C450.095 518.994 451.238 517.747 452.743 516.737ZM454.676 519.513C453.838 520.076 453.194 520.796 452.744 521.674C452.275 522.565 452.085 523.557 452.174 524.649C452.264 525.741 452.7 526.848 453.481 527.969C454.262 529.091 455.138 529.888 456.11 530.361C457.095 530.852 458.086 531.051 459.083 530.958C460.08 530.865 460.998 530.537 461.836 529.975C462.674 529.413 463.318 528.692 463.768 527.814C464.199 526.949 464.351 525.983 464.223 524.916C464.108 523.868 463.66 522.784 462.879 521.662C461.721 519.998 460.394 518.996 458.899 518.655C457.398 518.345 455.99 518.631 454.676 519.513Z" fill="url(#paint43_linear_6000_105291)"/>
<path d="M429.414 553.088C428.077 553.755 426.744 554.079 425.413 554.058C424.061 554.047 422.81 553.656 421.659 552.884C420.487 552.122 419.509 550.985 418.724 549.471L413.623 539.632L417.108 537.891L421.942 547.215C422.717 548.709 423.688 549.659 424.857 550.066C426.036 550.493 427.284 550.378 428.6 549.721C429.916 549.063 430.755 548.136 431.118 546.938C431.47 545.771 431.259 544.44 430.485 542.947L425.65 533.622L429.135 531.881L433.97 541.205C434.744 542.699 435.716 543.649 436.884 544.056C438.064 544.484 439.311 544.368 440.627 543.711C441.943 543.054 442.782 542.126 443.145 540.928C443.497 539.761 443.287 538.431 442.512 536.937L437.678 527.612L441.193 525.856L449.842 542.537L446.326 544.294L445.338 542.387C445.118 543.36 444.665 544.26 443.98 545.085C443.295 545.91 442.448 546.575 441.441 547.078C440.084 547.756 438.725 548.08 437.362 548.049C436 548.018 434.754 547.611 433.624 546.829C433.633 548.095 433.245 549.293 432.458 550.423C431.683 551.573 430.668 552.461 429.414 553.088Z" fill="url(#paint44_linear_6000_105291)"/>
<path d="M394.854 557.754C394.6 557.098 394.414 556.489 394.295 555.927L407.916 550.853C407.268 549.496 406.306 548.57 405.029 548.077C403.753 547.583 402.424 547.594 401.044 548.108C399.06 548.847 397.973 550.185 397.783 552.121L393.804 553.603C393.721 551.793 394.191 550.104 395.213 548.536C396.222 546.998 397.773 545.839 399.865 545.059C401.569 544.424 403.244 544.224 404.889 544.459C406.521 544.723 407.987 545.388 409.287 546.454C410.574 547.549 411.566 548.996 412.261 550.796C412.957 552.596 413.2 554.31 412.991 555.938C412.768 557.596 412.131 559.044 411.08 560.284C410.008 561.531 408.598 562.48 406.851 563.131C405.169 563.758 403.531 563.956 401.937 563.726C400.343 563.497 398.926 562.862 397.685 561.822C396.452 560.804 395.508 559.448 394.854 557.754ZM399.146 557.463C399.683 558.789 400.581 559.677 401.841 560.128C403.102 560.58 404.433 560.544 405.834 560.022C407.107 559.547 408.041 558.739 408.636 557.597C409.239 556.476 409.364 555.206 409.013 553.787L399.146 557.463Z" fill="url(#paint45_linear_6000_105291)"/>
<path d="M380.323 573.527L378.58 566.811L370.532 568.824L369.738 565.763L377.786 563.75L375.966 556.738L366.912 559.002L366.118 555.941L378.994 552.72L384.94 575.632L372.063 578.853L371.269 575.791L380.323 573.527Z" fill="url(#paint46_linear_6000_105291)"/>
<path d="M353.997 577.882C352.517 578.119 351.146 578.029 349.885 577.611C348.601 577.198 347.53 576.451 346.673 575.372C345.816 574.293 345.248 572.916 344.969 571.239L343.159 560.343L347.018 559.725L348.734 570.051C349.009 571.705 349.64 572.901 350.627 573.638C351.618 574.397 352.842 574.66 354.299 574.426C355.757 574.193 356.843 573.56 357.56 572.527C358.258 571.521 358.469 570.19 358.194 568.536L356.479 558.21L360.372 557.587L363.441 576.06L359.548 576.684L359.197 574.571C358.686 575.434 357.976 576.155 357.067 576.737C356.136 577.322 355.113 577.704 353.997 577.882Z" fill="url(#paint47_linear_6000_105291)"/>
<path d="M321.051 572.406C320.998 571.706 320.997 571.07 321.047 570.498L335.576 569.451C335.35 567.969 334.696 566.812 333.616 565.982C332.536 565.151 331.26 564.789 329.788 564.895C327.671 565.048 326.241 566.025 325.497 567.827L321.252 568.133C321.698 566.375 322.64 564.888 324.075 563.672C325.49 562.48 327.313 561.804 329.545 561.643C331.362 561.512 333.025 561.789 334.534 562.475C336.021 563.186 337.233 564.234 338.169 565.62C339.084 567.03 339.614 568.695 339.757 570.615C339.901 572.534 339.636 574.245 338.962 575.747C338.266 577.273 337.235 578.483 335.867 579.376C334.477 580.271 332.85 580.786 330.986 580.92C329.192 581.05 327.564 580.781 326.103 580.114C324.642 579.447 323.468 578.442 322.581 577.098C321.696 575.777 321.186 574.213 321.051 572.406ZM325.249 573.329C325.378 574.751 325.981 575.854 327.058 576.639C328.134 577.424 329.42 577.763 330.916 577.656C332.273 577.558 333.403 577.045 334.305 576.117C335.209 575.211 335.699 574.029 335.775 572.571L325.249 573.329Z" fill="url(#paint48_linear_6000_105291)"/>
<path d="M311.023 578.933C310.454 579.889 309.698 580.631 308.756 581.159C307.792 581.71 306.652 581.99 305.337 582L305.306 577.992L306.309 577.984C307.855 577.972 309.028 577.578 309.829 576.802C310.608 576.026 310.989 574.687 310.974 572.785L310.897 562.934L314.842 562.904L314.989 581.621L311.044 581.651L311.023 578.933Z" fill="url(#paint49_linear_6000_105291)"/>
<path d="M291.433 581.691C289.961 581.579 288.684 581.187 287.604 580.514C286.498 579.862 285.657 579.083 285.08 578.176L284.867 580.886L280.899 580.585L282.393 561.618C282.528 559.902 283.016 558.405 283.857 557.129C284.7 555.83 285.853 554.85 287.316 554.189C288.757 553.526 290.443 553.268 292.375 553.414C294.951 553.61 297.043 554.37 298.651 555.696C300.261 557 301.1 558.676 301.17 560.726L297.272 560.43C297.049 559.436 296.478 558.609 295.558 557.949C294.617 557.264 293.468 556.87 292.111 556.767C290.524 556.647 289.21 557.024 288.169 557.899C287.106 558.773 286.503 560.112 286.361 561.919L286.115 565.035C286.852 564.205 287.819 563.529 289.017 563.006C290.19 562.505 291.501 562.309 292.95 562.419C294.606 562.544 296.092 563.066 297.408 563.984C298.7 564.922 299.69 566.156 300.38 567.685C301.044 569.234 301.303 570.946 301.155 572.82C301.008 574.694 300.486 576.324 299.59 577.71C298.671 579.094 297.502 580.13 296.083 580.817C294.639 581.525 293.089 581.816 291.433 581.691ZM285.6 571.572C285.499 572.859 285.687 573.997 286.165 574.988C286.619 575.976 287.263 576.752 288.098 577.315C288.933 577.878 289.857 578.198 290.869 578.275C291.881 578.352 292.843 578.175 293.757 577.744C294.668 577.336 295.437 576.679 296.064 575.773C296.666 574.887 297.017 573.801 297.119 572.514C297.22 571.227 297.044 570.078 296.592 569.067C296.116 568.054 295.462 567.255 294.629 566.669C293.771 566.104 292.847 565.784 291.858 565.709C290.846 565.632 289.884 565.809 288.97 566.24C288.057 566.67 287.299 567.339 286.695 568.247C286.067 569.177 285.702 570.285 285.6 571.572Z" fill="url(#paint50_linear_6000_105291)"/>
<path d="M255.829 577.194L271.983 551.945L276.011 552.606L270.66 560.959L274.977 580.334L270.642 579.623L267.746 564.683L259.856 577.854L255.829 577.194Z" fill="url(#paint51_linear_6000_105291)"/>
<path d="M225.785 567.688C226.128 566.535 226.727 565.528 227.584 564.664C228.441 563.801 229.576 563.217 230.987 562.913C232.393 562.631 234.048 562.763 235.953 563.308L240.138 564.505L242.869 555.308L246.656 556.392L239.927 579.058L231.954 576.777C230.182 576.27 228.777 575.538 227.74 574.581C226.674 573.639 225.994 572.571 225.699 571.378C225.382 570.179 225.411 568.949 225.785 567.688ZM235.052 566.341C233.612 565.929 232.445 565.937 231.549 566.365C230.646 566.814 230.021 567.626 229.672 568.8C228.937 571.279 229.997 572.927 232.854 573.744L237.04 574.942L239.238 567.538L235.052 566.341Z" fill="url(#paint52_linear_6000_105291)"/>
<path d="M214.064 572.865L222.517 549.136L226.24 550.414L217.787 574.143L214.064 572.865Z" fill="url(#paint53_linear_6000_105291)"/>
<path d="M214.328 556.764C213.556 558.484 212.513 559.852 211.2 560.868C209.866 561.874 208.413 562.471 206.842 562.658C205.24 562.856 203.68 562.626 202.16 561.968C200.787 561.375 199.716 560.589 198.944 559.612C198.142 558.647 197.612 557.638 197.353 556.585L196.237 559.072L192.596 557.497L200.284 540.368L203.926 541.944L202.782 544.493C203.757 543.949 204.893 543.637 206.19 543.554C207.488 543.472 208.812 543.723 210.163 544.308C211.662 544.956 212.867 545.923 213.777 547.208C214.678 548.513 215.196 549.999 215.33 551.666C215.434 553.344 215.1 555.044 214.328 556.764ZM200.074 550.523C199.544 551.705 199.337 552.84 199.453 553.93C199.548 555.01 199.894 555.952 200.492 556.755C201.089 557.558 201.852 558.16 202.781 558.562C203.71 558.964 204.678 559.11 205.685 559.002C206.682 558.913 207.63 558.544 208.527 557.892C209.394 557.253 210.093 556.342 210.623 555.161C211.153 553.98 211.376 552.839 211.29 551.737C211.183 550.627 210.836 549.66 210.248 548.836C209.629 548.024 208.866 547.422 207.958 547.029C207.029 546.627 206.061 546.481 205.055 546.59C204.048 546.699 203.106 547.083 202.23 547.744C201.323 548.416 200.605 549.342 200.074 550.523Z" fill="url(#paint54_linear_6000_105291)"/>
<path d="M177.236 550.352C175.925 549.636 174.908 548.73 174.182 547.634C173.437 546.527 173.069 545.29 173.079 543.921C173.089 542.553 173.515 541.127 174.356 539.643L179.824 529.995L183.241 531.862L178.059 541.005C177.229 542.469 176.968 543.791 177.276 544.97C177.574 546.169 178.367 547.121 179.657 547.826C180.947 548.531 182.2 548.696 183.415 548.323C184.598 547.959 185.605 547.045 186.435 545.58L191.617 536.437L195.064 538.32L185.793 554.677L182.346 552.793L183.406 550.923C182.46 551.288 181.447 551.421 180.367 551.324C179.267 551.215 178.223 550.891 177.236 550.352Z" fill="url(#paint55_linear_6000_105291)"/>
<defs>
<radialGradient id="paint0_radial_6000_105291" cx="0" cy="0" r="1" gradientUnits="userSpaceOnUse" gradientTransform="translate(313 348.341) rotate(-84.0102) scale(215.518 221.9)">
<stop offset="0.145394" stop-color="#3465AF"/>
<stop offset="0.797009" stop-color="#139EEC"/>
</radialGradient>
<linearGradient id="paint1_linear_6000_105291" x1="47" y1="312.5" x2="580" y2="312.5" gradientUnits="userSpaceOnUse">
<stop stop-color="#2E599A"/>
<stop offset="1" stop-color="#0B8DFF"/>
</linearGradient>
<linearGradient id="paint2_linear_6000_105291" x1="47" y1="312.5" x2="580" y2="312.5" gradientUnits="userSpaceOnUse">
<stop stop-color="#2E599A"/>
<stop offset="1" stop-color="#0B8DFF"/>
</linearGradient>
<linearGradient id="paint3_linear_6000_105291" x1="47" y1="312.5" x2="580" y2="312.5" gradientUnits="userSpaceOnUse">
<stop stop-color="#2E599A"/>
<stop offset="1" stop-color="#0B8DFF"/>
</linearGradient>
<linearGradient id="paint4_linear_6000_105291" x1="47" y1="312.5" x2="580" y2="312.5" gradientUnits="userSpaceOnUse">
<stop stop-color="#2E599A"/>
<stop offset="1" stop-color="#0B8DFF"/>
</linearGradient>
<linearGradient id="paint5_linear_6000_105291" x1="47" y1="312.5" x2="580" y2="312.5" gradientUnits="userSpaceOnUse">
<stop stop-color="#2E599A"/>
<stop offset="1" stop-color="#0B8DFF"/>
</linearGradient>
<linearGradient id="paint6_linear_6000_105291" x1="47" y1="312.5" x2="580" y2="312.5" gradientUnits="userSpaceOnUse">
<stop stop-color="#2E599A"/>
<stop offset="1" stop-color="#0B8DFF"/>
</linearGradient>
<linearGradient id="paint7_linear_6000_105291" x1="47" y1="312.5" x2="580" y2="312.5" gradientUnits="userSpaceOnUse">
<stop stop-color="#2E599A"/>
<stop offset="1" stop-color="#0B8DFF"/>
</linearGradient>
<linearGradient id="paint8_linear_6000_105291" x1="47" y1="312.5" x2="580" y2="312.5" gradientUnits="userSpaceOnUse">
<stop stop-color="#2E599A"/>
<stop offset="1" stop-color="#0B8DFF"/>
</linearGradient>
<linearGradient id="paint9_linear_6000_105291" x1="47" y1="312.5" x2="580" y2="312.5" gradientUnits="userSpaceOnUse">
<stop stop-color="#2E599A"/>
<stop offset="1" stop-color="#0B8DFF"/>
</linearGradient>
<linearGradient id="paint10_linear_6000_105291" x1="47" y1="312.5" x2="580" y2="312.5" gradientUnits="userSpaceOnUse">
<stop stop-color="#2E599A"/>
<stop offset="1" stop-color="#0B8DFF"/>
</linearGradient>
<linearGradient id="paint11_linear_6000_105291" x1="47" y1="312.5" x2="580" y2="312.5" gradientUnits="userSpaceOnUse">
<stop stop-color="#2E599A"/>
<stop offset="1" stop-color="#0B8DFF"/>
</linearGradient>
<linearGradient id="paint12_linear_6000_105291" x1="47" y1="312.5" x2="580" y2="312.5" gradientUnits="userSpaceOnUse">
<stop stop-color="#2E599A"/>
<stop offset="1" stop-color="#0B8DFF"/>
</linearGradient>
<linearGradient id="paint13_linear_6000_105291" x1="47" y1="312.5" x2="580" y2="312.5" gradientUnits="userSpaceOnUse">
<stop stop-color="#2E599A"/>
<stop offset="1" stop-color="#0B8DFF"/>
</linearGradient>
<linearGradient id="paint14_linear_6000_105291" x1="47" y1="312.5" x2="580" y2="312.5" gradientUnits="userSpaceOnUse">
<stop stop-color="#2E599A"/>
<stop offset="1" stop-color="#0B8DFF"/>
</linearGradient>
<linearGradient id="paint15_linear_6000_105291" x1="47" y1="312.5" x2="580" y2="312.5" gradientUnits="userSpaceOnUse">
<stop stop-color="#2E599A"/>
<stop offset="1" stop-color="#0B8DFF"/>
</linearGradient>
<linearGradient id="paint16_linear_6000_105291" x1="47" y1="312.5" x2="580" y2="312.5" gradientUnits="userSpaceOnUse">
<stop stop-color="#2E599A"/>
<stop offset="1" stop-color="#0B8DFF"/>
</linearGradient>
<linearGradient id="paint17_linear_6000_105291" x1="47" y1="312.5" x2="580" y2="312.5" gradientUnits="userSpaceOnUse">
<stop stop-color="#2E599A"/>
<stop offset="1" stop-color="#0B8DFF"/>
</linearGradient>
<linearGradient id="paint18_linear_6000_105291" x1="47" y1="312.5" x2="580" y2="312.5" gradientUnits="userSpaceOnUse">
<stop stop-color="#2E599A"/>
<stop offset="1" stop-color="#0B8DFF"/>
</linearGradient>
<linearGradient id="paint19_linear_6000_105291" x1="47" y1="312.5" x2="580" y2="312.5" gradientUnits="userSpaceOnUse">
<stop stop-color="#2E599A"/>
<stop offset="1" stop-color="#0B8DFF"/>
</linearGradient>
<linearGradient id="paint20_linear_6000_105291" x1="47" y1="312.5" x2="580" y2="312.5" gradientUnits="userSpaceOnUse">
<stop stop-color="#2E599A"/>
<stop offset="1" stop-color="#0B8DFF"/>
</linearGradient>
<linearGradient id="paint21_linear_6000_105291" x1="47" y1="312.5" x2="580" y2="312.5" gradientUnits="userSpaceOnUse">
<stop stop-color="#2E599A"/>
<stop offset="1" stop-color="#0B8DFF"/>
</linearGradient>
<linearGradient id="paint22_linear_6000_105291" x1="47" y1="312.5" x2="580" y2="312.5" gradientUnits="userSpaceOnUse">
<stop stop-color="#2E599A"/>
<stop offset="1" stop-color="#0B8DFF"/>
</linearGradient>
<linearGradient id="paint23_linear_6000_105291" x1="47" y1="312.5" x2="580" y2="312.5" gradientUnits="userSpaceOnUse">
<stop stop-color="#2E599A"/>
<stop offset="1" stop-color="#0B8DFF"/>
</linearGradient>
<linearGradient id="paint24_linear_6000_105291" x1="47" y1="312.5" x2="580" y2="312.5" gradientUnits="userSpaceOnUse">
<stop stop-color="#2E599A"/>
<stop offset="1" stop-color="#0B8DFF"/>
</linearGradient>
<linearGradient id="paint25_linear_6000_105291" x1="47" y1="312.5" x2="580" y2="312.5" gradientUnits="userSpaceOnUse">
<stop stop-color="#2E599A"/>
<stop offset="1" stop-color="#0B8DFF"/>
</linearGradient>
<linearGradient id="paint26_linear_6000_105291" x1="47" y1="312.5" x2="580" y2="312.5" gradientUnits="userSpaceOnUse">
<stop stop-color="#2E599A"/>
<stop offset="1" stop-color="#0B8DFF"/>
</linearGradient>
<linearGradient id="paint27_linear_6000_105291" x1="47" y1="312.5" x2="580" y2="312.5" gradientUnits="userSpaceOnUse">
<stop stop-color="#2E599A"/>
<stop offset="1" stop-color="#0B8DFF"/>
</linearGradient>
<linearGradient id="paint28_linear_6000_105291" x1="47" y1="312.5" x2="580" y2="312.5" gradientUnits="userSpaceOnUse">
<stop stop-color="#2E599A"/>
<stop offset="1" stop-color="#0B8DFF"/>
</linearGradient>
<linearGradient id="paint29_linear_6000_105291" x1="47" y1="312.5" x2="580" y2="312.5" gradientUnits="userSpaceOnUse">
<stop stop-color="#2E599A"/>
<stop offset="1" stop-color="#0B8DFF"/>
</linearGradient>
<linearGradient id="paint30_linear_6000_105291" x1="47" y1="312.5" x2="580" y2="312.5" gradientUnits="userSpaceOnUse">
<stop stop-color="#2E599A"/>
<stop offset="1" stop-color="#0B8DFF"/>
</linearGradient>
<linearGradient id="paint31_linear_6000_105291" x1="47" y1="312.5" x2="580" y2="312.5" gradientUnits="userSpaceOnUse">
<stop stop-color="#2E599A"/>
<stop offset="1" stop-color="#0B8DFF"/>
</linearGradient>
<linearGradient id="paint32_linear_6000_105291" x1="47" y1="312.5" x2="580" y2="312.5" gradientUnits="userSpaceOnUse">
<stop stop-color="#2E599A"/>
<stop offset="1" stop-color="#0B8DFF"/>
</linearGradient>
<linearGradient id="paint33_linear_6000_105291" x1="47" y1="312.5" x2="580" y2="312.5" gradientUnits="userSpaceOnUse">
<stop stop-color="#2E599A"/>
<stop offset="1" stop-color="#0B8DFF"/>
</linearGradient>
<linearGradient id="paint34_linear_6000_105291" x1="47" y1="312.5" x2="580" y2="312.5" gradientUnits="userSpaceOnUse">
<stop stop-color="#2E599A"/>
<stop offset="1" stop-color="#0B8DFF"/>
</linearGradient>
<linearGradient id="paint35_linear_6000_105291" x1="47" y1="312.5" x2="580" y2="312.5" gradientUnits="userSpaceOnUse">
<stop stop-color="#2E599A"/>
<stop offset="1" stop-color="#0B8DFF"/>
</linearGradient>
<linearGradient id="paint36_linear_6000_105291" x1="47" y1="312.5" x2="580" y2="312.5" gradientUnits="userSpaceOnUse">
<stop stop-color="#2E599A"/>
<stop offset="1" stop-color="#0B8DFF"/>
</linearGradient>
<linearGradient id="paint37_linear_6000_105291" x1="47" y1="312.5" x2="580" y2="312.5" gradientUnits="userSpaceOnUse">
<stop stop-color="#2E599A"/>
<stop offset="1" stop-color="#0B8DFF"/>
</linearGradient>
<linearGradient id="paint38_linear_6000_105291" x1="47" y1="312.5" x2="580" y2="312.5" gradientUnits="userSpaceOnUse">
<stop stop-color="#2E599A"/>
<stop offset="1" stop-color="#0B8DFF"/>
</linearGradient>
<linearGradient id="paint39_linear_6000_105291" x1="47" y1="312.5" x2="580" y2="312.5" gradientUnits="userSpaceOnUse">
<stop stop-color="#2E599A"/>
<stop offset="1" stop-color="#0B8DFF"/>
</linearGradient>
<linearGradient id="paint40_linear_6000_105291" x1="47" y1="312.5" x2="580" y2="312.5" gradientUnits="userSpaceOnUse">
<stop stop-color="#2E599A"/>
<stop offset="1" stop-color="#0B8DFF"/>
</linearGradient>
<linearGradient id="paint41_linear_6000_105291" x1="47" y1="312.5" x2="580" y2="312.5" gradientUnits="userSpaceOnUse">
<stop stop-color="#2E599A"/>
<stop offset="1" stop-color="#0B8DFF"/>
</linearGradient>
<linearGradient id="paint42_linear_6000_105291" x1="47" y1="312.5" x2="580" y2="312.5" gradientUnits="userSpaceOnUse">
<stop stop-color="#2E599A"/>
<stop offset="1" stop-color="#0B8DFF"/>
</linearGradient>
<linearGradient id="paint43_linear_6000_105291" x1="47" y1="312.5" x2="580" y2="312.5" gradientUnits="userSpaceOnUse">
<stop stop-color="#2E599A"/>
<stop offset="1" stop-color="#0B8DFF"/>
</linearGradient>
<linearGradient id="paint44_linear_6000_105291" x1="47" y1="312.5" x2="580" y2="312.5" gradientUnits="userSpaceOnUse">
<stop stop-color="#2E599A"/>
<stop offset="1" stop-color="#0B8DFF"/>
</linearGradient>
<linearGradient id="paint45_linear_6000_105291" x1="47" y1="312.5" x2="580" y2="312.5" gradientUnits="userSpaceOnUse">
<stop stop-color="#2E599A"/>
<stop offset="1" stop-color="#0B8DFF"/>
</linearGradient>
<linearGradient id="paint46_linear_6000_105291" x1="47" y1="312.5" x2="580" y2="312.5" gradientUnits="userSpaceOnUse">
<stop stop-color="#2E599A"/>
<stop offset="1" stop-color="#0B8DFF"/>
</linearGradient>
<linearGradient id="paint47_linear_6000_105291" x1="47" y1="312.5" x2="580" y2="312.5" gradientUnits="userSpaceOnUse">
<stop stop-color="#2E599A"/>
<stop offset="1" stop-color="#0B8DFF"/>
</linearGradient>
<linearGradient id="paint48_linear_6000_105291" x1="47" y1="312.5" x2="580" y2="312.5" gradientUnits="userSpaceOnUse">
<stop stop-color="#2E599A"/>
<stop offset="1" stop-color="#0B8DFF"/>
</linearGradient>
<linearGradient id="paint49_linear_6000_105291" x1="47" y1="312.5" x2="580" y2="312.5" gradientUnits="userSpaceOnUse">
<stop stop-color="#2E599A"/>
<stop offset="1" stop-color="#0B8DFF"/>
</linearGradient>
<linearGradient id="paint50_linear_6000_105291" x1="47" y1="312.5" x2="580" y2="312.5" gradientUnits="userSpaceOnUse">
<stop stop-color="#2E599A"/>
<stop offset="1" stop-color="#0B8DFF"/>
</linearGradient>
<linearGradient id="paint51_linear_6000_105291" x1="47" y1="312.5" x2="580" y2="312.5" gradientUnits="userSpaceOnUse">
<stop stop-color="#2E599A"/>
<stop offset="1" stop-color="#0B8DFF"/>
</linearGradient>
<linearGradient id="paint52_linear_6000_105291" x1="47" y1="312.5" x2="580" y2="312.5" gradientUnits="userSpaceOnUse">
<stop stop-color="#2E599A"/>
<stop offset="1" stop-color="#0B8DFF"/>
</linearGradient>
<linearGradient id="paint53_linear_6000_105291" x1="47" y1="312.5" x2="580" y2="312.5" gradientUnits="userSpaceOnUse">
<stop stop-color="#2E599A"/>
<stop offset="1" stop-color="#0B8DFF"/>
</linearGradient>
<linearGradient id="paint54_linear_6000_105291" x1="47" y1="312.5" x2="580" y2="312.5" gradientUnits="userSpaceOnUse">
<stop stop-color="#2E599A"/>
<stop offset="1" stop-color="#0B8DFF"/>
</linearGradient>
<linearGradient id="paint55_linear_6000_105291" x1="47" y1="312.5" x2="580" y2="312.5" gradientUnits="userSpaceOnUse">
<stop stop-color="#2E599A"/>
<stop offset="1" stop-color="#0B8DFF"/>
</linearGradient>
</defs>
</svg>
