<svg width="149" height="98" viewBox="0 0 149 98" fill="none" xmlns="http://www.w3.org/2000/svg">
<g id="OBJECTS">
<g id="Group">
<path id="Vector" opacity="0.2" d="M6.3501 89.916C6.3501 89.916 -8.55439 72.5455 8.23514 53.6427C21.7684 38.4059 17.4474 32.5133 16.8234 22.2387C16.2953 13.5417 26.1578 0.68168 40.9171 0.0398663C65.1088 -1.01221 71.9741 19.113 84.8181 18.563C97.6621 18.013 102.62 1.16592 117.538 2.93777C145.221 6.22551 141.49 32.4626 137.456 52.0737C133.421 71.6846 145.544 78.3808 136.82 89.9318" fill="#B5D0FF"/>
<path id="Vector_2" opacity="0.2" d="M86.5632 15.8648C87.6216 16.0961 88.7237 15.975 89.7377 15.5934C91.2411 15.0276 93.7438 13.8492 95.7155 11.749C98.7402 8.52706 99.5939 8.43947 100.381 7.19013C101.168 5.94079 100.379 3.11334 94.7895 5.349C89.6081 7.42145 80.3047 14.4969 86.5632 15.8648Z" fill="#B5D0FF"/>
<path id="Vector_3" opacity="0.2" d="M4.35767 56.738C5.26062 55.685 6.19434 54.6567 7.14778 53.6492C8.64065 52.072 10.6055 49.7103 10.8404 47.9924C11.2246 45.1814 8.42084 45.3827 5.87989 47.883C1.57882 52.1155 -0.0230098 61.8469 4.35767 56.738Z" fill="#B5D0FF"/>
</g>
<g id="Group_2">
<g id="Group_3">
<g id="Group_4">
<path id="Vector_4" d="M36.9909 79.7487C37.7227 77.8681 37.8544 75.7957 37.6766 73.8014C37.5332 72.1928 37.2568 70.4796 36.6459 68.9793C36.1044 67.6491 35.0357 68.224 34.0042 67.6949C33.3453 67.3568 33.1137 66.5229 33.1135 65.7822C33.113 65.0673 33.2645 64.337 33.1055 63.6296C32.9881 63.1076 32.618 62.5076 32.0788 62.342C31.4088 62.1363 30.8351 62.8018 30.21 62.2678C29.9185 62.0189 29.7631 61.6471 29.6548 61.2794C29.4002 60.4145 29.1283 59.5752 28.7291 58.7629C28.3684 58.0288 27.7373 57.2277 26.929 57.3541C26.1536 57.4752 25.7795 58.3787 25.7025 59.1597C25.5167 61.0399 26.2156 62.9261 27.2977 64.4744C27.5929 64.8966 27.9215 65.3085 28.0873 65.7965C28.2528 66.2845 28.219 66.881 27.8524 67.2433C27.6552 67.4385 27.3856 67.5446 27.1787 67.7295C26.605 68.2426 26.6947 69.1913 27.0753 69.8604C28.0553 71.5827 30.1557 71.3626 31.5755 72.5253C33.1851 73.8435 35.0911 76.3969 34.7801 78.6227" fill="#B5D0FF"/>
</g>
<path id="Vector_5" opacity="0.5" d="M35.3194 76.6747C35.3421 73.9534 34.4636 71.1748 32.8604 68.8975C31.8614 67.4787 30.6031 66.265 29.5503 64.886C28.4975 63.5068 27.2334 61.607 27.2334 58.8101" stroke="white" stroke-width="0.209241" stroke-miterlimit="10" stroke-linecap="round" stroke-linejoin="round"/>
</g>
<g id="Group_5">
<path id="Vector_6" d="M69.0428 89.9135C53.2722 89.9055 30.7599 89.9633 16.0853 89.9055C15.5922 89.9036 14.0157 89.3868 16.694 87.6595C18.9623 86.197 26.1319 87.5128 26.1319 87.5128C26.1319 87.5128 24.4629 86.8437 24.4707 85.9802C24.4784 85.1167 25.1329 84.3579 25.9187 83.9996C26.7045 83.6414 27.5995 83.6154 28.4615 83.6647C30.2158 83.7652 31.9534 84.1539 33.5831 84.8107C32.8915 84.3854 32.6807 83.3427 33.1524 82.6821C33.6245 82.0215 34.6791 81.883 35.3057 82.3992C34.2045 80.9077 32.5019 74.2984 37.7344 71.3857C44.2927 67.7349 49.2734 70.7392 50.3363 72.9366C50.8755 70.7798 53.35 69.1467 54.98 68.7419C58.6972 67.819 61.1186 68.0926 64.5888 69.7132C65.8166 70.2864 67.4602 72.2445 68.2763 73.3262C69.5545 75.0201 69.7536 77.2729 69.8241 79.3937C69.8769 80.9857 69.8842 82.579 69.8455 84.1712" fill="#B5D0FF"/>
</g>
<g id="Group_6">
<path id="Vector_7" d="M73.792 89.9135C89.5626 89.9055 112.075 89.9633 126.749 89.9055C127.243 89.9036 128.819 89.3868 126.141 87.6595C123.872 86.197 116.703 87.5128 116.703 87.5128C116.703 87.5128 118.372 86.8437 118.364 85.9802C118.356 85.1167 117.702 84.3579 116.916 83.9996C116.13 83.6414 115.236 83.6154 114.373 83.6647C112.619 83.7652 110.881 84.1539 109.252 84.8107C109.943 84.3854 110.154 83.3427 109.682 82.6821C109.21 82.0215 108.156 81.883 107.529 82.3992C108.63 80.9077 110.333 74.2984 105.1 71.3857C98.5421 67.7349 93.5614 70.7392 92.4985 72.9366C91.9593 70.7798 89.4849 69.1467 87.8548 68.7419C84.1376 67.819 81.7162 68.0926 78.246 69.7132C77.0182 70.2864 75.3746 72.2445 74.5583 73.3262C73.2801 75.0201 73.0809 77.2729 73.0105 79.3937C72.9576 80.9857 72.9504 82.579 72.9891 84.1712" fill="#B5D0FF"/>
</g>
<g id="Group_7">
<path id="Vector_8" d="M62.7245 89.9163C62.7245 89.9163 53.938 89.9163 51.808 89.9163C49.678 89.9163 50.0237 87.3904 55.9496 88.5141C54.4957 87.8495 54.4873 86.9597 54.6106 86.7223C54.724 86.5041 55.139 86.3639 55.3839 86.3851C56.1375 86.4499 56.7098 86.9118 57.3702 87.2807C56.1753 86.5037 55.4327 85.0775 55.4811 83.6532C55.4945 83.2615 55.579 82.8416 55.867 82.5758C56.1906 82.277 56.7192 82.0781 57.1513 82.1638C57.9509 82.3226 59.421 83.6577 60.0069 84.2246C57.0209 81.4781 55.8841 77.1503 57.7957 76.163C61.0139 74.5011 63.445 83.9162 63.445 83.9162C63.445 83.9162 61.8443 76.8412 64.5292 76.7997C67.2141 76.7581 65.0311 85.0188 65.0311 85.0188" fill="#9FC1F4"/>
</g>
<g id="Group_8">
<path id="Vector_9" d="M81.8819 89.916C81.8819 89.916 92.0269 89.916 94.4862 89.916C96.9456 89.916 96.5464 86.9996 89.7044 88.297C91.383 87.5298 91.3929 86.5024 91.2506 86.2281C91.1198 85.9764 90.6405 85.8143 90.3577 85.8385C89.4874 85.9132 88.8268 86.4467 88.0643 86.8727C89.4437 85.9754 90.3011 84.329 90.2455 82.6842C90.2302 82.2319 90.1323 81.7472 89.8 81.4402C89.4263 81.0953 88.8158 80.8656 88.317 80.9647C87.3936 81.1481 85.6964 82.6896 85.0198 83.3441C88.4673 80.1728 89.78 75.1762 87.573 74.0362C83.8574 72.1171 81.0504 82.9883 81.0504 82.9883C81.0504 82.9883 82.8985 74.8194 79.7987 74.7715C76.6986 74.7236 79.2191 84.2613 79.2191 84.2613" fill="#9FC1F4"/>
</g>
</g>
<g id="Group_9">
<g id="Group_10">
<path id="Vector_10" d="M128.918 84.7312C128.918 84.7312 117.553 69.3782 121.12 66.0994C124.686 62.8204 129.898 74.3704 128.918 84.7312Z" fill="#D6D4FF"/>
<g id="Group_11">
<g id="Group_12">
<path id="Vector_11" d="M122.185 67.918C124.213 71.0367 125.845 74.3859 127.03 77.9132C127.545 79.446 127.986 81.0023 128.35 82.5778C128.692 84.0559 128.915 85.5539 129.222 87.0383C129.238 87.1163 129.369 87.1001 129.363 87.0193C129.115 83.8943 128.257 80.709 127.253 77.7512C126.064 74.2453 124.451 70.8739 122.328 67.8346C122.268 67.7489 122.127 67.8281 122.185 67.918Z" fill="#7878C4"/>
</g>
</g>
<g id="Group_13">
<g id="Group_14">
<path id="Vector_12" d="M121.891 70.0202C122.852 70.7013 123.761 71.4769 124.736 72.1328C124.797 72.1742 124.853 72.0866 124.81 72.0363C124.08 71.1782 122.972 70.3878 121.962 69.8979C121.88 69.8575 121.816 69.9674 121.891 70.0202Z" fill="#7878C4"/>
</g>
</g>
<g id="Group_15">
<g id="Group_16">
<path id="Vector_13" d="M122.241 70.9396C123.203 71.6206 124.112 72.3965 125.086 73.0522C125.147 73.0935 125.203 73.0057 125.161 72.9557C124.431 72.0976 123.323 71.3071 122.313 70.8172C122.23 70.7771 122.167 70.887 122.241 70.9396Z" fill="#7878C4"/>
</g>
</g>
</g>
<g id="Group_17">
<path id="Vector_14" d="M131.24 82.9733C131.24 82.9733 142.197 67.3267 138.546 64.1427C134.894 60.9586 129.988 72.6418 131.24 82.9733Z" fill="#D6D4FF"/>
<g id="Group_18">
<g id="Group_19">
<path id="Vector_15" d="M137.388 65.9067C135.205 69.2217 133.608 72.8965 132.499 76.7015C131.58 79.8498 130.842 83.2286 130.731 86.5185C130.729 86.5972 130.86 86.6185 130.872 86.5375C131.109 84.9812 131.27 83.4172 131.552 81.8668C131.858 80.1804 132.251 78.5105 132.726 76.8638C133.832 73.0357 135.444 69.3842 137.531 65.9899C137.587 65.899 137.446 65.8187 137.388 65.9067Z" fill="#7878C4"/>
</g>
</g>
<g id="Group_20">
<g id="Group_21">
<path id="Vector_16" d="M131.562 75.48C131.507 76.7295 131.532 78.1541 131.818 79.3776C131.834 79.4471 131.936 79.4288 131.938 79.3611C131.963 78.7567 131.882 78.1405 131.843 77.5372C131.799 76.8519 131.776 76.1626 131.704 75.48C131.694 75.3907 131.566 75.387 131.562 75.48Z" fill="#0E7C74"/>
</g>
</g>
</g>
<g id="Group_22">
<path id="Vector_17" d="M130.382 77.4254C130.382 77.4254 119.354 61.8284 122.991 58.628C126.628 55.4276 131.587 67.0885 130.382 77.4254Z" fill="#A29EE5"/>
<g id="Group_23">
<g id="Group_24">
<path id="Vector_18" d="M124.014 60.4708C127.841 66.5982 129.968 73.6028 130.695 80.7658C130.84 82.2033 130.901 83.6442 131.01 85.084C131.016 85.1749 131.151 85.1773 131.153 85.084C131.219 82.3172 130.867 79.4956 130.398 76.7745C129.789 73.2374 128.815 69.7538 127.404 66.451C126.5 64.3375 125.425 62.3049 124.157 60.3875C124.098 60.2996 123.957 60.3802 124.014 60.4708Z" fill="#7878C4"/>
</g>
</g>
</g>
<g id="Group_25">
<path id="Vector_19" d="M129.721 81.975C129.721 81.975 136.507 72.6482 134.338 70.6859C132.168 68.7236 129.078 75.7236 129.721 81.975Z" fill="#8C8CDD"/>
<g id="Group_26">
<g id="Group_27">
<path id="Vector_20" d="M133.59 71.7223C131.895 74.1755 130.743 76.9745 130.032 79.8633C129.503 82.0101 129.07 84.3705 129.164 86.593C129.168 86.6872 129.296 86.6825 129.307 86.593C129.58 84.3484 129.739 82.1402 130.287 79.9335C131.001 77.0518 132.152 74.3197 133.733 71.8057C133.79 71.7148 133.65 71.6359 133.59 71.7223Z" fill="#7878C4"/>
</g>
</g>
</g>
<g id="Group_28">
<path id="Vector_21" d="M134.27 81.5254L134.217 81.8819L134.104 82.6397L133.02 89.9159H126.554L125.47 82.6397L125.357 81.8819L125.304 81.5254H134.27Z" fill="#BFB8F4"/>
<path id="Vector_22" d="M134.216 81.8818L134.104 82.6397H125.469L125.357 81.8818H134.216Z" fill="#7878C4"/>
<path id="Vector_23" d="M134.396 82.2086H125.177C124.882 82.2086 124.642 81.9691 124.642 81.6736C124.642 81.3782 124.882 81.1387 125.177 81.1387H134.396C134.691 81.1387 134.931 81.3782 134.931 81.6736C134.931 81.9693 134.691 82.2086 134.396 82.2086Z" fill="#A29EE5"/>
</g>
</g>
<g id="Group_29">
<path id="Vector_24" d="M80.7867 87.7223H62.1901L64.2099 79.7805L64.6678 77.9795L65.5565 74.4917H77.42L78.3089 77.9795L78.7666 79.7805L80.7867 87.7223Z" fill="#6F3FBA"/>
<path id="Vector_25" d="M78.7668 79.7805H64.2101L64.668 77.9795H78.3091L78.7668 79.7805Z" fill="#5730A0"/>
<path id="Vector_26" d="M110.853 30.7197V76.0708C110.853 77.1496 109.977 78.0253 108.898 78.0253H34.0816C33 78.0253 32.1271 77.1496 32.1271 76.0708V30.7197C32.1271 29.6408 33 28.7651 34.0816 28.7651H108.898C109.977 28.7651 110.853 29.6408 110.853 30.7197Z" fill="#854DCE"/>
<path id="Vector_27" d="M87.9233 89.9162H55.0529C54.2641 89.9162 53.6249 89.2767 53.6249 88.4881C53.6249 87.6993 54.2643 87.0601 55.0529 87.0601H87.9233C88.7121 87.0601 89.3513 87.6995 89.3513 88.4881C89.3513 89.2767 88.7118 89.9162 87.9233 89.9162Z" fill="#774CC9"/>
<path id="Vector_28" d="M109.267 30.1997H33.5673V70.1779H109.267V30.1997Z" fill="#9999F1"/>
<path id="Vector_29" d="M71.4841 75.7893C70.4858 75.7893 69.6691 74.9725 69.6691 73.9742C69.6691 72.9759 70.4858 72.1592 71.4841 72.1592C72.4824 72.1592 73.2992 72.9759 73.2992 73.9742C73.2992 74.9728 72.4824 75.7893 71.4841 75.7893Z" fill="#5730A0"/>
<g id="Group_30">
<g id="Group_31">
<path id="Vector_30" opacity="0.5" d="M82.4256 64.9478H81.0797V67.8849H82.4256V64.9478Z" fill="#8283D0"/>
<path id="Vector_31" opacity="0.5" d="M83.9574 64.9478H82.6116V67.8849H83.9574V64.9478Z" fill="#8283D0"/>
<path id="Vector_32" opacity="0.5" d="M85.4894 64.9478H84.1436V67.8849H85.4894V64.9478Z" fill="#8283D0"/>
<path id="Vector_33" d="M57.9152 64.9478H56.5693V67.8849H57.9152V64.9478Z" fill="#8283D0"/>
<path id="Vector_34" d="M59.4472 64.9478H58.1013V67.8849H59.4472V64.9478Z" fill="#8283D0"/>
<path id="Vector_35" d="M60.9792 64.9478H59.6333V67.8849H60.9792V64.9478Z" fill="#8283D0"/>
<path id="Vector_36" d="M62.511 64.9478H61.1652V67.8849H62.511V64.9478Z" fill="#8283D0"/>
<path id="Vector_37" d="M64.043 64.9478H62.6971V67.8849H64.043V64.9478Z" fill="#8283D0"/>
<path id="Vector_38" d="M65.575 64.9478H64.2291V67.8849H65.575V64.9478Z" fill="#8283D0"/>
<path id="Vector_39" d="M67.107 64.9478H65.7611V67.8849H67.107V64.9478Z" fill="#8283D0"/>
<path id="Vector_40" d="M68.638 64.9478H67.2921V67.8849H68.638V64.9478Z" fill="#8283D0"/>
<path id="Vector_41" opacity="0.5" d="M70.1708 64.9478H68.825V67.8849H70.1708V64.9478Z" fill="#8283D0"/>
<path id="Vector_42" opacity="0.5" d="M71.7018 64.9478H70.356V67.8849H71.7018V64.9478Z" fill="#8283D0"/>
<path id="Vector_43" opacity="0.5" d="M73.2338 64.9478H71.8879V67.8849H73.2338V64.9478Z" fill="#8283D0"/>
<path id="Vector_44" opacity="0.5" d="M74.7658 64.9478H73.4199V67.8849H74.7658V64.9478Z" fill="#8283D0"/>
<path id="Vector_45" opacity="0.5" d="M76.2978 64.9478H74.9519V67.8849H76.2978V64.9478Z" fill="#8283D0"/>
<path id="Vector_46" opacity="0.5" d="M77.8296 64.9478H76.4838V67.8849H77.8296V64.9478Z" fill="#8283D0"/>
<path id="Vector_47" opacity="0.5" d="M79.3616 64.9478H78.0157V67.8849H79.3616V64.9478Z" fill="#8283D0"/>
<path id="Vector_48" opacity="0.5" d="M80.8936 64.9478H79.5477V67.8849H80.8936V64.9478Z" fill="#8283D0"/>
</g>
<path id="Vector_49" d="M85.878 64.6162H56.2888V68.2172H85.878V64.6162Z" stroke="#8283D0" stroke-width="0.176129" stroke-miterlimit="10"/>
</g>
<g id="Group_32">
<path id="Vector_50" opacity="0.25" d="M57.9515 33.2097C57.5819 33.2097 57.2825 33.5094 57.2825 33.8788V62.0831C57.2825 62.4527 57.5821 62.7521 57.9515 62.7521H86.2023C86.572 62.7521 86.8714 62.4525 86.8714 62.0831V42.4201L77.6608 33.2095L57.9515 33.2097Z" fill="#8283D0"/>
<path id="Vector_51" d="M56.9579 32.2161C56.5882 32.2161 56.2888 32.5157 56.2888 32.8851V61.0894C56.2888 61.4591 56.5885 61.7585 56.9579 61.7585H85.2087C85.5783 61.7585 85.8778 61.4588 85.8778 61.0894V41.4264L76.6672 32.2158H56.9579V32.2161Z" fill="#8283D0"/>
<path id="Vector_52" d="M77.3369 41.4264H85.8782L76.6676 32.2158V40.7571C76.6678 41.1268 76.9673 41.4264 77.3369 41.4264Z" fill="#332E99"/>
<path id="Vector_53" d="M71.4973 38.1138L67.3282 42.4061H68.9202V49.456H74.0747V42.4061H75.6667L71.4973 38.1138Z" fill="#9F9FF4"/>
<path id="Vector_54" d="M79.0405 48.0537V53.6245H63.9542V48.0537H66.3806V51.2663H76.6141V48.0537H79.0405Z" fill="#9F9FF4"/>
</g>
<path id="Vector_55" opacity="0.2" d="M77.0522 77.9891H71.735L85.7191 28.7651H91.0364L77.0522 77.9891Z" fill="url(#paint0_linear_8250_6939)"/>
<path id="Vector_56" opacity="0.2" d="M90.4114 77.9891H79.1305L93.1147 28.7651H104.396L90.4114 77.9891Z" fill="url(#paint1_linear_8250_6939)"/>
</g>
<g id="Group_33">
<g id="Group_34">
<g id="Group_35">
<path id="Vector_57" d="M15.0414 81.4265C15.783 78.8724 15.2321 76.1182 14.3561 73.6071C14.1455 73.0036 13.9045 72.3871 13.4536 71.9341C13.223 71.7023 12.9039 71.5123 12.5833 71.5774C12.1132 71.6727 11.9155 72.2328 11.8624 72.7098C11.5277 75.7204 13.5117 78.48 14.0135 81.4674" fill="#B5D0FF"/>
</g>
<g id="Group_36">
<path id="Vector_58" d="M17.1562 80.1438C17.3011 79.3855 17.5035 78.6305 17.8635 77.9478C18.2235 77.2649 18.7519 76.6543 19.4348 76.2943C19.738 76.1346 20.1424 76.0386 20.3986 76.2659C20.6802 76.5158 20.5895 76.9763 20.423 77.314C19.5119 79.1631 17.1837 79.9918 16.2981 81.8534" fill="#B5D0FF"/>
</g>
<g id="Group_37">
<path id="Vector_59" d="M16.0801 81.6525C16.6578 80.5741 17.2156 79.4727 17.5342 78.2917C17.8531 77.1105 17.921 75.8325 17.5223 74.6757C17.3992 74.3187 17.0932 73.9106 16.7365 74.0336C16.605 74.0789 16.508 74.1898 16.4239 74.3006C15.7593 75.1754 15.5043 76.2928 15.384 77.3848C15.2638 78.4768 15.2603 79.5854 15.0203 80.6575C14.9846 80.8172 14.9397 80.9834 14.8272 81.1022C14.7148 81.2213 14.5142 81.2727 14.3855 81.1715C14.3134 81.1147 14.278 81.0238 14.25 80.9365C14.0974 80.4588 11.7286 75.5403 9.58236 75.1949C9.40882 75.1669 9.23105 75.1477 9.05703 75.1766C6.36602 75.6239 12.4286 81.2474 12.4742 82.0846C10.2805 80.2042 9.81579 79.8578 8.81726 79.6777C8.04769 79.5389 6.707 80.2214 7.14803 81.1621C7.45308 81.8129 8.21466 82.1036 8.91941 82.2443C9.68945 82.3979 10.4809 82.4472 11.2361 82.6616C11.9913 82.876 12.7344 83.2893 13.1188 83.9738" fill="#B5D0FF"/>
</g>
</g>
<path id="Vector_60" d="M10.0233 82.5736C10.4338 82.5736 10.8271 82.6439 11.1958 82.7683C11.2846 79.7037 13.795 77.2461 16.8813 77.2461C20.0236 77.2461 22.5709 79.7934 22.5709 82.9358C22.5709 83.0795 22.5639 83.2216 22.5533 83.3627C23.1024 82.4365 24.1091 81.8137 25.2638 81.8137C27.0044 81.8137 28.4156 83.2248 28.4156 84.9657C28.4156 85.2125 28.3844 85.4516 28.3308 85.6822C28.6558 85.5011 29.0297 85.3971 29.4282 85.3971C30.6764 85.3971 31.6881 86.4088 31.6881 87.6569C31.6881 88.9051 30.6764 89.9168 29.4282 89.9168C28.1803 89.9168 11.6129 89.9168 10.0235 89.9168C7.99592 89.9168 6.35205 88.2729 6.35205 86.2453C6.35205 84.2177 7.99569 82.5736 10.0233 82.5736Z" fill="#9999F1"/>
</g>
<path id="Vector_61" d="M2.75525 89.916H140.227" stroke="#DFDBF8" stroke-width="0.234838" stroke-miterlimit="10"/>
<g id="Group_38">
<path id="Vector_62" opacity="0.5" d="M43.8353 97.8875C49.7063 97.8875 54.4657 97.1634 54.4657 96.2702C54.4657 95.3769 49.7063 94.6528 43.8353 94.6528C37.9642 94.6528 33.2048 95.3769 33.2048 96.2702C33.2048 97.1634 37.9642 97.8875 43.8353 97.8875Z" fill="#B5D0FF"/>
<g id="Group_39">
<g id="Group_40">
<path id="Vector_63" d="M44.1588 91.9688C44.1433 92.5108 43.837 93.3111 43.837 93.3111L44.0385 94.4233L44.6756 94.5992L46.142 92.8771C46.142 92.8771 46.1159 92.0134 46.088 92.0364L44.1588 91.9688Z" fill="#F9DACA"/>
<path id="Vector_64" d="M49.678 96.0624C49.6566 96.0861 49.6282 96.1075 49.5925 96.1312C49.2409 96.3426 48.2241 96.44 47.4996 96.428C46.7014 96.4137 45.8391 96.1192 45.4922 95.9837C45.1454 95.8482 43.8223 95.9313 43.6748 95.758C43.5276 95.5847 43.5987 95.0312 43.5987 95.0312C43.4681 94.3542 43.6224 93.3019 43.7413 93.2495C43.8624 93.1971 43.9289 93.6367 44.0311 93.7769C44.1285 93.9218 44.4326 94.0928 44.7818 93.8791C45.1287 93.6654 45.1975 93.1356 45.6108 92.9834C46.0218 92.8315 46.2094 92.886 46.2094 92.886C46.6965 93.1046 47.5184 94 48.0576 94.3302C48.5968 94.6604 49.3642 94.8577 49.5138 94.9645C49.6634 95.0714 49.6397 95.3635 49.6397 95.3635C49.6397 95.3635 49.906 95.801 49.678 96.0624Z" fill="#8283D0"/>
<path id="Vector_65" d="M49.6785 96.0624C49.6571 96.0861 49.6287 96.1075 49.593 96.1312C49.2414 96.3426 48.2246 96.44 47.5001 96.428C46.7019 96.4137 45.8396 96.1192 45.4927 95.9837C45.1459 95.8482 43.8228 95.9314 43.6753 95.758C43.5281 95.5847 43.5992 95.0312 43.5992 95.0312C44.0078 94.9908 45.0151 95.1691 45.5425 95.2949C46.07 95.4208 46.2837 95.77 47.8514 95.7771C49.4192 95.7865 49.6402 95.3638 49.6402 95.3638C49.6402 95.3638 49.9065 95.801 49.6785 96.0624Z" fill="#363193"/>
</g>
<g id="Group_41">
<path id="Vector_66" d="M37.8518 91.4033C37.8335 92.0362 37.5122 93.6157 37.5122 93.6157L37.7475 94.9146L38.4915 95.1201L40.2039 93.1092C40.2039 93.1092 40.335 91.7986 40.3026 91.8253L37.8518 91.4033Z" fill="#F9DACA"/>
<path id="Vector_67" d="M44.334 96.8289C44.3091 96.8566 44.2757 96.8817 44.2342 96.9094C43.8234 97.1562 42.6361 97.2701 41.79 97.2563C40.8579 97.2396 39.8507 96.8956 39.4458 96.7375C39.0407 96.5795 37.4955 96.6765 37.3233 96.474C37.1514 96.2716 37.2346 95.6251 37.2346 95.6251C37.0819 94.8344 37.2623 93.6055 37.4011 93.5444C37.5427 93.4834 37.6202 93.9967 37.7395 94.1604C37.8531 94.3297 38.2085 94.5293 38.6161 94.2797C39.0212 94.0301 39.1015 93.4113 39.5844 93.2337C40.0644 93.0562 40.2835 93.1201 40.2835 93.1201C40.8523 93.3753 41.812 94.4213 42.4419 94.8069C43.0717 95.1925 43.9676 95.4229 44.1426 95.5476C44.3173 95.6725 44.2896 96.0137 44.2896 96.0137C44.2896 96.0137 44.6003 96.5238 44.334 96.8289Z" fill="#8283D0"/>
<path id="Vector_68" d="M44.3345 96.8288C44.3096 96.8565 44.2762 96.8816 44.2347 96.9093C43.8239 97.1561 42.6366 97.27 41.7905 97.2562C40.8584 97.2395 39.8512 96.8955 39.4463 96.7374C39.0412 96.5794 37.496 96.6764 37.3238 96.4739C37.1519 96.2715 37.2351 95.625 37.2351 95.625C37.7123 95.5778 38.8886 95.7859 39.5045 95.9329C40.1205 96.0799 40.3702 96.4878 42.2012 96.496C44.0322 96.507 44.2903 96.0132 44.2903 96.0132C44.2903 96.0132 44.6008 96.5237 44.3345 96.8288Z" fill="#363193"/>
</g>
<path id="Vector_69" d="M47.9791 50.1749C47.9791 50.1749 49.033 49.4787 48.1775 48.2897C47.7386 47.6796 48.0974 47.4076 47.9025 46.9152C47.7078 46.4225 47.5016 46.3997 47.5932 45.8957C47.6848 45.3918 47.5932 45.3687 47.4098 45.1398C47.2266 44.9108 47.7926 44.4963 47.4605 44.1297C47.1282 43.7632 46.8633 43.9494 46.7913 43.7192C46.6593 43.2986 47.112 43.1695 46.7913 42.8142C46.4705 42.4591 46.4132 42.585 46.2528 42.0582C46.0924 41.5312 46.1466 40.9275 45.7507 40.315C45.2953 39.6105 45.4508 39.6936 44.8665 39.1667C44.2822 38.6397 44.5765 38.3534 44.0152 37.8495C43.3624 37.2633 42.4611 37.3502 41.9571 37.6365C41.9019 37.6677 41.8519 37.6961 41.8061 37.7217C41.5654 37.8565 41.2787 37.8774 41.0224 37.7752C40.8381 37.7017 40.5983 37.6447 40.3534 37.6938C39.8379 37.7969 40.1244 38.1634 39.6087 38.4039C38.9812 38.6968 38.6085 38.2769 38.4282 39.4781C38.4031 39.6453 38.3197 39.801 38.1976 39.9179C37.7699 40.3268 37.4898 40.2443 37.5126 40.9357C37.5353 41.6346 37.9134 41.6804 37.7415 42.1613C37.5696 42.6425 37.2949 42.8212 37.146 43.4306C36.9971 44.04 37.3864 43.8796 37.3522 44.4524C37.3179 45.0252 37.0201 45.0367 37.3406 45.426C37.6614 45.8156 37.7645 45.9187 37.6499 46.2623C37.5353 46.6059 37.2603 46.8809 37.2833 47.2132C37.3061 47.5455 37.49 47.4994 37.1119 48.0609C36.7336 48.6222 36.6763 49.7335 36.894 50.5467" fill="#383493"/>
<path id="Vector_70" d="M37.5765 64.2695C37.5765 64.2695 47.4985 66.3313 46.7425 63.9945C45.9866 61.6576 46.2531 59.8651 46.2531 59.8651L38.3104 59.5957C38.3186 59.7195 38.3243 59.8432 38.3297 59.967C38.3654 61.0832 38.2087 62.0838 38.03 62.8372C37.8184 63.7223 37.5765 64.2695 37.5765 64.2695Z" fill="#F9DACA"/>
<path id="Vector_71" d="M38.0306 62.837C40.1449 62.558 40.1449 60.3242 40.1449 60.3242L39.3201 60.1976L38.3305 59.9668C38.3662 61.083 38.2094 62.0839 38.0306 62.837Z" fill="#F4CCBA"/>
<path id="Vector_72" d="M40.2188 48.2341C40.2188 48.2341 38.5428 48.6915 36.816 49.3789C36.816 49.3789 37.916 52.5518 37.1967 54.667C37.1967 54.667 38.3387 58.7708 38.1271 60.2092C38.1271 60.2092 41.1502 61.3308 46.4198 60.231C46.4198 60.231 46.5461 55.5026 47.2126 54.3603C47.2126 54.3603 46.2925 51.1874 47.2126 48.9346L43.3288 48.1528" fill="#7762EF"/>
<path id="Vector_73" d="M36.9132 67.9991C36.97 69.972 37.613 76.9225 37.8408 78.6948C37.4704 81.9534 37.6785 91.6981 37.6785 91.6981C39.7592 92.3601 40.9035 91.9684 40.9035 91.9684C40.9035 91.9684 41.8988 81.9882 42.367 79.075C42.5378 77.2456 42.3656 69.5704 42.3656 69.5704C42.9079 71.3404 44.9261 78.4508 44.9261 78.4508C44.9261 78.4508 44.6485 79.9937 44.5099 80.9246C44.094 83.7316 43.5107 91.7521 43.5107 91.7521C44.7906 92.47 46.8252 92.2967 46.8252 92.2967C46.8252 92.2967 49.4805 79.4773 49.4805 78.2197C49.4805 77.1562 49.0163 74.0556 49.0158 74.0483C48.7554 69.612 46.9365 64.3894 46.7015 63.617C44.9416 63.7978 40.6095 64.1442 37.748 63.5205C37.1424 64.7917 36.881 66.9198 36.9132 67.9991Z" fill="#8283D0"/>
<g id="Group_42">
<g id="Group_43">
<g id="Group_44">
<path id="Vector_74" d="M46.6134 63.8949C45.5179 63.9379 44.4298 64.1889 43.3301 64.2471C42.5363 64.2894 41.7402 64.2969 40.9463 64.2516C40.3279 64.2161 39.7101 64.1544 39.0988 64.0529C38.7198 63.99 38.2684 63.808 37.8844 63.8453C37.8342 63.8503 37.8116 63.9137 37.8581 63.9428C38.1803 64.145 38.6822 64.1682 39.0502 64.2298C39.6551 64.331 40.2655 64.3974 40.8782 64.4261C41.7257 64.466 42.5758 64.447 43.4212 64.3777C44.4648 64.2922 45.6163 64.2281 46.6143 63.9003C46.6169 63.8993 46.6167 63.8949 46.6134 63.8949Z" fill="#2B269B"/>
</g>
</g>
<g id="Group_45">
<g id="Group_46">
<path id="Vector_75" d="M43.0229 64.6286C43.0137 65.8477 43.1246 67.0599 43.0384 68.2797C43.0351 68.3281 43.1102 68.3278 43.1135 68.2797C43.2 67.0766 43.1734 65.8289 43.0558 64.6286C43.0539 64.608 43.0231 64.607 43.0229 64.6286Z" fill="#2B269B"/>
</g>
</g>
<g id="Group_47">
<g id="Group_48">
<path id="Vector_76" d="M43.0685 68.256C42.8381 68.345 42.5746 68.3678 42.3545 68.4793C42.3273 68.4932 42.3407 68.5362 42.3698 68.5357C42.615 68.5326 42.8803 68.4263 43.0868 68.2997C43.1088 68.2861 43.0945 68.2459 43.0685 68.256Z" fill="#2B269B"/>
</g>
</g>
<g id="Group_49">
<path id="Vector_77" d="M42.5532 64.3667C42.5532 64.3667 42.4982 66.035 42.4431 67.7031C42.4198 68.5372 42.4015 69.3719 42.3949 69.9977C42.3869 70.6236 42.3947 71.0411 42.3947 71.0411C42.3947 71.0411 42.3721 70.6243 42.358 69.9979C42.3428 69.3719 42.3317 68.537 42.3256 67.7019C42.3219 66.032 42.3184 64.3618 42.3184 64.3618L42.5532 64.3667Z" fill="#2B269B"/>
</g>
<g id="Group_50">
<g id="Group_51">
<path id="Vector_78" d="M47.2723 65.9417C46.6714 65.9088 46.1763 65.7993 45.7238 65.3748C45.3518 65.0258 45.276 64.5925 45.1259 64.1303C45.1104 64.0827 45.0388 64.0904 45.0376 64.1423C45.0125 65.3097 46.2177 66.0868 47.2723 65.9508C47.2782 65.9501 47.2784 65.9421 47.2723 65.9417Z" fill="#2B269B"/>
</g>
</g>
<g id="Group_52">
<g id="Group_53">
<path id="Vector_79" d="M37.1967 66.0129C38.2518 66.1491 39.4565 65.3727 39.4314 64.2044C39.4302 64.1529 39.3588 64.1443 39.3431 64.1924C39.194 64.6515 39.1195 65.0918 38.7452 65.4368C38.2863 65.8593 37.8042 65.9706 37.1967 66.0037C37.1906 66.0042 37.191 66.0122 37.1967 66.0129Z" fill="#2B269B"/>
</g>
</g>
</g>
<path id="Vector_80" d="M47.2101 48.9365C47.2101 48.9365 48.1736 49.1127 48.4275 51.6757C48.6093 53.5105 47.7535 60.5594 47.7535 60.5594C47.7535 60.5594 46.6946 59.8819 46.3853 58.7478C46.0761 57.6138 46.4025 55.7064 46.2651 54.8817C46.1277 54.0569 46.0319 52.4882 46.0784 51.5947C46.1249 50.7011 46.2606 49.4781 47.2101 48.9365Z" fill="#F9DACA"/>
<path id="Vector_81" d="M39.6772 48.3925C39.6772 48.3925 40.3839 49.5636 41.9866 49.473C43.5345 49.3877 44.296 48.3486 44.296 48.3486L44.1338 48.3129C43.7599 48.2332 43.4657 47.9444 43.3832 47.5734C43.3612 47.4771 43.3419 47.3864 43.3226 47.2984C43.1935 46.6742 43.1521 46.2977 43.1521 46.2977L42.5308 46.1521L40.4717 45.6655C40.6779 46.6497 40.6283 47.2793 40.5213 47.6699C40.4332 47.9916 40.1859 48.2445 39.8642 48.338L39.6772 48.3925Z" fill="#F9DACA"/>
<path id="Vector_82" d="M40.9175 46.1437C40.9175 46.1437 42.064 46.9602 43.3232 47.2984C43.194 46.6742 43.1527 46.2977 43.1527 46.2977L42.5313 46.1521L42.0144 46.0972L40.9175 46.1437Z" fill="#E2BDAC"/>
<path id="Vector_83" d="M44.3226 40.1433C44.3226 40.1433 45.1476 43.443 44.7669 44.7123C44.3863 45.9814 43.8151 46.8381 43.4659 46.9809C43.117 47.1236 40.4358 46.0291 40.1343 45.6958C39.833 45.3626 38.532 42.2691 38.7541 40.9523C38.9763 39.6356 43.0216 37.5732 44.3226 40.1433Z" fill="#F9DACA"/>
<g id="Group_54">
<path id="Vector_84" d="M57.0756 47.4271L39.2002 49.2563L41.0294 67.1318L58.9049 65.3026L57.0756 47.4271Z" fill="#F8D846"/>
<path id="Vector_85" d="M56.3198 48.3016L40.1184 49.9595L41.5531 63.9795L57.7545 62.3216L56.3198 48.3016Z" fill="white"/>
<path id="Vector_86" d="M48.1451 60.4288L52.3495 55.4951L57.5077 59.8788L57.7575 62.3183L48.4361 63.2727L48.1451 60.4288Z" fill="#F4A34A"/>
<path id="Vector_87" d="M41.3037 61.5089L46.6843 54.1392L56.5215 62.4452L41.5564 63.9775L41.3037 61.5089Z" fill="#F7C148"/>
<path id="Vector_88" d="M53.036 51.871C53.1475 52.9611 52.3545 53.9349 51.2644 54.0467C50.1742 54.1583 49.2001 53.3652 49.0886 52.2751C48.977 51.185 49.7701 50.2109 50.8602 50.0993C51.9503 49.9878 52.9244 50.7808 53.036 51.871Z" fill="#F8D846"/>
</g>
<path id="Vector_89" d="M36.8187 49.3774C36.8187 49.3774 35.444 50.271 35.8909 53.0545C36.3375 55.8381 36.7499 58.45 36.8187 59.309C36.8875 60.168 37.4373 62.5394 38.3994 62.3675C39.3618 62.1956 39.7225 60.9928 39.7913 60.3571C39.8601 59.7214 39.6023 58.1404 39.6711 57.9685C39.7399 57.7966 40.4322 57.2297 40.5181 56.9376C40.6041 56.6455 41.577 57.052 41.8003 55.2477C41.8003 55.2477 42.7782 55.4952 43.0875 55.1C43.3968 54.7047 41.8872 54.4098 41.5066 54.3011C41.0254 54.1637 39.4818 54.1883 39.293 54.2313C39.1039 54.2743 39.0696 54.8069 38.975 55.3052C38.8806 55.8036 38.5424 56.9322 38.5424 56.9322L38.0443 53.5698C38.0443 53.5698 38.1589 50.2595 36.8187 49.3774Z" fill="#F9DACA"/>
<path id="Vector_90" d="M58.0107 54.1288C57.8304 54.1565 57.6223 54.0762 57.5779 54.0567C57.5723 54.0539 57.5697 54.0539 57.5697 54.0539C57.2174 53.9123 56.8483 53.3047 56.8483 53.3047C56.8483 53.3047 56.3046 53.2437 55.7358 52.7526C55.1478 52.2477 55.2753 51.6179 55.8164 51.2795C56.3574 50.9411 57.5086 50.9937 57.5086 50.9937C57.9748 51.0075 58.0107 51.1407 58.2798 52.0645C58.2798 52.0674 58.2798 52.0674 58.2798 52.0699C58.5074 53.51 58.2106 54.0954 58.0107 54.1288Z" fill="#F9DACA"/>
<g id="Group_55">
<path id="Vector_91" d="M38.9764 55.3062C38.9764 55.3062 38.9285 55.5563 38.8446 55.928C38.8005 56.1133 38.7542 56.331 38.6962 56.5618C38.6389 56.7929 38.5776 57.0393 38.5165 57.2856C38.4517 57.531 38.3869 57.7764 38.3261 58.0066C38.2636 58.2362 38.2054 58.4506 38.1554 58.6343C38.1053 58.8182 38.0638 58.9713 38.0347 59.0784C38.0072 59.1862 37.9912 59.2477 37.9912 59.2477C37.9912 59.2477 38.0154 58.9934 38.091 58.6193C38.1302 58.4326 38.1716 58.2137 38.2272 57.9821C38.2834 57.7506 38.343 57.5035 38.4029 57.2567C38.4693 57.0115 38.5356 56.7661 38.5978 56.5362C38.6603 56.3063 38.7274 56.0943 38.781 55.9113C38.892 55.5464 38.9764 55.3062 38.9764 55.3062Z" fill="#DDA692"/>
</g>
<path id="Vector_92" d="M40.7166 39.0864C40.7166 39.0864 40.969 40.1557 41.3814 40.3447C41.7938 40.5337 42.1333 40.2933 42.3416 40.5509C42.5499 40.8087 42.6873 41.4099 43.0997 41.2897C43.5121 41.1695 43.873 41.029 44.0621 41.3054C44.2511 41.5818 44.3199 42.3552 45.1797 42.4066C45.8637 42.4477 44.8352 40.7054 44.8352 40.7054C44.8352 40.7054 44.2337 39.747 44.1478 39.6764C44.0618 39.6057 43.4992 38.9336 43.4658 38.9162C43.4325 38.899 42.6847 38.7138 42.5495 38.7311C42.414 38.7483 41.5185 38.7311 41.5185 38.7311L40.7166 39.0864Z" fill="#383493"/>
<path id="Vector_93" d="M41.0766 39.6019C41.0766 39.6019 41.3808 40.3447 40.8362 40.7275C40.5565 40.924 39.999 41.8169 40.0311 42.3093C40.0633 42.802 40.2007 42.8706 40.1321 43.1456C40.0633 43.4206 39.8968 44.1268 38.8945 43.9321C38.7243 43.899 38.8835 42.9166 38.8835 42.8478C38.8835 42.779 38.608 41.8244 38.6195 41.641C38.631 41.4578 38.5155 40.255 38.825 40.0143C39.1343 39.7738 39.914 39.5216 39.96 39.453C40.0058 39.3842 40.7159 39.0864 40.7159 39.0864" fill="#383493"/>
<g id="Group_56">
<path id="Vector_94" d="M37.6708 40.6756C37.3947 41.2331 37.6314 41.8119 37.297 42.4005C37.0927 42.7602 36.7735 43.1122 36.8069 43.5568C36.8228 43.7696 36.944 43.8858 37.0116 44.0772C37.2122 44.6446 36.9414 44.8003 37.0093 45.2512C37.0779 45.707 37.6243 46.1029 37.9315 46.407C37.9597 46.435 37.9989 46.3936 37.9745 46.3641C37.7671 46.113 37.4461 45.8657 37.2831 45.5872C36.9292 44.9823 37.1687 45.0443 37.2113 44.5837C37.2408 44.2644 37.0915 44.1711 36.9882 43.8853C36.68 43.0345 37.328 42.7198 37.5544 42.0628C37.7082 41.6163 37.583 41.1363 37.672 40.6756C37.672 40.6756 37.6711 40.6751 37.6708 40.6756Z" fill="#383493"/>
</g>
<g id="Group_57">
<path id="Vector_95" d="M45.6189 40.7205C45.9463 40.8319 46.2483 41.066 46.3906 41.3983C46.4629 41.5674 46.4162 41.77 46.4613 41.9466C46.4956 42.081 46.5158 42.1885 46.5984 42.3048C46.7537 42.5229 47.0366 42.5955 47.131 42.8721C47.2543 43.234 47.1562 43.7643 47.1844 44.1504C47.186 44.1741 47.2196 44.1741 47.2212 44.1504C47.2468 43.7589 47.3356 43.2357 47.2085 42.8508C47.0536 42.3813 46.6745 42.3865 46.5407 41.7552C46.4256 41.2125 46.3079 40.6924 45.6208 40.7079C45.6131 40.7079 45.6119 40.7182 45.6189 40.7205Z" fill="#383493"/>
</g>
</g>
</g>
<g id="Group_58">
<path id="Vector_96" opacity="0.5" d="M114.171 97.888C121.361 97.888 127.19 97.1639 127.19 96.2707C127.19 95.3774 121.361 94.6533 114.171 94.6533C106.98 94.6533 101.151 95.3774 101.151 96.2707C101.151 97.1639 106.98 97.888 114.171 97.888Z" fill="#B5D0FF"/>
<g id="Group_59">
<g id="Group_60">
<path id="Vector_97" d="M115.807 41.0156L111.964 41.1568C111.964 41.1568 112.015 41.6332 111.966 42.299C111.951 42.5296 111.922 42.7816 111.872 43.0456C111.867 43.0754 111.767 43.6151 111.633 43.8525C111.551 43.9985 111.342 44.1524 110.923 44.127C110.923 44.127 110.967 45.2582 112.727 45.4642C114.436 45.664 114.977 44.8059 114.977 44.8059C114.977 44.8059 114.954 44.7911 114.921 44.7627C114.754 44.623 114.646 44.4323 114.602 44.2247C114.578 44.1148 115.05 41.9371 115.807 41.0156Z" fill="#FBAB99"/>
<path id="Vector_98" d="M114.57 41.9084C113.77 42.6538 112.313 42.9676 111.871 43.0455C111.922 42.7818 111.951 42.5296 111.966 42.299C113.183 41.8974 115.252 41.2702 114.57 41.9084Z" fill="#EF998B"/>
<path id="Vector_99" d="M111.125 36.3699C110.999 36.5749 110.909 36.798 110.835 37.0267C110.484 38.1032 109.317 41.9205 110.222 42.4707C111.278 43.1125 113.197 42.6194 114.173 42.1138C116.027 41.153 116.592 40.9067 116.835 38.8281C117.171 35.9432 112.756 33.7131 111.125 36.3699Z" fill="#FBAB99"/>
<path id="Vector_100" d="M109.481 35.7873C109.481 35.7873 110.988 38.167 114.049 37.2833C114.049 37.2833 113.587 37.9652 113.693 38.6049C113.798 39.2449 114.022 39.6382 113.976 40.0276L114.288 39.9738C114.288 39.9738 114.623 39.0889 115.37 39.4534C116.117 39.8176 115.189 41.7208 115.353 41.767C115.516 41.8131 116.556 40.8274 117.125 39.4724C117.694 38.1172 117.833 37.0752 116.505 36.6168C116.505 36.6168 116.243 35.3613 114.929 34.9464C113.613 34.5314 109.481 35.7873 109.481 35.7873Z" fill="#003051"/>
</g>
<g id="Group_61">
<path id="Vector_101" d="M110.817 91.4004C110.835 92.0042 111.141 93.5104 111.141 93.5104L110.917 94.7494L110.208 94.9453L108.574 93.0271C108.574 93.0271 108.598 91.7005 108.629 91.7261L110.817 91.4004Z" fill="#F9DACA"/>
<path id="Vector_102" d="M104.635 96.5748C104.659 96.6014 104.691 96.6251 104.731 96.6516C105.122 96.8872 106.255 96.9957 107.062 96.9825C107.951 96.9665 108.911 96.6385 109.298 96.4877C109.684 96.3369 111.158 96.4295 111.322 96.2364C111.486 96.0432 111.407 95.4267 111.407 95.4267C111.552 94.6726 111.38 93.5003 111.248 93.4421C111.113 93.3839 111.039 93.8735 110.925 94.0294C110.817 94.1908 110.478 94.3814 110.089 94.1431C109.703 93.905 109.626 93.3148 109.166 93.1455C108.708 92.9762 108.499 93.037 108.499 93.037C107.957 93.2805 107.041 94.2781 106.44 94.6459C105.84 95.0136 104.985 95.2332 104.818 95.3523C104.652 95.4713 104.678 95.7968 104.678 95.7968C104.678 95.7968 104.381 96.2836 104.635 96.5748Z" fill="#8283D0"/>
<path id="Vector_103" d="M104.635 96.5751C104.659 96.6016 104.691 96.6253 104.731 96.6518C105.122 96.8874 106.255 96.9959 107.062 96.9827C107.951 96.9668 108.911 96.6387 109.298 96.4879C109.684 96.3372 111.158 96.4297 111.322 96.2366C111.486 96.0434 111.407 95.4269 111.407 95.4269C110.952 95.3818 109.83 95.5805 109.242 95.7207C108.655 95.8609 108.417 96.2498 106.67 96.2578C104.924 96.2684 104.678 95.7973 104.678 95.7973C104.678 95.7973 104.381 96.2839 104.635 96.5751Z" fill="#363193"/>
</g>
<g id="Group_62">
<path id="Vector_104" d="M122.478 90.1377C122.642 90.7189 123.305 92.1054 123.305 92.1054L123.39 93.3616L122.749 93.7241L120.698 92.2613C120.698 92.2613 120.398 90.9688 120.435 90.9862L122.478 90.1377Z" fill="#F9DACA"/>
<path id="Vector_105" d="M117.741 96.6619C117.77 96.6819 117.807 96.6971 117.852 96.7131C118.289 96.8462 119.414 96.6758 120.193 96.4663C121.052 96.2345 121.903 95.6824 122.241 95.4419C122.58 95.2014 124.031 94.9325 124.144 94.7052C124.256 94.4779 124.029 93.8993 124.029 93.8993C123.986 93.1323 123.534 92.0372 123.391 92.013C123.246 91.9893 123.294 92.4822 123.221 92.6614C123.155 92.8444 122.873 93.1116 122.438 92.9754C122.005 92.8385 121.787 92.2847 121.3 92.2326C120.814 92.1798 120.626 92.2897 120.626 92.2897C120.16 92.6579 119.515 93.8483 119.021 94.3513C118.528 94.8543 117.753 95.2754 117.62 95.4313C117.487 95.5875 117.592 95.8966 117.592 95.8966C117.592 95.8966 117.423 96.4414 117.741 96.6619Z" fill="#8283D0"/>
<path id="Vector_106" d="M117.741 96.6621C117.77 96.682 117.807 96.6973 117.852 96.7133C118.289 96.8464 119.414 96.6759 120.193 96.4664C121.052 96.2347 121.903 95.6825 122.242 95.4421C122.58 95.2016 124.032 94.9327 124.144 94.7054C124.256 94.4781 124.029 93.8994 124.029 93.8994C123.576 93.9666 122.537 94.4323 122.001 94.7113C121.465 94.9902 121.329 95.4256 119.637 95.8584C117.946 96.2938 117.592 95.897 117.592 95.897C117.592 95.897 117.423 96.4415 117.741 96.6621Z" fill="#363193"/>
</g>
<g id="Group_63">
<g id="Group_64">
<path id="Vector_107" d="M96.9279 33.8665C96.9331 33.7058 97.1442 33.7676 97.2071 33.8951C97.2156 33.9123 97.2287 33.9522 97.2447 34.0064C97.2062 33.7453 97.178 33.5318 97.1797 33.479C97.1846 33.3266 97.3788 33.3686 97.4525 33.4823C97.4403 33.3768 97.4331 33.2972 97.4335 33.2632C97.4363 33.0678 97.6493 33.1328 97.7142 33.289C97.7287 33.324 97.7529 33.4236 97.7811 33.5539C97.7729 33.4844 97.7679 33.4311 97.7686 33.4067C97.7738 33.246 97.9603 33.273 98.023 33.4008C98.0436 33.4426 98.0587 33.5203 98.1016 33.7058C98.138 33.8639 98.1965 34.0323 98.2301 34.1917C98.2606 34.3364 98.4884 35.0106 98.836 35.0555C99.3686 35.1243 98.9616 34.241 99.3139 34.0062C99.4245 33.9325 99.6058 34.6285 99.6476 35.027C99.6894 35.4256 99.7079 35.6256 99.6899 35.8638C99.6767 36.1017 99.5741 36.4452 99.6041 36.5861C99.6525 36.813 99.9592 37.262 99.9592 37.262L98.6617 37.6723C98.6617 37.6723 98.289 36.9713 98.1153 36.8156C97.6806 36.4483 97.3913 36.0094 97.1975 35.4655C97.0761 35.1247 97.0143 34.7638 96.958 34.4078C96.9584 34.4082 96.9263 33.9191 96.9279 33.8665Z" fill="#FFB6AC"/>
<path id="Vector_108" d="M110.288 44.2458C110.288 44.2458 106.832 43.2908 103.592 41.8388C101.565 39.4439 99.5774 36.7733 99.4248 36.5229C99.0786 36.6892 98.3396 37.1039 98.3396 37.1039C98.3396 37.1039 101.16 42.6588 102.197 43.8079C103.38 44.7963 105.11 46.9592 109.079 47.6348C110.764 45.3435 110.288 44.2458 110.288 44.2458Z" fill="#FFB6AC"/>
<path id="Vector_109" d="M107.44 77.5334C107.197 74.3633 108.294 64.4243 108.4 63.5692C108.503 62.7139 109.109 62.605 109.568 62.4646C111.861 61.7751 114.58 65.3312 113.856 68.525C113.846 68.5762 114.201 68.8799 114.187 68.9348C113.756 70.7844 112.016 77.0447 111.698 78.1734C112.761 82.1943 111.683 89.1265 111.227 92.2604C109.945 92.4412 108.253 92.1399 108.253 92.1399C108.253 92.1399 107.682 80.7035 107.44 77.5334Z" fill="#5643B9"/>
<path id="Vector_110" d="M108.769 60.1856C108.769 60.1856 109.64 60.401 111.375 60.3556C113.578 60.2979 116.372 59.1826 116.372 59.1826C119.183 62.2245 117.638 65.7865 117.735 66.9579C117.833 68.1293 118.394 74.07 118.646 77.1703C121.353 81.2314 122.965 90.693 122.975 90.7374C121.616 91.4583 120.24 91.5706 120.24 91.5706C120.24 91.5706 115.36 81.3302 114.384 78.4537C113.498 75.8442 111.212 67.9228 111.169 67.9301L108.253 68.4289C108.247 63.3825 108.769 60.1856 108.769 60.1856Z" fill="#5643B9"/>
<path id="Vector_111" d="M118.313 63.6031C117.764 63.705 117.23 63.7849 116.706 63.8466C111.755 64.4647 108.025 63.5486 108.025 63.5486C108.025 63.5486 107.603 51.5085 109.447 45.1101C109.778 43.9577 110.366 43.725 111.515 43.8304C112.557 45.6758 114.685 44.1014 114.685 44.1014C115.565 44.5375 116.969 45.1502 117.641 45.7077C118.087 46.0783 117.298 51.4483 117.495 54.4893C117.626 56.5077 118.033 61.8364 118.313 63.6031Z" fill="#B0B2FF"/>
<path id="Vector_112" d="M110.657 43.8451C110.657 43.8451 107.823 43.1805 106.186 42.7749C104.925 44.2459 105.067 46.6162 105.067 46.6162C105.067 46.6162 107.689 48.283 109.607 48.4434C110.018 45.6491 110.657 43.8451 110.657 43.8451Z" fill="#B0B2FF"/>
<path id="Vector_113" d="M110.288 44.2461C110.288 44.2461 109.106 45.7408 108.718 48.2825C107.396 48.0251 105.328 46.8817 105.067 46.6163C105.649 46.8047 108.133 47.7285 108.473 46.9636C109.106 45.5384 110.288 44.2461 110.288 44.2461Z" fill="#7A86DD"/>
</g>
</g>
<g id="Group_65">
<path id="Vector_114" d="M110.798 66.6387C110.798 66.6387 110.855 66.8082 110.956 67.1048C111.052 67.4028 111.199 67.826 111.359 68.3382C111.518 68.8506 111.714 69.4455 111.907 70.0877C112.102 70.7296 112.31 71.4141 112.517 72.0987C112.718 72.7853 112.918 73.472 113.106 74.1157C113.297 74.7584 113.459 75.3632 113.61 75.8779C113.907 76.9096 114.104 77.5974 114.104 77.5974C114.104 77.5974 114.038 77.4309 113.922 77.1395C113.815 76.845 113.654 76.4267 113.484 75.9174C113.315 75.408 113.109 74.8157 112.911 74.1746C112.714 73.5333 112.503 72.8494 112.293 72.1654C112.095 71.4775 111.898 70.7897 111.712 70.1448C111.528 69.4999 111.373 68.8929 111.232 68.3748C111.093 67.8565 110.99 67.4207 110.912 67.1173C110.84 66.8129 110.798 66.6387 110.798 66.6387Z" fill="#2B269B"/>
</g>
<g id="Group_66">
<path id="Vector_115" d="M125.033 49.3208L108.55 48.0195L107.249 64.5025L123.732 65.8038L125.033 49.3208Z" fill="#F8D846"/>
<path id="Vector_116" d="M124.203 49.9875L109.264 48.8081L108.243 61.7359L123.183 62.9153L124.203 49.9875Z" fill="white"/>
<path id="Vector_117" d="M114.793 59.6163L119.415 55.8462L123.359 60.6677L123.181 62.9172L114.586 62.2385L114.793 59.6163Z" fill="#F4A34A"/>
<path id="Vector_118" d="M108.422 59.4612L114.511 53.6807L122.041 62.8269L108.242 61.7373L108.422 59.4612Z" fill="#F7C148"/>
<path id="Vector_119" d="M120.636 52.6792C120.557 53.6843 119.678 54.4349 118.673 54.3555C117.668 54.2761 116.917 53.3971 116.996 52.392C117.076 51.3869 117.955 50.6363 118.96 50.7157C119.965 50.7949 120.716 51.6741 120.636 52.6792Z" fill="#F8D846"/>
</g>
<path id="Vector_120" d="M116.138 51.1641C116.138 51.1641 117.431 55.1094 117.716 55.5039C118.001 55.8985 119.535 55.9424 119.689 55.0218C119.842 54.1012 119.207 50.6602 119.207 50.6602" fill="#FBAB99"/>
<path id="Vector_121" d="M117.641 45.7086C117.641 45.7086 119.162 47.3506 119.688 51.4713C119.688 51.4713 118.15 52.0164 116.313 52.0302C116.313 52.0302 115.348 50.7353 114.888 48.444C114.428 46.1524 115.891 44.8009 117.641 45.7086Z" fill="#B0B2FF"/>
<path id="Vector_122" d="M117.347 54.3916C117.347 54.3916 116.96 58.6217 116.665 61.5699C116.578 62.4449 116.476 63.1703 116.337 63.729C116.337 63.729 116.631 64.042 117.448 63.9563C117.448 63.9563 119.869 56.5448 119.712 54.5886" fill="#FBAB99"/>
<path id="Vector_123" d="M116.424 63.3384C116.424 63.3384 115.971 63.79 115.819 63.891C115.666 63.9919 115.298 64.63 115.292 64.6786C115.285 64.7272 115.484 64.7566 115.604 64.6786C115.723 64.6006 116.072 64.2625 116.124 64.2364C116.176 64.2103 116.774 64.2164 116.894 63.891" fill="#FBAB99"/>
<path id="Vector_124" d="M116.546 63.8363C116.546 63.8363 116.287 64.5183 116.199 64.7266C116.11 64.9349 115.795 65.1054 115.789 65.1939C115.782 65.2822 116.679 65.5755 117.253 65.5123C117.659 65.4677 117.907 64.8207 117.834 64.2343C117.804 63.9901 117.544 63.6536 117.687 63.272" fill="#FBAB99"/>
</g>
</g>
<g id="Group_67">
<g id="Group_68">
<path id="Vector_125" d="M148.028 47.6741H125.383C125.261 47.6741 125.162 47.575 125.162 47.4529V30.0441C125.162 29.6616 125.472 29.3516 125.855 29.3516H147.222C147.789 29.3516 148.249 29.8111 148.249 30.378V47.4529C148.249 47.5753 148.15 47.6741 148.028 47.6741Z" fill="#D6D4FF"/>
<path id="Vector_126" d="M138.053 46.2465H127.326C127.056 46.2465 126.838 46.0284 126.838 45.7592V42.9111C126.838 42.642 127.056 42.4238 127.326 42.4238H138.053C138.323 42.4238 138.541 42.642 138.541 42.9111V45.7592C138.541 46.0284 138.323 46.2465 138.053 46.2465Z" fill="white"/>
<g id="Group_69">
<path id="Vector_127" opacity="0.31" d="M138.197 32.3498H127.179C126.99 32.3498 126.837 32.1967 126.837 32.0077C126.837 31.8186 126.99 31.6655 127.179 31.6655H138.197C138.386 31.6655 138.54 31.8186 138.54 32.0077C138.54 32.1967 138.386 32.3498 138.197 32.3498Z" fill="white"/>
<path id="Vector_128" opacity="0.31" d="M138.197 33.7644H127.179C126.99 33.7644 126.837 33.6113 126.837 33.4222C126.837 33.2332 126.99 33.0801 127.179 33.0801H138.197C138.386 33.0801 138.54 33.2332 138.54 33.4222C138.54 33.611 138.386 33.7644 138.197 33.7644Z" fill="white"/>
<path id="Vector_129" opacity="0.31" d="M138.197 35.1785H127.179C126.99 35.1785 126.837 35.0253 126.837 34.8363C126.837 34.6473 126.99 34.4941 127.179 34.4941H138.197C138.386 34.4941 138.54 34.6473 138.54 34.8363C138.54 35.0253 138.386 35.1785 138.197 35.1785Z" fill="white"/>
<path id="Vector_130" opacity="0.31" d="M138.197 36.5932H127.179C126.99 36.5932 126.837 36.4401 126.837 36.2511C126.837 36.062 126.99 35.9087 127.179 35.9087H138.197C138.386 35.9087 138.54 36.0618 138.54 36.2511C138.54 36.4401 138.386 36.5932 138.197 36.5932Z" fill="white"/>
<path id="Vector_131" opacity="0.31" d="M138.197 38.0076H127.179C126.99 38.0076 126.837 37.8544 126.837 37.6654C126.837 37.4764 126.99 37.3232 127.179 37.3232H138.197C138.386 37.3232 138.54 37.4764 138.54 37.6654C138.54 37.8542 138.386 38.0076 138.197 38.0076Z" fill="white"/>
<path id="Vector_132" opacity="0.31" d="M136.475 39.4226H127.179C126.99 39.4226 126.837 39.2695 126.837 39.0804C126.837 38.8914 126.99 38.7383 127.179 38.7383H136.475C136.664 38.7383 136.817 38.8914 136.817 39.0804C136.817 39.2695 136.664 39.4226 136.475 39.4226Z" fill="white"/>
</g>
<g id="Group_70">
<path id="Vector_133" d="M140.135 43.8091L140.306 44.1552L140.688 44.2107L140.412 44.4803L140.477 44.8607L140.135 44.681L139.794 44.8607L139.859 44.4803L139.582 44.2107L139.964 44.1552L140.135 43.8091Z" fill="#F7C148"/>
<path id="Vector_134" d="M141.83 43.8091L142.001 44.1552L142.383 44.2107L142.107 44.4803L142.172 44.8607L141.83 44.681L141.489 44.8607L141.554 44.4803L141.278 44.2107L141.659 44.1552L141.83 43.8091Z" fill="#F7C148"/>
<path id="Vector_135" d="M143.525 43.8091L143.696 44.1552L144.078 44.2107L143.801 44.4803L143.867 44.8607L143.525 44.681L143.183 44.8607L143.248 44.4803L142.972 44.2107L143.354 44.1552L143.525 43.8091Z" fill="#F7C148"/>
<path id="Vector_136" d="M145.219 43.8091L145.39 44.1552L145.772 44.2107L145.496 44.4803L145.561 44.8607L145.219 44.681L144.878 44.8607L144.943 44.4803L144.666 44.2107L145.048 44.1552L145.219 43.8091Z" fill="#F7C148"/>
<path id="Vector_137" d="M146.914 43.8091L147.085 44.1552L147.467 44.2107L147.191 44.4803L147.256 44.8607L146.914 44.681L146.573 44.8607L146.638 44.4803L146.362 44.2107L146.744 44.1552L146.914 43.8091Z" fill="#F7C148"/>
</g>
<path id="Vector_138" d="M148.015 28.7651H125.396C125.267 28.7651 125.162 28.8699 125.162 28.999V30.731H148.249V28.9988C148.249 28.8699 148.144 28.7651 148.015 28.7651Z" fill="#854DCE"/>
<g id="Group_71">
<path id="Vector_139" d="M144.821 29.7479C144.821 29.8658 144.726 29.9611 144.608 29.9611C144.49 29.9611 144.394 29.8656 144.394 29.7479C144.394 29.63 144.49 29.5347 144.608 29.5347C144.726 29.5344 144.821 29.63 144.821 29.7479Z" fill="white"/>
<path id="Vector_140" d="M145.881 29.7479C145.881 29.8658 145.785 29.9611 145.667 29.9611C145.549 29.9611 145.454 29.8656 145.454 29.7479C145.454 29.63 145.55 29.5347 145.667 29.5347C145.785 29.5347 145.881 29.63 145.881 29.7479Z" fill="white"/>
<path id="Vector_141" d="M146.941 29.7479C146.941 29.8658 146.846 29.9611 146.728 29.9611C146.61 29.9611 146.514 29.8656 146.514 29.7479C146.514 29.63 146.61 29.5347 146.728 29.5347C146.846 29.5344 146.941 29.63 146.941 29.7479Z" fill="white"/>
</g>
<g id="Group_72">
<path id="Vector_142" d="M147.365 31.887V39.1989C147.365 39.3227 147.265 39.4225 147.142 39.4225H139.909C139.788 39.4225 139.688 39.3225 139.688 39.1989V31.887C139.688 31.7661 139.788 31.666 139.909 31.666H147.142C147.266 31.666 147.365 31.7661 147.365 31.887Z" fill="white"/>
<path id="Vector_143" d="M147.366 37.8289V39.1991C147.366 39.3229 147.266 39.4227 147.142 39.4227H143.554L143.707 37.8289L145.396 35.9614L147.366 37.8289Z" fill="#6C3DB7"/>
<path id="Vector_144" d="M146.361 39.4225H139.909C139.788 39.4225 139.688 39.3224 139.688 39.1989V37.8286L142.213 35.1787L146.361 39.4225Z" fill="#854DCE"/>
<path id="Vector_145" d="M145.46 34.6546C145.952 34.6546 146.35 34.256 146.35 33.7643C146.35 33.2726 145.952 32.874 145.46 32.874C144.969 32.874 144.57 33.2726 144.57 33.7643C144.57 34.256 144.969 34.6546 145.46 34.6546Z" fill="#854DCE"/>
</g>
</g>
<g id="Group_73">
<path id="Vector_146" d="M13.7136 42.7389H30.1358L28.2411 41.3372V35.8105C28.2411 35.5717 28.0474 35.3779 27.8086 35.3779H13.7133C13.4745 35.3779 13.2808 35.5717 13.2808 35.8105V42.3066C13.2812 42.5454 13.4747 42.7389 13.7136 42.7389Z" fill="white" stroke="#D6D4FF" stroke-width="0.176129" stroke-miterlimit="10"/>
<path id="Vector_147" opacity="0.24" d="M14.2005 37.2158H21.7184V36.4965H14.2005V37.2158Z" fill="#A4A4F7"/>
<path id="Vector_148" opacity="0.24" d="M14.2005 38.2905H21.7184V37.5712H14.2005V38.2905Z" fill="#A4A4F7"/>
<path id="Vector_149" opacity="0.24" d="M14.2005 39.3652H21.7184V38.6459H14.2005V39.3652Z" fill="#A4A4F7"/>
<path id="Vector_150" opacity="0.24" d="M14.2005 40.4121H21.7184V39.6928H14.2005V40.4121Z" fill="#A4A4F7"/>
<path id="Vector_151" opacity="0.24" d="M14.2007 41.6646H19.4435V40.9452H14.2007V41.6646Z" fill="#A4A4F7"/>
<g id="Group_74">
<path id="Vector_152" opacity="0.24" d="M27.4381 36.6011V41.515C27.4381 41.5982 27.3709 41.6653 27.2878 41.6653H22.4269C22.3456 41.6653 22.2784 41.5982 22.2784 41.515V36.6011C22.2784 36.5198 22.3456 36.4526 22.4269 36.4526H27.2878C27.3709 36.4524 27.4381 36.5196 27.4381 36.6011Z" fill="#A4A4F7"/>
<path id="Vector_153" d="M27.4377 40.5941V41.5151C27.4377 41.5983 27.3706 41.6654 27.2874 41.6654H24.8763L24.9787 40.5943L26.1135 39.3394L27.4377 40.5941Z" fill="#6C3DB7"/>
<path id="Vector_154" d="M26.7629 41.6651H22.4269C22.3456 41.6651 22.2784 41.5979 22.2784 41.5148V40.5938L23.9754 38.813L26.7629 41.6651Z" fill="#854DCE"/>
<path id="Vector_155" d="M26.7556 37.8625C26.7556 38.1929 26.4876 38.4607 26.1572 38.4607C25.8268 38.4607 25.5588 38.1927 25.5588 37.8625C25.5588 37.5321 25.8268 37.2642 26.1572 37.2642C26.4879 37.2644 26.7556 37.5321 26.7556 37.8625Z" fill="#854DCE"/>
</g>
</g>
<g id="Group_75">
<g id="Group_76">
<g id="Group_77">
<path id="Vector_156" d="M119.346 27.7739C119.079 28.4448 118.318 28.7717 117.647 28.5042C116.976 28.2367 116.649 27.4761 116.917 26.8051C117.184 26.1342 117.945 25.8073 118.616 26.0748C119.287 26.3423 119.614 27.1029 119.346 27.7739Z" fill="#9999F1"/>
<path id="Vector_157" d="M117.575 27.1333L117.868 27.7878L118.851 27.1803" stroke="white" stroke-width="0.248083" stroke-miterlimit="10" stroke-linecap="round" stroke-linejoin="round"/>
</g>
<g id="Group_78">
<path id="Vector_158" d="M34.7937 23.9365C35.0187 24.6229 34.6446 25.3615 33.9582 25.5865C33.2717 25.8114 32.5332 25.4373 32.3082 24.7509C32.0832 24.0645 32.4573 23.3259 33.1438 23.1009C33.8302 22.8762 34.5688 23.2503 34.7937 23.9365Z" fill="#9999F1"/>
<path id="Vector_159" d="M33.0234 24.5811L33.6683 24.8953L34.0328 23.7988" stroke="white" stroke-width="0.248083" stroke-miterlimit="10" stroke-linecap="round" stroke-linejoin="round"/>
</g>
<g id="Group_79">
<path id="Vector_160" d="M135.651 54.9658C135.57 56.0672 134.611 56.8946 133.509 56.8133C132.407 56.7321 131.58 55.7735 131.662 54.6718C131.743 53.5704 132.702 52.7431 133.803 52.8244C134.905 52.9056 135.732 53.8642 135.651 54.9658Z" fill="#9999F1"/>
<path id="Vector_161" d="M132.772 54.8474L133.501 55.6667L134.654 54.3281" stroke="white" stroke-width="0.379381" stroke-miterlimit="10" stroke-linecap="round" stroke-linejoin="round"/>
</g>
<path id="Vector_162" d="M129.515 54.748C129.515 55.0136 129.3 55.229 129.034 55.229C128.769 55.229 128.553 55.0136 128.553 54.748C128.553 54.4824 128.769 54.2671 129.034 54.2671C129.3 54.2671 129.515 54.4822 129.515 54.748Z" fill="#9999F1"/>
<path id="Vector_163" opacity="0.3" d="M113.323 21.6733C113.323 21.9389 113.108 22.1543 112.843 22.1543C112.577 22.1543 112.362 21.9389 112.362 21.6733C112.362 21.4077 112.577 21.1924 112.843 21.1924C113.108 21.1924 113.323 21.4077 113.323 21.6733Z" fill="#9999F1"/>
<path id="Vector_164" d="M28.1052 48.2352C28.1052 48.6591 27.7616 49.0027 27.3378 49.0027C26.9139 49.0027 26.5703 48.6591 26.5703 48.2352C26.5703 47.8113 26.9139 47.4678 27.3378 47.4678C27.7616 47.4675 28.1052 47.8113 28.1052 48.2352Z" fill="#9999F1"/>
<path id="Vector_165" opacity="0.3" d="M103.852 20.9047C103.852 21.5566 103.324 22.0852 102.672 22.0852C102.02 22.0852 101.491 21.5566 101.491 20.9047C101.491 20.2527 102.02 19.7241 102.672 19.7241C103.324 19.7241 103.852 20.2527 103.852 20.9047Z" fill="#9999F1"/>
<path id="Vector_166" opacity="0.3" d="M22.5823 56.9891C22.5823 57.641 22.0539 58.1697 21.402 58.1697C20.7501 58.1697 20.2214 57.641 20.2214 56.9891C20.2214 56.3372 20.7501 55.8086 21.402 55.8086C22.0536 55.8088 22.5823 56.3372 22.5823 56.9891Z" fill="#9999F1"/>
<path id="Vector_167" opacity="0.3" d="M69.4037 20.9047C69.4037 21.3285 69.0601 21.6721 68.6362 21.6721C68.2123 21.6721 67.8688 21.3285 67.8688 20.9047C67.8688 20.4808 68.2123 20.1372 68.6362 20.1372C69.0601 20.1372 69.4037 20.4808 69.4037 20.9047Z" fill="#9999F1"/>
<path id="Vector_168" opacity="0.3" d="M76.4314 25.9818C76.4314 26.4057 76.0878 26.7493 75.6639 26.7493C75.2401 26.7493 74.8965 26.4057 74.8965 25.9818C74.8965 25.5579 75.2401 25.2144 75.6639 25.2144C76.0878 25.2144 76.4314 25.5579 76.4314 25.9818Z" fill="#9999F1"/>
<path id="Vector_169" opacity="0.2" d="M88.4045 21.6718C88.4045 22.0956 88.061 22.4392 87.6371 22.4392C87.2132 22.4392 86.8696 22.0956 86.8696 21.6718C86.8696 21.2479 87.2132 20.9043 87.6371 20.9043C88.061 20.9043 88.4045 21.2479 88.4045 21.6718Z" fill="#9999F1"/>
<g id="Group_80">
<g id="Group_81">
<g id="Group_82">
<path id="Vector_170" d="M20.4611 46.6C20.3765 46.6 20.3077 46.5312 20.3077 46.4467V45.3648C20.3077 45.2802 20.3765 45.2114 20.4611 45.2114C20.5459 45.2114 20.6144 45.28 20.6144 45.3648V46.4467C20.6144 46.5312 20.5459 46.6 20.4611 46.6Z" fill="#9999F1"/>
</g>
<g id="Group_83">
<path id="Vector_171" d="M20.9999 46.0591H19.9178C19.8332 46.0591 19.7644 45.9903 19.7644 45.9058C19.7644 45.8212 19.8332 45.7524 19.9178 45.7524H20.9999C21.0844 45.7524 21.1532 45.8212 21.1532 45.9058C21.1532 45.9903 21.0844 46.0591 20.9999 46.0591Z" fill="#9999F1"/>
</g>
</g>
</g>
<g id="Group_84" opacity="0.3">
<g id="Group_85">
<g id="Group_86">
<path id="Vector_172" d="M28.9524 19.4101C28.8679 19.4101 28.7991 19.3413 28.7991 19.2567V18.1748C28.7991 18.0903 28.8679 18.0215 28.9524 18.0215C29.037 18.0215 29.1058 18.0901 29.1058 18.1748V19.2567C29.106 19.3415 29.0372 19.4101 28.9524 19.4101Z" fill="#9999F1"/>
</g>
<g id="Group_87">
<path id="Vector_173" d="M29.4912 18.8687H28.4091C28.3245 18.8687 28.2557 18.7999 28.2557 18.7154C28.2557 18.6308 28.3245 18.562 28.4091 18.562H29.4912C29.5758 18.562 29.6446 18.6308 29.6446 18.7154C29.6446 18.8001 29.5758 18.8687 29.4912 18.8687Z" fill="#9999F1"/>
</g>
</g>
</g>
<g id="Group_88">
<g id="Group_89">
<g id="Group_90">
<path id="Vector_174" d="M118.968 32.3593C118.883 32.3593 118.815 32.2905 118.815 32.206V31.1241C118.815 31.0395 118.883 30.9707 118.968 30.9707C119.052 30.9707 119.121 31.0395 119.121 31.1241V32.206C119.121 32.2905 119.052 32.3593 118.968 32.3593Z" fill="#9999F1"/>
</g>
<g id="Group_91">
<path id="Vector_175" d="M119.507 31.8179H118.425C118.34 31.8179 118.271 31.7491 118.271 31.6646C118.271 31.58 118.34 31.5112 118.425 31.5112H119.507C119.591 31.5112 119.66 31.58 119.66 31.6646C119.66 31.7491 119.592 31.8179 119.507 31.8179Z" fill="#9999F1"/>
</g>
</g>
</g>
<g id="Group_92">
<g id="Group_93">
<g id="Group_94">
<path id="Vector_176" d="M56.288 22.7787C56.2034 22.7787 56.1346 22.7099 56.1346 22.6254V21.5435C56.1346 21.4589 56.2034 21.3901 56.288 21.3901C56.3725 21.3901 56.4413 21.4589 56.4413 21.5435V22.6254C56.4413 22.7102 56.3728 22.7787 56.288 22.7787Z" fill="#9999F1"/>
</g>
<g id="Group_95">
<path id="Vector_177" d="M56.8307 22.2379H55.7486C55.664 22.2379 55.5952 22.169 55.5952 22.0845C55.5952 22 55.664 21.9312 55.7486 21.9312H56.8307C56.9152 21.9312 56.984 22 56.984 22.0845C56.984 22.169 56.9152 22.2379 56.8307 22.2379Z" fill="#9999F1"/>
</g>
</g>
</g>
</g>
</g>
<path id="Vector_178" d="M119.602 10.2759H114.516C114.337 10.2759 114.192 10.4205 114.192 10.5995V15.6863C114.192 15.8653 114.337 16.0099 114.516 16.0099H119.602C119.781 16.0099 119.926 15.8653 119.926 15.6863V10.5995C119.926 10.4205 119.781 10.2759 119.602 10.2759ZM118.074 13.0824V14.8947H116.044V13.0824H115.418L117.059 11.3911L118.7 13.0824H118.074Z" fill="#9999F1"/>
<g id="Group_96">
<path id="Vector_179" d="M65.6385 13.5561V18.3668C65.6385 18.4405 65.6148 18.5088 65.5753 18.5614C65.515 18.6509 65.4124 18.7061 65.2992 18.7061H58.2319C58.1399 18.7061 58.0584 18.6692 57.9978 18.614V14.1479C57.9978 13.9849 58.1319 13.8534 58.2951 13.8534H63.261C63.424 13.8534 63.5555 13.7193 63.5555 13.5561C63.5555 13.3931 63.687 13.2588 63.85 13.2588H65.3412C65.5044 13.2588 65.6385 13.3929 65.6385 13.5561Z" fill="#383493"/>
<path id="Vector_180" d="M65.575 18.5614C65.5146 18.6509 65.412 18.7061 65.2988 18.7061H58.2316C58.1395 18.7061 58.058 18.6692 57.9974 18.614C57.9686 18.5851 57.9423 18.5508 57.9265 18.514C57.9214 18.506 57.9185 18.4982 57.9159 18.4903L56.343 14.9C56.2615 14.7133 56.3982 14.5029 56.6034 14.5029H63.6103C63.7235 14.5029 63.8261 14.5687 63.8707 14.6713L65.3437 18.0328L65.575 18.5614Z" fill="#8283D0"/>
</g>
<path id="Vector_181" opacity="0.3" d="M40.9904 11.12C40.9822 11.082 40.9742 11.0413 40.9634 11.0033C40.9308 10.846 40.8876 10.694 40.8359 10.5449C40.7192 10.2058 40.5593 9.88852 40.3613 9.59568L40.8251 9.13469L39.7157 8.02531L39.6941 8.04692L39.2547 8.48912C38.8017 8.18266 38.2865 7.96566 37.7304 7.85717V7.20361H36.1626V7.85717C35.6065 7.96566 35.0913 8.18266 34.6383 8.48912L34.1773 8.02531L33.0679 9.13469L33.5317 9.59568C33.2253 10.0487 33.0083 10.5639 32.8998 11.12H32.2462V12.6876H32.9026C33.0083 13.2437 33.2253 13.7589 33.5317 14.2119L33.0679 14.6729L34.1773 15.7823L34.6383 15.3185C35.0913 15.6249 35.6065 15.8419 36.1626 15.9476V16.604H37.7304V15.9478C38.2863 15.8421 38.8017 15.6252 39.2547 15.3187L39.6941 15.7607L39.7157 15.7823L40.3829 15.1151L40.8249 14.6729L40.3829 14.2335L40.3613 14.2119C40.3695 14.2011 40.3749 14.1903 40.3829 14.1793C40.6786 13.7345 40.8873 13.23 40.9904 12.6876H41.6468V11.12H40.9904ZM36.9465 14.5212C35.5008 14.5212 34.3292 13.3496 34.3292 11.9039C34.3292 10.4582 35.5008 9.28663 36.9465 9.28663C38.3922 9.28663 39.5638 10.4582 39.5638 11.9039C39.5638 13.3493 38.3922 14.5212 36.9465 14.5212Z" fill="#9999F1"/>
<path id="Vector_182" d="M47.2741 20.311L43.1047 24.6034H44.6967V31.653H49.8512V24.6034H51.4431L47.2741 20.311Z" fill="#8283D0"/>
<path id="Vector_183" d="M141.831 52.1646L139.101 54.9751H140.144V59.5911H143.519V54.9751H144.561L141.831 52.1646Z" fill="#854DCE"/>
<g id="Group_97">
<path id="Vector_184" d="M92.1321 28.1942C92.3646 28.1942 92.5872 28.2342 92.796 28.3044C92.8463 26.5692 94.2678 25.1777 96.0149 25.1777C97.7941 25.1777 99.2362 26.6199 99.2362 28.399C99.2362 28.4805 99.2322 28.5608 99.2264 28.6407C99.5373 28.1163 100.107 27.7635 100.761 27.7635C101.747 27.7635 102.546 28.5625 102.546 29.5481C102.546 29.6878 102.528 29.8233 102.497 29.9536C102.682 29.8513 102.893 29.7923 103.119 29.7923C103.825 29.7923 104.398 30.3651 104.398 31.0717C104.398 31.7783 103.825 32.3511 103.119 32.3511C102.412 32.3511 93.032 32.3511 92.1321 32.3511C90.984 32.3511 90.0533 31.4204 90.0533 30.2723C90.0533 29.1249 90.984 28.1942 92.1321 28.1942Z" fill="#8283D0"/>
<path id="Vector_185" d="M96.1519 27.1338L94.7272 28.6006H95.2713V31.0098H97.0326V28.6006H97.5767L96.1519 27.1338Z" fill="white"/>
</g>
<path id="Vector_186" d="M19.4436 63.4165L16.7139 66.227H17.7561V70.8428H21.1312V66.227H22.1734L19.4436 63.4165Z" fill="#9999F1"/>
</g>
</g>
<defs>
<linearGradient id="paint0_linear_8250_6939" x1="81.3856" y1="28.2383" x2="81.3856" y2="77.769" gradientUnits="userSpaceOnUse">
<stop stop-color="white"/>
<stop offset="1" stop-color="white" stop-opacity="0"/>
</linearGradient>
<linearGradient id="paint1_linear_8250_6939" x1="91.7631" y1="28.2383" x2="91.7631" y2="77.769" gradientUnits="userSpaceOnUse">
<stop stop-color="white"/>
<stop offset="1" stop-color="white" stop-opacity="0"/>
</linearGradient>
</defs>
</svg>
