<svg width="42" height="42" viewBox="0 0 42 42" fill="none" xmlns="http://www.w3.org/2000/svg">
<circle cx="21" cy="21" r="21" fill="#F2F4F7"/>
<path d="M25 25L21 21L17 25" stroke="black" stroke-width="1.5" stroke-linecap="round" stroke-linejoin="round"/>
<path d="M21 21V30" stroke="black" stroke-width="1.5" stroke-linecap="round" stroke-linejoin="round"/>
<path d="M29.3875 27.3895C30.3629 26.8578 31.1334 26.0164 31.5774 24.9981C32.0214 23.9799 32.1137 22.8427 31.8397 21.7662C31.5657 20.6896 30.941 19.735 30.0642 19.0529C29.1874 18.3709 28.1084 18.0002 26.9975 17.9995H25.7375C25.4348 16.8287 24.8707 15.7418 24.0875 14.8205C23.3043 13.8991 22.3224 13.1673 21.2156 12.6801C20.1089 12.1929 18.9061 11.9629 17.6976 12.0074C16.4892 12.0519 15.3066 12.3698 14.2387 12.9372C13.1708 13.5045 12.2454 14.3066 11.5321 15.2831C10.8189 16.2596 10.3362 17.385 10.1205 18.5749C9.90479 19.7647 9.96162 20.988 10.2867 22.1528C10.6118 23.3175 11.1968 24.3934 11.9975 25.2995" stroke="black" stroke-width="1.5" stroke-linecap="round" stroke-linejoin="round"/>
<path d="M25 25L21 21L17 25" stroke="black" stroke-width="1.5" stroke-linecap="round" stroke-linejoin="round"/>
</svg>
