<svg width="219" height="200" viewBox="0 0 219 200" fill="none" xmlns="http://www.w3.org/2000/svg">
<g clip-path="url(#clip0_296_5695)">
<mask id="mask0_296_5695" style="mask-type:luminance" maskUnits="userSpaceOnUse" x="-25" y="-35" width="270" height="270">
<path d="M245 -35H-25V235H245V-35Z" fill="white"/>
</mask>
<g mask="url(#mask0_296_5695)">
<mask id="mask1_296_5695" style="mask-type:luminance" maskUnits="userSpaceOnUse" x="-25" y="-35" width="270" height="270">
<path d="M-25 -35H245V235H-25V-35Z" fill="white"/>
</mask>
<g mask="url(#mask1_296_5695)">
<path d="M48.8578 35.6289C50.6398 35.6289 52.0866 37.0758 52.0866 38.8578C52.0866 40.6398 50.6398 42.0866 48.8578 42.0866C47.0758 42.0866 45.6289 40.6398 45.6289 38.8578C45.6289 37.0758 47.0758 35.6289 48.8578 35.6289Z" fill="#FCBD03"/>
<path d="M48.3362 46.7695C49.5242 46.7695 50.4887 47.7341 50.4887 48.9221C50.4887 50.1101 49.5242 51.0747 48.3362 51.0747C47.1482 51.0747 46.1836 50.1101 46.1836 48.9221C46.1836 47.7341 47.1482 46.7695 48.3362 46.7695Z" fill="#FF005D"/>
<path d="M59.1935 36.5723C59.7875 36.5723 60.2698 37.0545 60.2698 37.6485C60.2698 38.2426 59.7875 38.7248 59.1935 38.7248C58.5995 38.7248 58.1172 38.2426 58.1172 37.6485C58.1172 37.0545 58.5995 36.5723 59.1935 36.5723Z" fill="#00FFC8"/>
<path d="M163.234 38.3362C163.234 39.5242 162.27 40.4887 161.082 40.4887C159.894 40.4887 158.929 39.5242 158.929 38.3362C158.929 37.1482 159.894 36.1836 161.082 36.1836C162.27 36.1836 163.234 37.1482 163.234 38.3362Z" fill="#FF005D"/>
<path d="M173.43 49.1935C173.43 49.7875 172.947 50.2698 172.353 50.2698C171.759 50.2698 171.277 49.7875 171.277 49.1935C171.277 48.5995 171.759 48.1172 172.353 48.1172C172.947 48.1172 173.43 48.5995 173.43 49.1935Z" fill="#00FFC8"/>
<path d="M171.668 153.234C170.48 153.234 169.515 152.27 169.515 151.082C169.515 149.894 170.48 148.929 171.668 148.929C172.856 148.929 173.82 149.894 173.82 151.082C173.82 152.27 172.856 153.234 171.668 153.234Z" fill="#FF005D"/>
<path d="M160.81 163.43C160.216 163.43 159.734 162.947 159.734 162.353C159.734 161.759 160.216 161.277 160.81 161.277C161.404 161.277 161.887 161.759 161.887 162.353C161.887 162.947 161.404 163.43 160.81 163.43Z" fill="#00FFC8"/>
<path d="M56.7695 161.666C56.7695 160.478 57.7341 159.513 58.9221 159.513C60.1101 159.513 61.0747 160.478 61.0747 161.666C61.0747 162.854 60.1101 163.818 58.9221 163.818C57.7341 163.818 56.7695 162.854 56.7695 161.666Z" fill="#FF005D"/>
<path d="M46.5703 150.81C46.5703 150.216 47.0526 149.734 47.6466 149.734C48.2406 149.734 48.7229 150.216 48.7229 150.81C48.7229 151.404 48.2406 151.887 47.6466 151.887C47.0526 151.887 46.5703 151.404 46.5703 150.81Z" fill="#00FFC8"/>
<path d="M45.7812 161.107C45.7812 159.325 47.2281 157.878 49.0101 157.878C50.7921 157.878 52.239 159.325 52.239 161.107C52.239 162.889 50.7921 164.336 49.0101 164.336C47.2281 164.336 45.7812 162.889 45.7812 161.107Z" fill="#FCBD03"/>
<path d="M28.7565 105.962C29.5965 105.122 30.9606 105.122 31.8007 105.962C32.6407 106.802 32.6407 108.166 31.8007 109.006C30.9606 109.847 29.5965 109.847 28.7565 109.006C27.9164 108.166 27.9164 106.802 28.7565 105.962Z" fill="#FF005D"/>
<path d="M29.222 91.0788C29.642 90.6588 30.3241 90.6588 30.7441 91.0788C31.1641 91.4988 31.1641 92.1809 30.7441 92.6009C30.3241 93.0209 29.642 93.0209 29.222 92.6009C28.802 92.1809 28.802 91.4988 29.222 91.0788Z" fill="#00FFC8"/>
<path d="M21.3847 97.7989C22.6448 96.5388 24.6909 96.5388 25.951 97.7989C27.2111 99.059 27.2111 101.105 25.951 102.365C24.6909 103.625 22.6448 103.625 21.3847 102.365C20.1246 101.105 20.1246 99.059 21.3847 97.7989Z" fill="#FCBD03"/>
<path d="M191.457 101.141C190.546 101.905 189.188 101.786 188.424 100.876C187.66 99.9661 187.779 98.6072 188.689 97.8435C189.599 97.0799 190.958 97.1988 191.722 98.1088C192.485 99.0189 192.367 100.378 191.457 101.141Z" fill="#FF005D"/>
<path d="M189.695 115.93C189.24 116.312 188.561 116.252 188.179 115.797C187.797 115.342 187.856 114.663 188.311 114.281C188.766 113.899 189.446 113.959 189.828 114.414C190.21 114.869 190.15 115.548 189.695 115.93Z" fill="#00FFC8"/>
<path d="M198.089 109.919C196.724 111.065 194.686 110.886 193.54 109.521C192.395 108.156 192.573 106.118 193.938 104.972C195.303 103.827 197.342 104.005 198.487 105.37C199.632 106.735 199.454 108.774 198.089 109.919Z" fill="#FCBD03"/>
<path d="M101.207 19.0149C102.076 19.8251 102.124 21.1884 101.313 22.0573C100.503 22.9261 99.1399 22.9737 98.271 22.1635C97.4022 21.3533 97.3545 19.99 98.1648 19.1212C98.975 18.2523 100.338 18.2047 101.207 19.0149Z" fill="#FF005D"/>
<path d="M116.1 18.9606C116.534 19.3657 116.558 20.0473 116.153 20.4818C115.748 20.9162 115.066 20.94 114.632 20.5349C114.197 20.1298 114.173 19.4481 114.578 19.0137C114.984 18.5793 115.665 18.5555 116.1 18.9606Z" fill="#00FFC8"/>
<path d="M109.108 11.3622C110.411 12.5776 110.482 14.6225 109.267 15.9257C108.052 17.229 106.007 17.3004 104.703 16.0851C103.4 14.8698 103.329 12.8249 104.544 11.5216C105.759 10.2183 107.804 10.1469 109.108 11.3622Z" fill="#FCBD03"/>
<path d="M111.704 181.447C110.909 180.564 110.981 179.202 111.864 178.407C112.746 177.612 114.109 177.684 114.904 178.567C115.698 179.449 115.627 180.812 114.744 181.607C113.861 182.401 112.499 182.33 111.704 181.447Z" fill="#FF005D"/>
<path d="M96.8619 180.204C96.4644 179.763 96.5001 179.082 96.9415 178.684C97.3829 178.287 98.0641 178.322 98.4615 178.764C98.859 179.205 98.8233 179.886 98.3819 180.284C97.9404 180.681 97.2593 180.646 96.8619 180.204Z" fill="#00FFC8"/>
<path d="M103.168 188.382C101.975 187.057 102.082 185.014 103.407 183.822C104.731 182.629 106.774 182.736 107.967 184.061C109.159 185.385 109.052 187.428 107.728 188.621C106.403 189.813 104.36 189.706 103.168 188.382Z" fill="#FCBD03"/>
<path d="M171.146 164.371C169.364 164.371 167.917 162.924 167.917 161.142C167.917 159.36 169.364 157.913 171.146 157.913C172.928 157.913 174.375 159.36 174.375 161.142C174.375 162.924 172.928 164.371 171.146 164.371Z" fill="#FCBD03"/>
<path d="M174.297 38.8968C174.297 40.6788 172.85 42.1257 171.068 42.1257C169.286 42.1257 167.839 40.6788 167.839 38.8968C167.839 37.1148 169.286 35.668 171.068 35.668C172.85 35.668 174.297 37.1148 174.297 38.8968Z" fill="#FCBD03"/>
</g>
<path d="M109.998 58.6562C132.923 58.6562 151.535 77.2691 151.535 100.194C151.535 123.118 132.923 141.731 109.998 141.731C87.0738 141.731 68.4609 123.118 68.4609 100.194C68.4609 77.2691 87.0738 58.6562 109.998 58.6562Z" fill="#4086F4"/>
<path d="M109.999 38.0898C144.167 38.0898 171.909 65.8316 171.909 99.9995C171.909 134.167 144.167 161.909 109.999 161.909C75.8316 161.909 48.0898 134.167 48.0898 99.9995C48.0898 65.8316 75.8316 38.0898 109.999 38.0898Z" stroke="#4086F4" stroke-width="0.0590108"/>
<path d="M95.6875 100.801L105.012 110.125L125.32 89.8169" stroke="white" stroke-width="6.38224" stroke-linecap="round" stroke-linejoin="round"/>
</g>
</g>
<defs>
<clipPath id="clip0_296_5695">
<rect width="219" height="199" fill="white" transform="translate(0 0.5)"/>
</clipPath>
</defs>
</svg>
