<svg width="60" height="60" viewBox="0 0 60 60" fill="none" xmlns="http://www.w3.org/2000/svg">
<circle cx="30" cy="30" r="30" fill="#DEECFF"/>
<path fill-rule="evenodd" clip-rule="evenodd" d="M30.9492 31.9454V28.0566L29.0469 28.7166V31.9454H30.9492Z" fill="#CAD1D8"/>
<path d="M29.0469 21.7441H30.9492V38.2582H29.0469V21.7441Z" fill="#CAD1D8"/>
<path fill-rule="evenodd" clip-rule="evenodd" d="M30.3571 32.3313L31.6061 27.6719H29.6396L28.3906 32.3313H30.3571Z" fill="#CAD1D8"/>
<path d="M14.7812 23.7773H19.2702V40.2914H14.7812V23.7773Z" fill="#E2E5E7"/>
<path d="M40.7344 23.7773H45.2233V40.2914H40.7344V23.7773Z" fill="#E2E5E7"/>
<path fill-rule="evenodd" clip-rule="evenodd" d="M10.9531 46.7923H30.0051H49.057L47.808 42.1328H30.0051H12.2022L10.9531 46.7923Z" fill="#E2E5E7"/>
<path fill-rule="evenodd" clip-rule="evenodd" d="M30.0015 12.041L10.7812 18.7069V21.9357H30.0015H49.2195V18.7069L30.0015 12.041Z" fill="#E2E5E7"/>
<path fill-rule="evenodd" clip-rule="evenodd" d="M30.0035 19.4895C31.0776 19.4895 31.9523 18.6147 31.9523 17.5406C31.9523 16.4666 31.0776 15.5918 30.0035 15.5918C28.9295 15.5918 28.0547 16.4666 28.0547 17.5406C28.0547 18.6147 28.9295 19.4895 30.0035 19.4895Z" fill="#CAD1D8"/>
<path fill-rule="evenodd" clip-rule="evenodd" d="M37.8509 36.6129C37.6028 29.8009 22.4042 29.8009 22.1562 36.6129V40.2913H37.8509V36.6129Z" fill="#1B6FAB"/>
<path fill-rule="evenodd" clip-rule="evenodd" d="M37.8447 36.6129C37.7362 33.59 34.6779 31.9091 31.2895 31.5703C27.9012 31.9091 24.843 33.59 24.7344 36.6129V40.2912H37.8446V36.6129H37.8447Z" fill="#3589C9"/>
<path fill-rule="evenodd" clip-rule="evenodd" d="M30.0016 23.7773C27.7095 23.7773 25.8516 25.6354 25.8516 27.9252C25.8516 30.2151 27.7096 32.0753 30.0016 32.0753C32.2937 32.0753 34.1495 30.2173 34.1495 27.9252C34.1495 25.6331 32.2938 23.7773 30.0016 23.7773Z" fill="#E2B698"/>
<path fill-rule="evenodd" clip-rule="evenodd" d="M31.013 31.9523C32.8157 31.5006 34.1511 29.8706 34.1511 27.9262C34.1511 25.9819 32.8157 24.3541 31.013 23.9023C29.2104 24.3541 27.875 25.9841 27.875 27.9262C27.875 29.8684 29.2104 31.5005 31.013 31.9523Z" fill="#EFC9AE"/>
<path fill-rule="evenodd" clip-rule="evenodd" d="M29.9984 47.9606C28.2733 47.4977 24.7344 46.1004 24.7344 43.1152V37.1425C26.2979 36.2877 28.0916 35.8027 29.9984 35.8027C31.9052 35.8027 33.699 36.2877 35.2625 37.1425V43.1152C35.2625 46.1004 31.7236 47.4978 29.9984 47.9606Z" fill="#494A52"/>
<path fill-rule="evenodd" clip-rule="evenodd" d="M26.1406 36.4981C27.3409 36.0486 28.6409 35.8027 29.9984 35.8027C31.9052 35.8027 33.699 36.2877 35.2625 37.1425V43.1152C35.2625 46.1004 31.7236 47.4978 29.9984 47.9606C28.2202 47.263 26.1406 45.4737 26.1406 43.1152V36.4981Z" fill="#595A66"/>
<path fill-rule="evenodd" clip-rule="evenodd" d="M29.9998 46.0065C31.3596 45.5658 33.3881 44.6024 33.3881 43.1165V38.3286C32.3141 37.899 31.1669 37.6797 29.9998 37.6797C28.8328 37.6797 27.6856 37.8989 26.6094 38.3286V43.1165C26.6094 44.6025 28.6379 45.5658 29.9998 46.0065Z" fill="#F7B84E"/>
<path fill-rule="evenodd" clip-rule="evenodd" d="M30.003 46.0065C31.3628 45.5658 33.3913 44.6024 33.3913 43.1165V38.3286C32.3173 37.899 31.1701 37.6797 30.003 37.6797C29.2766 37.6797 28.557 37.7638 27.8594 37.9322V43.1165C27.8594 44.3611 28.7408 45.4949 30.003 46.0065Z" fill="#FFCB5B"/>
<path d="M29.7504 43.606C29.489 43.8119 29.1967 43.7676 29.0439 43.5595L28.1448 42.3371C27.992 42.1289 28.0385 41.8366 28.2467 41.6838C28.4549 41.531 28.7472 41.5753 28.9 41.7835L29.4204 42.4944L31.1057 40.2022C31.2585 39.994 31.5508 39.9498 31.7589 40.1026C31.9672 40.2554 32.0114 40.5478 31.8586 40.7559L29.7504 43.6061V43.606Z" fill="#3CB54B"/>
<path d="M29.4176 42.4926L31.1029 40.2028C31.2557 39.9946 31.548 39.9504 31.7584 40.1032C31.9644 40.256 32.0109 40.5505 31.8581 40.7565L29.7941 43.5601C29.7078 43.6819 29.566 43.7506 29.4177 43.7506C29.2693 43.7506 29.1276 43.6819 29.0412 43.5601L28.142 42.3377C27.987 42.1318 28.0335 41.8372 28.2417 41.6844C28.4499 41.5316 28.7422 41.5759 28.8973 41.7841L29.4177 42.4928L29.4176 42.4926ZM32.9188 43.1149C32.9188 44.1513 31.4373 45.0216 29.9978 45.5111C28.5605 45.0216 27.079 44.1513 27.079 43.1149V38.6504C28.0113 38.316 28.9923 38.1476 29.9978 38.1476C31.0033 38.1476 31.9865 38.3159 32.9188 38.6504V43.1149ZM33.8555 38.327C33.8555 38.1365 33.7404 37.9638 33.5632 37.893C32.4316 37.439 31.2312 37.2108 29.9977 37.2108C28.7642 37.2108 27.5684 37.439 26.4367 37.893C26.2573 37.9638 26.1422 38.1365 26.1422 38.327V43.1149C26.1422 45.0394 28.7377 46.089 29.8538 46.4501C29.9003 46.4655 29.9491 46.4744 29.9978 46.4744C30.0466 46.4744 30.0952 46.4655 30.1418 46.4501C31.2602 46.089 33.8556 45.0415 33.8556 43.1149L33.8555 38.327ZM31.4793 17.5389C31.4793 18.3561 30.8149 19.0204 29.9977 19.0204C29.1805 19.0204 28.5184 18.3561 28.5184 17.5389C28.5184 16.7217 29.1805 16.0596 29.9977 16.0596C30.8149 16.0596 31.4793 16.724 31.4793 17.5389ZM27.5816 17.5389C27.5816 18.8721 28.6645 19.9572 29.9977 19.9572C31.3309 19.9572 32.416 18.872 32.416 17.5389C32.416 16.2058 31.3309 15.1228 29.9977 15.1228C28.6646 15.1228 27.5816 16.2058 27.5816 17.5389ZM48.7507 21.4676H11.2492V19.0404L29.9978 12.5362L48.7508 19.0404V21.4676H48.7507ZM49.373 18.2631L30.1528 11.5972C30.0509 11.564 29.9446 11.564 29.845 11.5972L10.627 18.263C10.4387 18.3295 10.3125 18.5066 10.3125 18.7059V21.9347C10.3125 22.1938 10.5207 22.4043 10.7798 22.4043H49.218C49.4771 22.4043 49.6875 22.1939 49.6875 21.9347V18.7059C49.6875 18.5066 49.5612 18.3294 49.373 18.263L49.373 18.2631ZM34.2187 46.3217C35.0868 45.5289 35.7334 44.4792 35.7334 43.115V42.6012H47.4441L48.4406 46.3217H34.2187ZM29.9977 47.4755C28.7244 47.1168 25.2032 45.8744 25.2032 43.1151V37.4237C26.6759 36.6685 28.328 36.2721 29.9977 36.2721C31.6675 36.2721 33.3196 36.6685 34.7967 37.4237V43.1151C34.7967 45.8744 31.2734 47.1168 29.9977 47.4755ZM11.557 46.3217L12.5536 42.6012H24.2665V43.115C24.2665 44.4791 24.9109 45.5289 25.7791 46.3217H11.557ZM22.6188 39.8219V36.6219C22.7252 33.9245 25.4801 32.536 28.0733 32.1219C28.6602 32.392 29.3112 32.5448 29.9977 32.5448C30.6842 32.5448 31.3376 32.392 31.9222 32.1219C34.5198 32.536 37.2748 33.9245 37.3789 36.6219V39.8219H35.7334V37.1423C35.7334 36.9718 35.6405 36.8146 35.4898 36.7304C33.8156 35.818 31.9155 35.3353 29.9977 35.3353C28.0799 35.3353 26.182 35.818 24.51 36.7304C24.3595 36.8146 24.2664 36.9719 24.2664 37.1423V39.8219H22.6188ZM26.3194 27.9253C26.3194 25.8968 27.9692 24.2469 29.9977 24.2469C32.0262 24.2469 33.6805 25.8968 33.6805 27.9253C33.6805 29.9538 32.0285 31.6081 29.9977 31.6081C27.967 31.6081 26.3194 29.9561 26.3194 27.9253ZM48.2569 42.0099C48.2015 41.8062 48.0155 41.6644 47.8029 41.6644H35.7335V40.7587H37.8462C38.1053 40.7587 38.3157 40.5483 38.3157 40.2892V36.613C38.3157 36.6086 38.3157 36.6019 38.3135 36.5976C38.2227 34.0973 36.2362 32.1662 33.0451 31.3911C34.0084 30.5451 34.6174 29.305 34.6174 27.9253C34.6174 25.3808 32.5446 23.3101 29.9978 23.3101C27.451 23.3101 25.3827 25.3808 25.3827 27.9253C25.3827 29.305 25.9895 30.5451 26.9528 31.3911C23.7638 32.1662 21.7752 34.0972 21.6844 36.5976V40.2893C21.6844 40.5483 21.8926 40.7587 22.1516 40.7587H24.2666V41.6645H12.1948C11.9823 41.6645 11.7984 41.8062 11.743 42.01L10.4941 46.6716C10.4564 46.8112 10.4874 46.9617 10.5738 47.0769C10.6624 47.1921 10.7997 47.2585 10.9459 47.2585H27.0679C28.1685 47.903 29.3046 48.2594 29.8759 48.4122C29.9158 48.4233 29.9579 48.43 29.9977 48.43C30.0398 48.43 30.0797 48.4233 30.1195 48.4122C30.6909 48.2594 31.827 47.9029 32.9298 47.2585H49.0497C49.1959 47.2585 49.3331 47.192 49.4217 47.0769C49.5103 46.9618 49.5391 46.8112 49.5037 46.6716L48.2569 42.0099ZM41.1991 24.2469H44.7513V39.8219H41.1991V24.2469ZM45.2185 40.7587C45.4776 40.7587 45.688 40.5483 45.688 40.2892V23.7774C45.688 23.5183 45.4777 23.3101 45.2185 23.3101H40.7296C40.4705 23.3101 40.2623 23.5183 40.2623 23.7774V40.2892C40.2623 40.5483 40.4705 40.7587 40.7296 40.7587H45.2185ZM15.2487 24.2468H18.8009V39.8219H15.2487V24.2468ZM19.2682 40.7586C19.5273 40.7586 19.7377 40.5482 19.7377 40.2891V23.7773C19.7377 23.5183 19.5273 23.3101 19.2682 23.3101H14.7793C14.5202 23.3101 14.312 23.5183 14.312 23.7773V40.2891C14.312 40.5482 14.5202 40.7586 14.7793 40.7586H19.2682Z" fill="#070202"/>
</svg>
