<svg width="19" height="18" viewBox="0 0 19 18" fill="none" xmlns="http://www.w3.org/2000/svg">
<g clip-path="url(#clip0_1769_79118)">
<path fill-rule="evenodd" clip-rule="evenodd" d="M18.0131 7.03223C17.9428 7.03223 17.9077 7.03223 17.8374 6.96191L16.5014 5.94238V17.7549C16.4663 17.8955 16.3608 18.001 16.2202 18.001H2.82564C2.68502 18.001 2.54439 17.8955 2.54439 17.7549V5.90723L1.1733 6.96191C1.03267 7.06738 0.892049 7.03223 0.786581 6.92676C0.716268 6.82129 0.751424 6.64551 0.856893 6.5752L2.61471 5.2041C2.64986 5.16895 2.68502 5.16895 2.68502 5.13379L9.3647 0.0712891C9.43502 -0.0341797 9.57564 -0.0341797 9.64595 0.0712891C12.4936 2.25098 15.3413 4.39551 18.1538 6.5752C18.2944 6.68066 18.2944 6.82129 18.1889 6.96191C18.1538 6.99707 18.0835 7.03223 18.0131 7.03223ZM8.2397 7.48926H6.37642C6.2358 7.48926 6.13033 7.34863 6.13033 7.20801V5.37988C6.13033 5.23926 6.2358 5.09863 6.37642 5.09863H8.2397C8.38033 5.09863 8.4858 5.23926 8.4858 5.37988V7.20801C8.4858 7.34863 8.38033 7.48926 8.2397 7.48926ZM6.65767 6.96191H7.95845V5.62598H6.65767V6.96191ZM12.6342 7.48926H10.771C10.6303 7.48926 10.5249 7.34863 10.5249 7.20801V5.37988C10.5249 5.23926 10.6303 5.09863 10.771 5.09863H12.6342C12.7749 5.09863 12.8803 5.23926 12.8803 5.37988V7.20801C12.8803 7.34863 12.7749 7.48926 12.6342 7.48926ZM11.0522 6.96191H12.3881V5.62598H11.0522V6.96191ZM7.25533 13.1143C7.22017 13.1143 7.14986 13.0791 7.07955 13.0439C7.00924 12.9385 7.00924 12.7627 7.07955 12.6572C7.71236 12.0244 8.62642 11.6729 9.54049 11.6729C10.4545 11.6729 11.2983 12.0244 11.9663 12.6572C12.0717 12.7627 12.0717 12.9385 11.9663 13.0439C11.8608 13.1494 11.685 13.1494 11.5795 13.0439C11.017 12.4814 10.3139 12.165 9.50533 12.165C8.73189 12.165 7.99361 12.4814 7.43111 13.0439C7.39595 13.0791 7.32564 13.1143 7.25533 13.1143ZM12.7749 12.0947C12.7045 12.0947 12.6342 12.0596 12.5991 12.0244C11.7553 11.2158 10.6655 10.7588 9.50533 10.7588C8.34517 10.7588 7.25533 11.2158 6.44674 12.0244C6.34127 12.1299 6.16549 12.1299 6.06002 12.0244C5.95455 11.9189 5.95455 11.7783 6.06002 11.6729C7.00924 10.7236 8.20455 10.2314 9.50533 10.2314C10.8061 10.2314 12.0366 10.7588 12.9506 11.6729C13.0561 11.7783 13.0561 11.9189 12.9506 12.0244C12.8803 12.0596 12.8452 12.0947 12.7749 12.0947ZM13.935 10.9346C13.8647 10.9346 13.7944 10.8994 13.7592 10.8643C12.6342 9.73926 11.1225 9.10645 9.50533 9.10645C7.9233 9.10645 6.41158 9.73926 5.25142 10.8643C5.14596 10.9697 5.00533 10.9697 4.89986 10.8643C4.79439 10.7588 4.79439 10.583 4.89986 10.4775C6.13033 9.24707 7.78267 8.5791 9.50533 8.5791C11.2631 8.5791 12.8803 9.24707 14.1108 10.4775C14.2163 10.583 14.2163 10.7588 14.1108 10.8643C14.0756 10.8994 14.0053 10.9346 13.935 10.9346ZM9.50533 15.751C8.83736 15.751 8.27486 15.1885 8.27486 14.5205C8.27486 13.8525 8.83736 13.29 9.50533 13.29C10.2085 13.29 10.771 13.8525 10.771 14.5205C10.771 15.2236 10.2085 15.751 9.50533 15.751ZM9.50533 13.8174C9.11861 13.8174 8.80221 14.1338 8.80221 14.5205C8.80221 14.9424 9.11861 15.2588 9.50533 15.2588C9.9272 15.2588 10.2436 14.9424 10.2436 14.5205C10.2436 14.1338 9.9272 13.8174 9.50533 13.8174ZM2.54439 4.6416V1.30176C2.54439 1.16113 2.68502 1.05566 2.82564 1.05566H5.18111C5.32174 1.05566 5.42721 1.16113 5.42721 1.30176V2.42676L2.54439 4.6416Z" fill="#4A54D9"/>
</g>
<defs>
<clipPath id="clip0_1769_79118">
<rect width="18" height="18" fill="white" transform="translate(0.5)"/>
</clipPath>
</defs>
</svg>
