<svg width="24" height="25" viewBox="0 0 24 25" fill="none" xmlns="http://www.w3.org/2000/svg">
<path d="M16.875 19.9961C16.3558 19.9961 15.8483 19.8421 15.4166 19.5537C14.985 19.2653 14.6485 18.8553 14.4498 18.3756C14.2511 17.896 14.1992 17.3682 14.3004 16.859C14.4017 16.3498 14.6517 15.8821 15.0188 15.5149C15.386 15.1478 15.8537 14.8978 16.3629 14.7965C16.8721 14.6952 17.3999 14.7472 17.8795 14.9459C18.3592 15.1446 18.7692 15.481 19.0576 15.9127C19.346 16.3444 19.5 16.8519 19.5 17.3711C19.4992 18.067 19.2224 18.7343 18.7303 19.2264C18.2382 19.7185 17.571 19.9953 16.875 19.9961ZM16.875 16.2461C16.6525 16.2461 16.435 16.3121 16.25 16.4357C16.065 16.5593 15.9208 16.735 15.8356 16.9406C15.7505 17.1461 15.7282 17.3723 15.7716 17.5906C15.815 17.8088 15.9222 18.0093 16.0795 18.1666C16.2368 18.3239 16.4373 18.4311 16.6555 18.4745C16.8738 18.5179 17.1 18.4956 17.3055 18.4105C17.5111 18.3253 17.6868 18.1811 17.8104 17.9961C17.934 17.8111 18 17.5936 18 17.3711C18 17.0727 17.8815 16.7866 17.6705 16.5756C17.4595 16.3646 17.1734 16.2461 16.875 16.2461Z" fill="#575757"/>
<path d="M16.875 23.7461C15.6141 23.7461 14.3816 23.3722 13.3332 22.6717C12.2849 21.9712 11.4678 20.9756 10.9853 19.8107C10.5028 18.6458 10.3765 17.364 10.6225 16.1274C10.8685 14.8908 11.4756 13.7549 12.3672 12.8633C13.2588 11.9717 14.3947 11.3646 15.6313 11.1186C16.8679 10.8726 18.1497 10.9989 19.3146 11.4814C20.4795 11.9639 21.4751 12.781 22.1756 13.8293C22.8761 14.8777 23.25 16.1102 23.25 17.3711C23.248 19.0612 22.5757 20.6816 21.3806 21.8767C20.1855 23.0718 18.5651 23.7441 16.875 23.7461ZM16.875 12.4961C15.9108 12.4961 14.9683 12.782 14.1666 13.3177C13.3649 13.8534 12.7401 14.6147 12.3711 15.5055C12.0021 16.3963 11.9056 17.3765 12.0937 18.3222C12.2818 19.2678 12.7461 20.1365 13.4279 20.8182C14.1096 21.5 14.9783 21.9643 15.9239 22.1524C16.8696 22.3405 17.8498 22.244 18.7406 21.875C19.6314 21.506 20.3927 20.8812 20.9284 20.0795C21.4641 19.2778 21.75 18.3353 21.75 17.3711C21.7486 16.0786 21.2346 14.8394 20.3206 13.9255C19.4067 13.0115 18.1675 12.4975 16.875 12.4961Z" fill="#575757"/>
<path d="M18.75 4.24609H16.5V3.49609C16.4988 3.09863 16.3404 2.71779 16.0593 2.43674C15.7783 2.1557 15.3975 1.99728 15 1.99609H9C8.60254 1.99728 8.2217 2.1557 7.94065 2.43674C7.6596 2.71779 7.50119 3.09863 7.5 3.49609V4.24609H5.25C4.85254 4.24728 4.4717 4.4057 4.19065 4.68674C3.9096 4.96779 3.75119 5.34863 3.75 5.74609V21.4961C3.75119 21.8936 3.9096 22.2744 4.19065 22.5554C4.4717 22.8365 4.85254 22.9949 5.25 22.9961H9V21.4961H5.25V5.74609H7.5V7.99609H16.5V5.74609H18.75V9.49609H20.25V5.74609C20.2488 5.34863 20.0904 4.96779 19.8093 4.68674C19.5283 4.4057 19.1475 4.24728 18.75 4.24609ZM15 6.49609H9V3.49609H15V6.49609Z" fill="#575757"/>
</svg>
