<svg width="116" height="115" viewBox="0 0 116 115" fill="none" xmlns="http://www.w3.org/2000/svg">
<path d="M36.4375 55.875V52.3125C36.4375 51.8401 36.2482 51.387 35.9112 51.053C35.5742 50.7189 35.1172 50.5312 34.6406 50.5312H16.6719C16.1953 50.5312 15.7383 50.7189 15.4013 51.053C15.0643 51.387 14.875 51.8401 14.875 52.3125V55.875C14.8781 56.9775 15.2252 58.052 15.8686 58.9513C16.512 59.8506 17.4202 60.5306 18.4688 60.8981V84.6956C17.4202 85.0631 16.512 85.7431 15.8686 86.6424C15.2252 87.5417 14.8781 88.6163 14.875 89.7188V93.2812C14.875 93.7537 15.0643 94.2067 15.4013 94.5408C15.7383 94.8748 16.1953 95.0625 16.6719 95.0625H34.6406C35.1172 95.0625 35.5742 94.8748 35.9112 94.5408C36.2482 94.2067 36.4375 93.7537 36.4375 93.2812V89.7188C36.4344 88.6163 36.0873 87.5417 35.4439 86.6424C34.8006 85.7431 33.8923 85.0631 32.8438 84.6956V60.8981C33.8923 60.5306 34.8006 59.8506 35.4439 58.9513C36.0873 58.052 36.4344 56.9775 36.4375 55.875ZM68.7812 55.875V52.3125C68.7812 51.8401 68.5919 51.387 68.255 51.053C67.918 50.7189 67.4609 50.5312 66.9844 50.5312H49.0156C48.5391 50.5312 48.082 50.7189 47.745 51.053C47.4081 51.387 47.2188 51.8401 47.2188 52.3125V55.875C47.2219 56.9775 47.5689 58.052 48.2123 58.9513C48.8557 59.8506 49.7639 60.5306 50.8125 60.8981V84.6956C49.7639 85.0631 48.8557 85.7431 48.2123 86.6424C47.5689 87.5417 47.2219 88.6163 47.2188 89.7188V93.2812C47.2188 93.7537 47.4081 94.2067 47.745 94.5408C48.082 94.8748 48.5391 95.0625 49.0156 95.0625H66.9844C67.4609 95.0625 67.918 94.8748 68.255 94.5408C68.5919 94.2067 68.7812 93.7537 68.7812 93.2812V89.7188C68.7781 88.6163 68.4311 87.5417 67.7877 86.6424C67.1443 85.7431 66.2361 85.0631 65.1875 84.6956V60.8981C66.2361 60.5306 67.1443 59.8506 67.7877 58.9513C68.4311 58.052 68.7781 56.9775 68.7812 55.875ZM101.125 55.875V52.3125C101.125 51.8401 100.936 51.387 100.599 51.053C100.262 50.7189 99.8047 50.5312 99.3281 50.5312H81.3594C80.8828 50.5312 80.4258 50.7189 80.0888 51.053C79.7518 51.387 79.5625 51.8401 79.5625 52.3125V55.875C79.5656 56.9775 79.9127 58.052 80.5561 58.9513C81.1994 59.8506 82.1077 60.5306 83.1562 60.8981V84.6956C82.1077 85.0631 81.1994 85.7431 80.5561 86.6424C79.9127 87.5417 79.5656 88.6163 79.5625 89.7188V93.2812C79.5625 93.7537 79.7518 94.2067 80.0888 94.5408C80.4258 94.8748 80.8828 95.0625 81.3594 95.0625H99.3281C99.8047 95.0625 100.262 94.8748 100.599 94.5408C100.936 94.2067 101.125 93.7537 101.125 93.2812V89.7188C101.122 88.6163 100.775 87.5417 100.131 86.6424C99.4881 85.7431 98.5798 85.0631 97.5312 84.6956V60.8981C98.5798 60.5306 99.4881 59.8506 100.131 58.9513C100.775 58.052 101.122 56.9775 101.125 55.875Z" fill="#D7E9F7"/>
<path d="M102.257 38.4713L65.511 8.65314C63.3905 6.93722 60.7373 6 58 6C55.2628 6 52.6095 6.93722 50.4891 8.65314L13.743 38.4713C13.4557 38.7036 13.248 39.0183 13.1483 39.3723C13.0485 39.7263 13.0617 40.1022 13.186 40.4485C13.3115 40.7927 13.541 41.0903 13.8433 41.3006C14.1455 41.511 14.5057 41.6239 14.875 41.6241H101.125C101.494 41.6239 101.855 41.511 102.157 41.3006C102.459 41.0903 102.689 40.7927 102.814 40.4485C102.938 40.1022 102.952 39.7263 102.852 39.3723C102.752 39.0183 102.544 38.7036 102.257 38.4713Z" fill="#D7E2EB"/>
<path d="M102.922 38.0625H13.0781C10.101 38.0625 7.6875 40.455 7.6875 43.4062V48.75C7.6875 51.7013 10.101 54.0938 13.0781 54.0938H102.922C105.899 54.0938 108.312 51.7013 108.312 48.75V43.4062C108.312 40.455 105.899 38.0625 102.922 38.0625Z" fill="#D7E2EB"/>
<path d="M58.6825 22.0312H56.8856C56.6473 22.0312 56.4188 21.9374 56.2503 21.7704C56.0818 21.6034 55.9872 21.3768 55.9872 21.1406C55.9872 20.9044 56.0818 20.6779 56.2503 20.5109C56.4188 20.3438 56.6473 20.25 56.8856 20.25H61.5934C62.07 20.25 62.527 20.0623 62.864 19.7283C63.201 19.3942 63.3903 18.9412 63.3903 18.4688C63.3903 17.9963 63.201 17.5433 62.864 17.2092C62.527 16.8752 62.07 16.6875 61.5934 16.6875H59.7966V14.9062C59.7966 14.4338 59.6072 13.9808 59.2703 13.6467C58.9333 13.3127 58.4762 13.125 57.9997 13.125C57.5231 13.125 57.0661 13.3127 56.7291 13.6467C56.3921 13.9808 56.2028 14.4338 56.2028 14.9062V16.6875C55.0114 16.7773 53.9048 17.3325 53.1263 18.2311C52.3479 19.1297 51.9615 20.298 52.052 21.4791C52.1426 22.6601 52.7027 23.7571 53.6092 24.5288C54.5156 25.3004 55.6942 25.6835 56.8856 25.5938H58.6825C58.9208 25.5938 59.1493 25.6876 59.3178 25.8546C59.4863 26.0216 59.5809 26.2482 59.5809 26.4844C59.5809 26.7206 59.4863 26.9471 59.3178 27.1141C59.1493 27.2812 58.9208 27.375 58.6825 27.375H54.4059C53.9294 27.375 53.4723 27.5627 53.1353 27.8967C52.7984 28.2308 52.6091 28.6838 52.6091 29.1562C52.6091 29.6287 52.7984 30.0817 53.1353 30.4158C53.4723 30.7498 53.9294 30.9375 54.4059 30.9375H56.2028V32.7188C56.2028 33.1912 56.3921 33.6442 56.7291 33.9783C57.0661 34.3123 57.5231 34.5 57.9997 34.5C58.4762 34.5 58.9333 34.3123 59.2703 33.9783C59.6072 33.6442 59.7966 33.1912 59.7966 32.7188V30.7772C60.866 30.5208 61.8027 29.8828 62.4276 28.985C63.0525 28.0872 63.3217 26.9926 63.1839 25.9105C63.046 24.8283 62.5108 23.8345 61.6804 23.1189C60.85 22.4032 59.7827 22.016 58.6825 22.0312Z" fill="#F0F7FC"/>
<path d="M101.125 91.5H14.875C12.4922 91.5 10.207 92.4383 8.52209 94.1086C6.83719 95.7788 5.89063 98.0442 5.89062 100.406V107.531C5.89063 108.004 6.07994 108.457 6.41692 108.791C6.7539 109.125 7.21094 109.312 7.6875 109.312H108.312C108.789 109.312 109.246 109.125 109.583 108.791C109.92 108.457 110.109 108.004 110.109 107.531V100.406C110.109 98.0442 109.163 95.7788 107.478 94.1086C105.793 92.4383 103.508 91.5 101.125 91.5Z" fill="#D7E2EB"/>
</svg>
