<svg width="24" height="25" viewBox="0 0 24 25" fill="none" xmlns="http://www.w3.org/2000/svg">
<path d="M13.6177 13.3349C13.0106 13.3349 12.5001 13.1279 12.086 12.7139C11.672 12.2998 11.465 11.7893 11.465 11.1822C11.465 10.5751 11.672 10.0646 12.086 9.65055C12.5001 9.23651 13.0106 9.02949 13.6177 9.02949C14.2247 9.02949 14.7353 9.23651 15.1493 9.65055C15.5634 10.0646 15.7704 10.5751 15.7704 11.1822C15.7704 11.7893 15.5634 12.2998 15.1493 12.7139C14.7353 13.1279 14.2247 13.3349 13.6177 13.3349ZM6.95286 16.7718C6.47423 16.7718 6.06486 16.6013 5.72473 16.2605C5.38388 15.9196 5.21346 15.5103 5.21346 15.0324V7.33207C5.21346 6.85417 5.38388 6.44515 5.72473 6.10502C6.06558 5.76489 6.47459 5.59447 6.95178 5.59375H20.2825C20.7611 5.59375 21.1705 5.76381 21.5106 6.10394C21.8508 6.44407 22.0212 6.85345 22.0219 7.33207V15.0324C22.0219 15.5103 21.8515 15.9193 21.5106 16.2594C21.1705 16.601 20.7615 16.7718 20.2836 16.7718H6.95286ZM8.02922 15.6954H19.2061C19.2061 15.2132 19.3766 14.8027 19.7174 14.464C20.0575 14.1253 20.4666 13.956 20.9445 13.956V8.40843C20.4637 8.40843 20.054 8.23837 19.7153 7.89824C19.3759 7.55739 19.2061 7.14801 19.2061 6.67011H8.02922C8.02922 7.1516 7.85879 7.5617 7.51794 7.90039C7.17781 8.23909 6.7688 8.40843 6.29089 8.40843V13.956C6.77167 13.956 7.18176 14.1264 7.52117 14.4673C7.85987 14.8074 8.02922 15.2164 8.02922 15.6943M18.2955 19.9998H3.72377C3.24515 19.9998 2.83578 19.8297 2.49565 19.4896C2.1548 19.1487 1.98438 18.7393 1.98438 18.2614V9.31903C1.98438 9.16691 2.03604 9.03918 2.13937 8.93585C2.2427 8.83252 2.37079 8.78085 2.52363 8.78085C2.67648 8.78085 2.8042 8.83252 2.90682 8.93585C3.00943 9.03918 3.06074 9.16691 3.06074 9.31903V18.2614C3.06074 18.4265 3.12962 18.5782 3.2674 18.7167C3.40589 18.8552 3.55801 18.9245 3.72377 18.9245H18.2955C18.4484 18.9245 18.5761 18.9758 18.6787 19.0784C18.7821 19.1817 18.8337 19.3098 18.8337 19.4627C18.8337 19.6155 18.7821 19.7432 18.6787 19.8458C18.5754 19.9485 18.4477 19.999 18.2955 19.9998ZM6.95286 15.6954H6.28982V6.66903H6.95286C6.77346 6.66903 6.61811 6.73469 6.48679 6.86601C6.35548 6.99732 6.28982 7.15232 6.28982 7.331V15.0324C6.28982 15.2118 6.35548 15.3671 6.48679 15.4984C6.61811 15.6297 6.77346 15.6954 6.95286 15.6954Z" fill="#575757"/>
<path d="M8.02922 15.6954H19.2061C19.2061 15.2132 19.3766 14.8027 19.7174 14.464C20.0575 14.1253 20.4666 13.956 20.9445 13.956V8.40843C20.4637 8.40843 20.054 8.23837 19.7153 7.89824C19.3759 7.55739 19.2061 7.14801 19.2061 6.67011H8.02922C8.02922 7.1516 7.85879 7.5617 7.51795 7.90039C7.17782 8.23909 6.7688 8.40843 6.29089 8.40843V13.956C6.77167 13.956 7.18176 14.1264 7.52117 14.4673C7.85987 14.8074 8.02922 15.2164 8.02922 15.6943M13.6177 13.3349C13.0106 13.3349 12.5001 13.1279 12.086 12.7139C11.672 12.2998 11.465 11.7893 11.465 11.1822C11.465 10.5751 11.672 10.0646 12.086 9.65055C12.5001 9.23651 13.0106 9.02949 13.6177 9.02949C14.2247 9.02949 14.7353 9.23651 15.1493 9.65055C15.5634 10.0646 15.7704 10.5751 15.7704 11.1822C15.7704 11.7893 15.5634 12.2998 15.1493 12.7139C14.7353 13.1279 14.2247 13.3349 13.6177 13.3349ZM6.95286 16.7718C6.47423 16.7718 6.06486 16.6013 5.72473 16.2605C5.38388 15.9196 5.21346 15.5103 5.21346 15.0324V7.33207C5.21346 6.85417 5.38388 6.44515 5.72473 6.10502C6.06558 5.76489 6.47459 5.59447 6.95178 5.59375H20.2825C20.7611 5.59375 21.1705 5.76381 21.5106 6.10394C21.8508 6.44407 22.0212 6.85345 22.0219 7.33207V15.0324C22.0219 15.5103 21.8515 15.9193 21.5106 16.2594C21.1705 16.601 20.7615 16.7718 20.2836 16.7718H6.95286ZM18.2955 19.9998H3.72377C3.24515 19.9998 2.83578 19.8297 2.49565 19.4896C2.1548 19.1487 1.98438 18.7393 1.98438 18.2614V9.31903C1.98438 9.16691 2.03604 9.03918 2.13937 8.93585C2.2427 8.83252 2.37079 8.78085 2.52363 8.78085C2.67648 8.78085 2.8042 8.83252 2.90682 8.93585C3.00943 9.03918 3.06074 9.16691 3.06074 9.31903V18.2614C3.06074 18.4265 3.12962 18.5782 3.2674 18.7167C3.40589 18.8552 3.55801 18.9245 3.72377 18.9245H18.2955C18.4484 18.9245 18.5761 18.9758 18.6787 19.0784C18.7821 19.1817 18.8337 19.3098 18.8337 19.4627C18.8337 19.6155 18.7821 19.7432 18.6787 19.8458C18.5754 19.9485 18.4477 19.999 18.2955 19.9998ZM6.95286 15.6954H6.28982V6.66903H6.95286C6.77346 6.66903 6.61811 6.73469 6.48679 6.86601C6.35548 6.99732 6.28982 7.15232 6.28982 7.331V15.0324C6.28982 15.2118 6.35548 15.3671 6.48679 15.4984C6.61811 15.6297 6.77346 15.6954 6.95286 15.6954Z" stroke="#575757" stroke-width="0.6"/>
</svg>
