<svg width="114" height="115" viewBox="0 0 114 115" fill="none" xmlns="http://www.w3.org/2000/svg">
<path d="M97.25 24H16.5C11.2533 24 7 28.2533 7 33.5V81C7 86.2467 11.2533 90.5 16.5 90.5H97.25C102.497 90.5 106.75 86.2467 106.75 81V33.5C106.75 28.2533 102.497 24 97.25 24Z" fill="#60B7FF"/>
<path d="M28.85 33.5H18.4C17.3507 33.5 16.5 34.3507 16.5 35.4V45.85C16.5 46.8993 17.3507 47.75 18.4 47.75H28.85C29.8993 47.75 30.75 46.8993 30.75 45.85V35.4C30.75 34.3507 29.8993 33.5 28.85 33.5Z" fill="#EFEDEF"/>
<path d="M45 83.375H40.25C39.6201 83.375 39.016 83.1248 38.5706 82.6794C38.1252 82.234 37.875 81.6299 37.875 81C37.875 80.3701 38.1252 79.766 38.5706 79.3206C39.016 78.8752 39.6201 78.625 40.25 78.625H45C45.6299 78.625 46.234 78.8752 46.6794 79.3206C47.1248 79.766 47.375 80.3701 47.375 81C47.375 81.6299 47.1248 82.234 46.6794 82.6794C46.234 83.1248 45.6299 83.375 45 83.375ZM59.25 83.375H54.5C53.8701 83.375 53.266 83.1248 52.8206 82.6794C52.3752 82.234 52.125 81.6299 52.125 81C52.125 80.3701 52.3752 79.766 52.8206 79.3206C53.266 78.8752 53.8701 78.625 54.5 78.625H59.25C59.8799 78.625 60.484 78.8752 60.9294 79.3206C61.3748 79.766 61.625 80.3701 61.625 81C61.625 81.6299 61.3748 82.234 60.9294 82.6794C60.484 83.1248 59.8799 83.375 59.25 83.375ZM26 59.625H16.5C15.8701 59.625 15.266 59.3748 14.8206 58.9294C14.3752 58.484 14.125 57.8799 14.125 57.25C14.125 56.6201 14.3752 56.016 14.8206 55.5706C15.266 55.1252 15.8701 54.875 16.5 54.875H26C26.6299 54.875 27.234 55.1252 27.6794 55.5706C28.1248 56.016 28.375 56.6201 28.375 57.25C28.375 57.8799 28.1248 58.484 27.6794 58.9294C27.234 59.3748 26.6299 59.625 26 59.625ZM45 59.625H35.5C34.8701 59.625 34.266 59.3748 33.8206 58.9294C33.3752 58.484 33.125 57.8799 33.125 57.25C33.125 56.6201 33.3752 56.016 33.8206 55.5706C34.266 55.1252 34.8701 54.875 35.5 54.875H45C45.6299 54.875 46.234 55.1252 46.6794 55.5706C47.1248 56.016 47.375 56.6201 47.375 57.25C47.375 57.8799 47.1248 58.484 46.6794 58.9294C46.234 59.3748 45.6299 59.625 45 59.625ZM64 59.625H54.5C53.8701 59.625 53.266 59.3748 52.8206 58.9294C52.3752 58.484 52.125 57.8799 52.125 57.25C52.125 56.6201 52.3752 56.016 52.8206 55.5706C53.266 55.1252 53.8701 54.875 54.5 54.875H64C64.6299 54.875 65.234 55.1252 65.6794 55.5706C66.1248 56.016 66.375 56.6201 66.375 57.25C66.375 57.8799 66.1248 58.484 65.6794 58.9294C65.234 59.3748 64.6299 59.625 64 59.625ZM83 59.625H73.5C72.8701 59.625 72.266 59.3748 71.8206 58.9294C71.3752 58.484 71.125 57.8799 71.125 57.25C71.125 56.6201 71.3752 56.016 71.8206 55.5706C72.266 55.1252 72.8701 54.875 73.5 54.875H83C83.6299 54.875 84.234 55.1252 84.6794 55.5706C85.1248 56.016 85.375 56.6201 85.375 57.25C85.375 57.8799 85.1248 58.484 84.6794 58.9294C84.234 59.3748 83.6299 59.625 83 59.625Z" fill="#EFEDEF"/>
<path d="M95.35 71.5H75.4C74.3507 71.5 73.5 72.3507 73.5 73.4V79.1C73.5 80.1493 74.3507 81 75.4 81H95.35C96.3993 81 97.25 80.1493 97.25 79.1V73.4C97.25 72.3507 96.3993 71.5 95.35 71.5Z" fill="#EFEDEF"/>
</svg>
