<svg width="24" height="25" viewBox="0 0 24 25" fill="none" xmlns="http://www.w3.org/2000/svg">
<path d="M10.125 5.375V5.75H13.875V5.375C13.875 4.87772 13.6775 4.40081 13.3258 4.04917C12.9742 3.69754 12.4973 3.5 12 3.5C11.5027 3.5 11.0258 3.69754 10.6742 4.04917C10.3225 4.40081 10.125 4.87772 10.125 5.375ZM8.625 5.75V5.375C8.625 4.47989 8.98058 3.62145 9.61351 2.98851C10.2464 2.35558 11.1049 2 12 2C12.8951 2 13.7535 2.35558 14.3865 2.98851C15.0194 3.62145 15.375 4.47989 15.375 5.375V5.75H21C21.1989 5.75 21.3897 5.82902 21.5303 5.96967C21.671 6.11032 21.75 6.30109 21.75 6.5C21.75 6.69891 21.671 6.88968 21.5303 7.03033C21.3897 7.17098 21.1989 7.25 21 7.25H19.869L18.45 19.676C18.3454 20.5911 17.9076 21.4358 17.2201 22.0488C16.5326 22.6618 15.6436 23.0004 14.7225 23H9.2775C8.3564 23.0004 7.46735 22.6618 6.77989 22.0488C6.09243 21.4358 5.65464 20.5911 5.55 19.676L4.131 7.25H3C2.80109 7.25 2.61032 7.17098 2.46967 7.03033C2.32902 6.88968 2.25 6.69891 2.25 6.5C2.25 6.30109 2.32902 6.11032 2.46967 5.96967C2.61032 5.82902 2.80109 5.75 3 5.75H8.625ZM7.041 19.505C7.10362 20.0539 7.36602 20.5606 7.77819 20.9286C8.19037 21.2965 8.7235 21.4999 9.276 21.5H14.7233C15.2757 21.4999 15.8089 21.2965 16.2211 20.9286C16.6332 20.5606 16.8956 20.0539 16.9583 19.505L18.36 7.25H5.64075L7.041 19.505ZM9.75 9.875C9.94891 9.875 10.1397 9.95402 10.2803 10.0947C10.421 10.2353 10.5 10.4261 10.5 10.625V18.125C10.5 18.3239 10.421 18.5147 10.2803 18.6553C10.1397 18.796 9.94891 18.875 9.75 18.875C9.55109 18.875 9.36032 18.796 9.21967 18.6553C9.07902 18.5147 9 18.3239 9 18.125V10.625C9 10.4261 9.07902 10.2353 9.21967 10.0947C9.36032 9.95402 9.55109 9.875 9.75 9.875ZM15 10.625C15 10.4261 14.921 10.2353 14.7803 10.0947C14.6397 9.95402 14.4489 9.875 14.25 9.875C14.0511 9.875 13.8603 9.95402 13.7197 10.0947C13.579 10.2353 13.5 10.4261 13.5 10.625V18.125C13.5 18.3239 13.579 18.5147 13.7197 18.6553C13.8603 18.796 14.0511 18.875 14.25 18.875C14.4489 18.875 14.6397 18.796 14.7803 18.6553C14.921 18.5147 15 18.3239 15 18.125V10.625Z" fill="#EE5D50"/>
</svg>
