<svg width="24" height="25" viewBox="0 0 24 25" fill="none" xmlns="http://www.w3.org/2000/svg">
<path d="M5 17.125H4C3.46957 17.125 2.96086 16.9143 2.58579 16.5392C2.21071 16.1641 2 15.6554 2 15.125V5.125C2 4.59457 2.21071 4.08586 2.58579 3.71079C2.96086 3.33571 3.46957 3.125 4 3.125H20C20.5304 3.125 21.0391 3.33571 21.4142 3.71079C21.7893 4.08586 22 4.59457 22 5.125V15.125C22 15.6554 21.7893 16.1641 21.4142 16.5392C21.0391 16.9143 20.5304 17.125 20 17.125H19" stroke="#575757" stroke-width="2" stroke-linecap="round" stroke-linejoin="round"/>
<path d="M12 15.125L17 21.125H7L12 15.125Z" stroke="#575757" stroke-width="2" stroke-linecap="round" stroke-linejoin="round"/>
</svg>
