<svg width="24" height="25" viewBox="0 0 24 25" fill="none" xmlns="http://www.w3.org/2000/svg">
<path d="M19.5 12.5C19.5 12.3011 19.579 12.1103 19.7197 11.9697C19.8603 11.829 20.0511 11.75 20.25 11.75C20.4489 11.75 20.6397 11.829 20.7803 11.9697C20.921 12.1103 21 12.3011 21 12.5V20.75C21 20.9489 20.921 21.1397 20.7803 21.2803C20.6397 21.421 20.4489 21.5 20.25 21.5H3.75C3.55109 21.5 3.36032 21.421 3.21967 21.2803C3.07902 21.1397 3 20.9489 3 20.75V4.25C3 4.05109 3.07902 3.86032 3.21967 3.71967C3.36032 3.57902 3.55109 3.5 3.75 3.5H12C12.1989 3.5 12.3897 3.57902 12.5303 3.71967C12.671 3.86032 12.75 4.05109 12.75 4.25C12.75 4.44891 12.671 4.63968 12.5303 4.78033C12.3897 4.92098 12.1989 5 12 5H4.5V20H19.5V12.5Z" fill="#4F4F4F"/>
<path d="M11.0164 13.4909L12.2539 13.3139L19.8559 5.71336C19.9276 5.64418 19.9847 5.56142 20.024 5.46992C20.0633 5.37841 20.084 5.28 20.0849 5.18041C20.0857 5.08083 20.0668 4.98207 20.029 4.8899C19.9913 4.79773 19.9356 4.71399 19.8652 4.64357C19.7948 4.57315 19.7111 4.51746 19.6189 4.47975C19.5267 4.44204 19.428 4.42306 19.3284 4.42393C19.2288 4.42479 19.1304 4.44548 19.0389 4.48479C18.9474 4.52409 18.8646 4.58123 18.7954 4.65286L11.1919 12.2534L11.0149 13.4909H11.0164ZM20.9164 3.59086C21.1255 3.79981 21.2914 4.04792 21.4045 4.32099C21.5177 4.59407 21.576 4.88677 21.576 5.18236C21.576 5.47796 21.5177 5.77066 21.4045 6.04373C21.2914 6.31681 21.1255 6.56491 20.9164 6.77386L13.1389 14.5514C13.0242 14.6665 12.8753 14.7412 12.7144 14.7644L10.2394 15.1184C10.1241 15.1349 10.0065 15.1244 9.89591 15.0876C9.78534 15.0508 9.68488 14.9887 9.60248 14.9063C9.52008 14.8239 9.45802 14.7234 9.42121 14.6129C9.3844 14.5023 9.37386 14.3847 9.39043 14.2694L9.74443 11.7944C9.76716 11.6337 9.84137 11.4848 9.95593 11.3699L17.7349 3.59236C18.1569 3.17055 18.7291 2.93359 19.3257 2.93359C19.9223 2.93359 20.4945 3.17055 20.9164 3.59236V3.59086Z" fill="#4F4F4F"/>
</svg>
