<svg width="29" height="28" viewBox="0 0 29 28" fill="none" xmlns="http://www.w3.org/2000/svg">
<path opacity="0.21" fill-rule="evenodd" clip-rule="evenodd" d="M0.75 14V17.2667C0.75 23.1945 5.55548 28 11.4833 28H14.75H18.0167C23.9445 28 28.75 23.1945 28.75 17.2667V14V10.7333C28.75 4.80548 23.9445 0 18.0167 0H14.75H11.4833C5.55548 0 0.75 4.80548 0.75 10.7333V14Z" fill="#FFA85A"/>
<path d="M6.25 9.3125C6.25 8.45 6.95 7.75 7.8125 7.75H19.6875C20.55 7.75 21.25 8.45 21.25 9.3125V16.1875C21.25 17.05 20.55 17.75 19.6875 17.75H7.8125C6.95 17.75 6.25 17.05 6.25 16.1875V9.3125ZM10 9.625V9H8.75V9.625C8.75 9.79076 8.68415 9.94973 8.56694 10.0669C8.44973 10.1842 8.29076 10.25 8.125 10.25H7.5V11.5H8.125C8.62228 11.5 9.09919 11.3025 9.45083 10.9508C9.80246 10.5992 10 10.1223 10 9.625ZM16.25 12.75C16.25 12.087 15.9866 11.4511 15.5178 10.9822C15.0489 10.5134 14.413 10.25 13.75 10.25C13.087 10.25 12.4511 10.5134 11.9822 10.9822C11.5134 11.4511 11.25 12.087 11.25 12.75C11.25 13.413 11.5134 14.0489 11.9822 14.5178C12.4511 14.9866 13.087 15.25 13.75 15.25C14.413 15.25 15.0489 14.9866 15.5178 14.5178C15.9866 14.0489 16.25 13.413 16.25 12.75ZM18.75 9H17.5V9.625C17.5 10.1223 17.6975 10.5992 18.0492 10.9508C18.4008 11.3025 18.8777 11.5 19.375 11.5H20V10.25H19.375C19.2092 10.25 19.0503 10.1842 18.9331 10.0669C18.8158 9.94973 18.75 9.79076 18.75 9.625V9ZM10 15.875C10 15.3777 9.80246 14.9008 9.45083 14.5492C9.09919 14.1975 8.62228 14 8.125 14H7.5V15.25H8.125C8.29076 15.25 8.44973 15.3158 8.56694 15.4331C8.68415 15.5503 8.75 15.7092 8.75 15.875V16.5H10V15.875ZM18.75 16.5V15.875C18.75 15.7092 18.8158 15.5503 18.9331 15.4331C19.0503 15.3158 19.2092 15.25 19.375 15.25H20V14H19.375C18.8777 14 18.4008 14.1975 18.0492 14.5492C17.6975 14.9008 17.5 15.3777 17.5 15.875V16.5H18.75ZM10.625 20.25C10.229 20.2502 9.84317 20.1249 9.52273 19.8923C9.2023 19.6597 8.96374 19.3316 8.84125 18.955C9.01458 18.985 9.1925 19 9.375 19H19.6875C20.4334 19 21.1488 18.7037 21.6762 18.1762C22.2037 17.6488 22.5 16.9334 22.5 16.1875V10.3563C22.8657 10.4856 23.1823 10.7251 23.4062 11.0419C23.6301 11.3587 23.7502 11.7371 23.75 12.125V16.1875C23.75 16.721 23.6449 17.2493 23.4408 17.7422C23.2366 18.235 22.9374 18.6829 22.5601 19.0601C22.1829 19.4374 21.735 19.7366 21.2422 19.9408C20.7493 20.1449 20.221 20.25 19.6875 20.25H10.625Z" fill="#E36A00"/>
</svg>
