<svg width="60" height="60" viewBox="0 0 60 60" fill="none" xmlns="http://www.w3.org/2000/svg">
<circle cx="30" cy="30" r="30" fill="#DEECFF"/>
<path d="M30.2031 11.1994C29.6812 11.2619 13.4156 22.1681 13.3219 22.4994C13.2281 22.8338 13.1906 26.3088 13.1906 26.3088L15.2875 26.9744L15.2969 29.7369L16.4188 32.0338V41.7431L15.5813 43.5713L13.2844 44.2494V45.8931L11.4844 46.44C11.4844 46.44 11.5094 47.8494 11.5094 48.0838C11.5094 48.3181 11.5875 48.815 12.5281 48.815C13.4688 48.815 47.8 48.6556 48.1469 48.6556C48.4938 48.6556 48.8531 48.5869 48.8719 47.965C48.8906 47.3431 48.8531 46.465 48.8531 46.465L47.1094 45.6025L47.1031 44.2244L44.2656 43.3494L43.5812 41.4119L43.5906 32.2838L44.6781 29.99L45.0063 29.3681V26.8994L46.8344 26.2088C46.8344 26.2088 46.8688 22.6369 46.8156 22.5338C46.7688 22.4338 30.6344 11.1494 30.2031 11.1994Z" fill="#CDDFEE"/>
<path d="M14.7906 23.225C14.6938 23.4656 14.6688 25.2406 14.7563 25.3281C14.8438 25.4156 45.05 25.3687 45.1531 25.2844C45.2562 25.2 45.2719 23.2719 45.2219 23.1531C45.1719 23.0344 36.6563 17.2188 36.6563 17.2188L23.4906 17.2844C23.4875 17.2844 14.8469 23.0812 14.7906 23.225ZM11.4813 46.4469C11.4531 46.3781 11.4813 46.0531 11.4813 45.9219C11.4813 45.7906 11.6063 45.6406 11.8875 45.6406C12.1688 45.6406 47.8688 45.5906 48.0438 45.5969C48.4844 45.6125 48.7812 45.7063 48.825 45.9875C48.8688 46.2688 48.8531 46.4719 48.8531 46.4719L11.4813 46.4469ZM47.1031 44.2281L13.2844 44.2531C13.2844 44.2531 13.2969 43.9063 13.2969 43.7875C13.2969 43.6688 13.3594 43.475 13.7625 43.475C14.1656 43.475 46.2375 43.3531 46.5125 43.3531C46.7875 43.3531 47.0875 43.4813 47.125 43.6719C47.1625 43.8625 47.1031 44.2281 47.1031 44.2281ZM43.8313 42.1344L43.5812 41.4031L16.4094 41.3969L16.2063 42.2125L43.8313 42.1344ZM16.0969 31.3687L43.9906 31.4656L43.5906 32.2844L16.4188 32.3875L16.0969 31.3687ZM15.4875 30.2188C15.4875 30.2188 15.2406 30.0406 15.2 29.8062C15.1594 29.5719 15.2688 29.4344 15.2688 29.4344L45.0062 29.3687C45.0062 29.3687 45.1188 29.6 45.0219 29.7625C44.925 29.9281 44.65 30.0781 44.65 30.0781L15.4875 30.2188ZM13.1875 26.3094L46.8344 26.2094C46.8344 26.2094 46.8563 26.5312 46.8344 26.6656C46.8156 26.8 46.6406 26.9187 46.1938 26.9187H45.7469C45.7469 26.9187 14.25 27.075 13.9 27.075C13.55 27.075 13.3 26.8813 13.2406 26.725C13.2063 26.6219 13.1875 26.3094 13.1875 26.3094Z" fill="#94ADBC"/>
<path d="M15.625 24.0723L22.7031 19.2941L23.1781 24.166L15.625 24.0723ZM37.3563 19.1348L44.4438 24.1348H37.1656L37.3563 19.1348Z" fill="#657582"/>
<path d="M20.4422 30.1973L21.6078 30.1941L22.5203 32.3848L22.4359 41.4035L21.6766 43.4473L20.3203 43.4504L19.5734 41.416L19.5391 32.366L20.4422 30.1973ZM26.6484 30.166L25.4891 32.3348L25.5766 41.4035L26.2641 43.4316L33.8359 43.4004L34.5172 41.4035L34.5359 32.316L33.6516 30.1316L26.6484 30.166ZM38.5547 30.1098L39.5828 30.1035L40.4922 32.2941L40.4891 41.4066L39.9609 43.3816L38.2453 43.3848L37.7203 41.4066L37.6797 32.3035L38.5547 30.1098Z" fill="#54636E"/>
<path d="M27.0703 43.4277V36.4746L33.1703 36.534L33.1828 43.409L27.0703 43.4277Z" fill="#6BA4AE"/>
<path d="M29.7687 36.1602L29.7656 43.4195L30.3969 43.4164V36.2664L29.7687 36.1602Z" fill="#A5D0D7"/>
<path d="M27.0703 36.8063V35.0625H33.1703V36.8063C33.1703 36.8063 27.1234 36.7531 27.0703 36.8063Z" fill="#95ACBC"/>
<path d="M27.0708 35.0622H33.1708C33.1708 35.0622 33.1958 34.5184 32.6302 34.4653C32.0645 34.4122 27.9083 34.4559 27.5583 34.4653C27.0364 34.4809 27.0708 35.0622 27.0708 35.0622Z" fill="#CCDEED"/>
<path d="M30.1204 13.4728C25.5922 13.501 22.0079 17.0822 22.161 21.6103C22.3141 26.1385 26.4672 29.3228 30.1204 29.2947C33.9547 29.2666 37.9922 26.5228 38.1735 21.5853C38.3579 16.651 34.2016 13.4447 30.1204 13.4728Z" fill="#CDDFEE"/>
<path d="M30.1539 14.5568C26.3633 14.5818 23.3289 17.6911 23.457 21.6349C23.582 25.5786 26.9195 28.0786 29.9789 28.1068C33.507 28.138 36.7539 25.8318 36.9039 21.5349C37.0539 17.238 33.5695 14.5349 30.1539 14.5568Z" fill="#94ADBC"/>
<path d="M29.0579 16.7602C29.0579 16.7602 28.9892 15.5539 29.0736 15.4508C29.1579 15.3477 29.5017 15.3477 30.1673 15.3477C30.8361 15.3477 31.1079 15.3477 31.2111 15.432C31.3142 15.5164 31.2611 16.8352 31.2611 16.8352C31.2611 16.8352 32.1673 17.1758 32.7329 17.6133C33.3329 18.0758 33.7611 18.6914 33.7267 18.7945C33.6923 18.8977 32.4954 19.9414 32.3236 19.907C32.1517 19.8727 31.1767 18.732 30.0142 18.657C28.1673 18.5383 28.1829 19.9758 29.3298 20.3695C30.4767 20.7633 34.0923 21.0758 33.9517 23.9539C33.8329 26.3758 31.3861 26.5477 31.3861 26.5477C31.3861 26.5477 31.4548 27.4539 31.3861 27.507C31.3173 27.5602 29.1611 27.5914 29.0923 27.4914C29.0236 27.3914 29.0767 26.4633 29.0767 26.4633C29.0767 26.4633 28.1173 26.2758 27.3298 25.7445C26.5423 25.2133 25.9767 24.5133 25.9611 24.4258C25.9454 24.3414 27.3486 23.1602 27.4486 23.1258C27.5486 23.0914 28.9767 24.4977 30.3236 24.6133C31.6923 24.732 32.2736 23.382 30.3736 22.8008C28.4736 22.2195 26.2329 21.7227 26.3361 19.3445C26.4392 16.9289 29.0579 16.7602 29.0579 16.7602Z" fill="#024FAC"/>
</svg>
