<svg width="25" height="25" viewBox="0 0 25 25" fill="none" xmlns="http://www.w3.org/2000/svg">
<path d="M21.435 11.4074V9.19144C21.4362 8.65953 21.2951 8.13697 21.0262 7.67802C20.7574 7.21906 20.3706 6.84043 19.906 6.58144L13.949 3.27444C13.5058 3.02786 13.0071 2.89844 12.5 2.89844C11.9928 2.89844 11.4941 3.02786 11.051 3.27444L5.09395 6.58044C4.6292 6.83952 4.2423 7.2183 3.97342 7.67745C3.70454 8.1366 3.5635 8.65936 3.56495 9.19144V15.6054C3.56368 16.1374 3.70481 16.6599 3.97367 17.1189C4.24254 17.5778 4.62935 17.9564 5.09395 18.2154L11.051 21.5224C11.4941 21.769 11.9928 21.8984 12.5 21.8984C13.0071 21.8984 13.5058 21.769 13.949 21.5224L16.471 20.1224" stroke="#139EEC" stroke-width="1.5" stroke-linecap="round" stroke-linejoin="round"/>
<path d="M20.8299 7.39062L12.4999 12.3946M12.4999 12.3946L4.16992 7.39062M12.4999 12.3946V21.8846" stroke="#139EEC" stroke-width="1.5" stroke-linecap="round" stroke-linejoin="round"/>
<path d="M20.4697 14.6406V19.6406" stroke="#139EEC" stroke-width="1.5" stroke-miterlimit="10" stroke-linecap="round"/>
<path d="M22.7618 16.7509L20.7948 14.7839C20.752 14.741 20.7012 14.7069 20.6453 14.6837C20.5893 14.6604 20.5294 14.6484 20.4688 14.6484C20.4082 14.6484 20.3482 14.6604 20.2923 14.6837C20.2363 14.7069 20.1855 14.741 20.1428 14.7839L18.1758 16.7509" stroke="#139EEC" stroke-width="1.5" stroke-linecap="round" stroke-linejoin="round"/>
</svg>
