<svg width="24" height="25" viewBox="0 0 24 25" fill="none" xmlns="http://www.w3.org/2000/svg">
<path fill-rule="evenodd" clip-rule="evenodd" d="M15.001 6.87194C15.0013 7.49259 14.8092 8.09806 14.4509 8.60492C14.0927 9.11177 13.5862 9.49505 13.001 9.70194V11.8719H16.001C16.7967 11.8719 17.5597 12.188 18.1223 12.7506C18.6849 13.3132 19.001 14.0763 19.001 14.8719V16.0419C19.6685 16.2778 20.2311 16.7421 20.5894 17.3527C20.9476 17.9634 21.0785 18.681 20.9588 19.3787C20.8391 20.0765 20.4766 20.7095 19.9354 21.1658C19.3941 21.6221 18.709 21.8724 18.001 21.8724C17.2931 21.8724 16.6079 21.6221 16.0666 21.1658C15.5254 20.7095 15.1629 20.0765 15.0432 19.3787C14.9235 18.681 15.0544 17.9634 15.4126 17.3527C15.7709 16.7421 16.3335 16.2778 17.001 16.0419V14.8719C17.001 14.6067 16.8956 14.3524 16.7081 14.1648C16.5206 13.9773 16.2662 13.8719 16.001 13.8719H8.00101C7.73579 13.8719 7.48144 13.9773 7.2939 14.1648C7.10636 14.3524 7.00101 14.6067 7.00101 14.8719V16.0419C7.6685 16.2778 8.2311 16.7421 8.58937 17.3527C8.94763 17.9634 9.07849 18.681 8.95882 19.3787C8.83914 20.0765 8.47664 20.7095 7.93538 21.1658C7.39412 21.6221 6.70896 21.8724 6.00101 21.8724C5.29305 21.8724 4.60789 21.6221 4.06663 21.1658C3.52538 20.7095 3.16287 20.0765 3.0432 19.3787C2.92352 18.681 3.05438 17.9634 3.41265 17.3527C3.77091 16.7421 4.33351 16.2778 5.00101 16.0419V14.8719C5.00101 14.0763 5.31708 13.3132 5.87969 12.7506C6.4423 12.188 7.20536 11.8719 8.00101 11.8719H11.001V9.70194C10.4822 9.51877 10.0236 9.19648 9.67561 8.7703C9.32758 8.34413 9.10341 7.83047 9.02761 7.28548C8.95182 6.74049 9.02732 6.18515 9.24586 5.68018C9.46439 5.17521 9.81756 4.74004 10.2667 4.42224C10.7159 4.10445 11.2438 3.91626 11.7927 3.87826C12.3417 3.84026 12.8905 3.9539 13.3791 4.20677C13.8678 4.45963 14.2776 4.84199 14.5636 5.31203C14.8497 5.78207 15.001 6.3217 15.001 6.87194ZM12.001 5.87194C11.7358 5.87194 11.4814 5.97729 11.2939 6.16483C11.1064 6.35237 11.001 6.60672 11.001 6.87194C11.001 7.13715 11.1064 7.39151 11.2939 7.57904C11.4814 7.76658 11.7358 7.87194 12.001 7.87194C12.2662 7.87194 12.5206 7.76658 12.7081 7.57904C12.8956 7.39151 13.001 7.13715 13.001 6.87194C13.001 6.60672 12.8956 6.35237 12.7081 6.16483C12.5206 5.97729 12.2662 5.87194 12.001 5.87194ZM6.00101 17.8719C5.73579 17.8719 5.48144 17.9773 5.2939 18.1648C5.10636 18.3524 5.00101 18.6067 5.00101 18.8719C5.00101 19.1372 5.10636 19.3915 5.2939 19.579C5.48144 19.7666 5.73579 19.8719 6.00101 19.8719C6.26622 19.8719 6.52058 19.7666 6.70811 19.579C6.89565 19.3915 7.00101 19.1372 7.00101 18.8719C7.00101 18.6067 6.89565 18.3524 6.70811 18.1648C6.52058 17.9773 6.26622 17.8719 6.00101 17.8719ZM18.001 17.8719C17.7358 17.8719 17.4814 17.9773 17.2939 18.1648C17.1064 18.3524 17.001 18.6067 17.001 18.8719C17.001 19.1372 17.1064 19.3915 17.2939 19.579C17.4814 19.7666 17.7358 19.8719 18.001 19.8719C18.2662 19.8719 18.5206 19.7666 18.7081 19.579C18.8956 19.3915 19.001 19.1372 19.001 18.8719C19.001 18.6067 18.8956 18.3524 18.7081 18.1648C18.5206 17.9773 18.2662 17.8719 18.001 17.8719Z" fill="#575757"/>
</svg>
