<svg width="60" height="60" viewBox="0 0 60 60" fill="none" xmlns="http://www.w3.org/2000/svg">
<circle cx="30" cy="30" r="30" fill="#FFDEDF"/>
<g filter="url(#filter0_i_1863_85160)">
<path d="M14.7266 22.1341C14.7267 22.0287 14.7535 21.9251 14.8044 21.8329C14.8553 21.7407 14.9287 21.6628 15.0178 21.6066L29.4716 12.4716C29.5714 12.4085 29.6872 12.375 29.8053 12.375C29.9235 12.375 30.0392 12.4085 30.1391 12.4716L44.5916 21.6091C44.6806 21.6653 44.754 21.7432 44.805 21.8354C44.8559 21.9276 44.8827 22.0312 44.8828 22.1366V38.0841C44.8828 38.1905 44.8555 38.2952 44.8037 38.3882C44.7518 38.4811 44.6771 38.5593 44.5866 38.6153L30.1328 47.5278C30.0342 47.5887 29.9206 47.6209 29.8047 47.6209C29.6888 47.6209 29.5752 47.5887 29.4766 47.5278L15.0253 38.6141C14.9345 38.5582 14.8596 38.4801 14.8075 38.3871C14.7554 38.2941 14.728 38.1894 14.7278 38.0828L14.7266 22.1341Z" fill="url(#paint0_linear_1863_85160)"/>
<path d="M14.7266 22.1341C14.7267 22.0287 14.7535 21.9251 14.8044 21.8329C14.8553 21.7407 14.9287 21.6628 15.0178 21.6066L29.4716 12.4716C29.5714 12.4085 29.6872 12.375 29.8053 12.375C29.9235 12.375 30.0392 12.4085 30.1391 12.4716L44.5916 21.6091C44.6806 21.6653 44.754 21.7432 44.805 21.8354C44.8559 21.9276 44.8827 22.0312 44.8828 22.1366V38.0841C44.8828 38.1905 44.8555 38.2952 44.8037 38.3882C44.7518 38.4811 44.6771 38.5593 44.5866 38.6153L30.1328 47.5278C30.0342 47.5887 29.9206 47.6209 29.8047 47.6209C29.6888 47.6209 29.5752 47.5887 29.4766 47.5278L15.0253 38.6141C14.9345 38.5582 14.8596 38.4801 14.8075 38.3871C14.7554 38.2941 14.728 38.1894 14.7278 38.0828L14.7266 22.1341Z" fill="url(#paint1_linear_1863_85160)"/>
</g>
<g filter="url(#filter1_i_1863_85160)">
<path d="M29.6866 47.6081C29.6117 47.5937 29.5401 47.5658 29.4753 47.5256L15.0241 38.6131C14.9333 38.5573 14.8583 38.4792 14.8062 38.3862C14.7542 38.2932 14.7267 38.1884 14.7266 38.0819V22.1406L29.3928 31.2556C29.4829 31.3117 29.5573 31.3897 29.6089 31.4824C29.6605 31.5752 29.6877 31.6795 29.6878 31.7856L29.6866 47.6081Z" fill="url(#paint2_linear_1863_85160)"/>
</g>
<path d="M44.8475 21.9297C44.8708 21.9964 44.8826 22.0665 44.8825 22.1372V38.0847C44.8824 38.1911 44.8552 38.2958 44.8034 38.3888C44.7515 38.4818 44.6768 38.5599 44.5863 38.6159L30.1325 47.5284C29.9995 47.6101 29.8408 47.6391 29.6875 47.6097V31.6834C29.6874 31.5771 29.7145 31.4725 29.7661 31.3795C29.8177 31.2866 29.8922 31.2083 29.9825 31.1522L44.7325 21.9859C44.7688 21.9633 44.8073 21.9445 44.8475 21.9297Z" fill="url(#paint3_linear_1863_85160)"/>
<path d="M44.8475 21.9297C44.8708 21.9964 44.8826 22.0665 44.8825 22.1372V38.0847C44.8824 38.1911 44.8552 38.2958 44.8034 38.3888C44.7515 38.4818 44.6768 38.5599 44.5863 38.6159L30.1325 47.5284C29.9995 47.6101 29.8408 47.6391 29.6875 47.6097V31.6834C29.6874 31.5771 29.7145 31.4725 29.7661 31.3795C29.8177 31.2866 29.8922 31.2083 29.9825 31.1522L44.7325 21.9859C44.7688 21.9633 44.8073 21.9445 44.8475 21.9297Z" fill="url(#paint4_linear_1863_85160)"/>
<g filter="url(#filter2_i_1863_85160)">
<path d="M23.4766 38.5398C23.4764 38.4728 23.4942 38.407 23.5282 38.3492C23.5621 38.2914 23.6109 38.2438 23.6694 38.2113C23.728 38.1787 23.7942 38.1625 23.8612 38.1642C23.9282 38.1659 23.9935 38.1856 24.0503 38.2211L27.9578 40.6498C28.0481 40.706 28.1226 40.7842 28.1742 40.8772C28.2258 40.9701 28.2529 41.0747 28.2528 41.1811V44.0061C28.2529 44.0731 28.2351 44.1389 28.2012 44.1967C28.1673 44.2544 28.1185 44.3021 28.0599 44.3346C28.0014 44.3672 27.9351 44.3834 27.8682 44.3817C27.8012 44.38 27.7359 44.3603 27.6791 44.3248L23.7716 41.8961C23.6813 41.8399 23.6068 41.7617 23.5552 41.6687C23.5035 41.5757 23.4765 41.4711 23.4766 41.3648V38.5398Z" fill="url(#paint5_linear_1863_85160)"/>
</g>
<g filter="url(#filter3_i_1863_85160)">
<path d="M20.3125 26.0775V29.5075L23.965 31.695V28.5037C23.965 28.0762 24.18 27.6812 24.54 27.4512C29.5275 24.2612 38.5125 18.4387 38.73 18.2287C38.93 18.0825 39.1962 18.1537 39.2775 18.2675C39.2775 18.0337 39.1525 17.8962 39.0912 17.8575L35.6662 15.7675C35.5661 15.7063 35.4507 15.6745 35.3333 15.6758C35.2159 15.6771 35.1013 15.7115 35.0025 15.775L20.9988 24.8162C20.788 24.9523 20.6148 25.1391 20.4949 25.3594C20.375 25.5797 20.3123 25.8266 20.3125 26.0775Z" fill="#966957"/>
<path d="M20.3125 26.0775V29.5075L23.965 31.695V28.5037C23.965 28.0762 24.18 27.6812 24.54 27.4512C29.5275 24.2612 38.5125 18.4387 38.73 18.2287C38.93 18.0825 39.1962 18.1537 39.2775 18.2675C39.2775 18.0337 39.1525 17.8962 39.0912 17.8575L35.6662 15.7675C35.5661 15.7063 35.4507 15.6745 35.3333 15.6758C35.2159 15.6771 35.1013 15.7115 35.0025 15.775L20.9988 24.8162C20.788 24.9523 20.6148 25.1391 20.4949 25.3594C20.375 25.5797 20.3123 25.8266 20.3125 26.0775Z" fill="url(#paint6_linear_1863_85160)"/>
<path d="M20.3125 26.0775V29.5075L23.965 31.695V28.5037C23.965 28.0762 24.18 27.6812 24.54 27.4512C29.5275 24.2612 38.5125 18.4387 38.73 18.2287C38.93 18.0825 39.1962 18.1537 39.2775 18.2675C39.2775 18.0337 39.1525 17.8962 39.0912 17.8575L35.6662 15.7675C35.5661 15.7063 35.4507 15.6745 35.3333 15.6758C35.2159 15.6771 35.1013 15.7115 35.0025 15.775L20.9988 24.8162C20.788 24.9523 20.6148 25.1391 20.4949 25.3594C20.375 25.5797 20.3123 25.8266 20.3125 26.0775Z" fill="url(#paint7_linear_1863_85160)"/>
</g>
<g filter="url(#filter4_f_1863_85160)">
<path d="M39.0266 17.9917C38.9291 17.9217 38.7766 17.9629 38.7141 17.9917L24.2803 27.4067C24.1951 27.4674 24.1236 27.5453 24.0703 27.6354" stroke="#A47E73" stroke-width="0.0625"/>
</g>
<g filter="url(#filter5_f_1863_85160)">
<path d="M30 31.0898L44.5312 22.0273" stroke="#F4CAA3" stroke-width="0.25" stroke-linecap="round"/>
</g>
<defs>
<filter id="filter0_i_1863_85160" x="14.7266" y="12.375" width="30.1562" height="35.3711" filterUnits="userSpaceOnUse" color-interpolation-filters="sRGB">
<feFlood flood-opacity="0" result="BackgroundImageFix"/>
<feBlend mode="normal" in="SourceGraphic" in2="BackgroundImageFix" result="shape"/>
<feColorMatrix in="SourceAlpha" type="matrix" values="0 0 0 0 0 0 0 0 0 0 0 0 0 0 0 0 0 0 127 0" result="hardAlpha"/>
<feOffset dy="0.125"/>
<feGaussianBlur stdDeviation="0.1875"/>
<feComposite in2="hardAlpha" operator="arithmetic" k2="-1" k3="1"/>
<feColorMatrix type="matrix" values="0 0 0 0 0.843137 0 0 0 0 0.694118 0 0 0 0 0.52549 0 0 0 1 0"/>
<feBlend mode="normal" in2="shape" result="effect1_innerShadow_1863_85160"/>
</filter>
<filter id="filter1_i_1863_85160" x="14.7266" y="22.1406" width="16.2109" height="26.7168" filterUnits="userSpaceOnUse" color-interpolation-filters="sRGB">
<feFlood flood-opacity="0" result="BackgroundImageFix"/>
<feBlend mode="normal" in="SourceGraphic" in2="BackgroundImageFix" result="shape"/>
<feColorMatrix in="SourceAlpha" type="matrix" values="0 0 0 0 0 0 0 0 0 0 0 0 0 0 0 0 0 0 127 0" result="hardAlpha"/>
<feOffset dx="1.25" dy="1.25"/>
<feGaussianBlur stdDeviation="1.875"/>
<feComposite in2="hardAlpha" operator="arithmetic" k2="-1" k3="1"/>
<feColorMatrix type="matrix" values="0 0 0 0 0.831373 0 0 0 0 0.670588 0 0 0 0 0.545098 0 0 0 1 0"/>
<feBlend mode="normal" in2="shape" result="effect1_innerShadow_1863_85160"/>
</filter>
<filter id="filter2_i_1863_85160" x="23.3516" y="38.1641" width="4.89844" height="6.2168" filterUnits="userSpaceOnUse" color-interpolation-filters="sRGB">
<feFlood flood-opacity="0" result="BackgroundImageFix"/>
<feBlend mode="normal" in="SourceGraphic" in2="BackgroundImageFix" result="shape"/>
<feColorMatrix in="SourceAlpha" type="matrix" values="0 0 0 0 0 0 0 0 0 0 0 0 0 0 0 0 0 0 127 0" result="hardAlpha"/>
<feOffset dx="-0.1875"/>
<feGaussianBlur stdDeviation="0.0625"/>
<feComposite in2="hardAlpha" operator="arithmetic" k2="-1" k3="1"/>
<feColorMatrix type="matrix" values="0 0 0 0 0.760103 0 0 0 0 0.683293 0 0 0 0 0.795016 0 0 0 1 0"/>
<feBlend mode="normal" in2="shape" result="effect1_innerShadow_1863_85160"/>
</filter>
<filter id="filter3_i_1863_85160" x="20.1875" y="15.6758" width="19.0938" height="16.0195" filterUnits="userSpaceOnUse" color-interpolation-filters="sRGB">
<feFlood flood-opacity="0" result="BackgroundImageFix"/>
<feBlend mode="normal" in="SourceGraphic" in2="BackgroundImageFix" result="shape"/>
<feColorMatrix in="SourceAlpha" type="matrix" values="0 0 0 0 0 0 0 0 0 0 0 0 0 0 0 0 0 0 127 0" result="hardAlpha"/>
<feOffset dx="-0.125"/>
<feGaussianBlur stdDeviation="0.0625"/>
<feComposite in2="hardAlpha" operator="arithmetic" k2="-1" k3="1"/>
<feColorMatrix type="matrix" values="0 0 0 0 0.47451 0 0 0 0 0.266667 0 0 0 0 0.301961 0 0 0 1 0"/>
<feBlend mode="normal" in2="shape" result="effect1_innerShadow_1863_85160"/>
</filter>
<filter id="filter4_f_1863_85160" x="23.9219" y="17.7969" width="15.25" height="9.97852" filterUnits="userSpaceOnUse" color-interpolation-filters="sRGB">
<feFlood flood-opacity="0" result="BackgroundImageFix"/>
<feBlend mode="normal" in="SourceGraphic" in2="BackgroundImageFix" result="shape"/>
<feGaussianBlur stdDeviation="0.0625" result="effect1_foregroundBlur_1863_85160"/>
</filter>
<filter id="filter5_f_1863_85160" x="29.5625" y="21.5898" width="15.4062" height="9.9375" filterUnits="userSpaceOnUse" color-interpolation-filters="sRGB">
<feFlood flood-opacity="0" result="BackgroundImageFix"/>
<feBlend mode="normal" in="SourceGraphic" in2="BackgroundImageFix" result="shape"/>
<feGaussianBlur stdDeviation="0.15625" result="effect1_foregroundBlur_1863_85160"/>
</filter>
<linearGradient id="paint0_linear_1863_85160" x1="29.8053" y1="12.3741" x2="29.8053" y2="47.6191" gradientUnits="userSpaceOnUse">
<stop stop-color="#DEB586"/>
<stop offset="1" stop-color="#D7AA82"/>
</linearGradient>
<linearGradient id="paint1_linear_1863_85160" x1="23.2816" y1="27.5916" x2="23.8478" y2="26.6928" gradientUnits="userSpaceOnUse">
<stop offset="0.066" stop-color="#C99D78"/>
<stop offset="1" stop-color="#DCB185" stop-opacity="0"/>
</linearGradient>
<linearGradient id="paint2_linear_1863_85160" x1="16.7191" y1="28.9569" x2="27.3316" y2="46.7106" gradientUnits="userSpaceOnUse">
<stop stop-color="#B98875"/>
<stop offset="1" stop-color="#AA684F"/>
</linearGradient>
<linearGradient id="paint3_linear_1863_85160" x1="30.7425" y1="30.9334" x2="40.7425" y2="41.3247" gradientUnits="userSpaceOnUse">
<stop stop-color="#D7A585"/>
<stop offset="1" stop-color="#BD7943"/>
</linearGradient>
<linearGradient id="paint4_linear_1863_85160" x1="29.2813" y1="41.5147" x2="30.7288" y2="41.4347" gradientUnits="userSpaceOnUse">
<stop stop-color="#B46C4B"/>
<stop offset="1" stop-color="#BD7E61" stop-opacity="0"/>
</linearGradient>
<linearGradient id="paint5_linear_1863_85160" x1="24.1766" y1="38.4261" x2="27.4516" y2="44.7373" gradientUnits="userSpaceOnUse">
<stop stop-color="#CAB6CD"/>
<stop offset="1" stop-color="#D1BED7"/>
</linearGradient>
<linearGradient id="paint6_linear_1863_85160" x1="21.0163" y1="29.82" x2="23.5163" y2="26.11" gradientUnits="userSpaceOnUse">
<stop offset="0.649" stop-color="#8D6D6C"/>
<stop offset="0.726" stop-color="#83554C"/>
<stop offset="0.825" stop-color="#83554C"/>
<stop offset="1" stop-color="#976A58" stop-opacity="0"/>
</linearGradient>
<linearGradient id="paint7_linear_1863_85160" x1="38.32" y1="17.2225" x2="37.07" y2="18.6287" gradientUnits="userSpaceOnUse">
<stop stop-color="#9C6F5D"/>
<stop offset="1" stop-color="#9C6F5D" stop-opacity="0"/>
</linearGradient>
</defs>
</svg>
