<svg width="19" height="18" viewBox="0 0 19 18" fill="none" xmlns="http://www.w3.org/2000/svg">
<path d="M13.8742 9C14.9682 9 16.0174 9.4346 16.791 10.2082C17.5646 10.9818 17.9992 12.031 17.9992 13.125C17.9992 14.219 17.5646 15.2682 16.791 16.0418C16.0174 16.8154 14.9682 17.25 13.8742 17.25C12.7802 17.25 11.7309 16.8154 10.9574 16.0418C10.1838 15.2682 9.74917 14.219 9.74917 13.125C9.74917 12.031 10.1838 10.9818 10.9574 10.2082C11.7309 9.4346 12.7802 9 13.8742 9ZM12.0172 11.268C11.9469 11.3383 11.9074 11.4337 11.9074 11.5331C11.9074 11.6326 11.9469 11.7279 12.0172 11.7983L13.3439 13.1257L12.0187 14.4503C11.9838 14.4851 11.9561 14.5264 11.9372 14.5719C11.9184 14.6174 11.9086 14.6662 11.9086 14.7155C11.9086 14.7648 11.9182 14.8136 11.937 14.8591C11.9559 14.9046 11.9835 14.946 12.0183 14.9809C12.0531 15.0157 12.0945 15.0434 12.14 15.0623C12.1855 15.0812 12.2343 15.0909 12.2835 15.091C12.3328 15.091 12.3816 15.0813 12.4271 15.0625C12.4727 15.0437 12.5141 15.0161 12.5489 14.9813L13.8742 13.656L15.2017 14.9827C15.2363 15.0186 15.2776 15.0471 15.3234 15.0668C15.3691 15.0864 15.4184 15.0968 15.4681 15.0972C15.5179 15.0977 15.5673 15.0882 15.6134 15.0693C15.6595 15.0505 15.7014 15.0226 15.7366 14.9874C15.7718 14.9522 15.7996 14.9103 15.8185 14.8642C15.8373 14.8181 15.8468 14.7688 15.8464 14.719C15.846 14.6692 15.8356 14.62 15.816 14.5742C15.7963 14.5285 15.7677 14.4871 15.7319 14.4525L14.4052 13.125L15.7334 11.7975C15.8017 11.7268 15.8395 11.632 15.8387 11.5337C15.8378 11.4354 15.7984 11.3413 15.7289 11.2718C15.6593 11.2023 15.5653 11.1629 15.4669 11.162C15.3686 11.1611 15.2739 11.1989 15.2032 11.2673L13.8749 12.5947L12.5474 11.2673C12.4771 11.1969 12.3817 11.1575 12.2823 11.1575C12.1829 11.1575 12.0875 11.1969 12.0172 11.2673M9.01342 12.75H2.99917L2.91142 12.7552C2.7216 12.7778 2.54756 12.872 2.42487 13.0186C2.30218 13.1652 2.24009 13.3531 2.25129 13.544C2.26249 13.7348 2.34614 13.9141 2.48514 14.0454C2.62414 14.1766 2.80801 14.2498 2.99917 14.25H9.12967C9.01353 13.759 8.97432 13.253 9.01342 12.75ZM9.37342 11.25H2.99917C2.80801 11.2498 2.62414 11.1766 2.48514 11.0454C2.34614 10.9141 2.26249 10.7348 2.25129 10.544C2.24009 10.3531 2.30218 10.1652 2.42487 10.0186C2.54756 9.87204 2.7216 9.77783 2.91142 9.75525L2.99917 9.75H10.3567C9.9387 10.1848 9.6058 10.6934 9.37342 11.25ZM2.99917 8.25C2.80801 8.24979 2.62414 8.17659 2.48514 8.04536C2.34614 7.91414 2.26249 7.73479 2.25129 7.54395C2.24009 7.35312 2.30218 7.16522 2.42487 7.01863C2.54756 6.87204 2.7216 6.77783 2.91142 6.75525L2.99917 6.75H16.4992C16.6903 6.75021 16.8742 6.82341 17.0132 6.95464C17.1522 7.08586 17.2358 7.26521 17.247 7.45605C17.2583 7.64688 17.1962 7.83478 17.0735 7.98137C16.9508 8.12796 16.7767 8.22217 16.5869 8.24475L16.4992 8.25H2.99917ZM16.4992 3.75H2.99917L2.91142 3.75525C2.7216 3.77783 2.54756 3.87204 2.42487 4.01863C2.30218 4.16522 2.24009 4.35312 2.25129 4.54395C2.26249 4.73479 2.34614 4.91414 2.48514 5.04536C2.62414 5.17659 2.80801 5.24979 2.99917 5.25H16.4992L16.5869 5.24475C16.7767 5.22217 16.9508 5.12796 17.0735 4.98137C17.1962 4.83478 17.2583 4.64688 17.247 4.45605C17.2358 4.26521 17.1522 4.08586 17.0132 3.95464C16.8742 3.82341 16.6903 3.75021 16.4992 3.75Z" fill="#F15046"/>
</svg>
