<svg width="179" height="179" viewBox="0 0 179 179" fill="none" xmlns="http://www.w3.org/2000/svg">
<path d="M178.43 89.4998C178.43 40.3841 138.614 0.568008 89.4979 0.568008C40.3822 0.568008 0.566055 40.3841 0.566055 89.4998C0.566055 138.616 40.3822 178.432 89.4979 178.432C138.614 178.432 178.43 138.616 178.43 89.4998Z" fill="#EAFFF6"/>
<path d="M165.238 89.4996C165.238 47.6704 131.329 13.761 89.4996 13.761C47.6704 13.761 13.761 47.6704 13.761 89.4996C13.761 131.329 47.6704 165.238 89.4996 165.238C131.329 165.238 165.238 131.329 165.238 89.4996Z" fill="#C1FFE5"/>
<path d="M132.008 89.5004C132.008 66.022 112.975 46.989 89.4964 46.989C66.0181 46.989 46.9851 66.022 46.9851 89.5004C46.9851 112.979 66.0181 132.012 89.4964 132.012C112.975 132.012 132.008 112.979 132.008 89.5004Z" fill="white"/>
<path d="M89.4935 26.791C54.9412 26.791 26.7852 54.9471 26.7852 89.4993C26.7852 124.052 54.9412 152.208 89.4935 152.208C124.046 152.208 152.202 124.052 152.202 89.4993C152.202 54.9471 124.046 26.791 89.4935 26.791ZM119.468 75.0764L83.9124 110.632C83.0345 111.51 81.8431 112.012 80.5889 112.012C79.3347 112.012 78.1433 111.51 77.2654 110.632L59.5189 92.8856C57.7004 91.0671 57.7004 88.0571 59.5189 86.2385C61.3374 84.42 64.3474 84.42 66.166 86.2385L80.5889 100.661L112.821 68.4293C114.64 66.6108 117.65 66.6108 119.468 68.4293C121.287 70.2479 121.287 73.1952 119.468 75.0764Z" fill="#41D195"/>
</svg>
