<svg width="19" height="18" viewBox="0 0 19 18" fill="none" xmlns="http://www.w3.org/2000/svg">
<g clip-path="url(#clip0_1769_79182)">
<path fill-rule="evenodd" clip-rule="evenodd" d="M17.7631 7.03223C17.6928 7.03223 17.6577 7.03223 17.5874 6.96191L16.2514 5.94238V17.7549C16.2163 17.8955 16.1108 18.001 15.9702 18.001H2.57564C2.43502 18.001 2.29439 17.8955 2.29439 17.7549V5.90723L0.923299 6.96191C0.782674 7.06738 0.642049 7.03223 0.536581 6.92676C0.466268 6.82129 0.501424 6.64551 0.606893 6.5752L2.36471 5.2041C2.39986 5.16895 2.43502 5.16895 2.43502 5.13379L9.1147 0.0712891C9.18502 -0.0341797 9.32564 -0.0341797 9.39595 0.0712891C12.2436 2.25098 15.0913 4.39551 17.9038 6.5752C18.0444 6.68066 18.0444 6.82129 17.9389 6.96191C17.9038 6.99707 17.8335 7.03223 17.7631 7.03223ZM7.9897 7.48926H6.12642C5.9858 7.48926 5.88033 7.34863 5.88033 7.20801V5.37988C5.88033 5.23926 5.9858 5.09863 6.12642 5.09863H7.9897C8.13033 5.09863 8.2358 5.23926 8.2358 5.37988V7.20801C8.2358 7.34863 8.13033 7.48926 7.9897 7.48926ZM6.40767 6.96191H7.70845V5.62598H6.40767V6.96191ZM12.3842 7.48926H10.521C10.3803 7.48926 10.2749 7.34863 10.2749 7.20801V5.37988C10.2749 5.23926 10.3803 5.09863 10.521 5.09863H12.3842C12.5249 5.09863 12.6303 5.23926 12.6303 5.37988V7.20801C12.6303 7.34863 12.5249 7.48926 12.3842 7.48926ZM10.8022 6.96191H12.1381V5.62598H10.8022V6.96191ZM7.00533 13.1143C6.97017 13.1143 6.89986 13.0791 6.82955 13.0439C6.75924 12.9385 6.75924 12.7627 6.82955 12.6572C7.46236 12.0244 8.37642 11.6729 9.29049 11.6729C10.2045 11.6729 11.0483 12.0244 11.7163 12.6572C11.8217 12.7627 11.8217 12.9385 11.7163 13.0439C11.6108 13.1494 11.435 13.1494 11.3295 13.0439C10.767 12.4814 10.0639 12.165 9.25533 12.165C8.48189 12.165 7.74361 12.4814 7.18111 13.0439C7.14595 13.0791 7.07564 13.1143 7.00533 13.1143ZM12.5249 12.0947C12.4545 12.0947 12.3842 12.0596 12.3491 12.0244C11.5053 11.2158 10.4155 10.7588 9.25533 10.7588C8.09517 10.7588 7.00533 11.2158 6.19674 12.0244C6.09127 12.1299 5.91549 12.1299 5.81002 12.0244C5.70455 11.9189 5.70455 11.7783 5.81002 11.6729C6.75924 10.7236 7.95455 10.2314 9.25533 10.2314C10.5561 10.2314 11.7866 10.7588 12.7006 11.6729C12.8061 11.7783 12.8061 11.9189 12.7006 12.0244C12.6303 12.0596 12.5952 12.0947 12.5249 12.0947ZM13.685 10.9346C13.6147 10.9346 13.5444 10.8994 13.5092 10.8643C12.3842 9.73926 10.8725 9.10645 9.25533 9.10645C7.6733 9.10645 6.16158 9.73926 5.00142 10.8643C4.89596 10.9697 4.75533 10.9697 4.64986 10.8643C4.54439 10.7588 4.54439 10.583 4.64986 10.4775C5.88033 9.24707 7.53267 8.5791 9.25533 8.5791C11.0131 8.5791 12.6303 9.24707 13.8608 10.4775C13.9663 10.583 13.9663 10.7588 13.8608 10.8643C13.8256 10.8994 13.7553 10.9346 13.685 10.9346ZM9.25533 15.751C8.58736 15.751 8.02486 15.1885 8.02486 14.5205C8.02486 13.8525 8.58736 13.29 9.25533 13.29C9.95845 13.29 10.521 13.8525 10.521 14.5205C10.521 15.2236 9.95845 15.751 9.25533 15.751ZM9.25533 13.8174C8.86861 13.8174 8.55221 14.1338 8.55221 14.5205C8.55221 14.9424 8.86861 15.2588 9.25533 15.2588C9.6772 15.2588 9.99361 14.9424 9.99361 14.5205C9.99361 14.1338 9.6772 13.8174 9.25533 13.8174ZM2.29439 4.6416V1.30176C2.29439 1.16113 2.43502 1.05566 2.57564 1.05566H4.93111C5.07174 1.05566 5.17721 1.16113 5.17721 1.30176V2.42676L2.29439 4.6416Z" fill="#4AD991"/>
</g>
<defs>
<clipPath id="clip0_1769_79182">
<rect width="18" height="18" fill="white" transform="translate(0.25)"/>
</clipPath>
</defs>
</svg>
