<svg width="19" height="18" viewBox="0 0 19 18" fill="none" xmlns="http://www.w3.org/2000/svg">
<g clip-path="url(#clip0_1769_79162)">
<path fill-rule="evenodd" clip-rule="evenodd" d="M18.2631 7.03223C18.1928 7.03223 18.1577 7.03223 18.0874 6.96191L16.7514 5.94238V17.7549C16.7163 17.8955 16.6108 18.001 16.4702 18.001H3.07564C2.93502 18.001 2.79439 17.8955 2.79439 17.7549V5.90723L1.4233 6.96191C1.28267 7.06738 1.14205 7.03223 1.03658 6.92676C0.966268 6.82129 1.00142 6.64551 1.10689 6.5752L2.86471 5.2041C2.89986 5.16895 2.93502 5.16895 2.93502 5.13379L9.6147 0.0712891C9.68502 -0.0341797 9.82564 -0.0341797 9.89595 0.0712891C12.7436 2.25098 15.5913 4.39551 18.4038 6.5752C18.5444 6.68066 18.5444 6.82129 18.4389 6.96191C18.4038 6.99707 18.3335 7.03223 18.2631 7.03223ZM8.4897 7.48926H6.62642C6.4858 7.48926 6.38033 7.34863 6.38033 7.20801V5.37988C6.38033 5.23926 6.4858 5.09863 6.62642 5.09863H8.4897C8.63033 5.09863 8.7358 5.23926 8.7358 5.37988V7.20801C8.7358 7.34863 8.63033 7.48926 8.4897 7.48926ZM6.90767 6.96191H8.20845V5.62598H6.90767V6.96191ZM12.8842 7.48926H11.021C10.8803 7.48926 10.7749 7.34863 10.7749 7.20801V5.37988C10.7749 5.23926 10.8803 5.09863 11.021 5.09863H12.8842C13.0249 5.09863 13.1303 5.23926 13.1303 5.37988V7.20801C13.1303 7.34863 13.0249 7.48926 12.8842 7.48926ZM11.3022 6.96191H12.6381V5.62598H11.3022V6.96191ZM7.50533 13.1143C7.47017 13.1143 7.39986 13.0791 7.32955 13.0439C7.25924 12.9385 7.25924 12.7627 7.32955 12.6572C7.96236 12.0244 8.87642 11.6729 9.79049 11.6729C10.7045 11.6729 11.5483 12.0244 12.2163 12.6572C12.3217 12.7627 12.3217 12.9385 12.2163 13.0439C12.1108 13.1494 11.935 13.1494 11.8295 13.0439C11.267 12.4814 10.5639 12.165 9.75533 12.165C8.98189 12.165 8.24361 12.4814 7.68111 13.0439C7.64595 13.0791 7.57564 13.1143 7.50533 13.1143ZM13.0249 12.0947C12.9545 12.0947 12.8842 12.0596 12.8491 12.0244C12.0053 11.2158 10.9155 10.7588 9.75533 10.7588C8.59517 10.7588 7.50533 11.2158 6.69674 12.0244C6.59127 12.1299 6.41549 12.1299 6.31002 12.0244C6.20455 11.9189 6.20455 11.7783 6.31002 11.6729C7.25924 10.7236 8.45455 10.2314 9.75533 10.2314C11.0561 10.2314 12.2866 10.7588 13.2006 11.6729C13.3061 11.7783 13.3061 11.9189 13.2006 12.0244C13.1303 12.0596 13.0952 12.0947 13.0249 12.0947ZM14.185 10.9346C14.1147 10.9346 14.0444 10.8994 14.0092 10.8643C12.8842 9.73926 11.3725 9.10645 9.75533 9.10645C8.1733 9.10645 6.66158 9.73926 5.50142 10.8643C5.39596 10.9697 5.25533 10.9697 5.14986 10.8643C5.04439 10.7588 5.04439 10.583 5.14986 10.4775C6.38033 9.24707 8.03267 8.5791 9.75533 8.5791C11.5131 8.5791 13.1303 9.24707 14.3608 10.4775C14.4663 10.583 14.4663 10.7588 14.3608 10.8643C14.3256 10.8994 14.2553 10.9346 14.185 10.9346ZM9.75533 15.751C9.08736 15.751 8.52486 15.1885 8.52486 14.5205C8.52486 13.8525 9.08736 13.29 9.75533 13.29C10.4585 13.29 11.021 13.8525 11.021 14.5205C11.021 15.2236 10.4585 15.751 9.75533 15.751ZM9.75533 13.8174C9.36861 13.8174 9.05221 14.1338 9.05221 14.5205C9.05221 14.9424 9.36861 15.2588 9.75533 15.2588C10.1772 15.2588 10.4936 14.9424 10.4936 14.5205C10.4936 14.1338 10.1772 13.8174 9.75533 13.8174ZM2.79439 4.6416V1.30176C2.79439 1.16113 2.93502 1.05566 3.07564 1.05566H5.43111C5.57174 1.05566 5.67721 1.16113 5.67721 1.30176V2.42676L2.79439 4.6416Z" fill="#C59A00"/>
</g>
<defs>
<clipPath id="clip0_1769_79162">
<rect width="18" height="18" fill="white" transform="translate(0.75)"/>
</clipPath>
</defs>
</svg>
