<svg width="57" height="56" viewBox="0 0 57 56" fill="none" xmlns="http://www.w3.org/2000/svg">
<path d="M53.7605 28.0016C53.7605 41.8216 42.4555 53.0266 28.5121 53.0266C14.5687 53.0266 3.26367 41.8216 3.26367 28.0016C3.26367 14.1816 14.5687 2.97656 28.5121 2.97656C42.4555 2.97656 53.7605 14.1816 53.7605 28.0016Z" fill="#ABD7EF"/>
<path d="M40.4933 17.9237V43.7337C40.4933 44.5238 39.8476 45.1637 39.0505 45.1637H17.974C17.177 45.1637 16.5312 44.5238 16.5312 43.7337V12.2738C16.5312 11.4838 17.177 10.8438 17.974 10.8438H33.3501L40.4933 17.9237Z" fill="white"/>
<path d="M30.5656 17.2266H19.3262V18.6566H30.5656V17.2266Z" fill="#6C6969"/>
<path d="M30.5656 13.7031H19.3262V15.1331H30.5656V13.7031Z" fill="#6C6969"/>
<path d="M37.9262 20.75H19.0996V22.18H37.9262V20.75Z" fill="#6C6969"/>
<path d="M40.4948 17.9237H34.7943C33.9973 17.9237 33.3516 17.2837 33.3516 16.4937V10.8438L40.4948 17.9237Z" fill="#A8B6C2"/>
<path d="M34.6371 31.3122H31.5296V42.3022H25.4911V31.3122H22.3887L28.5129 25.2422L34.6371 31.3122Z" fill="#6C6969"/>
</svg>
