<svg width="77" height="77" viewBox="0 0 77 77" fill="none" xmlns="http://www.w3.org/2000/svg">
<path d="M73.5349 38.4959C73.5349 57.8439 57.8478 73.5309 38.4998 73.5309C19.1518 73.5309 3.46484 57.8439 3.46484 38.4959C3.46484 19.1479 19.1518 3.46094 38.4998 3.46094C57.8478 3.46094 73.5349 19.1479 73.5349 38.4959Z" fill="#ABD7EF"/>
<path d="M55.125 24.3886V60.5226C55.125 61.6286 54.229 62.5246 53.123 62.5246H23.877C22.771 62.5246 21.875 61.6286 21.875 60.5226V16.4786C21.875 15.3726 22.771 14.4766 23.877 14.4766H45.213L55.125 24.3886Z" fill="white"/>
<path d="M41.348 23.4141H25.752V25.4161H41.348V23.4141Z" fill="#E1E1E1"/>
<path d="M41.348 18.4766H25.752V20.4786H41.348V18.4766Z" fill="#E1E1E1"/>
<path d="M51.5615 28.3516H25.4375V30.3536H51.5615V28.3516Z" fill="#E1E1E1"/>
<path d="M55.1249 24.3886H47.2149C46.1089 24.3886 45.2129 23.4926 45.2129 22.3866V14.4766L55.1249 24.3886Z" fill="#A8B6C2"/>
<path d="M46.998 43.1308H42.686V58.5168H34.307V43.1308H30.002L38.5 34.6328L46.998 43.1308Z" fill="#E1E1E1"/>
</svg>
