<svg width="24" height="25" viewBox="0 0 24 25" fill="none" xmlns="http://www.w3.org/2000/svg">
<path fill-rule="evenodd" clip-rule="evenodd" d="M6.84844 8.50039C6.84844 6.76069 8.25874 5.35039 9.99844 5.35039C11.7381 5.35039 13.1484 6.76069 13.1484 8.50039C13.1484 10.2401 11.7381 11.6504 9.99844 11.6504C8.25874 11.6504 6.84844 10.2401 6.84844 8.50039ZM9.99844 3.65039C7.31986 3.65039 5.14844 5.82181 5.14844 8.50039C5.14844 11.179 7.31986 13.3504 9.99844 13.3504C12.677 13.3504 14.8484 11.179 14.8484 8.50039C14.8484 5.82181 12.677 3.65039 9.99844 3.65039ZM4.84844 18.4171C4.84844 18.014 5.17709 17.4983 6.2168 17.0392C7.20634 16.6022 8.58267 16.3504 9.99844 16.3504C11.3941 16.3504 12.7693 16.6435 13.7663 17.1051C14.2653 17.3361 14.6313 17.5916 14.8614 17.8382C15.0831 18.0756 15.1461 18.266 15.1484 18.4089C15.1403 18.4304 15.1035 18.4985 14.9612 18.6092C14.7427 18.779 14.3781 18.962 13.8634 19.1274C12.843 19.4553 11.4347 19.6504 9.99844 19.6504C8.29994 19.6504 6.9018 19.4525 5.95974 19.132C5.48607 18.9708 5.17949 18.7959 5.00613 18.6429C4.84737 18.5028 4.84829 18.429 4.84843 18.4178L4.84844 18.4171ZM15.1503 18.4014C15.1505 18.4014 15.1503 18.4034 15.149 18.4072C15.1495 18.4033 15.1501 18.4014 15.1503 18.4014ZM9.99844 14.6504C8.4142 14.6504 6.79054 14.9274 5.53007 15.484C4.31979 16.0185 3.14844 16.9611 3.14844 18.4171C3.14844 19.046 3.46599 19.5511 3.88137 19.9176C4.28613 20.2748 4.8233 20.541 5.41214 20.7414C6.59508 21.1439 8.19694 21.3504 9.99844 21.3504C11.5621 21.3504 13.1539 21.141 14.3835 20.7459C14.9938 20.5498 15.5667 20.2917 16.0045 19.9514C16.4388 19.6137 16.8484 19.1038 16.8484 18.4171C16.8484 17.7275 16.5346 17.1393 16.1042 16.6782C15.6781 16.2217 15.1066 15.8522 14.4805 15.5624C13.2275 14.9823 11.6027 14.6504 9.99844 14.6504ZM16.1524 12.4189C16.1974 11.9516 16.6127 11.6093 17.08 11.6543C18.2941 11.7713 19.4206 12.0869 20.2718 12.5792C21.0962 13.0559 21.8484 13.8204 21.8484 14.8737C21.8484 15.4196 21.6395 15.9174 21.2333 16.313C20.8504 16.6859 20.3276 16.9353 19.7303 17.1047C19.2786 17.2327 18.8087 16.9704 18.6807 16.5187C18.5526 16.0671 18.815 15.5972 19.2666 15.4691C19.7142 15.3422 19.9414 15.1982 20.0473 15.0951C20.1298 15.0147 20.1484 14.954 20.1484 14.8737C20.1484 14.717 20.0312 14.4038 19.4208 14.0508C18.8373 13.7134 17.9638 13.4474 16.9169 13.3465C16.4496 13.3014 16.1073 12.8861 16.1524 12.4189ZM17.9984 3.65039C17.529 3.65039 17.1484 4.03095 17.1484 4.50039C17.1484 4.96983 17.529 5.35039 17.9984 5.35039C18.9097 5.35039 19.6484 6.08912 19.6484 7.00039C19.6484 7.91166 18.9097 8.65039 17.9984 8.65039C17.529 8.65039 17.1484 9.03095 17.1484 9.50039C17.1484 9.96983 17.529 10.3504 17.9984 10.3504C19.8486 10.3504 21.3484 8.85054 21.3484 7.00039C21.3484 5.15024 19.8486 3.65039 17.9984 3.65039Z" fill="#347AE2"/>
</svg>
