<svg width="24" height="24" viewBox="0 0 24 24" fill="none" xmlns="http://www.w3.org/2000/svg">
<path d="M11 5V6M14 5V6" stroke="#575757" stroke-width="2" stroke-linecap="round" stroke-linejoin="round"/>
<path d="M11 17V19M14 17V19" stroke="#575757" stroke-width="2" stroke-linecap="round" stroke-linejoin="round"/>
<path d="M12.3355 17C11.2386 17 10.2907 16.7721 9.49201 16.3163C8.70394 15.8504 8.09159 15.2072 7.65495 14.3867C7.21832 13.5562 7 12.5939 7 11.5C7 10.4162 7.21832 9.46409 7.65495 8.64365C8.09159 7.81308 8.70394 7.16483 9.49201 6.6989C10.2907 6.23296 11.2386 6 12.3355 6C13.6134 6 14.6518 6.29374 15.4505 6.88121C16.2599 7.45856 16.7764 8.26888 17 9.31215H15.5144C15.344 8.65377 14.9925 8.12707 14.4601 7.73204C13.9382 7.32689 13.23 7.12431 12.3355 7.12431C11.5367 7.12431 10.8392 7.30157 10.2428 7.65608C9.64643 8.00046 9.18317 8.50184 8.85304 9.16022C8.53355 9.80847 8.3738 10.5884 8.3738 11.5C8.3738 12.4116 8.53355 13.1966 8.85304 13.855C9.18317 14.5032 9.64643 15.0046 10.2428 15.3591C10.8392 15.7035 11.5367 15.8757 12.3355 15.8757C13.23 15.8757 13.9382 15.6832 14.4601 15.2983C14.9925 14.9033 15.344 14.3817 15.5144 13.7334H17C16.7764 14.7564 16.2599 15.5566 15.4505 16.134C14.6518 16.7113 13.6134 17 12.3355 17Z" fill="#575757" stroke="#575757" stroke-width="0.4"/>
<rect x="1.8" y="1.8" width="20.4" height="20.4" rx="4.2" stroke="#575757" stroke-width="1.6"/>
</svg>
