<svg width="20" height="20" viewBox="0 0 20 20" fill="none" xmlns="http://www.w3.org/2000/svg">
<path d="M10 0.18335C8.07164 0.18335 6.18657 0.755177 4.58319 1.82652C2.97982 2.89786 1.73013 4.42061 0.992179 6.20219C0.254225 7.98377 0.061142 9.94417 0.437348 11.8355C0.813554 13.7268 1.74215 15.4641 3.10571 16.8276C4.46928 18.1912 6.20656 19.1198 8.09787 19.496C9.98919 19.8722 11.9496 19.6791 13.7312 18.9412C15.5127 18.2032 17.0355 16.9535 18.1068 15.3502C19.1782 13.7468 19.75 11.8617 19.75 9.93335C19.747 7.34841 18.7188 4.87019 16.891 3.04236C15.0632 1.21453 12.5849 0.186337 10 0.18335ZM14.6436 8.22607L9.14307 13.4761C9.00322 13.6091 8.81756 13.6833 8.62452 13.6833C8.43147 13.6833 8.24582 13.6091 8.10596 13.4761L5.35645 10.8511C5.2128 10.7135 5.12965 10.5245 5.12524 10.3256C5.12084 10.1268 5.19555 9.93427 5.33297 9.79045C5.47038 9.64663 5.65927 9.56324 5.85813 9.55858C6.05699 9.55393 6.24956 9.62839 6.39356 9.76562L8.62452 11.8962L13.6064 7.14062C13.7504 7.00339 13.943 6.92893 14.1419 6.93358C14.3407 6.93824 14.5296 7.02163 14.667 7.16545C14.8045 7.30927 14.8792 7.50176 14.8748 7.70062C14.8704 7.89949 14.7872 8.08848 14.6436 8.22607Z" fill="#0E89F7"/>
</svg>
