<svg width="33" height="33" viewBox="0 0 33 33" fill="none" xmlns="http://www.w3.org/2000/svg">
<g id="checked">
<path id="Vector" d="M25.971 8.88372C26.1075 8.74445 26.2704 8.63381 26.4502 8.55828C26.6299 8.48275 26.823 8.44385 27.018 8.44385C27.213 8.44385 27.406 8.48275 27.5858 8.55828C27.7656 8.63381 27.9285 8.74445 28.065 8.88372C28.637 9.46172 28.645 10.3957 28.085 10.9837L16.259 24.9637C16.1247 25.1112 15.9618 25.2297 15.7801 25.312C15.5985 25.3943 15.402 25.4387 15.2026 25.4424C15.0032 25.4461 14.8052 25.4092 14.6206 25.3337C14.436 25.2583 14.2687 25.146 14.129 25.0037L6.93298 17.7117C6.65546 17.4287 6.5 17.0481 6.5 16.6517C6.5 16.2553 6.65546 15.8747 6.93298 15.5917C7.06948 15.4524 7.23238 15.3418 7.41216 15.2663C7.59194 15.1908 7.78498 15.1518 7.97998 15.1518C8.17499 15.1518 8.36803 15.1908 8.54781 15.2663C8.72759 15.3418 8.89049 15.4524 9.02698 15.5917L15.131 21.7777L25.931 8.92772C25.9434 8.91226 25.9568 8.89757 25.971 8.88372Z" fill="url(#paint0_linear_8411_8785)"/>
</g>
<defs>
<linearGradient id="paint0_linear_8411_8785" x1="12.857" y1="11.2004" x2="21.007" y2="13.6176" gradientUnits="userSpaceOnUse">
<stop stop-color="#5049E1"/>
<stop offset="1" stop-color="#29B0FA"/>
</linearGradient>
</defs>
</svg>
