<svg width="22" height="21" viewBox="0 0 22 21" fill="none" xmlns="http://www.w3.org/2000/svg">
<g clip-path="url(#clip0_4152_26201)">
<path d="M10.4383 2.94583C11.7019 2.94468 12.9374 3.31832 13.9886 4.01948C15.0398 4.72065 15.8594 5.71784 16.3438 6.8849C16.8281 8.05196 16.9554 9.33645 16.7096 10.5759C16.4638 11.8153 15.8559 12.954 14.9629 13.8479C14.0698 14.7418 12.9316 15.3507 11.6924 15.5977C10.4532 15.8446 9.16861 15.7185 8.00111 15.2352C6.83361 14.7519 5.83567 13.9332 5.13354 12.8826C4.43142 11.8321 4.05665 10.5969 4.05665 9.33333C4.06431 7.64263 4.73894 6.02327 5.93391 4.82721C7.12888 3.63114 8.74762 2.95504 10.4383 2.94583ZM10.4383 1.75C8.93848 1.75 7.47232 2.19475 6.22524 3.02802C4.97817 3.86129 4.0062 5.04564 3.43223 6.43132C2.85827 7.81699 2.70809 9.34175 3.0007 10.8128C3.2933 12.2838 4.01554 13.635 5.07609 14.6956C6.13664 15.7561 7.48786 16.4783 8.95888 16.771C10.4299 17.0636 11.9547 16.9134 13.3403 16.3394C14.726 15.7655 15.9104 14.7935 16.7436 13.5464C17.5769 12.2993 18.0217 10.8332 18.0217 9.33333C18.0217 7.32211 17.2227 5.39326 15.8005 3.97111C14.3784 2.54896 12.4495 1.75 10.4383 1.75Z" fill="#272425"/>
<path d="M21.3292 19.4192L17.03 15.0908L16.2017 15.9133L20.5008 20.2417C20.5548 20.296 20.619 20.3393 20.6897 20.3688C20.7604 20.3984 20.8363 20.4138 20.9129 20.4141C20.9896 20.4143 21.0655 20.3995 21.1364 20.3704C21.2074 20.3413 21.2719 20.2986 21.3262 20.2446C21.3806 20.1906 21.4239 20.1264 21.4534 20.0557C21.483 19.985 21.4984 19.9091 21.4987 19.8325C21.4989 19.7558 21.4841 19.6799 21.455 19.609C21.4259 19.538 21.3832 19.4735 21.3292 19.4192Z" fill="#272425"/>
</g>
<defs>
<clipPath id="clip0_4152_26201">
<rect width="21" height="21" fill="white" transform="translate(0.912598)"/>
</clipPath>
</defs>
</svg>
