<svg width="74" height="74" viewBox="0 0 74 74" fill="none" xmlns="http://www.w3.org/2000/svg">
<g id="Icon/Outline/cloud-upload">
<path id="Icon" d="M22.0826 48.9274C15.4255 48.9274 10.0288 43.5307 10.0288 36.8736C10.0288 31.1269 14.0504 26.3194 19.4329 25.112C19.1947 24.0483 19.0691 22.942 19.0691 21.8064C19.0691 13.4851 25.8149 6.73926 34.1363 6.73926C41.4267 6.73926 47.5078 11.9171 48.9027 18.796C49.0027 18.794 49.103 18.793 49.2035 18.793C57.5249 18.793 64.2707 25.5388 64.2707 33.8602C64.2707 41.1496 59.0943 47.23 52.2169 48.626M46.1901 39.8871L37.1497 30.8468M37.1497 30.8468L28.1094 39.8871M37.1497 30.8468L37.1497 67.008" stroke="#434343" stroke-width="3.01344" stroke-linecap="round" stroke-linejoin="round"/>
</g>
</svg>
