<svg width="22" height="21" viewBox="0 0 22 21" fill="none" xmlns="http://www.w3.org/2000/svg">
<path d="M11.0263 2.03183C9.38826 2.03183 7.78698 2.51757 6.42499 3.42763C5.06299 4.33768 4.00145 5.63118 3.37459 7.14455C2.74773 8.65792 2.58371 10.3232 2.90328 11.9298C3.22285 13.5364 4.01165 15.0121 5.16994 16.1704C6.32822 17.3287 7.80396 18.1175 9.41054 18.437C11.0171 18.7566 12.6824 18.5926 14.1958 17.9657C15.7091 17.3389 17.0026 16.2773 17.9127 14.9153C18.8227 13.5533 19.3085 11.9521 19.3085 10.314C19.3062 8.11814 18.4328 6.01289 16.8801 4.46018C15.3274 2.90748 13.2222 2.03415 11.0263 2.03183ZM11.0263 17.322C9.64027 17.322 8.28534 16.911 7.13288 16.1409C5.98043 15.3709 5.08219 14.2764 4.55178 12.9958C4.02136 11.7153 3.88258 10.3062 4.15298 8.94681C4.42339 7.58739 5.09083 6.33869 6.07092 5.3586C7.051 4.37852 8.29971 3.71107 9.65913 3.44067C11.0185 3.17026 12.4276 3.30904 13.7082 3.83946C14.9887 4.36988 16.0832 5.26811 16.8532 6.42057C17.6233 7.57303 18.0343 8.92795 18.0343 10.314C18.0322 12.172 17.2932 13.9533 15.9794 15.2671C14.6656 16.5809 12.8843 17.3199 11.0263 17.322ZM14.2118 11.9067C14.2118 12.4981 13.9768 13.0653 13.5587 13.4834C13.1405 13.9016 12.5733 14.1365 11.982 14.1365H11.6634V14.7736C11.6634 14.9426 11.5963 15.1046 11.4768 15.2241C11.3573 15.3436 11.1953 15.4107 11.0263 15.4107C10.8573 15.4107 10.6953 15.3436 10.5758 15.2241C10.4563 15.1046 10.3892 14.9426 10.3892 14.7736V14.1365H9.11505C8.94608 14.1365 8.78403 14.0694 8.66456 13.9499C8.54508 13.8305 8.47796 13.6684 8.47796 13.4995C8.47796 13.3305 8.54508 13.1684 8.66456 13.049C8.78403 12.9295 8.94608 12.8624 9.11505 12.8624H11.982C12.2354 12.8624 12.4785 12.7617 12.6577 12.5825C12.8369 12.4032 12.9376 12.1602 12.9376 11.9067C12.9376 11.6533 12.8369 11.4102 12.6577 11.231C12.4785 11.0518 12.2354 10.9511 11.982 10.9511H10.0707C9.4793 10.9511 8.91213 10.7162 8.49396 10.298C8.07579 9.87982 7.84087 9.31266 7.84087 8.72128C7.84087 8.12989 8.07579 7.56273 8.49396 7.14456C8.91213 6.72639 9.4793 6.49146 10.0707 6.49146H10.3892V5.85437C10.3892 5.6854 10.4563 5.52336 10.5758 5.40388C10.6953 5.2844 10.8573 5.21728 11.0263 5.21728C11.1953 5.21728 11.3573 5.2844 11.4768 5.40388C11.5963 5.52336 11.6634 5.6854 11.6634 5.85437V6.49146H12.9376C13.1066 6.49146 13.2686 6.55858 13.3881 6.67806C13.5076 6.79754 13.5747 6.95958 13.5747 7.12855C13.5747 7.29752 13.5076 7.45956 13.3881 7.57904C13.2686 7.69852 13.1066 7.76564 12.9376 7.76564H10.0707C9.81723 7.76564 9.57416 7.86632 9.39494 8.04554C9.21573 8.22476 9.11505 8.46783 9.11505 8.72128C9.11505 8.97473 9.21573 9.2178 9.39494 9.39701C9.57416 9.57623 9.81723 9.67691 10.0707 9.67691H11.982C12.5733 9.67691 13.1405 9.91184 13.5587 10.33C13.9768 10.7482 14.2118 11.3153 14.2118 11.9067Z" fill="url(#paint0_radial_1812_45039)"/>
<defs>
<radialGradient id="paint0_radial_1812_45039" cx="0" cy="0" r="1" gradientUnits="userSpaceOnUse" gradientTransform="translate(1.64478 1.61397) rotate(57.0826) scale(20.23 22.6775)">
<stop stop-color="#1944B7"/>
<stop offset="0.801454" stop-color="#0B1E51"/>
</radialGradient>
</defs>
</svg>
