<svg width="33" height="33" viewBox="0 0 33 33" fill="none" xmlns="http://www.w3.org/2000/svg">
<g id="Group 2076">
<path id="Ellipse 198" d="M7.11991 23.5977C3.44486 18.4177 4.66488 11.2392 9.84491 7.56418C15.0249 3.88913 22.2034 5.10916 25.8784 10.2892C29.5535 15.4692 28.3335 22.6477 23.1534 26.3227C17.9734 29.9978 10.795 28.7777 7.11991 23.5977ZM23.5094 11.9699C20.7626 8.09826 15.3973 7.18639 11.5256 9.9332C7.65399 12.68 6.74212 18.0453 9.48892 21.917C12.2357 25.7886 17.6011 26.7005 21.4727 23.9537C25.3444 21.2069 26.2562 15.8416 23.5094 11.9699Z" fill="white"/>
<path id="Ellipse 197" d="M20.128 26.8465C20.3169 27.3655 20.0499 27.9438 19.5165 28.0869C16.9948 28.7633 14.3065 28.5636 11.8992 27.5025C9.18574 26.3065 7.03914 24.1085 5.90764 21.3675C4.77613 18.6265 4.74718 15.5543 5.82683 12.7924C6.90648 10.0306 9.01127 7.79253 11.7017 6.54558C14.3922 5.29862 17.4604 5.13915 20.2656 6.10047C23.0709 7.06179 25.3963 9.06959 26.7565 11.7046C28.1166 14.3397 28.4063 17.3983 27.5651 20.2419C26.8188 22.7645 25.2336 24.9449 23.0875 26.4318C22.6336 26.7464 22.0197 26.5762 21.7458 26.0967L21.297 25.3111C21.0231 24.8316 21.1941 24.2252 21.6386 23.8975C23.1383 22.7917 24.246 21.2219 24.7797 19.4178C25.4085 17.2925 25.192 15.0064 24.1754 13.0369C23.1588 11.0675 21.4207 9.56679 19.324 8.84828C17.2273 8.12977 14.9341 8.24896 12.9232 9.18096C10.9123 10.113 9.33909 11.7857 8.53214 13.85C7.72519 15.9143 7.74682 18.2105 8.59254 20.2592C9.43825 22.3079 11.0427 23.9507 13.0708 24.8446C14.7923 25.6034 16.7061 25.7728 18.5192 25.3432C19.0566 25.2159 19.6298 25.4773 19.8187 25.9963L20.128 26.8465Z" fill="url(#paint0_linear_8411_5547)"/>
</g>
<defs>
<linearGradient id="paint0_linear_8411_5547" x1="22.1796" y1="9.76108" x2="23.2946" y2="18.7279" gradientUnits="userSpaceOnUse">
<stop stop-color="#5049E1"/>
<stop offset="1" stop-color="#29B0FA"/>
</linearGradient>
</defs>
</svg>
