<svg width="21" height="21" viewBox="0 0 21 21" fill="none" xmlns="http://www.w3.org/2000/svg">
<path d="M19.2162 6.50054C19.0368 6.29724 18.8162 6.13445 18.569 6.02296C18.3219 5.91147 18.0539 5.85383 17.7827 5.85389H13.3231V4.57971C13.3231 3.73487 12.9875 2.92464 12.3901 2.32725C11.7927 1.72987 10.9825 1.39426 10.1376 1.39426C10.0193 1.39417 9.90324 1.42706 9.80253 1.48923C9.70181 1.5514 9.62041 1.6404 9.56745 1.74625L6.55879 7.76516H3.12965C2.79172 7.76516 2.46762 7.8994 2.22867 8.13836C1.98971 8.37731 1.85547 8.70141 1.85547 9.03934V16.0473C1.85547 16.3853 1.98971 16.7094 2.22867 16.9483C2.46762 17.1873 2.79172 17.3215 3.12965 17.3215H16.8271C17.2927 17.3217 17.7424 17.1518 18.0917 16.8439C18.441 16.536 18.6658 16.1111 18.724 15.6492L19.6797 8.00407C19.7135 7.73492 19.6897 7.46164 19.6098 7.2024C19.5299 6.94316 19.3957 6.7039 19.2162 6.50054ZM3.12965 9.03934H6.3151V16.0473H3.12965V9.03934ZM18.415 7.8448L17.4594 15.4899C17.44 15.6439 17.365 15.7855 17.2486 15.8881C17.1322 15.9908 16.9823 16.0474 16.8271 16.0473H7.58928V8.55276L10.5127 2.70507C10.946 2.79179 11.3359 3.02597 11.616 3.36776C11.896 3.70954 12.049 4.13782 12.0489 4.57971V6.49098C12.0489 6.65995 12.116 6.82199 12.2355 6.94147C12.355 7.06095 12.517 7.12807 12.686 7.12807H17.7827C17.8731 7.12804 17.9625 7.14725 18.0449 7.18442C18.1273 7.2216 18.2009 7.27589 18.2607 7.34368C18.3205 7.41148 18.3652 7.49122 18.3918 7.57762C18.4184 7.66402 18.4263 7.7551 18.415 7.8448Z" fill="url(#paint0_radial_1812_38769)"/>
<defs>
<radialGradient id="paint0_radial_1812_38769" cx="0" cy="0" r="1" gradientUnits="userSpaceOnUse" gradientTransform="translate(0.671502 0.99247) rotate(54.0553) scale(20.1697 23.5537)">
<stop stop-color="#1944B7"/>
<stop offset="0.801454" stop-color="#0B1E51"/>
</radialGradient>
</defs>
</svg>
