<svg width="179" height="179" viewBox="0 0 179 179" fill="none" xmlns="http://www.w3.org/2000/svg">
<path d="M178.431 89.7501C178.431 40.6344 138.615 0.818253 89.4989 0.818253C40.3832 0.818253 0.567093 40.6344 0.567093 89.7501C0.567093 138.866 40.3832 178.682 89.4989 178.682C138.615 178.682 178.431 138.866 178.431 89.7501Z" fill="#EAFFF6"/>
<path d="M165.238 89.7501C165.238 47.9208 131.328 14.0115 89.4989 14.0115C47.6696 14.0115 13.7603 47.9208 13.7603 89.7501C13.7603 131.579 47.6696 165.489 89.4989 165.489C131.328 165.489 165.238 131.579 165.238 89.7501Z" fill="#C1FFE5"/>
<path d="M132.01 89.7501C132.01 66.2717 112.977 47.2387 89.499 47.2387C66.0206 47.2387 46.9876 66.2717 46.9876 89.7501C46.9876 113.228 66.0206 132.261 89.499 132.261C112.977 132.261 132.01 113.228 132.01 89.7501Z" fill="white"/>
<path d="M89.4957 27.041C54.9435 27.041 26.7874 55.197 26.7874 89.7493C26.7874 124.302 54.9435 152.458 89.4957 152.458C124.048 152.458 152.204 124.302 152.204 89.7493C152.204 55.197 124.048 27.041 89.4957 27.041ZM119.47 75.3264L83.9147 110.882C83.0368 111.76 81.8453 112.262 80.5912 112.262C79.337 112.262 78.1455 111.76 77.2676 110.882L59.5212 93.1355C57.7026 91.317 57.7026 88.307 59.5212 86.4884C61.3397 84.6699 64.3497 84.6699 66.1682 86.4884L80.5912 100.911L112.823 68.6793C114.642 66.8607 117.652 66.8607 119.47 68.6793C121.289 70.4978 121.289 73.4451 119.47 75.3264Z" fill="#41D195"/>
</svg>
