<svg width="21" height="21" viewBox="0 0 21 21" fill="none" xmlns="http://www.w3.org/2000/svg">
<path d="M2.74312 10.1861C2.81005 10.2363 2.88621 10.2729 2.96726 10.2936C3.0483 10.3144 3.13265 10.319 3.21547 10.3072C3.29829 10.2953 3.37797 10.2673 3.44996 10.2247C3.52196 10.182 3.58485 10.1257 3.63504 10.0587C4.02077 9.54442 4.52095 9.12699 5.09596 8.83948C5.67098 8.55197 6.30503 8.40229 6.94791 8.40229C7.5908 8.40229 8.22485 8.55197 8.79986 8.83948C9.37488 9.12699 9.87505 9.54442 10.2608 10.0587C10.3623 10.1938 10.5133 10.283 10.6805 10.3067C10.8478 10.3305 11.0176 10.2868 11.1527 10.1853C11.2009 10.1495 11.2435 10.1069 11.2793 10.0587C11.6651 9.54442 12.1652 9.12699 12.7402 8.83948C13.3153 8.55197 13.9493 8.40229 14.5922 8.40229C15.2351 8.40229 15.8691 8.55197 16.4441 8.83948C17.0192 9.12699 17.5193 9.54442 17.9051 10.0587C18.0066 10.1939 18.1576 10.2832 18.3249 10.307C18.4923 10.3309 18.6622 10.2872 18.7974 10.1857C18.9326 10.0843 19.0219 9.93324 19.0457 9.76589C19.0695 9.59855 19.0259 9.4286 18.9244 9.29342C18.3605 8.53741 17.6085 7.94218 16.7432 7.56691C17.2176 7.1338 17.5499 6.56739 17.6966 5.94201C17.8434 5.31663 17.7976 4.6615 17.5653 4.06261C17.333 3.46372 16.9251 2.94904 16.3951 2.58612C15.8651 2.2232 15.2377 2.02899 14.5954 2.02899C13.953 2.02899 13.3257 2.2232 12.7957 2.58612C12.2657 2.94904 11.8577 3.46372 11.6255 4.06261C11.3932 4.6615 11.3474 5.31663 11.4941 5.94201C11.6409 6.56739 11.9732 7.1338 12.4476 7.56691C11.8228 7.83707 11.2552 8.22384 10.7752 8.7065C10.2952 8.22384 9.72766 7.83707 9.10287 7.56691C9.57725 7.1338 9.90961 6.56739 10.0563 5.94201C10.203 5.31663 10.1573 4.6615 9.92499 4.06261C9.69272 3.46372 9.28481 2.94904 8.7548 2.58612C8.22479 2.2232 7.59744 2.02899 6.95508 2.02899C6.31272 2.02899 5.68537 2.2232 5.15536 2.58612C4.62535 2.94904 4.21744 3.46372 3.98517 4.06261C3.7529 4.6615 3.70711 5.31663 3.85383 5.94201C4.00055 6.56739 4.33291 7.1338 4.80729 7.56691C3.93818 7.94096 3.18247 8.53657 2.6157 9.29422C2.5655 9.36115 2.52898 9.43731 2.50821 9.51836C2.48745 9.59941 2.48285 9.68375 2.49468 9.76657C2.50652 9.84939 2.53455 9.92908 2.57717 10.0011C2.6198 10.0731 2.67619 10.1359 2.74312 10.1861ZM14.593 3.30557C14.971 3.30557 15.3405 3.41767 15.6548 3.62768C15.9691 3.83769 16.2141 4.13619 16.3588 4.48543C16.5034 4.83467 16.5413 5.21896 16.4675 5.58971C16.3938 5.96046 16.2118 6.30102 15.9445 6.56831C15.6772 6.83561 15.3366 7.01764 14.9659 7.09139C14.5951 7.16514 14.2108 7.12729 13.8616 6.98263C13.5123 6.83797 13.2138 6.59299 13.0038 6.27869C12.7938 5.96438 12.6817 5.59486 12.6817 5.21684C12.6817 4.70994 12.8831 4.2238 13.2415 3.86537C13.6 3.50694 14.0861 3.30557 14.593 3.30557ZM6.94791 3.30557C7.32593 3.30557 7.69545 3.41767 8.00976 3.62768C8.32407 3.83769 8.56904 4.13619 8.7137 4.48543C8.85836 4.83467 8.89621 5.21896 8.82246 5.58971C8.74871 5.96046 8.56668 6.30102 8.29939 6.56831C8.03209 6.83561 7.69153 7.01764 7.32078 7.09139C6.95003 7.16514 6.56574 7.12729 6.2165 6.98263C5.86726 6.83797 5.56876 6.59299 5.35875 6.27869C5.14874 5.96438 5.03664 5.59486 5.03664 5.21684C5.03664 4.70994 5.23801 4.2238 5.59644 3.86537C5.95487 3.50694 6.44101 3.30557 6.94791 3.30557ZM16.7432 15.8491C17.2176 15.416 17.5499 14.8496 17.6966 14.2242C17.8434 13.5988 17.7976 12.9437 17.5653 12.3448C17.333 11.7459 16.9251 11.2312 16.3951 10.8683C15.8651 10.5054 15.2377 10.3112 14.5954 10.3112C13.953 10.3112 13.3257 10.5054 12.7957 10.8683C12.2657 11.2312 11.8577 11.7459 11.6255 12.3448C11.3932 12.9437 11.3474 13.5988 11.4941 14.2242C11.6409 14.8496 11.9732 15.416 12.4476 15.8491C11.8228 16.1192 11.2552 16.506 10.7752 16.9887C10.2952 16.506 9.72766 16.1192 9.10287 15.8491C9.57725 15.416 9.90961 14.8496 10.0563 14.2242C10.203 13.5988 10.1573 12.9437 9.92499 12.3448C9.69272 11.7459 9.28481 11.2312 8.7548 10.8683C8.22479 10.5054 7.59744 10.3112 6.95508 10.3112C6.31272 10.3112 5.68537 10.5054 5.15536 10.8683C4.62535 11.2312 4.21744 11.7459 3.98517 12.3448C3.7529 12.9437 3.70711 13.5988 3.85383 14.2242C4.00055 14.8496 4.33291 15.416 4.80729 15.8491C3.93818 16.2231 3.18247 16.8187 2.6157 17.5764C2.5655 17.6433 2.52898 17.7195 2.50821 17.8005C2.48745 17.8816 2.48285 17.9659 2.49468 18.0487C2.50652 18.1316 2.53455 18.2112 2.57717 18.2832C2.6198 18.3552 2.67619 18.4181 2.74312 18.4683C2.81005 18.5185 2.88621 18.555 2.96726 18.5758C3.0483 18.5966 3.13265 18.6012 3.21547 18.5893C3.29829 18.5775 3.37797 18.5495 3.44996 18.5068C3.52196 18.4642 3.58485 18.4078 3.63504 18.3409C4.02077 17.8266 4.52095 17.4092 5.09596 17.1217C5.67098 16.8341 6.30503 16.6845 6.94791 16.6845C7.5908 16.6845 8.22485 16.8341 8.79986 17.1217C9.37488 17.4092 9.87505 17.8266 10.2608 18.3409C10.3623 18.4759 10.5133 18.5652 10.6805 18.5889C10.8478 18.6126 11.0176 18.569 11.1527 18.4675C11.2009 18.4317 11.2435 18.3891 11.2793 18.3409C11.6651 17.8266 12.1652 17.4092 12.7402 17.1217C13.3153 16.8341 13.9493 16.6845 14.5922 16.6845C15.2351 16.6845 15.8691 16.8341 16.4441 17.1217C17.0192 17.4092 17.5193 17.8266 17.9051 18.3409C18.0066 18.4761 18.1576 18.5654 18.3249 18.5892C18.4923 18.613 18.6622 18.5694 18.7974 18.4679C18.9326 18.3664 19.0219 18.2154 19.0457 18.0481C19.0695 17.8807 19.0259 17.7108 18.9244 17.5756C18.3605 16.8196 17.6085 16.2243 16.7432 15.8491ZM6.94791 11.5877C7.32593 11.5877 7.69545 11.6998 8.00976 11.9099C8.32407 12.1199 8.56904 12.4184 8.7137 12.7676C8.85836 13.1168 8.89621 13.5011 8.82246 13.8719C8.74871 14.2426 8.56668 14.5832 8.29939 14.8505C8.03209 15.1178 7.69153 15.2998 7.32078 15.3736C6.95003 15.4473 6.56574 15.4095 6.2165 15.2648C5.86726 15.1201 5.56876 14.8752 5.35875 14.5609C5.14874 14.2466 5.03664 13.877 5.03664 13.499C5.03664 12.9921 5.23801 12.506 5.59644 12.1475C5.95487 11.7891 6.44101 11.5877 6.94791 11.5877ZM14.593 11.5877C14.971 11.5877 15.3405 11.6998 15.6548 11.9099C15.9691 12.1199 16.2141 12.4184 16.3588 12.7676C16.5034 13.1168 16.5413 13.5011 16.4675 13.8719C16.3938 14.2426 16.2118 14.5832 15.9445 14.8505C15.6772 15.1178 15.3366 15.2998 14.9659 15.3736C14.5951 15.4473 14.2108 15.4095 13.8616 15.2648C13.5123 15.1201 13.2138 14.8752 13.0038 14.5609C12.7938 14.2466 12.6817 13.877 12.6817 13.499C12.6817 12.9921 12.8831 12.506 13.2415 12.1475C13.6 11.7891 14.0861 11.5877 14.593 11.5877Z" fill="url(#paint0_radial_1812_45027)"/>
<defs>
<radialGradient id="paint0_radial_1812_45027" cx="0" cy="0" r="1" gradientUnits="userSpaceOnUse" gradientTransform="translate(1.38896 1.61107) rotate(57.0873) scale(20.2319 22.6779)">
<stop stop-color="#1944B7"/>
<stop offset="0.801454" stop-color="#0B1E51"/>
</radialGradient>
</defs>
</svg>
