<svg width="17" height="17" viewBox="0 0 17 17" fill="none" xmlns="http://www.w3.org/2000/svg">
<path d="M14.8871 0.306274H2.14527C1.80734 0.306274 1.48325 0.440518 1.24429 0.679473C1.00534 0.918428 0.871094 1.24252 0.871094 1.58045V6.04009C0.871094 10.2385 2.90341 12.7829 4.60842 14.1781C6.44484 15.6801 8.27169 16.1897 8.35133 16.2112C8.46083 16.241 8.5763 16.241 8.6858 16.2112C8.76544 16.1897 10.5899 15.6801 12.4287 14.1781C14.1289 12.7829 16.1613 10.2385 16.1613 6.04009V1.58045C16.1613 1.24252 16.027 0.918428 15.7881 0.679473C15.5491 0.440518 15.225 0.306274 14.8871 0.306274ZM14.8871 6.04009C14.8871 8.9922 13.7992 11.3885 11.6538 13.1612C10.7199 13.9302 9.6578 14.5287 8.51618 14.9291C7.38949 14.5357 6.34047 13.9478 5.41673 13.1922C3.24585 11.4163 2.14527 9.01052 2.14527 6.04009V1.58045H14.8871V6.04009ZM4.87998 8.4021C4.76044 8.28255 4.69328 8.12042 4.69328 7.95136C4.69328 7.7823 4.76044 7.62016 4.87998 7.50062C4.99953 7.38107 5.16166 7.31391 5.33073 7.31391C5.49979 7.31391 5.66192 7.38107 5.78147 7.50062L7.242 8.96194L11.2509 4.95225C11.3101 4.89306 11.3804 4.84611 11.4577 4.81407C11.535 4.78204 11.6179 4.76555 11.7016 4.76555C11.7853 4.76555 11.8682 4.78204 11.9456 4.81407C12.0229 4.84611 12.0932 4.89306 12.1524 4.95225C12.2116 5.01145 12.2585 5.08172 12.2905 5.15906C12.3226 5.23639 12.3391 5.31929 12.3391 5.403C12.3391 5.48671 12.3226 5.5696 12.2905 5.64694C12.2585 5.72427 12.2116 5.79455 12.1524 5.85374L7.69274 10.3134C7.63357 10.3726 7.56331 10.4196 7.48596 10.4517C7.40862 10.4837 7.32572 10.5002 7.242 10.5002C7.15827 10.5002 7.07537 10.4837 6.99803 10.4517C6.92069 10.4196 6.85042 10.3726 6.79125 10.3134L4.87998 8.4021Z" fill="url(#paint0_radial_1812_45015)"/>
<defs>
<radialGradient id="paint0_radial_1812_45015" cx="0" cy="0" r="1" gradientUnits="userSpaceOnUse" gradientTransform="translate(-0.143699 -0.0955135) rotate(58.1405) scale(19.2255 21.1797)">
<stop stop-color="#1944B7"/>
<stop offset="0.801454" stop-color="#0B1E51"/>
</radialGradient>
</defs>
</svg>
