<svg width="98" height="37" viewBox="0 0 98 37" fill="none" xmlns="http://www.w3.org/2000/svg">
<path d="M48.9824 14.2248V18.4707H49.1559V14.016C49.1038 14.103 49.0518 14.1204 48.9824 14.2248Z" fill="#A5A5A5"/>
<path d="M55.9754 5.59397L52.8696 7.36888C52.8696 7.43848 52.8696 7.50809 52.8696 7.56029L56.0622 5.75058L55.9754 5.59397Z" fill="#A5A5A5"/>
<path d="M45.1303 11.8064L41.3477 13.9641V5.55938L45.4426 7.92593C45.4946 7.89112 45.5293 7.83892 45.5814 7.80412L41.1742 5.26356V14.2599L45.1129 11.9978C45.1303 11.9282 45.1303 11.876 45.1303 11.8064Z" fill="#A5A5A5"/>
<path d="M48.9824 0.895545V5.21101C49.0344 5.21101 49.1038 5.21101 49.1559 5.22841V1.20876L56.5302 5.71564V13.4591L56.0096 13.8419L52.869 12.0148C52.869 12.0844 52.869 12.154 52.869 12.2236L56.027 14.0507L56.721 13.5635V5.62863L48.9824 0.895545Z" fill="#A5A5A5"/>
<path d="M49.537 9.28325C49.5196 9.33546 49.5023 9.42246 49.4676 9.50947L49.537 9.47467C49.537 9.40506 49.537 9.33546 49.537 9.28325Z" fill="#A5A5A5"/>
<path d="M49.5894 10.1183L49.2944 9.94433C49.277 9.99653 49.2423 10.0487 49.225 10.1009L49.6241 10.3271C49.6067 10.2575 49.5894 10.1879 49.5894 10.1183Z" fill="#A5A5A5"/>
<path d="M49 19.219L40.7928 14.4859V4.98496L49 0.23447L57.2072 4.98496V14.4859L49 19.219ZM41.9207 13.8247L49 17.9313L56.062 13.8247V5.6288L49 1.53955L41.9207 5.6288V13.8247Z" fill="url(#paint0_linear_6399_6092)"/>
<path d="M49.3296 9.99669C48.9131 10.5187 48.462 11.0408 48.1844 11.6672C48.167 11.7194 48.0456 12.1022 48.0456 12.1544C47.9762 12.7461 48.2364 13.2159 48.7743 13.4247C48.8264 13.4421 49.2949 13.4421 49.5378 13.2159C49.5725 13.1811 49.6072 13.1463 49.6592 13.1115C49.6592 13.1115 49.9369 12.8505 50.0236 12.1544C50.1104 11.4062 49.8327 10.7101 49.5378 10.0315C49.4857 9.90968 49.399 9.90968 49.3296 9.99669Z" fill="#49AA4C"/>
<path d="M44.2281 9.56176C44.471 9.33554 44.6966 9.10933 44.9568 8.90052C46.1194 7.92606 47.2993 6.9516 48.4618 5.95974C48.8088 5.66392 49.1732 5.66392 49.5202 5.95974C49.9193 6.29036 50.3184 6.63838 50.7175 6.969C50.7522 7.0038 50.8042 7.0386 50.8736 7.09081C50.8736 6.72538 50.8736 6.39476 50.8736 6.06414C50.8736 5.82053 50.9083 5.76833 51.1686 5.76833C51.4809 5.76833 51.7932 5.76833 52.1229 5.76833C52.3311 5.76833 52.3832 5.82053 52.3832 6.02934C52.3832 6.76019 52.3832 7.49103 52.3832 8.20447C52.3832 8.29148 52.4352 8.39589 52.5046 8.44809C52.869 8.76131 53.2334 9.05713 53.5978 9.37034C53.6498 9.42255 53.7019 9.49215 53.7539 9.54436C53.7539 9.56176 53.7539 9.59656 53.7539 9.61396C53.6325 9.77057 53.511 9.90978 53.3896 10.049C53.2508 10.2056 53.164 10.223 53.0078 10.0838C52.2444 9.43995 51.4809 8.81351 50.7175 8.16967C50.1796 7.73465 49.659 7.28222 49.1211 6.82979C49.0344 6.76019 48.9823 6.76019 48.8956 6.82979C47.6116 7.90866 46.3276 8.97012 45.0436 10.049C44.8354 10.223 44.7486 10.223 44.5751 10.0142C44.4537 9.87498 44.3495 9.71837 44.2454 9.57916C44.2281 9.59656 44.2281 9.57916 44.2281 9.56176Z" fill="url(#paint1_linear_6399_6092)"/>
<path d="M48.9999 7.28172C49.798 7.94296 50.5788 8.5868 51.377 9.24804C51.672 9.49166 51.9843 9.73527 52.2793 9.99629C52.3313 10.0485 52.3834 10.1355 52.3834 10.2051C52.3834 11.11 52.3834 12.0148 52.3834 12.9197C52.3834 13.1459 52.2446 13.3025 52.0363 13.3025C51.3076 13.3025 50.5788 13.3025 49.8501 13.3025C49.8154 13.3025 49.4336 13.2851 49.3816 13.2851C50.1451 12.6238 50.1103 11.8234 49.7286 11.0578C49.4857 10.1877 49.6939 9.45685 48.514 11.0578C47.9067 11.7364 47.9241 12.9371 48.6181 13.2851C48.5487 13.2851 48.0976 13.3025 48.0455 13.3025C47.3688 13.3025 46.6748 13.3025 45.9981 13.3025C45.7205 13.3025 45.599 13.1807 45.5817 12.8849C45.5817 11.9974 45.5817 11.11 45.5817 10.2225C45.5817 10.1529 45.6337 10.0485 45.6858 9.99629C46.7963 9.10883 47.8894 8.20398 48.9999 7.28172Z" fill="url(#paint2_linear_6399_6092)"/>
<path d="M49.3296 9.99669C48.9131 10.5187 48.462 11.0408 48.1844 11.6672C48.167 11.7194 48.0456 12.1022 48.0456 12.1544C47.9762 12.7461 48.2364 13.2159 48.7743 13.4247C48.7917 13.4247 48.809 13.2855 48.757 13.2507C48.2885 12.9897 48.0976 12.6068 48.2191 12.0674C48.3405 11.5628 48.6355 11.1452 48.9305 10.7275C49.0693 10.5361 49.2255 10.3447 49.399 10.1359C49.6939 10.8667 49.9369 11.5802 49.8327 12.3458C49.7807 12.6764 49.6592 12.9549 49.3816 13.1463C49.3469 13.1637 49.3816 13.3551 49.5378 13.2159C49.5725 13.1811 49.6072 13.1463 49.6592 13.1115C49.6592 13.1115 49.9369 12.8505 50.0236 12.1544C50.1104 11.4062 49.8327 10.7101 49.5378 10.0315C49.4857 9.90968 49.399 9.90968 49.3296 9.99669Z" fill="url(#paint3_linear_6399_6092)"/>
<path d="M49.2422 10.797C49.1208 11.754 49.1208 12.7111 49.2075 13.6507C49.2075 13.7029 49.0687 13.7203 49.0687 13.6681C48.9646 12.8329 48.9646 12.015 49.1381 11.1972C49.1381 11.0754 49.1902 10.9362 49.2422 10.797Z" fill="url(#paint4_linear_6399_6092)"/>
<path d="M1.99234 28.4225C1.99234 27.5626 2.1902 26.802 2.58591 26.1406C2.98163 25.4791 3.50925 24.95 4.20175 24.5532C4.89425 24.1563 5.61973 23.991 6.44414 23.991C7.36747 23.991 8.19188 24.2225 8.91736 24.6854C9.64283 25.1484 10.1705 25.7768 10.5002 26.6036H8.78545C8.55462 26.1406 8.25783 25.8099 7.86212 25.5784C7.4664 25.3469 7.00473 25.2477 6.47711 25.2477C5.91652 25.2477 5.3889 25.3799 4.92723 25.6445C4.46556 25.9091 4.1358 26.2728 3.87199 26.7689C3.60818 27.265 3.50925 27.8272 3.50925 28.4555C3.50925 29.0839 3.64115 29.6461 3.87199 30.1421C4.1358 30.6382 4.49854 31.002 4.92723 31.2665C5.3889 31.5311 5.88354 31.6634 6.47711 31.6634C7.00473 31.6634 7.4664 31.5642 7.86212 31.3327C8.25783 31.1012 8.58759 30.7705 8.78545 30.3075H10.5002C10.1705 31.1343 9.64283 31.7957 8.91736 32.2256C8.19188 32.6886 7.36747 32.887 6.44414 32.887C5.61973 32.887 4.89425 32.6886 4.20175 32.3248C3.54222 31.928 2.98163 31.3988 2.58591 30.7374C2.1902 30.0429 1.99234 29.2823 1.99234 28.4225ZM11.6874 29.3154C11.6874 28.6209 11.8193 28.0256 12.1161 27.4634C12.4128 26.9343 12.8086 26.5043 13.3032 26.2398C13.7978 25.9421 14.3584 25.7768 14.952 25.7768C15.4796 25.7768 15.9743 25.876 16.37 26.1075C16.7657 26.3059 17.0955 26.5705 17.3593 26.9012V25.9091H18.8102V32.7878H17.3593V31.7626C17.1284 32.0933 16.7987 32.3579 16.37 32.5894C15.9413 32.8209 15.4796 32.9201 14.952 32.9201C14.3584 32.9201 13.8308 32.7547 13.3362 32.4571C12.8415 32.1595 12.4458 31.7295 12.149 31.1673C11.8193 30.6382 11.6874 30.0099 11.6874 29.3154ZM17.3263 29.3484C17.3263 28.8854 17.2274 28.4555 17.0295 28.1248C16.8317 27.761 16.5678 27.4965 16.2711 27.3311C15.9413 27.1327 15.6115 27.0665 15.2488 27.0665C14.8861 27.0665 14.5563 27.1658 14.2265 27.3311C13.8968 27.4965 13.6659 27.761 13.4351 28.1248C13.2372 28.4555 13.1383 28.8854 13.1383 29.3484C13.1383 29.8114 13.2372 30.2414 13.4351 30.6051C13.633 30.9689 13.8968 31.2335 14.2265 31.4319C14.5563 31.6303 14.8861 31.6965 15.2488 31.6965C15.6115 31.6965 15.9743 31.5973 16.2711 31.4319C16.6008 31.2335 16.8317 30.9689 17.0295 30.6382C17.2274 30.2414 17.3263 29.8114 17.3263 29.3484ZM22.0749 26.9012C22.2727 26.5374 22.5695 26.2728 22.8993 26.0744C23.262 25.876 23.6577 25.7768 24.1524 25.7768V27.265H23.7897C23.2291 27.265 22.8004 27.3973 22.5036 27.6949C22.2068 27.9925 22.0749 28.4555 22.0749 29.1831V32.8209H20.6569V25.9091H22.0749V26.9012ZM26.8564 26.9343C27.0873 26.6036 27.417 26.339 27.8457 26.1075C28.2744 25.876 28.7361 25.7768 29.2637 25.7768C29.8573 25.7768 30.4179 25.9091 30.9125 26.2067C31.4072 26.5043 31.8029 26.9012 32.0667 27.4634C32.3635 27.9925 32.4954 28.6209 32.4954 29.3154C32.4954 30.0099 32.3635 30.6382 32.0667 31.1673C31.7699 31.6965 31.4072 32.1264 30.8795 32.4571C30.3849 32.7547 29.8573 32.9201 29.2307 32.9201C28.7031 32.9201 28.2085 32.8209 27.8128 32.6225C27.417 32.424 27.0873 32.1595 26.8235 31.8288V32.8209H25.4055V23.561H26.8235V26.9343H26.8564ZM31.0444 29.3154C31.0444 28.8524 30.9455 28.4225 30.7476 28.0917C30.5498 27.728 30.286 27.4634 29.9562 27.298C29.6265 27.0996 29.2967 27.0335 28.9339 27.0335C28.5712 27.0335 28.2414 27.1327 27.9117 27.298C27.5819 27.4965 27.3511 27.761 27.1203 28.0917C26.9224 28.4555 26.8235 28.8524 26.8235 29.3154C26.8235 29.7784 26.9224 30.2083 27.1203 30.5721C27.3181 30.9358 27.5819 31.2004 27.9117 31.3658C28.2414 31.5642 28.5712 31.6303 28.9339 31.6303C29.2967 31.6303 29.6594 31.5311 29.9562 31.3658C30.286 31.1673 30.5498 30.9028 30.7476 30.539C30.9455 30.2083 31.0444 29.8114 31.0444 29.3154ZM36.9142 32.9201C36.2547 32.9201 35.6611 32.7878 35.1335 32.4902C34.6059 32.1925 34.2101 31.7626 33.8804 31.2335C33.5836 30.7043 33.4187 30.076 33.4187 29.3484C33.4187 28.6539 33.5836 28.0256 33.8804 27.4965C34.1772 26.9673 34.6059 26.5374 35.1335 26.2398C35.6611 25.9421 36.2547 25.8099 36.9142 25.8099C37.5737 25.8099 38.1673 25.9421 38.6949 26.2398C39.2225 26.5374 39.6512 26.9343 39.948 27.4965C40.2448 28.0256 40.4097 28.6539 40.4097 29.3484C40.4097 30.0429 40.2448 30.6713 39.948 31.2004C39.6183 31.7295 39.1896 32.1595 38.6619 32.4571C38.1673 32.7547 37.5737 32.9201 36.9142 32.9201ZM36.9142 31.6634C37.2769 31.6634 37.6067 31.5642 37.9365 31.3988C38.2662 31.2335 38.53 30.9689 38.7279 30.6051C38.9258 30.2414 39.0247 29.8445 39.0247 29.3154C39.0247 28.8193 38.9258 28.3894 38.7279 28.0587C38.53 27.6949 38.2662 27.4303 37.9694 27.265C37.6397 27.0996 37.3099 27.0004 36.9472 27.0004C36.5844 27.0004 36.2547 27.0996 35.9249 27.265C35.6281 27.4303 35.3643 27.6949 35.1994 28.0587C35.0016 28.3894 34.9356 28.8193 34.9356 29.3154C34.9356 30.0429 35.1335 30.6382 35.4962 31.0351C35.859 31.465 36.3206 31.6634 36.9142 31.6634ZM45.3561 25.8099C45.8837 25.8099 46.3784 25.9091 46.8071 26.1406C47.2358 26.3721 47.5655 26.7028 47.8293 27.1327C48.0602 27.5626 48.1921 28.0917 48.1921 28.7201V32.7878H46.7741V28.9516C46.7741 28.3232 46.6092 27.8602 46.3124 27.5295C46.0157 27.1988 45.587 27.0335 45.0593 27.0335C44.5317 27.0335 44.103 27.1988 43.7733 27.5295C43.4765 27.8602 43.3116 28.3232 43.3116 28.9516V32.7878H41.8936V25.9091H43.3116V26.7028C43.5424 26.4051 43.8392 26.2067 44.202 26.0413C44.5647 25.876 44.9604 25.8099 45.3561 25.8099ZM55.315 27.6618V28.8854H50.1707V27.6949H55.315V27.6618ZM62.5697 31.0351H58.9423L58.3158 32.8209H56.8319L59.9316 24.1232H61.5804L64.6802 32.8209H63.1633L62.5697 31.0351ZM62.174 29.8776L60.756 25.8429L59.3381 29.8776H62.174ZM65.5706 29.3154C65.5706 28.6209 65.7025 28.0256 65.9993 27.4634C66.2961 26.9343 66.6918 26.5043 67.1864 26.2398C67.6811 25.9421 68.2417 25.7768 68.8352 25.7768C69.2969 25.7768 69.7256 25.876 70.1543 26.0744C70.583 26.2728 70.9457 26.5374 71.2095 26.8351V23.561H72.6605V32.8209H71.2095V31.7957C70.9787 32.1264 70.6489 32.391 70.2202 32.6225C69.8245 32.854 69.3299 32.9532 68.8023 32.9532C68.2087 32.9532 67.6481 32.7878 67.1534 32.4902C66.6588 32.1925 66.2631 31.7626 65.9663 31.2004C65.7355 30.6382 65.5706 30.0099 65.5706 29.3154ZM71.2425 29.3484C71.2425 28.8854 71.1436 28.4555 70.9457 28.1248C70.7478 27.761 70.484 27.4965 70.1873 27.3311C69.8575 27.1327 69.5277 27.0665 69.165 27.0665C68.8023 27.0665 68.4725 27.1658 68.1427 27.3311C67.813 27.4965 67.5821 27.761 67.3513 28.1248C67.1534 28.4555 67.0545 28.8854 67.0545 29.3484C67.0545 29.8114 67.1534 30.2414 67.3513 30.6051C67.5492 30.9689 67.813 31.2335 68.1427 31.4319C68.4725 31.6303 68.8023 31.6965 69.165 31.6965C69.5277 31.6965 69.8575 31.5973 70.1873 31.4319C70.517 31.2335 70.7478 30.9689 70.9457 30.6382C71.1436 30.2414 71.2425 29.8114 71.2425 29.3484ZM75.2656 25.0162C75.0018 25.0162 74.8039 24.9169 74.6061 24.7516C74.4412 24.5862 74.3423 24.3547 74.3423 24.0902C74.3423 23.8256 74.4412 23.6272 74.6061 23.4288C74.771 23.2634 75.0018 23.1642 75.2656 23.1642C75.5294 23.1642 75.7273 23.2634 75.8922 23.4288C76.057 23.5941 76.156 23.8256 76.156 24.0902C76.156 24.3547 76.057 24.5532 75.8922 24.7516C75.7273 24.9169 75.5294 25.0162 75.2656 25.0162ZM75.9581 34.1437C75.9581 34.8051 75.7932 35.3012 75.4305 35.5988C75.1007 35.8965 74.6061 36.0618 73.9795 36.0618H73.2541V34.8713H73.7487C74.0455 34.8713 74.2433 34.8051 74.3752 34.7059C74.5071 34.6067 74.5731 34.4083 74.5731 34.1437V25.9091H75.9911V34.1437H75.9581ZM84.0703 25.9091V32.7878H82.6523V31.961C82.4214 32.2587 82.1247 32.4571 81.7619 32.6225C81.3992 32.7878 81.0035 32.854 80.6077 32.854C80.0801 32.854 79.5855 32.7547 79.1568 32.5232C78.7281 32.2917 78.3983 31.961 78.1345 31.5311C77.9037 31.1012 77.7718 30.5721 77.7718 29.9437V25.9091H79.1898V29.7453C79.1898 30.3736 79.3547 30.8366 79.6514 31.1673C79.9482 31.498 80.3769 31.6634 80.9045 31.6634C81.4322 31.6634 81.8609 31.498 82.1576 31.1673C82.4874 30.8366 82.6193 30.3736 82.6193 29.7453V25.9091H84.0703ZM88.4561 32.9201C87.9285 32.9201 87.4338 32.8209 87.0051 32.6225C86.5765 32.424 86.2467 32.1595 85.9829 31.8288C85.7191 31.498 85.5872 31.1012 85.5872 30.7043H87.0711C87.1041 31.002 87.236 31.2335 87.4998 31.4319C87.7636 31.6303 88.0934 31.7295 88.4561 31.7295C88.8518 31.7295 89.1486 31.6634 89.3794 31.498C89.6103 31.3327 89.7092 31.1343 89.7092 30.9028C89.7092 30.6382 89.5773 30.4398 89.3465 30.3406C89.1156 30.2083 88.7199 30.076 88.1923 29.9437C87.6647 29.8114 87.269 29.6791 86.9392 29.5469C86.6094 29.4146 86.3456 29.2162 86.0818 28.9185C85.851 28.6539 85.7191 28.2902 85.7191 27.8272C85.7191 27.4634 85.818 27.1327 86.0488 26.8351C86.2797 26.5374 86.5765 26.2728 86.9722 26.1075C87.3679 25.9421 87.8625 25.8429 88.3572 25.8429C89.1486 25.8429 89.7752 26.0413 90.2368 26.4382C90.7315 26.835 90.9953 27.3642 91.0283 28.0587H89.6103C89.5773 27.761 89.4454 27.4965 89.2475 27.3311C89.0167 27.1327 88.7199 27.0665 88.3242 27.0665C87.9615 27.0665 87.6647 27.1327 87.4668 27.265C87.269 27.3973 87.17 27.5957 87.17 27.8272C87.17 28.0256 87.236 28.1579 87.3679 28.2902C87.4998 28.4225 87.6647 28.5217 87.8625 28.5878C88.0604 28.6539 88.3242 28.7532 88.7199 28.8524C89.2146 28.9847 89.6433 29.1169 89.94 29.2492C90.2698 29.3815 90.5336 29.5799 90.7645 29.8445C90.9953 30.1091 91.1272 30.4728 91.1272 30.9028C91.1272 31.2996 91.0283 31.6303 90.7974 31.961C90.5666 32.2587 90.2698 32.5232 89.8741 32.6886C89.4784 32.8209 88.9837 32.9201 88.4561 32.9201ZM94.3259 27.0665V30.8697C94.3259 31.1343 94.3918 31.2996 94.4908 31.4319C94.6227 31.5311 94.8205 31.5973 95.1173 31.5973H96.0077V32.7878H94.8865C94.2599 32.7878 93.7653 32.6225 93.4026 32.3248C93.0728 32.0272 92.8749 31.5311 92.8749 30.8697V27.0665H92.0505V25.9091H92.8749V24.1894H94.3259V25.9091H96.0077V27.0665H94.3259Z" fill="#212529"/>
<defs>
<linearGradient id="paint0_linear_6399_6092" x1="41.1893" y1="1.33427" x2="56.6793" y2="17.908" gradientUnits="userSpaceOnUse">
<stop stop-color="#2E599A"/>
<stop offset="1" stop-color="#4D94FE"/>
</linearGradient>
<linearGradient id="paint1_linear_6399_6092" x1="48.1111" y1="5.37616" x2="49.1447" y2="10.2978" gradientUnits="userSpaceOnUse">
<stop offset="0.0111982" stop-color="#19A9DF"/>
<stop offset="1" stop-color="#0B8DFF"/>
</linearGradient>
<linearGradient id="paint2_linear_6399_6092" x1="47.2535" y1="7.21567" x2="49.6479" y2="13.2131" gradientUnits="userSpaceOnUse">
<stop offset="0.0111982" stop-color="#19A9DF"/>
<stop offset="1" stop-color="#0B8DFF"/>
</linearGradient>
<linearGradient id="paint3_linear_6399_6092" x1="49.0335" y1="9.93307" x2="49.0335" y2="13.4164" gradientUnits="userSpaceOnUse">
<stop stop-color="#025227"/>
<stop offset="1" stop-color="#095B2E"/>
</linearGradient>
<linearGradient id="paint4_linear_6399_6092" x1="49.1123" y1="10.7963" x2="49.1123" y2="13.7047" gradientUnits="userSpaceOnUse">
<stop stop-color="#025227"/>
<stop offset="1" stop-color="#00652E"/>
</linearGradient>
</defs>
</svg>
