<svg width="152" height="152" viewBox="0 0 152 152" fill="none" xmlns="http://www.w3.org/2000/svg">
<path d="M76.7641 4.55922C74.7809 4.79672 12.9716 46.2405 12.6153 47.4992C12.2591 48.7698 12.1166 61.9748 12.1166 61.9748L20.0847 64.5042L20.1203 75.0017L24.3834 83.7299V120.625L21.2009 127.572L12.4728 130.149V136.395L5.63281 138.474C5.63281 138.474 5.72781 143.829 5.72781 144.72C5.72781 145.61 6.02469 147.499 9.59906 147.499C13.1734 147.499 143.632 146.893 144.95 146.893C146.268 146.893 147.634 146.632 147.705 144.269C147.777 141.905 147.634 138.569 147.634 138.569L141.008 135.291L140.984 130.054L130.202 126.729L127.601 119.367L127.637 84.6798L131.769 75.9636L133.016 73.6005V64.2192L139.963 61.5948C139.963 61.5948 140.093 48.0217 139.892 47.6298C139.713 47.2498 78.4028 4.36922 76.7641 4.55922Z" fill="#CDDFEE"/>
<path d="M18.2013 50.2534C17.8331 51.1678 17.7381 57.9128 18.0706 58.2453C18.4031 58.5778 133.187 58.3997 133.579 58.0791C133.971 57.7584 134.03 50.4316 133.84 49.9803C133.65 49.5291 101.291 27.4297 101.291 27.4297L51.2612 27.6791C51.2494 27.6791 18.415 49.7072 18.2013 50.2534ZM5.62563 138.497C5.51875 138.235 5.62563 137 5.62563 136.502C5.62563 136.003 6.10063 135.433 7.16938 135.433C8.23813 135.433 143.898 135.243 144.563 135.267C146.238 135.326 147.366 135.682 147.532 136.751C147.698 137.82 147.639 138.592 147.639 138.592L5.62563 138.497ZM140.989 130.065L12.4775 130.16C12.4775 130.16 12.525 128.842 12.525 128.391C12.525 127.94 12.7625 127.203 14.2944 127.203C15.8263 127.203 137.699 126.74 138.744 126.74C139.789 126.74 140.929 127.227 141.072 127.952C141.214 128.676 140.989 130.065 140.989 130.065ZM128.556 122.109L127.606 119.33L24.3525 119.307L23.5806 122.406L128.556 122.109ZM23.165 81.1997L129.161 81.5678L127.641 84.6791L24.3881 85.0709L23.165 81.1997ZM20.8494 76.8297C20.8494 76.8297 19.9112 76.1528 19.7569 75.2622C19.6025 74.3716 20.0181 73.8491 20.0181 73.8491L133.021 73.5997C133.021 73.5997 133.448 74.4784 133.08 75.0959C132.712 75.7253 131.667 76.2953 131.667 76.2953L20.8494 76.8297ZM12.1094 61.9741L139.968 61.5941C139.968 61.5941 140.051 62.8172 139.968 63.3278C139.896 63.8384 139.231 64.2897 137.533 64.2897H135.835C135.835 64.2897 16.1469 64.8834 14.8169 64.8834C13.4869 64.8834 12.5369 64.1472 12.3113 63.5534C12.1806 63.1616 12.1094 61.9741 12.1094 61.9741Z" fill="#94ADBC"/>
<path d="M21.3828 53.4734L48.2797 35.3166L50.0847 53.8297L21.3828 53.4734ZM103.962 34.7109L130.894 53.7109H103.237L103.962 34.7109Z" fill="#657582"/>
<path d="M39.6741 76.7469L44.1034 76.735L47.5709 85.0594L47.2503 119.331L44.3647 127.097L39.2109 127.109L36.3728 119.378L36.2422 84.9881L39.6741 76.7469ZM63.2578 76.6281L58.8522 84.8694L59.1847 119.331L61.7972 127.038L90.5703 126.919L93.1591 119.331L93.2303 84.7981L89.8697 76.4975L63.2578 76.6281ZM108.502 76.4144L112.408 76.3906L115.864 84.715L115.852 119.342L113.845 126.847L107.326 126.859L105.331 119.342L105.177 84.7506L108.502 76.4144Z" fill="#54636E"/>
<path d="M64.8594 127.027V100.605L88.0394 100.831L88.0869 126.956L64.8594 127.027Z" fill="#6BA4AE"/>
<path d="M75.1212 99.4062L75.1094 126.992L77.5081 126.98V99.81L75.1212 99.4062Z" fill="#A5D0D7"/>
<path d="M64.8594 101.865V95.2383H88.0394V101.865C88.0394 101.865 65.0613 101.663 64.8594 101.865Z" fill="#95ACBC"/>
<path d="M64.8611 95.2374H88.0411C88.0411 95.2374 88.1362 93.1711 85.9868 92.9693C83.8374 92.7674 68.0436 92.9336 66.7136 92.9693C64.7305 93.0286 64.8611 95.2374 64.8611 95.2374Z" fill="#CCDEED"/>
<path d="M76.4589 13.1921C59.252 13.299 45.6314 26.9077 46.2133 44.1146C46.7952 61.3215 62.577 73.4221 76.4589 73.3152C91.0295 73.2084 106.372 62.7821 107.061 44.0196C107.761 25.269 91.9677 13.0852 76.4589 13.1921Z" fill="#CDDFEE"/>
<path d="M76.5724 17.313C62.168 17.408 50.6374 29.2236 51.1242 44.2099C51.5992 59.1961 64.2817 68.6961 75.9074 68.803C89.3142 68.9217 101.652 60.158 102.222 43.8299C102.792 27.5018 89.5518 17.2299 76.5724 17.313Z" fill="#94ADBC"/>
<path d="M72.4171 25.6839C72.4171 25.6839 72.1558 21.1002 72.4764 20.7083C72.7971 20.3164 74.1033 20.3164 76.6327 20.3164C79.1739 20.3164 80.2071 20.3164 80.5989 20.637C80.9908 20.9577 80.7889 25.9689 80.7889 25.9689C80.7889 25.9689 84.2327 27.2633 86.3821 28.9258C88.6621 30.6833 90.2889 33.0227 90.1583 33.4145C90.0277 33.8064 85.4796 37.7727 84.8264 37.642C84.1733 37.5114 80.4683 33.177 76.0508 32.892C69.0327 32.4408 69.0921 37.9033 73.4502 39.3995C77.8083 40.8958 91.5477 42.0833 91.0133 53.0202C90.5621 62.2233 81.2639 62.8764 81.2639 62.8764C81.2639 62.8764 81.5252 66.3202 81.2639 66.522C81.0027 66.7239 72.8089 66.8427 72.5477 66.4627C72.2864 66.0827 72.4883 62.5558 72.4883 62.5558C72.4883 62.5558 68.8427 61.8433 65.8502 59.8245C62.8577 57.8058 60.7083 55.1458 60.6489 54.8133C60.5896 54.4927 65.9214 50.0039 66.3014 49.8733C66.6814 49.7427 72.1083 55.0864 77.2264 55.5258C82.4277 55.977 84.6364 50.847 77.4164 48.6383C70.1964 46.4295 61.6821 44.5414 62.0739 35.5045C62.4658 26.3252 72.4171 25.6839 72.4171 25.6839Z" fill="#024FAC"/>
</svg>
