<svg width="566" height="424" viewBox="0 0 566 424" fill="none" xmlns="http://www.w3.org/2000/svg">
<path d="M125.241 113.756C160.297 48.9796 228.854 4.84141 307.554 4.84141C363.672 4.84141 414.63 27.3169 451.983 63.6805L457.956 62.7617C419.542 24.0304 366.287 0 307.554 0C225.744 0 154.607 46.6119 119.269 114.674L125.241 113.756Z" fill="#139EEC"/>
<path d="M489.477 320.848L483.187 321.802C477.215 331.343 470.465 340.461 462.938 348.977L462.16 349.896L472.055 401.915L421.097 385.306L420.143 385.906C386.606 407.675 347.698 419.16 307.553 419.16C255.57 419.16 208.039 399.865 171.605 368.131L165.314 369.05C202.95 403.187 252.849 424.002 307.553 424.002C348.228 424.002 387.702 412.446 421.803 390.606L478.346 409.018L467.355 351.31C475.66 341.768 483.046 331.555 489.477 320.848Z" fill="#139EEC"/>
<path d="M146.126 211.158C142.31 206.752 140.401 199.826 140.401 190.379V158.998C140.401 149.315 142.298 141.706 146.091 136.169C149.86 130.609 156.339 127.099 165.527 125.638C174.268 124.225 180.464 125.414 184.115 129.207C187.744 132.977 189.558 138.937 189.558 147.089V154.439L172.63 157.16V149.068C172.63 146.453 172.501 144.38 172.242 142.848C171.982 141.293 171.346 140.08 170.333 139.208C169.32 138.313 167.754 138.042 165.633 138.395C162.453 138.89 160.403 140.257 159.484 142.495C158.566 144.733 158.106 147.878 158.106 151.93V191.757C158.106 195.88 158.636 198.86 159.696 200.698C160.757 202.559 162.735 203.254 165.633 202.783C168.602 202.312 170.51 200.98 171.358 198.789C172.206 196.598 172.63 193.477 172.63 189.425V180.873L189.558 178.152V185.396C189.558 193.783 187.755 200.556 184.151 205.716C180.546 210.875 174.338 214.162 165.527 215.575C156.41 217.036 149.943 215.564 146.126 211.158Z" fill="#139EEC"/>
<path fill-rule="evenodd" clip-rule="evenodd" d="M204.823 201.976C200.936 197.712 198.992 190.856 198.992 181.409V148.721C198.992 139.273 200.936 131.852 204.823 126.457C208.687 121.086 215.177 117.67 224.295 116.209C233.341 114.748 239.82 116.103 243.731 120.273C247.642 124.443 249.597 131.216 249.597 140.593V173.387C249.597 182.787 247.642 190.232 243.731 195.721C239.82 201.211 233.341 204.686 224.295 206.146C215.177 207.607 208.687 206.217 204.823 201.976ZM230.267 189.325C231.304 187.11 231.822 184.201 231.822 180.596V139.144C231.822 135.539 231.304 132.818 230.267 130.981C229.254 129.167 227.263 128.495 224.295 128.966C221.326 129.437 219.336 130.757 218.323 132.924C217.286 135.068 216.768 137.942 216.768 141.547V182.999C216.768 186.675 217.262 189.443 218.252 191.304C219.241 193.165 221.256 193.848 224.295 193.354C227.263 192.882 229.254 191.54 230.267 189.325Z" fill="#139EEC"/>
<path d="M262.425 111.15L280.978 108.181L291.544 161.79L302.782 104.683L320.698 101.82L322.289 189.213L309.567 191.263L308.188 131.964L297.163 193.242L286.349 194.973L275.041 136.947L273.768 197.023L260.94 199.073L262.425 111.15Z" fill="#139EEC"/>
<path d="M335.083 99.5379L352.47 96.7461V184.386L335.083 187.178V99.5379Z" fill="#139EEC"/>
<path d="M365.475 94.6474L377.666 92.6684L396.749 135.181V89.6292L411.238 87.2969V174.972L399.471 176.845L380.423 131.4V179.885L365.475 182.288V94.6474Z" fill="#139EEC"/>
<path d="M428.237 165.682C424.679 161.017 422.9 153.82 422.9 144.09V114.759C422.9 104.793 424.785 96.9363 428.555 91.1879C432.324 85.4159 438.803 81.7878 447.991 80.3035C456.826 78.89 463.116 80.0915 466.862 83.9081C470.584 87.7011 472.445 93.7441 472.445 102.037V107.126L455.518 109.847V103.662C455.518 99.6339 455.07 96.7361 454.175 94.9691C453.304 93.2022 451.313 92.5661 448.203 93.0609C445.022 93.5556 442.973 94.9691 442.054 97.3015C441.135 99.6103 440.676 102.814 440.676 106.914V145.892C440.676 149.992 441.241 153.054 442.372 155.08C443.503 157.107 445.623 157.872 448.733 157.377C451.772 156.883 453.904 155.363 455.129 152.819C456.378 150.274 457.002 146.905 457.002 142.712V133.418L448.627 134.761V123.947L472.763 120.06V165.081L461.349 166.919L460.183 159.321C457.568 165.8 452.868 169.581 446.083 170.665C437.743 172.008 431.794 170.347 428.237 165.682Z" fill="#139EEC"/>
<path d="M154.078 348.818C148.235 343.211 145.054 333.587 144.536 319.946L166.729 312.561C166.917 320.712 168.036 326.567 170.086 330.124C172.112 333.681 175.151 335.142 179.203 334.506C182.219 334.011 184.41 332.668 185.777 330.477C187.119 328.31 187.791 325.683 187.791 322.597C187.791 317.484 186.672 313.326 184.434 310.122C182.196 306.918 178.685 303.573 173.903 300.086L160.792 290.545C155.585 286.916 151.604 282.77 148.847 278.105C146.067 273.441 144.689 267.539 144.713 260.401C144.713 249.87 147.752 241.27 153.83 234.603C159.932 227.936 168.343 223.742 179.062 222.023C190.512 220.185 198.475 222.282 202.951 228.313C207.427 234.368 209.972 242.554 210.584 252.873L188.25 259.8C188.062 253.015 187.308 248.114 185.989 245.099C184.693 242.06 182.125 240.846 178.285 241.459C175.458 241.907 173.267 243.344 171.712 245.77C170.157 248.22 169.379 250.93 169.379 253.898C169.379 258.162 170.286 261.602 172.1 264.217C173.914 266.856 176.8 269.612 180.758 272.486L193.586 281.922C199.618 286.375 204.353 291.334 207.793 296.8C211.232 302.265 212.952 309.039 212.952 317.119C212.952 323.292 211.597 329.017 208.888 334.294C206.179 339.571 202.35 343.989 197.403 347.546C192.456 351.103 186.754 353.4 180.299 354.437C168.637 356.298 159.897 354.425 154.078 348.818Z" fill="url(#paint0_linear_943_42725)"/>
<path fill-rule="evenodd" clip-rule="evenodd" d="M233.236 335.184C227.511 328.917 224.648 318.81 224.648 304.863V256.696C224.648 242.749 227.511 231.806 233.236 223.866C238.961 215.927 248.537 210.874 261.966 208.706C275.301 206.586 284.854 208.6 290.626 214.749C296.422 220.898 299.319 230.887 299.319 244.716V293.06C299.319 306.889 296.422 317.856 290.626 325.96C284.854 334.065 275.301 339.189 261.966 341.333C248.537 343.477 238.961 341.427 233.236 335.184ZM270.801 316.525C272.309 313.25 273.063 308.962 273.063 303.662V242.525C273.063 237.201 272.309 233.196 270.801 230.51C269.293 227.848 266.348 226.859 261.966 227.542C257.608 228.249 254.675 230.192 253.167 233.373C251.659 236.53 250.905 240.77 250.905 246.095V307.195C250.905 312.638 251.624 316.725 253.061 319.458C254.522 322.214 257.49 323.227 261.966 322.497C266.348 321.79 269.293 319.8 270.801 316.525Z" fill="url(#paint1_linear_943_42725)"/>
<path fill-rule="evenodd" clip-rule="evenodd" d="M323.209 320.723C317.485 314.456 314.622 304.361 314.622 290.437V242.235C314.622 228.312 317.485 217.38 323.209 209.441C328.934 201.501 338.511 196.448 351.94 194.281C365.251 192.137 374.804 194.139 380.6 200.288C386.372 206.437 389.258 216.426 389.258 230.255V278.634C389.258 292.464 386.372 303.43 380.6 311.535C374.804 319.639 365.251 324.763 351.94 326.907C338.511 329.051 328.934 326.99 323.209 320.723ZM360.739 302.099C362.247 298.825 363.001 294.525 363.001 289.201V228.1C363.001 222.775 362.247 218.77 360.739 216.085C359.231 213.399 356.298 212.409 351.94 213.116C347.558 213.823 344.613 215.755 343.105 218.912C341.597 222.092 340.843 226.333 340.843 231.634V292.77C340.843 298.188 341.574 302.276 343.034 305.032C344.495 307.765 347.464 308.778 351.94 308.072C356.298 307.365 359.231 305.374 360.739 302.099Z" fill="url(#paint2_linear_943_42725)"/>
<path d="M406.432 187.146L424.384 184.248L452.513 246.939V179.76L473.893 176.332V305.566L456.577 308.358L428.448 241.391V312.881L406.432 316.415V187.146Z" fill="url(#paint3_linear_943_42725)"/>
<g style="mix-blend-mode:multiply" opacity="0.3">
<path d="M511.742 311.458C511.624 323.732 509.798 333.262 506.264 340.047C502.707 346.832 496.911 350.86 488.877 352.133L484.637 343.757C489.184 342.768 492.388 340.188 494.249 336.018C496.11 331.872 497.076 325.405 497.147 316.617L485.096 318.031L485.308 292.587L511.918 289.406L511.742 311.458Z" fill="white"/>
<path d="M475.696 315.77C475.601 328.045 473.776 337.574 470.218 344.359C466.684 351.121 460.889 355.138 452.831 356.41L448.591 348.07C453.161 347.057 456.365 344.477 458.203 340.331C460.064 336.161 461.03 329.682 461.101 320.894L449.05 322.343L449.262 296.864L475.908 293.719L475.696 315.77Z" fill="white"/>
<path d="M0.212035 224.476C0.306272 212.201 2.13211 202.672 5.68955 195.886C9.22343 189.125 15.019 185.108 23.0762 183.836L27.3169 192.176C22.77 193.189 19.5659 195.769 17.7047 199.915C15.8436 204.085 14.8776 210.564 14.807 219.351L26.8575 217.903L26.6455 243.382L0 246.527L0.212035 224.476Z" fill="white"/>
<path d="M36.2226 220.206C36.3404 207.932 38.1662 198.402 41.7001 191.617C45.2575 184.832 51.0531 180.815 59.0868 179.566L63.3275 187.906C58.7805 188.896 55.5765 191.476 53.7153 195.646C51.8777 199.792 50.9118 206.259 50.8175 215.047L62.9034 213.633L62.656 239.077L36.0459 242.257L36.2226 220.206Z" fill="white"/>
<path d="M513.438 309.755C513.344 322.029 511.518 331.559 507.96 338.344C504.427 345.105 498.631 349.122 490.574 350.394L486.333 342.054C490.903 341.041 494.108 338.461 495.945 334.315C497.806 330.145 498.772 323.666 498.843 314.879L486.792 316.328L487.04 290.848L513.65 287.703L513.438 309.755Z" fill="url(#paint4_linear_943_42725)"/>
<path d="M477.427 314.024C477.309 326.298 475.484 335.828 471.95 342.613C468.392 349.398 462.597 353.415 454.563 354.664L450.322 346.324C454.869 345.334 458.073 342.754 459.934 338.585C461.796 334.438 462.762 327.971 462.832 319.184L450.782 320.597L450.994 295.153L477.639 291.973L477.427 314.024Z" fill="url(#paint5_linear_943_42725)"/>
<path d="M1.91009 222.796C2.02789 210.522 3.85373 200.992 7.38761 194.207C10.945 187.422 16.7406 183.393 24.7743 182.121L29.0503 190.496C24.4798 191.486 21.264 194.066 19.4028 198.236C17.5652 202.382 16.5993 208.849 16.505 217.637L28.5909 216.223L28.3435 241.667L1.7334 244.847L1.91009 222.796Z" fill="url(#paint6_linear_943_42725)"/>
<path d="M37.9562 218.491C38.0504 206.217 39.8762 196.687 43.4337 189.902C46.9676 183.141 52.7631 179.124 60.8204 177.852L65.061 186.192C60.5141 187.205 57.3101 189.784 55.4489 193.931C53.5877 198.101 52.6218 204.58 52.5511 213.367L64.6016 211.918L64.3896 237.397L37.7441 240.543L37.9562 218.491Z" fill="url(#paint7_linear_943_42725)"/>
<path d="M515.168 308.024C515.051 320.298 513.225 329.828 509.691 336.613C506.133 343.398 500.338 347.415 492.304 348.664L488.063 340.324C492.61 339.334 495.814 336.754 497.676 332.585C499.537 328.438 500.503 321.971 500.573 313.184L488.523 314.597L488.735 289.153L515.38 285.973L515.168 308.024Z" fill="url(#paint8_linear_943_42725)"/>
<path d="M479.158 312.337C479.04 324.611 477.202 334.129 473.645 340.89C470.111 347.675 464.315 351.704 456.258 352.976L452.018 344.601C456.588 343.611 459.792 341.043 461.63 336.897C463.491 332.727 464.457 326.248 464.528 317.461L452.477 318.91L452.724 293.43L479.334 290.285L479.158 312.337Z" fill="url(#paint9_linear_943_42725)"/>
<path d="M3.64074 221.042C3.73498 208.768 5.56082 199.238 9.11826 192.453C12.6521 185.668 18.4477 181.651 26.5049 180.402L30.7456 188.742C26.1987 189.755 22.9946 192.335 21.1334 196.482C19.2723 200.651 18.3063 207.13 18.2357 215.918L30.2862 214.469L30.0742 239.913L3.42871 243.093L3.64074 221.042Z" fill="url(#paint10_linear_943_42725)"/>
<path d="M39.6513 216.772C39.7691 204.498 41.6067 194.968 45.1642 188.183C48.698 181.398 54.4818 177.381 62.5155 176.133L66.7915 184.473C62.221 185.462 59.0052 188.042 57.144 192.212C55.3064 196.358 54.3405 202.825 54.2462 211.613L66.3321 210.199L66.0847 235.643L39.4746 238.824L39.6513 216.772Z" fill="url(#paint11_linear_943_42725)"/>
<path d="M516.903 306.309C516.785 318.584 514.947 328.113 511.39 334.898C507.856 341.66 502.061 345.677 494.003 346.949L489.763 338.609C494.333 337.596 497.537 335.016 499.375 330.87C501.236 326.7 502.214 320.221 502.308 311.433L490.222 312.882L490.469 287.403L517.08 284.258L516.903 306.309Z" fill="url(#paint12_linear_943_42725)"/>
<path d="M480.857 310.579C480.739 322.853 478.913 332.383 475.379 339.168C471.822 345.953 466.026 349.97 457.993 351.218L453.752 342.878C458.299 341.889 461.503 339.309 463.364 335.139C465.225 330.993 466.191 324.526 466.262 315.738L454.211 317.152L454.423 291.708L481.069 288.527L480.857 310.579Z" fill="url(#paint13_linear_943_42725)"/>
<path d="M5.33783 219.335C5.45562 207.061 7.29324 197.531 10.8507 190.746C14.3846 183.961 20.1801 179.932 28.2374 178.66L32.478 187.035C27.9075 188.025 24.6917 190.593 22.8305 194.739C20.9929 198.909 20.027 205.388 19.9328 214.176L32.0186 212.727L31.7712 238.206L5.16113 241.387L5.33783 219.335Z" fill="url(#paint14_linear_943_42725)"/>
<path d="M41.3839 215.03C41.4781 202.756 43.304 193.226 46.8614 186.441C50.4189 179.68 56.2144 175.663 64.2481 174.391L68.4888 182.731C63.9419 183.744 60.7378 186.323 58.8766 190.47C57.0154 194.64 56.0495 201.119 55.9788 209.906L68.0294 208.457L67.8173 233.937L41.1719 237.082L41.3839 215.03Z" fill="url(#paint15_linear_943_42725)"/>
<path d="M518.599 304.583C518.505 316.857 516.679 326.387 513.122 333.172C509.588 339.957 503.792 343.974 495.735 345.222L491.494 336.882C496.041 335.893 499.245 333.313 501.106 329.143C502.967 324.997 503.933 318.53 504.004 309.742L491.954 311.156L492.166 285.712L518.811 282.531L518.599 304.583Z" fill="url(#paint16_linear_943_42725)"/>
<path d="M482.588 308.852C482.471 321.15 480.633 330.68 477.076 337.441C473.542 344.226 467.746 348.255 459.689 349.527L455.448 341.152C460.019 340.162 463.235 337.594 465.096 333.448C466.933 329.278 467.899 322.799 467.994 314.012L455.908 315.461L456.155 289.981L482.765 286.801L482.588 308.852Z" fill="url(#paint17_linear_943_42725)"/>
<path d="M7.06652 217.624C7.18432 205.35 9.01016 195.82 12.544 189.035C16.1015 182.25 21.897 178.233 29.9307 176.984L34.1714 185.324C29.6245 186.314 26.4204 188.894 24.5592 193.064C22.6981 197.21 21.7321 203.677 21.6615 212.465L33.712 211.051L33.5 236.495L6.85449 239.675L7.06652 217.624Z" fill="url(#paint18_linear_943_42725)"/>
<path d="M43.0771 213.347C43.1949 201.073 45.0325 191.543 48.5899 184.758C52.1238 177.973 57.9194 173.944 65.9766 172.672L70.2173 181.047C65.6468 182.037 62.4428 184.605 60.6051 188.751C58.744 192.921 57.7663 199.4 57.672 208.187L69.7579 206.738L69.5105 232.218L42.9004 235.398L43.0771 213.347Z" fill="url(#paint19_linear_943_42725)"/>
<path d="M520.33 302.872C520.212 315.17 518.386 324.699 514.852 331.461C511.295 338.246 505.499 342.274 497.465 343.547L493.189 335.171C497.76 334.182 500.976 331.614 502.837 327.468C504.675 323.298 505.64 316.819 505.735 308.031L493.649 309.48L493.896 284.001L520.506 280.82L520.33 302.872Z" fill="url(#paint20_linear_943_42725)"/>
<path d="M484.284 307.184C484.189 319.459 482.364 328.988 478.806 335.773C475.272 342.558 469.477 346.575 461.419 347.824L457.179 339.484C461.726 338.471 464.93 335.891 466.791 331.745C468.652 327.575 469.618 321.096 469.689 312.308L457.638 313.757L457.85 288.313L484.496 285.133L484.284 307.184Z" fill="url(#paint21_linear_943_42725)"/>
<path d="M8.76361 215.925C8.8814 203.627 10.719 194.097 14.2765 187.336C17.8103 180.551 23.6059 176.522 31.6632 175.25L35.9038 183.625C31.3333 184.615 28.1293 187.183 26.2917 191.329C24.4305 195.499 23.4646 201.978 23.3939 210.765L35.4444 209.317L35.197 234.796L8.58691 237.976L8.76361 215.925Z" fill="url(#paint22_linear_943_42725)"/>
<path d="M44.8097 211.62C44.9275 199.346 46.7533 189.816 50.2872 183.031C53.8446 176.246 59.6402 172.229 67.6739 170.98L71.9146 179.32C67.3676 180.31 64.1636 182.89 62.3024 187.06C60.4412 191.23 59.4753 197.708 59.4046 206.496L71.4552 205.047L71.2431 230.491L44.5977 233.672L44.8097 211.62Z" fill="url(#paint23_linear_943_42725)"/>
<path d="M522.025 301.165C521.931 313.439 520.105 322.969 516.547 329.754C513.013 336.539 507.218 340.556 499.161 341.804L494.92 333.464C499.467 332.451 502.671 329.872 504.532 325.725C506.393 321.555 507.359 315.076 507.43 306.289L495.379 307.738L495.591 282.294L522.237 279.113L522.025 301.165Z" fill="url(#paint24_linear_943_42725)"/>
<path d="M486.014 305.434C485.896 317.709 484.071 327.238 480.537 334.023C476.979 340.808 471.184 344.837 463.15 346.109L458.874 337.734C463.445 336.744 466.66 334.165 468.521 329.995C470.359 325.848 471.325 319.381 471.419 310.594L459.333 312.043L459.581 286.563L486.191 283.383L486.014 305.434Z" fill="url(#paint25_linear_943_42725)"/>
<path d="M10.496 214.186C10.6138 201.912 12.4397 192.382 15.9735 185.597C19.531 178.812 25.3265 174.796 33.3602 173.547L37.6009 181.887C33.054 182.876 29.8499 185.456 27.9887 189.626C26.1276 193.772 25.1616 200.239 25.091 209.027L37.1415 207.613L36.9295 233.057L10.3193 236.238L10.496 214.186Z" fill="url(#paint26_linear_943_42725)"/>
<path d="M46.5421 209.909C46.6363 197.611 48.4622 188.082 52.0196 181.32C55.5535 174.535 61.3491 170.507 69.4063 169.234L73.647 177.61C69.0765 178.599 65.8724 181.167 64.0348 185.314C62.1736 189.484 61.2077 195.962 61.137 204.75L73.1876 203.301L72.9755 228.78L46.3301 231.961L46.5421 209.909Z" fill="url(#paint27_linear_943_42725)"/>
<path d="M523.758 299.446C523.64 311.72 521.815 321.25 518.281 328.035C514.723 334.82 508.928 338.849 500.894 340.121L496.653 331.746C501.2 330.756 504.404 328.176 506.265 324.006C508.127 319.86 509.093 313.393 509.163 304.605L497.113 306.054L497.325 280.575L523.935 277.395L523.758 299.446Z" fill="url(#paint28_linear_943_42725)"/>
<path d="M487.712 303.758C487.618 316.033 485.792 325.563 482.235 332.348C478.701 339.109 472.905 343.126 464.848 344.398L460.607 336.058C465.154 335.045 468.358 332.465 470.22 328.319C472.081 324.149 473.047 317.67 473.117 308.883L461.067 310.331L461.279 284.852L487.924 281.707L487.712 303.758Z" fill="url(#paint29_linear_943_42725)"/>
<path d="M12.2277 212.456C12.3219 200.182 14.1477 190.652 17.7052 183.867C21.2391 177.105 27.0346 173.089 35.0919 171.816L39.3325 180.156C34.762 181.169 31.558 183.749 29.7204 187.896C27.8592 192.066 26.8933 198.544 26.8226 207.332L38.8731 205.883L38.6611 231.362L12.0156 234.507L12.2277 212.456Z" fill="url(#paint30_linear_943_42725)"/>
<path d="M48.2382 208.186C48.356 195.912 50.1819 186.382 53.7157 179.597C57.2732 172.812 63.0687 168.796 71.1024 167.547L75.3431 175.887C70.7962 176.876 67.5921 179.456 65.7309 183.626C63.8698 187.772 62.9038 194.239 62.8332 203.027L74.919 201.613L74.6717 227.057L48.0615 230.238L48.2382 208.186Z" fill="url(#paint31_linear_943_42725)"/>
<path d="M525.453 297.739C525.358 310.013 523.532 319.543 519.975 326.328C516.441 333.09 510.646 337.106 502.588 338.379L498.348 330.039C502.918 329.026 506.122 326.446 507.96 322.299C509.821 318.129 510.787 311.651 510.858 302.863L498.807 304.312L499.019 278.833L525.665 275.688L525.453 297.739Z" fill="url(#paint32_linear_943_42725)"/>
<path d="M489.442 302.008C489.324 314.283 487.498 323.812 483.964 330.598C480.407 337.383 474.611 341.399 466.578 342.648L462.337 334.308C466.884 333.319 470.088 330.739 471.949 326.569C473.81 322.422 474.776 315.955 474.847 307.168L462.796 308.581L463.008 283.138L489.618 279.957L489.442 302.008Z" fill="url(#paint33_linear_943_42725)"/>
<path d="M13.9247 210.769C14.0425 198.494 15.8684 188.964 19.4023 182.179C22.9597 175.394 28.7553 171.378 36.7889 170.129L41.0296 178.469C36.4827 179.458 33.2786 182.038 31.4174 186.208C29.5798 190.354 28.6139 196.821 28.5197 205.609L40.6055 204.196L40.3582 229.639L13.748 232.82L13.9247 210.769Z" fill="url(#paint34_linear_943_42725)"/>
<path d="M49.9708 206.456C50.0651 194.182 51.8909 184.652 55.4483 177.867C58.9822 171.105 64.7778 167.089 72.835 165.816L77.0757 174.156C72.5288 175.169 69.3247 177.749 67.4635 181.896C65.6023 186.066 64.6364 192.544 64.5657 201.332L76.6163 199.883L76.4042 225.362L49.7588 228.507L49.9708 206.456Z" fill="url(#paint35_linear_943_42725)"/>
<path d="M527.185 296.016C527.067 308.291 525.241 317.82 521.707 324.605C518.15 331.39 512.354 335.407 504.321 336.656L500.08 328.316C504.627 327.326 507.831 324.747 509.692 320.577C511.553 316.43 512.519 309.963 512.59 301.176L500.539 302.589L500.752 277.145L527.397 273.965L527.185 296.016Z" fill="url(#paint36_linear_943_42725)"/>
<path d="M491.139 300.329C491.045 312.603 489.219 322.133 485.662 328.918C482.128 335.679 476.332 339.696 468.275 340.968L464.034 332.628C468.605 331.615 471.809 329.036 473.646 324.889C475.507 320.719 476.473 314.24 476.544 305.453L464.494 306.902L464.706 281.423L491.351 278.277L491.139 300.329Z" fill="url(#paint37_linear_943_42725)"/>
<path d="M15.6554 209.015C15.7496 196.74 17.5755 187.211 21.1329 180.426C24.6668 173.664 30.4623 169.647 38.5196 168.375L42.7603 176.715C38.2133 177.728 35.0093 180.308 33.1481 184.454C31.2869 188.624 30.321 195.103 30.2503 203.891L42.3009 202.442L42.0888 227.921L15.4434 231.066L15.6554 209.015Z" fill="url(#paint38_linear_943_42725)"/>
<path d="M51.666 204.745C51.7837 192.471 53.6096 182.941 57.1435 176.156C60.7009 169.371 66.4965 165.354 74.5302 164.105L78.8062 172.445C74.2357 173.435 71.0198 176.015 69.1587 180.185C67.321 184.331 66.3551 190.798 66.2609 199.586L78.3468 198.172L78.0994 223.616L51.4893 226.797L51.666 204.745Z" fill="url(#paint39_linear_943_42725)"/>
<path d="M528.919 294.282C528.801 306.556 526.963 316.086 523.406 322.871C519.872 329.632 514.076 333.649 506.019 334.922L501.778 326.582C506.349 325.569 509.553 322.989 511.39 318.842C513.252 314.672 514.229 308.194 514.324 299.406L502.238 300.855L502.485 275.376L529.095 272.23L528.919 294.282Z" fill="url(#paint40_linear_943_42725)"/>
<path d="M492.872 298.551C492.755 310.826 490.929 320.355 487.395 327.141C483.837 333.926 478.042 337.942 470.008 339.191L465.768 330.851C470.315 329.862 473.519 327.282 475.38 323.112C477.241 318.965 478.207 312.498 478.278 303.711L466.227 305.124L466.439 279.68L493.084 276.5L492.872 298.551Z" fill="url(#paint41_linear_943_42725)"/>
<path d="M17.3525 207.323C17.4703 195.049 19.2961 185.519 22.83 178.734C26.3874 171.949 32.183 167.921 40.2167 166.648L44.4927 175.024C39.9222 176.013 36.7064 178.593 34.8452 182.763C33.0076 186.909 32.0416 193.376 31.9474 202.164L44.0333 200.715L43.7859 226.194L17.1758 229.375L17.3525 207.323Z" fill="url(#paint42_linear_943_42725)"/>
<path d="M53.3986 203.019C53.4928 190.744 55.3186 181.215 58.8761 174.429C62.41 167.668 68.2055 163.651 76.2628 162.379L80.5034 170.719C75.9565 171.732 72.7524 174.312 70.8913 178.458C69.0301 182.628 68.0642 189.107 67.9935 197.894L80.044 196.446L79.832 221.925L53.1865 225.07L53.3986 203.019Z" fill="url(#paint43_linear_943_42725)"/>
<path d="M530.614 292.579C530.519 304.853 528.694 314.383 525.136 321.168C521.579 327.953 515.783 331.97 507.749 333.218L503.509 324.878C508.056 323.889 511.26 321.309 513.121 317.139C514.982 312.993 515.948 306.526 516.019 297.738L503.968 299.152L504.18 273.708L530.826 270.527L530.614 292.579Z" fill="url(#paint44_linear_943_42725)"/>
<path d="M494.603 296.848C494.485 309.146 492.648 318.676 489.09 325.437C485.556 332.222 479.761 336.251 471.704 337.523L467.463 329.148C472.033 328.158 475.237 325.591 477.075 321.444C478.936 317.274 479.914 310.795 480.008 302.008L467.922 303.457L468.17 277.977L494.78 274.797L494.603 296.848Z" fill="url(#paint45_linear_943_42725)"/>
<path d="M19.0812 205.589C19.1754 193.315 21.0012 183.785 24.5587 177C28.0926 170.215 33.8881 166.198 41.9454 164.949L46.186 173.289C41.6391 174.302 38.4351 176.882 36.5739 181.028C34.7127 185.198 33.7468 191.677 33.6761 200.465L45.7266 199.016L45.5146 224.46L18.8691 227.64L19.0812 205.589Z" fill="url(#paint46_linear_943_42725)"/>
<path d="M55.0917 201.312C55.2095 189.037 57.0471 179.508 60.6046 172.723C64.1385 165.938 69.934 161.909 77.9913 160.637L82.2319 169.012C77.6615 170.002 74.4574 172.581 72.6198 176.751C70.7586 180.898 69.7809 187.365 69.6867 196.152L81.7725 194.739L81.5252 220.183L54.915 223.363L55.0917 201.312Z" fill="url(#paint47_linear_943_42725)"/>
<path d="M532.345 290.872C532.228 303.146 530.39 312.664 526.832 319.426C523.299 326.211 517.515 330.239 509.481 331.512L505.205 323.136C509.776 322.147 512.991 319.579 514.853 315.432C516.69 311.262 517.656 304.784 517.75 295.996L505.664 297.445L505.912 271.966L532.522 268.785L532.345 290.872Z" fill="url(#paint48_linear_943_42725)"/>
<path d="M496.299 295.149C496.205 307.423 494.379 316.953 490.822 323.738C487.288 330.523 481.492 334.54 473.435 335.789L469.194 327.449C473.741 326.459 476.945 323.88 478.807 319.71C480.668 315.563 481.634 309.096 481.704 300.309L469.654 301.722L469.866 276.278L496.511 273.098L496.299 295.149Z" fill="url(#paint49_linear_943_42725)"/>
<path d="M20.7773 203.89C20.8951 191.592 22.7327 182.062 26.2901 175.301C29.824 168.516 35.6196 164.487 43.6768 163.215L47.9175 171.59C43.347 172.58 40.1429 175.148 38.3053 179.294C36.4441 183.464 35.4664 189.943 35.3722 198.73L47.4581 197.281L47.2107 222.761L20.6006 225.941L20.7773 203.89Z" fill="url(#paint50_linear_943_42725)"/>
<path d="M56.8234 199.585C56.9412 187.311 58.767 177.781 62.3009 170.996C65.8583 164.211 71.6539 160.194 79.6876 158.945L83.9282 167.285C79.3813 168.298 76.1772 170.878 74.3161 175.024C72.4549 179.194 71.489 185.673 71.4183 194.461L83.4688 193.012L83.2568 218.456L56.6113 221.636L56.8234 199.585Z" fill="url(#paint51_linear_943_42725)"/>
<path d="M534.041 289.141C533.947 301.416 532.121 310.945 528.564 317.73C525.03 324.515 519.234 328.532 511.177 329.781L506.937 321.441C511.483 320.451 514.687 317.872 516.549 313.702C518.41 309.555 519.376 303.088 519.446 294.301L507.396 295.714L507.608 270.27L534.253 267.09L534.041 289.141Z" fill="url(#paint52_linear_943_42725)"/>
<path d="M498.031 293.411C497.913 305.685 496.087 315.215 492.553 322C488.996 328.785 483.2 332.814 475.167 334.086L470.891 325.71C475.461 324.721 478.677 322.153 480.538 318.007C482.376 313.837 483.342 307.358 483.436 298.57L471.35 300.019L471.597 274.54L498.207 271.359L498.031 293.411Z" fill="url(#paint53_linear_943_42725)"/>
<path d="M22.5109 202.171C22.6287 189.897 24.4545 180.367 27.9884 173.582C31.5458 166.797 37.3414 162.78 45.3751 161.531L49.6157 169.871C45.0688 170.861 41.8647 173.44 40.0036 177.61C38.1424 181.757 37.1765 188.224 37.1058 197.011L49.1563 195.598L48.9443 221.042L22.2988 224.222L22.5109 202.171Z" fill="url(#paint54_linear_943_42725)"/>
<path d="M58.5568 197.894C58.651 185.619 60.4768 176.09 64.0343 169.305C67.5682 162.52 73.3637 158.491 81.421 157.219L85.6616 165.594C81.0911 166.584 77.8871 169.151 76.0495 173.298C74.1883 177.468 73.2224 183.947 73.1517 192.734L85.2022 191.285L84.9548 216.765L58.3447 219.945L58.5568 197.894Z" fill="url(#paint55_linear_943_42725)"/>
<path d="M535.77 287.423C535.652 299.697 533.826 309.227 530.292 316.012C526.735 322.797 520.939 326.825 512.906 328.097L508.665 319.722C513.212 318.733 516.416 316.165 518.277 312.018C520.115 307.848 521.081 301.37 521.175 292.582L509.089 294.031L509.336 268.552L535.947 265.371L535.77 287.423Z" fill="url(#paint56_linear_943_42725)"/>
<path d="M499.724 291.735C499.63 304.009 497.804 313.539 494.246 320.324C490.713 327.109 484.917 331.126 476.86 332.375L472.619 324.035C477.166 323.022 480.37 320.442 482.231 316.295C484.092 312.126 485.058 305.647 485.129 296.859L473.079 298.308L473.291 272.864L499.936 269.684L499.724 291.735Z" fill="url(#paint57_linear_943_42725)"/>
<path d="M24.2423 200.444C24.3365 188.17 26.1624 178.652 29.7198 171.891C33.2537 165.106 39.0493 161.077 47.1065 159.805L51.3472 168.18C46.7767 169.169 43.5726 171.737 41.735 175.884C39.8738 180.054 38.9079 186.533 38.8372 195.32L50.8878 193.871L50.6404 219.351L24.0303 222.496L24.2423 200.444Z" fill="url(#paint58_linear_943_42725)"/>
<path d="M60.2529 196.175C60.3707 183.9 62.1965 174.371 65.7304 167.586C69.2878 160.801 75.0834 156.784 83.1171 155.535L87.3577 163.875C82.8108 164.865 79.6068 167.444 77.7456 171.614C75.8844 175.761 74.9185 182.228 74.8478 191.015L86.8983 189.602L86.6863 215.046L60.0762 218.226L60.2529 196.175Z" fill="url(#paint59_linear_943_42725)"/>
<path d="M537.467 285.739C537.373 298.013 535.547 307.543 531.99 314.328C528.456 321.113 522.66 325.13 514.603 326.379L510.362 318.039C514.909 317.026 518.113 314.446 519.974 310.299C521.836 306.129 522.802 299.651 522.872 290.863L510.822 292.312L511.034 266.868L537.679 263.688L537.467 285.739Z" fill="url(#paint60_linear_943_42725)"/>
<path d="M501.456 290.008C501.339 302.283 499.513 311.812 495.979 318.598C492.421 325.383 486.626 329.411 478.592 330.683L474.352 322.308C478.898 321.319 482.103 318.739 483.964 314.569C485.801 310.422 486.767 303.955 486.862 295.168L474.776 296.581L475.023 271.138L501.633 267.957L501.456 290.008Z" fill="url(#paint61_linear_943_42725)"/>
<path d="M25.9394 198.769C26.0572 186.494 27.883 176.964 31.4169 170.179C34.9743 163.394 40.7699 159.378 48.8036 158.129L53.0443 166.469C48.4973 167.458 45.2933 170.038 43.4321 174.208C41.5709 178.354 40.605 184.821 40.5343 193.609L52.5849 192.196L52.3728 217.639L25.7627 220.82L25.9394 198.769Z" fill="url(#paint62_linear_943_42725)"/>
<path d="M61.9855 194.456C62.0797 182.182 63.9055 172.664 67.463 165.902C70.9969 159.117 76.7924 155.089 84.8497 153.816L89.0903 162.192C84.5434 163.181 81.3393 165.749 79.4782 169.896C77.617 174.066 76.6511 180.544 76.5804 189.332L88.6309 187.883L88.4189 213.362L61.7734 216.543L61.9855 194.456Z" fill="url(#paint63_linear_943_42725)"/>
<path d="M539.2 283.989C539.082 296.263 537.256 305.793 533.722 312.578C530.165 319.363 524.369 323.392 516.335 324.664L512.095 316.289C516.642 315.299 519.846 312.719 521.707 308.549C523.568 304.403 524.534 297.936 524.605 289.148L512.554 290.597L512.766 265.118L539.376 261.938L539.2 283.989Z" fill="url(#paint64_linear_943_42725)"/>
<path d="M503.154 288.301C503.059 300.576 501.234 310.105 497.676 316.891C494.142 323.652 488.347 327.669 480.289 328.941L476.049 320.601C480.596 319.588 483.8 317.008 485.661 312.862C487.522 308.692 488.488 302.213 488.559 293.426L476.508 294.874L476.72 269.395L503.366 266.25L503.154 288.301Z" fill="url(#paint65_linear_943_42725)"/>
<path d="M27.67 197.011C27.7643 184.736 29.5901 175.207 33.1476 168.422C36.6814 161.66 42.477 157.643 50.5342 156.371L54.7749 164.711C50.228 165.724 47.0239 168.304 45.1628 172.45C43.3016 176.62 42.3356 183.099 42.265 191.887L54.3155 190.438L54.1035 215.917L27.458 219.062L27.67 197.011Z" fill="url(#paint66_linear_943_42725)"/>
<path d="M63.6806 192.741C63.7984 180.467 65.6242 170.937 69.1581 164.152C72.7156 157.367 78.5111 153.35 86.5448 152.102L90.7855 160.442C86.2385 161.431 83.0345 164.011 81.1733 168.181C79.3357 172.327 78.3698 178.794 78.2755 187.582L90.3614 186.168L90.114 211.612L63.5039 214.793L63.6806 192.741Z" fill="url(#paint67_linear_943_42725)"/>
<path d="M540.897 282.309C540.803 294.584 538.977 304.113 535.419 310.898C531.885 317.66 526.09 321.677 518.033 322.949L513.792 314.609C518.362 313.596 521.567 311.016 523.404 306.87C525.265 302.7 526.231 296.221 526.302 287.433L514.251 288.882L514.499 263.403L541.109 260.258L540.897 282.309Z" fill="url(#paint68_linear_943_42725)"/>
<path d="M504.886 286.579C504.768 298.853 502.942 308.383 499.409 315.168C495.851 321.953 490.056 325.97 482.022 327.218L477.781 318.878C482.328 317.889 485.532 315.309 487.393 311.139C489.255 306.993 490.221 300.526 490.291 291.738L478.241 293.152L478.453 267.708L505.063 264.527L504.886 286.579Z" fill="url(#paint69_linear_943_42725)"/>
<path d="M29.3671 195.331C29.4849 183.057 31.3108 173.527 34.8446 166.742C38.4021 159.957 44.1976 155.928 52.2313 154.656L56.472 163.032C51.9251 164.021 48.721 166.601 46.8598 170.771C45.0222 174.917 44.0563 181.384 43.962 190.172L56.0479 188.758L55.8005 214.202L29.1904 217.383L29.3671 195.331Z" fill="url(#paint70_linear_943_42725)"/>
<path d="M65.4132 191.026C65.5074 178.752 67.3333 169.222 70.8907 162.437C74.4246 155.676 80.2202 151.659 88.2774 150.387L92.5181 158.727C87.9711 159.74 84.7671 162.319 82.9059 166.466C81.0447 170.636 80.0788 177.115 80.0081 185.902L92.0587 184.453L91.8466 209.933L65.2012 213.078L65.4132 191.026Z" fill="url(#paint71_linear_943_42725)"/>
<path d="M542.625 280.587C542.508 292.861 540.682 302.391 537.148 309.176C533.59 315.961 527.795 319.978 519.761 321.226L515.521 312.886C520.067 311.897 523.272 309.317 525.133 305.147C526.994 301.001 527.96 294.534 528.03 285.746L515.98 287.16L516.192 261.716L542.837 258.535L542.625 280.587Z" fill="url(#paint72_linear_943_42725)"/>
<path d="M506.615 284.899C506.497 297.173 504.659 306.691 501.102 313.453C497.568 320.238 491.773 324.266 483.715 325.539L479.475 317.199C484.045 316.186 487.249 313.606 489.087 309.46C490.948 305.29 491.914 298.811 491.985 290.023L479.934 291.472L480.181 265.993L506.792 262.848L506.615 284.899Z" fill="url(#paint73_linear_943_42725)"/>
<path d="M31.0968 193.608C31.191 181.334 33.0169 171.804 36.5743 165.019C40.1082 158.258 45.9038 154.241 53.961 152.969L58.2017 161.309C53.6547 162.322 50.4507 164.901 48.5895 169.048C46.7283 173.218 45.7624 179.697 45.6917 188.484L57.7423 187.035L57.5302 212.515L30.8848 215.66L31.0968 193.608Z" fill="url(#paint74_linear_943_42725)"/>
<path d="M67.1074 189.339C67.2252 177.065 69.051 167.535 72.5849 160.75C76.1423 153.965 81.9379 149.948 89.9716 148.699L94.2476 157.039C89.6771 158.029 86.4612 160.608 84.6001 164.778C82.7624 168.925 81.7965 175.392 81.7023 184.179L93.7882 182.766L93.5408 208.21L66.9307 211.39L67.1074 189.339Z" fill="url(#paint75_linear_943_42725)"/>
<path d="M544.359 278.86C544.241 291.134 542.404 300.664 538.846 307.449C535.312 314.211 529.517 318.227 521.459 319.5L517.219 311.16C521.789 310.147 524.993 307.567 526.831 303.42C528.692 299.25 529.67 292.772 529.764 283.984L517.678 285.433L517.926 259.954L544.536 256.809L544.359 278.86Z" fill="url(#paint76_linear_943_42725)"/>
<path d="M508.313 283.13C508.195 295.404 506.369 304.934 502.835 311.719C499.278 318.504 493.482 322.521 485.449 323.769L481.208 315.429C485.755 314.44 488.959 311.86 490.82 307.69C492.681 303.544 493.647 297.077 493.718 288.289L481.667 289.703L481.879 264.259L508.525 261.078L508.313 283.13Z" fill="url(#paint77_linear_943_42725)"/>
<path d="M32.7929 191.89C32.9107 179.615 34.7483 170.086 38.3058 163.301C41.8396 156.516 47.6234 152.487 55.6571 151.215L59.9331 159.59C55.3626 160.58 52.1468 163.148 50.2856 167.294C48.448 171.464 47.4821 177.943 47.3878 186.73L59.4737 185.281L59.2263 210.761L32.6162 213.941L32.7929 191.89Z" fill="url(#paint78_linear_943_42725)"/>
<path d="M68.839 187.585C68.9332 175.311 70.7591 165.781 74.3165 158.996C77.8504 152.234 83.6459 148.218 91.7032 146.945L95.9438 155.285C91.3969 156.298 88.1929 158.878 86.3317 163.024C84.4705 167.194 83.5046 173.673 83.4339 182.461L95.4844 181.012L95.2724 206.491L68.627 209.636L68.839 187.585Z" fill="url(#paint79_linear_943_42725)"/>
<path d="M546.056 277.145C545.962 289.42 544.136 298.949 540.579 305.734C537.045 312.519 531.249 316.536 523.192 317.785L518.951 309.445C523.498 308.455 526.702 305.876 528.563 301.706C530.424 297.559 531.39 291.092 531.461 282.305L519.411 283.718L519.623 258.274L546.268 255.094L546.056 277.145Z" fill="url(#paint80_linear_943_42725)"/>
<path d="M510.045 281.415C509.928 293.713 508.09 303.242 504.533 310.004C500.999 316.789 495.203 320.817 487.146 322.09L482.905 313.714C487.476 312.725 490.68 310.157 492.517 306.011C494.379 301.841 495.356 295.362 495.451 286.574L483.365 288.023L483.612 262.544L510.222 259.363L510.045 281.415Z" fill="url(#paint81_linear_943_42725)"/>
<path d="M34.5255 190.187C34.6433 177.912 36.4691 168.382 40.003 161.597C43.5605 154.812 49.356 150.796 57.3897 149.547L61.6304 157.887C57.0834 158.876 53.8794 161.456 52.0182 165.626C50.157 169.772 49.1911 176.239 49.1204 185.027L61.171 183.613L60.9589 209.057L34.3135 212.238L34.5255 190.187Z" fill="url(#paint82_linear_943_42725)"/>
<path d="M70.5361 185.909C70.6539 173.635 72.4915 164.105 76.0489 157.32C79.5828 150.535 85.3784 146.507 93.4356 145.234L97.6763 153.61C93.1058 154.599 89.9017 157.179 88.0641 161.349C86.2029 165.495 85.2252 171.962 85.131 180.75L97.2169 179.301L96.9695 204.78L70.3594 207.961L70.5361 185.909Z" fill="url(#paint83_linear_943_42725)"/>
<path d="M547.788 275.391C547.67 287.689 545.844 297.219 542.31 303.98C538.753 310.765 532.957 314.794 524.923 316.066L520.647 307.691C525.218 306.701 528.434 304.133 530.295 299.987C532.133 295.817 533.098 289.338 533.193 280.551L521.107 282L521.354 256.52L547.964 253.34L547.788 275.391Z" fill="url(#paint84_linear_943_42725)"/>
<path d="M511.742 279.704C511.647 291.978 509.821 301.508 506.264 308.293C502.73 315.078 496.935 319.095 488.877 320.343L484.637 312.003C489.184 310.99 492.388 308.411 494.249 304.264C496.11 300.094 497.076 293.615 497.147 284.828L485.096 286.277L485.308 260.833L511.954 257.652L511.742 279.704Z" fill="url(#paint85_linear_943_42725)"/>
<path d="M36.2216 188.46C36.3394 176.162 38.177 166.633 41.7345 159.871C45.2684 153.086 51.0639 149.057 59.1212 147.785L63.3618 156.16C58.7913 157.15 55.5873 159.718 53.7497 163.864C51.8885 168.034 50.9226 174.513 50.8519 183.301L62.9024 181.852L62.6551 207.331L36.0449 210.512L36.2216 188.46Z" fill="url(#paint86_linear_943_42725)"/>
<path d="M72.2677 184.155C72.3855 171.881 74.2113 162.351 77.7452 155.566C81.3027 148.781 87.0982 144.764 95.1319 143.516L99.3726 151.856C94.8256 152.869 91.6216 155.448 89.7604 159.595C87.8992 163.765 86.9333 170.244 86.8626 179.031L98.9132 177.582L98.7011 203.026L72.0557 206.207L72.2677 184.155Z" fill="url(#paint87_linear_943_42725)"/>
<path d="M549.482 273.692C549.388 285.966 547.562 295.496 544.004 302.281C540.47 309.066 534.675 313.083 526.618 314.332L522.377 305.992C526.924 305.002 530.128 302.423 531.989 298.253C533.85 294.083 534.816 287.604 534.887 278.816L522.836 280.265L523.048 254.821L549.694 251.641L549.482 273.692Z" fill="url(#paint88_linear_943_42725)"/>
<path d="M513.471 277.962C513.353 290.236 511.528 299.766 507.994 306.551C504.436 313.336 498.641 317.364 490.607 318.637L486.331 310.261C490.902 309.272 494.117 306.692 495.979 302.522C497.816 298.376 498.782 291.909 498.876 283.121L486.79 284.57L487.038 259.091L513.648 255.91L513.471 277.962Z" fill="url(#paint89_linear_943_42725)"/>
<path d="M37.9532 186.737C38.071 174.463 39.8969 164.933 43.4308 158.148C46.9882 151.363 52.7838 147.346 60.8174 146.098L65.0581 154.438C60.5112 155.427 57.3071 158.007 55.4459 162.177C53.5848 166.323 52.6188 172.79 52.5482 181.578L64.5987 180.164L64.3867 205.608L37.7412 208.789L37.9532 186.737Z" fill="url(#paint90_linear_943_42725)"/>
<path d="M73.9991 182.46C74.0934 170.162 75.9192 160.633 79.4766 153.871C83.0105 147.086 88.8061 143.057 96.8633 141.785L101.104 150.16C96.5335 151.15 93.3295 153.718 91.4918 157.864C89.6307 162.034 88.6647 168.513 88.5941 177.301L100.645 175.852L100.433 201.331L73.7871 204.512L73.9991 182.46Z" fill="url(#paint91_linear_943_42725)"/>
<path d="M551.214 271.993C551.096 284.267 549.271 293.797 545.737 300.582C542.179 307.367 536.384 311.396 528.35 312.668L524.109 304.292C528.656 303.303 531.86 300.735 533.722 296.589C535.559 292.419 536.525 285.94 536.619 277.152L524.533 278.601L524.781 253.122L551.391 249.941L551.214 271.993Z" fill="url(#paint92_linear_943_42725)"/>
<path d="M515.168 276.305C515.074 288.58 513.248 298.109 509.691 304.894C506.157 311.656 500.361 315.673 492.304 316.945L488.063 308.605C492.61 307.592 495.814 305.012 497.676 300.866C499.537 296.696 500.503 290.217 500.573 281.429L488.523 282.878L488.735 257.399L515.38 254.254L515.168 276.305Z" fill="url(#paint93_linear_943_42725)"/>
<path d="M39.6847 185.011C39.7789 172.736 41.6048 163.207 45.1622 156.422C48.6961 149.66 54.4916 145.643 62.5489 144.371L66.7896 152.711C62.2191 153.724 59.015 156.304 57.1774 160.45C55.3162 164.62 54.3503 171.099 54.2796 179.887L66.3302 178.438L66.1181 203.917L39.4727 207.062L39.6847 185.011Z" fill="url(#paint94_linear_943_42725)"/>
<path d="M75.6952 180.741C75.813 168.467 77.6389 158.937 81.1728 152.152C84.7302 145.367 90.5258 141.35 98.5595 140.102L102.8 148.442C98.2532 149.431 95.0491 152.011 93.188 156.181C91.3268 160.327 90.3608 166.794 90.2902 175.582L102.341 174.168L102.129 199.612L75.5186 202.793L75.6952 180.741Z" fill="url(#paint95_linear_943_42725)"/>
<path d="M552.915 270.27C552.821 282.545 550.995 292.074 547.438 298.859C543.904 305.621 538.108 309.638 530.051 310.91L525.811 302.57C530.381 301.557 533.585 298.977 535.423 294.831C537.284 290.661 538.25 284.182 538.32 275.394L526.27 276.843L526.482 251.364L553.127 248.219L552.915 270.27Z" fill="url(#paint96_linear_943_42725)"/>
<path d="M516.905 274.54C516.787 286.814 514.961 296.344 511.427 303.129C507.87 309.914 502.074 313.931 494.04 315.179L489.8 306.839C494.347 305.85 497.551 303.27 499.412 299.1C501.273 294.954 502.239 288.487 502.31 279.699L490.224 281.113L490.471 255.669L517.081 252.488L516.905 274.54Z" fill="url(#paint97_linear_943_42725)"/>
<path d="M41.3818 183.312C41.4996 171.037 43.3254 161.507 46.8593 154.722C50.4167 147.937 56.2123 143.921 64.246 142.672L68.4866 151.012C63.9397 152.001 60.7357 154.581 58.8745 158.751C57.0369 162.897 56.0709 169.364 55.9767 178.152L68.0626 176.738L67.8152 202.182L41.2051 205.363L41.3818 183.312Z" fill="url(#paint98_linear_943_42725)"/>
<path d="M77.4279 178.999C77.5221 166.725 79.3479 157.207 82.9054 150.445C86.4393 143.66 92.2348 139.632 100.292 138.359L104.533 146.699C99.9858 147.712 96.7817 150.292 94.9206 154.439C93.0594 158.609 92.0935 165.087 92.0228 173.875L104.073 172.426L103.861 197.905L77.2158 201.05L77.4279 178.999Z" fill="url(#paint99_linear_943_42725)"/>
<path d="M554.643 268.567C554.525 280.841 552.699 290.371 549.165 297.156C545.608 303.941 539.812 307.958 531.779 309.207L527.538 300.867C532.085 299.877 535.289 297.298 537.15 293.128C539.011 288.981 539.977 282.514 540.048 273.727L527.998 275.14L528.21 249.696L554.855 246.516L554.643 268.567Z" fill="#139EEC"/>
<path d="M518.597 272.88C518.503 285.154 516.677 294.684 513.12 301.469C509.586 308.23 503.79 312.247 495.733 313.519L491.492 305.179C496.063 304.166 499.267 301.586 501.104 297.44C502.966 293.27 503.931 286.791 504.002 278.004L491.952 279.453L492.164 253.973L518.809 250.828L518.597 272.88Z" fill="#139EEC"/>
<path d="M43.1134 181.573C43.2076 169.299 45.0335 159.769 48.5909 152.984C52.1248 146.223 57.9204 142.206 65.9776 140.934L70.2183 149.274C65.6713 150.287 62.4673 152.866 60.6061 157.013C58.7449 161.183 57.779 167.662 57.7083 176.449L69.7589 175L69.5468 200.479L42.9014 203.625L43.1134 181.573Z" fill="#139EEC"/>
<path d="M79.124 177.304C79.2418 165.029 81.0676 155.5 84.6015 148.715C88.1589 141.93 93.9545 137.913 101.988 136.664L106.264 145.004C101.694 145.994 98.4778 148.573 96.6167 152.743C94.7791 156.89 93.8131 163.357 93.7189 172.144L105.805 170.731L105.557 196.175L78.9473 199.355L79.124 177.304Z" fill="#139EEC"/>
<path d="M556.372 266.844C556.254 279.119 554.416 288.648 550.859 295.433C547.325 302.195 541.529 306.212 533.472 307.484L529.231 299.144C533.802 298.131 537.006 295.551 538.844 291.405C540.705 287.235 541.671 280.756 541.741 271.968L529.691 273.417L529.938 247.938L556.548 244.793L556.372 266.844Z" fill="#139EEC"/>
<path d="M520.326 271.114C520.208 283.388 518.382 292.918 514.848 299.703C511.291 306.488 505.495 310.505 497.461 311.754L493.221 303.414C497.768 302.424 500.972 299.844 502.833 295.674C504.694 291.528 505.66 285.061 505.731 276.273L493.68 277.687L493.892 252.243L520.538 249.062L520.326 271.114Z" fill="#139EEC"/>
<path d="M44.8066 179.866C44.9244 167.592 46.7502 158.062 50.2841 151.277C53.8415 144.492 59.6371 140.464 67.6708 139.191L71.9468 147.567C67.3763 148.556 64.1605 151.136 62.2993 155.306C60.4617 159.452 59.4957 165.919 59.4015 174.707L71.4874 173.258L71.24 198.737L44.6299 201.918L44.8066 179.866Z" fill="#139EEC"/>
<path d="M80.8527 175.562C80.9469 163.287 82.7727 153.757 86.3302 146.972C89.8641 140.211 95.6596 136.194 103.717 134.922L107.958 143.262C103.411 144.275 100.207 146.855 98.3454 151.001C96.4842 155.171 95.5183 161.65 95.4476 170.437L107.498 168.988L107.286 194.468L80.6406 197.613L80.8527 175.562Z" fill="#139EEC"/>
<path d="M558.073 265.114C557.955 277.388 556.129 286.918 552.595 293.703C549.038 300.488 543.242 304.505 535.208 305.754L530.968 297.414C535.515 296.424 538.719 293.844 540.58 289.674C542.441 285.528 543.407 279.061 543.478 270.273L531.427 271.687L531.639 246.243L558.285 243.062L558.073 265.114Z" fill="#139EEC"/>
<path d="M522.061 269.383C521.943 281.681 520.106 291.211 516.548 297.973C513.014 304.758 507.219 308.786 499.162 310.058L494.921 301.683C499.491 300.694 502.695 298.126 504.533 293.979C506.394 289.809 507.372 283.33 507.466 274.543L495.38 275.992L495.628 250.513L522.238 247.332L522.061 269.383Z" fill="#139EEC"/>
<path d="M46.5431 178.144C46.6373 165.869 48.4632 156.339 52.0206 149.554C55.5545 142.769 61.35 138.753 69.4073 137.504L73.6479 145.844C69.101 146.857 65.897 149.437 64.0358 153.583C62.1746 157.753 61.2087 164.232 61.138 173.019L73.1885 171.571L72.9765 197.014L46.3311 200.195L46.5431 178.144Z" fill="#139EEC"/>
<path d="M82.5536 173.866C82.6714 161.592 84.5091 152.062 88.0665 145.277C91.6004 138.492 97.3959 134.464 105.453 133.191L109.694 141.567C105.123 142.556 101.908 145.136 100.046 149.306C98.2087 153.452 97.2428 159.919 97.1486 168.707L109.234 167.293L108.987 192.737L82.377 195.918L82.5536 173.866Z" fill="#139EEC"/>
<path d="M559.802 263.403C559.685 275.677 557.847 285.195 554.289 291.957C550.756 298.742 544.972 302.77 536.938 304.043L532.662 295.667C537.233 294.678 540.448 292.11 542.31 287.963C544.147 283.793 545.113 277.315 545.207 268.527L533.122 269.976L533.369 244.497L559.979 241.352L559.802 263.403Z" fill="#139EEC"/>
<path d="M523.756 267.673C523.662 279.947 521.836 289.477 518.279 296.262C514.721 303.047 508.926 307.064 500.892 308.312L496.651 299.972C501.198 298.983 504.402 296.403 506.264 292.233C508.125 288.087 509.091 281.62 509.161 272.832L497.111 274.246L497.323 248.802L523.968 245.621L523.756 267.673Z" fill="#139EEC"/>
<path d="M48.2363 176.425C48.3541 164.151 50.1917 154.621 53.7491 147.836C57.283 141.051 63.0786 137.022 71.1358 135.75L75.3765 144.125C70.806 145.115 67.6019 147.683 65.7643 151.829C63.9031 155.999 62.9254 162.478 62.8312 171.265L74.9171 169.817L74.6697 195.296L48.0596 198.476L48.2363 176.425Z" fill="#139EEC"/>
<path d="M84.2823 172.12C84.4001 159.846 86.226 150.316 89.7599 143.531C93.3173 136.746 99.1129 132.729 107.147 131.48L111.387 139.82C106.84 140.833 103.636 143.413 101.775 147.56C99.9139 151.73 98.948 158.208 98.8773 166.996L110.928 165.547L110.716 190.991L84.0703 194.172L84.2823 172.12Z" fill="#139EEC"/>
<path d="M561.497 261.708C561.403 273.982 559.577 283.512 556.02 290.297C552.486 297.082 546.69 301.099 538.633 302.347L534.393 294.007C538.94 293.018 542.144 290.438 544.005 286.268C545.866 282.122 546.832 275.655 546.903 266.867L534.852 268.281L535.064 242.837L561.709 239.656L561.497 261.708Z" fill="#139EEC"/>
<path d="M525.487 265.977C525.369 278.252 523.531 287.781 519.974 294.566C516.44 301.351 510.656 305.38 502.623 306.652L498.347 298.277C502.917 297.287 506.133 294.719 507.994 290.573C509.832 286.403 510.798 279.924 510.892 271.137L498.806 272.586L499.053 247.106L525.664 243.926L525.487 265.977Z" fill="#139EEC"/>
<path d="M49.9689 174.741C50.0867 162.467 51.9125 152.937 55.4464 146.152C59.0038 139.367 64.7994 135.35 72.8331 134.102L77.0737 142.442C72.5268 143.431 69.3227 146.011 67.4616 150.181C65.6004 154.327 64.6345 160.794 64.5638 169.582L76.6143 168.168L76.4023 193.612L49.7568 196.793L49.9689 174.741Z" fill="#139EEC"/>
<path d="M85.9794 170.464C86.0972 158.19 87.9348 148.66 91.4923 141.875C95.0262 135.09 100.822 131.061 108.879 129.789L113.12 138.164C108.549 139.154 105.345 141.722 103.507 145.868C101.646 150.038 100.68 156.517 100.61 165.305L112.66 163.856L112.413 189.335L85.8027 192.515L85.9794 170.464Z" fill="#139EEC"/>
<path d="M563.229 259.973C563.111 272.248 561.285 281.777 557.752 288.562C554.194 295.347 548.399 299.376 540.365 300.648L536.089 292.273C540.659 291.283 543.875 288.716 545.736 284.569C547.574 280.399 548.54 273.92 548.634 265.133L536.548 266.582L536.796 241.102L563.406 237.922L563.229 259.973Z" fill="#139EEC"/>
<path d="M527.183 264.286C527.089 276.56 525.263 286.09 521.705 292.875C518.172 299.66 512.376 303.677 504.319 304.925L500.078 296.585C504.625 295.572 507.829 292.993 509.69 288.846C511.551 284.676 512.517 278.198 512.588 269.41L500.538 270.859L500.75 245.415L527.395 242.234L527.183 264.286Z" fill="#139EEC"/>
<path d="M51.7003 173.015C51.7946 160.74 53.6204 151.222 57.1778 144.461C60.7117 137.676 66.5073 133.647 74.5645 132.375L78.8052 140.75C74.2347 141.74 71.0306 144.308 69.193 148.454C67.3318 152.624 66.3659 159.103 66.2952 167.891L78.3458 166.442L78.0984 191.921L51.4883 195.066L51.7003 173.015Z" fill="#139EEC"/>
<path d="M87.7111 168.745C87.8289 156.471 89.6547 146.941 93.1886 140.156C96.746 133.371 102.542 129.354 110.575 128.105L114.816 136.445C110.269 137.435 107.065 140.015 105.204 144.185C103.343 148.331 102.377 154.798 102.306 163.586L114.357 162.172L114.144 187.616L87.499 190.797L87.7111 168.745Z" fill="#139EEC"/>
<path d="M564.925 258.266C564.831 270.541 563.005 280.07 559.448 286.855C555.914 293.64 550.118 297.657 542.061 298.906L537.82 290.566C542.367 289.553 545.571 286.973 547.432 282.827C549.294 278.657 550.26 272.178 550.33 263.39L538.28 264.839L538.492 239.395L565.137 236.215L564.925 258.266Z" fill="#139EEC"/>
<path d="M528.914 262.536C528.797 274.81 526.971 284.34 523.437 291.125C519.879 297.91 514.084 301.939 506.05 303.211L501.81 294.835C506.356 293.846 509.561 291.266 511.422 287.096C513.259 282.95 514.225 276.483 514.32 267.695L502.234 269.109L502.481 243.665L529.091 240.484L528.914 262.536Z" fill="#139EEC"/>
<path d="M53.3974 171.308C53.5152 159.033 55.341 149.504 58.8749 142.719C62.4324 135.933 68.2279 131.917 76.2616 130.668L80.5023 139.008C75.9553 139.997 72.7513 142.577 70.8901 146.747C69.0289 150.894 68.063 157.361 67.9923 166.148L80.0429 164.735L79.8308 190.179L53.2207 193.359L53.3974 171.308Z" fill="#139EEC"/>
<path d="M89.4435 167.03C89.5377 154.733 91.3636 145.203 94.921 138.441C98.4549 131.656 104.25 127.628 112.308 126.355L116.548 134.731C112.001 135.72 108.797 138.288 106.936 142.435C105.075 146.605 104.109 153.083 104.038 161.871L116.089 160.422L115.877 185.901L89.2314 189.082L89.4435 167.03Z" fill="#139EEC"/>
</g>
<path d="M564.924 258.266C564.83 270.541 563.004 280.07 559.447 286.855C555.913 293.64 550.117 297.657 542.06 298.906L537.819 290.566C542.366 289.553 545.57 286.973 547.431 282.827C549.293 278.657 550.259 272.178 550.329 263.39L538.279 264.839L538.491 239.395L565.136 236.215L564.924 258.266Z" fill="url(#paint100_linear_943_42725)"/>
<path d="M528.913 262.536C528.796 274.81 526.97 284.34 523.436 291.125C519.878 297.91 514.083 301.939 506.049 303.211L501.809 294.835C506.356 293.846 509.56 291.266 511.421 287.096C513.258 282.95 514.224 276.483 514.319 267.695L502.233 269.109L502.48 243.665L529.09 240.484L528.913 262.536Z" fill="url(#paint101_linear_943_42725)"/>
<path d="M53.3954 171.308C53.5132 159.033 55.3391 149.504 58.873 142.719C62.4304 135.933 68.226 131.917 76.2597 130.668L80.5003 139.008C75.9534 139.997 72.7493 142.577 70.8882 146.747C69.027 150.894 68.061 157.361 67.9904 166.148L80.0409 164.735L79.8289 190.179L53.2188 193.359L53.3954 171.308Z" fill="url(#paint102_linear_943_42725)"/>
<path d="M89.4415 167.03C89.5358 154.733 91.3616 145.203 94.919 138.441C98.4529 131.656 104.248 127.628 112.306 126.355L116.546 134.731C111.999 135.72 108.795 138.288 106.934 142.435C105.073 146.605 104.107 153.083 104.036 161.871L116.087 160.422L115.875 185.901L89.2295 189.082L89.4415 167.03Z" fill="url(#paint103_linear_943_42725)"/>
<defs>
<linearGradient id="paint0_linear_943_42725" x1="184.739" y1="510.622" x2="205.791" y2="181.749" gradientUnits="userSpaceOnUse">
<stop stop-color="#139EEC"/>
<stop offset="0.876198" stop-color="#3465AF"/>
</linearGradient>
<linearGradient id="paint1_linear_943_42725" x1="268.527" y1="498.237" x2="287.975" y2="167.902" gradientUnits="userSpaceOnUse">
<stop stop-color="#139EEC"/>
<stop offset="0.876198" stop-color="#3465AF"/>
</linearGradient>
<linearGradient id="paint2_linear_943_42725" x1="358.48" y1="483.825" x2="377.941" y2="153.458" gradientUnits="userSpaceOnUse">
<stop stop-color="#139EEC"/>
<stop offset="0.876198" stop-color="#3465AF"/>
</linearGradient>
<linearGradient id="paint3_linear_943_42725" x1="446.074" y1="479.262" x2="469.48" y2="135.007" gradientUnits="userSpaceOnUse">
<stop stop-color="#139EEC"/>
<stop offset="0.876198" stop-color="#3465AF"/>
</linearGradient>
<linearGradient id="paint4_linear_943_42725" x1="499.991" y1="287.703" x2="499.991" y2="350.394" gradientUnits="userSpaceOnUse">
<stop stop-color="#139EEC"/>
<stop offset="1" stop-color="#D4E3EB"/>
</linearGradient>
<linearGradient id="paint5_linear_943_42725" x1="463.981" y1="291.973" x2="463.981" y2="354.664" gradientUnits="userSpaceOnUse">
<stop stop-color="#139EEC"/>
<stop offset="1" stop-color="#D4E3EB"/>
</linearGradient>
<linearGradient id="paint6_linear_943_42725" x1="15.3918" y1="182.121" x2="15.3918" y2="244.847" gradientUnits="userSpaceOnUse">
<stop stop-color="#139EEC"/>
<stop offset="1" stop-color="#D4E3EB"/>
</linearGradient>
<linearGradient id="paint7_linear_943_42725" x1="51.4026" y1="177.852" x2="51.4026" y2="240.543" gradientUnits="userSpaceOnUse">
<stop stop-color="#139EEC"/>
<stop offset="1" stop-color="#D4E3EB"/>
</linearGradient>
<linearGradient id="paint8_linear_943_42725" x1="501.722" y1="285.973" x2="501.722" y2="348.664" gradientUnits="userSpaceOnUse">
<stop stop-color="#139EEC"/>
<stop offset="1" stop-color="#D4E3EB"/>
</linearGradient>
<linearGradient id="paint9_linear_943_42725" x1="465.676" y1="290.285" x2="465.676" y2="352.976" gradientUnits="userSpaceOnUse">
<stop stop-color="#139EEC"/>
<stop offset="1" stop-color="#D4E3EB"/>
</linearGradient>
<linearGradient id="paint10_linear_943_42725" x1="17.0872" y1="180.402" x2="17.0872" y2="243.093" gradientUnits="userSpaceOnUse">
<stop stop-color="#139EEC"/>
<stop offset="1" stop-color="#D4E3EB"/>
</linearGradient>
<linearGradient id="paint11_linear_943_42725" x1="53.1331" y1="176.133" x2="53.1331" y2="238.824" gradientUnits="userSpaceOnUse">
<stop stop-color="#139EEC"/>
<stop offset="1" stop-color="#D4E3EB"/>
</linearGradient>
<linearGradient id="paint12_linear_943_42725" x1="503.421" y1="284.258" x2="503.421" y2="346.949" gradientUnits="userSpaceOnUse">
<stop stop-color="#139EEC"/>
<stop offset="1" stop-color="#D4E3EB"/>
</linearGradient>
<linearGradient id="paint13_linear_943_42725" x1="467.41" y1="288.527" x2="467.41" y2="351.218" gradientUnits="userSpaceOnUse">
<stop stop-color="#139EEC"/>
<stop offset="1" stop-color="#D4E3EB"/>
</linearGradient>
<linearGradient id="paint14_linear_943_42725" x1="18.8196" y1="178.66" x2="18.8196" y2="241.387" gradientUnits="userSpaceOnUse">
<stop stop-color="#139EEC"/>
<stop offset="1" stop-color="#D4E3EB"/>
</linearGradient>
<linearGradient id="paint15_linear_943_42725" x1="54.8303" y1="174.391" x2="54.8303" y2="237.082" gradientUnits="userSpaceOnUse">
<stop stop-color="#139EEC"/>
<stop offset="1" stop-color="#D4E3EB"/>
</linearGradient>
<linearGradient id="paint16_linear_943_42725" x1="505.153" y1="282.531" x2="505.153" y2="345.222" gradientUnits="userSpaceOnUse">
<stop stop-color="#139EEC"/>
<stop offset="1" stop-color="#D4E3EB"/>
</linearGradient>
<linearGradient id="paint17_linear_943_42725" x1="469.107" y1="286.801" x2="469.107" y2="349.527" gradientUnits="userSpaceOnUse">
<stop stop-color="#139EEC"/>
<stop offset="1" stop-color="#D4E3EB"/>
</linearGradient>
<linearGradient id="paint18_linear_943_42725" x1="20.5129" y1="176.984" x2="20.5129" y2="239.675" gradientUnits="userSpaceOnUse">
<stop stop-color="#139EEC"/>
<stop offset="1" stop-color="#D4E3EB"/>
</linearGradient>
<linearGradient id="paint19_linear_943_42725" x1="56.5588" y1="172.672" x2="56.5588" y2="235.398" gradientUnits="userSpaceOnUse">
<stop stop-color="#139EEC"/>
<stop offset="1" stop-color="#D4E3EB"/>
</linearGradient>
<linearGradient id="paint20_linear_943_42725" x1="506.848" y1="280.82" x2="506.848" y2="343.547" gradientUnits="userSpaceOnUse">
<stop stop-color="#139EEC"/>
<stop offset="1" stop-color="#D4E3EB"/>
</linearGradient>
<linearGradient id="paint21_linear_943_42725" x1="470.837" y1="285.133" x2="470.837" y2="347.824" gradientUnits="userSpaceOnUse">
<stop stop-color="#139EEC"/>
<stop offset="1" stop-color="#D4E3EB"/>
</linearGradient>
<linearGradient id="paint22_linear_943_42725" x1="22.2454" y1="175.25" x2="22.2454" y2="237.976" gradientUnits="userSpaceOnUse">
<stop stop-color="#139EEC"/>
<stop offset="1" stop-color="#D4E3EB"/>
</linearGradient>
<linearGradient id="paint23_linear_943_42725" x1="58.2561" y1="170.98" x2="58.2561" y2="233.672" gradientUnits="userSpaceOnUse">
<stop stop-color="#139EEC"/>
<stop offset="1" stop-color="#D4E3EB"/>
</linearGradient>
<linearGradient id="paint24_linear_943_42725" x1="508.578" y1="279.113" x2="508.578" y2="341.804" gradientUnits="userSpaceOnUse">
<stop stop-color="#139EEC"/>
<stop offset="1" stop-color="#D4E3EB"/>
</linearGradient>
<linearGradient id="paint25_linear_943_42725" x1="472.532" y1="283.383" x2="472.532" y2="346.109" gradientUnits="userSpaceOnUse">
<stop stop-color="#139EEC"/>
<stop offset="1" stop-color="#D4E3EB"/>
</linearGradient>
<linearGradient id="paint26_linear_943_42725" x1="23.9601" y1="173.547" x2="23.9601" y2="236.238" gradientUnits="userSpaceOnUse">
<stop stop-color="#139EEC"/>
<stop offset="1" stop-color="#D4E3EB"/>
</linearGradient>
<linearGradient id="paint27_linear_943_42725" x1="59.9885" y1="169.234" x2="59.9885" y2="231.961" gradientUnits="userSpaceOnUse">
<stop stop-color="#139EEC"/>
<stop offset="1" stop-color="#D4E3EB"/>
</linearGradient>
<linearGradient id="paint28_linear_943_42725" x1="510.294" y1="277.395" x2="510.294" y2="340.121" gradientUnits="userSpaceOnUse">
<stop stop-color="#139EEC"/>
<stop offset="1" stop-color="#D4E3EB"/>
</linearGradient>
<linearGradient id="paint29_linear_943_42725" x1="474.266" y1="281.707" x2="474.266" y2="344.398" gradientUnits="userSpaceOnUse">
<stop stop-color="#139EEC"/>
<stop offset="1" stop-color="#D4E3EB"/>
</linearGradient>
<linearGradient id="paint30_linear_943_42725" x1="25.6741" y1="171.816" x2="25.6741" y2="234.507" gradientUnits="userSpaceOnUse">
<stop stop-color="#139EEC"/>
<stop offset="1" stop-color="#D4E3EB"/>
</linearGradient>
<linearGradient id="paint31_linear_943_42725" x1="61.7023" y1="167.547" x2="61.7023" y2="230.238" gradientUnits="userSpaceOnUse">
<stop stop-color="#139EEC"/>
<stop offset="1" stop-color="#D4E3EB"/>
</linearGradient>
<linearGradient id="paint32_linear_943_42725" x1="512.006" y1="275.688" x2="512.006" y2="338.379" gradientUnits="userSpaceOnUse">
<stop stop-color="#139EEC"/>
<stop offset="1" stop-color="#D4E3EB"/>
</linearGradient>
<linearGradient id="paint33_linear_943_42725" x1="475.978" y1="279.957" x2="475.978" y2="342.648" gradientUnits="userSpaceOnUse">
<stop stop-color="#139EEC"/>
<stop offset="1" stop-color="#D4E3EB"/>
</linearGradient>
<linearGradient id="paint34_linear_943_42725" x1="27.3888" y1="170.129" x2="27.3888" y2="232.82" gradientUnits="userSpaceOnUse">
<stop stop-color="#139EEC"/>
<stop offset="1" stop-color="#D4E3EB"/>
</linearGradient>
<linearGradient id="paint35_linear_943_42725" x1="63.4172" y1="165.816" x2="63.4172" y2="228.507" gradientUnits="userSpaceOnUse">
<stop stop-color="#139EEC"/>
<stop offset="1" stop-color="#D4E3EB"/>
</linearGradient>
<linearGradient id="paint36_linear_943_42725" x1="513.739" y1="273.965" x2="513.739" y2="336.656" gradientUnits="userSpaceOnUse">
<stop stop-color="#139EEC"/>
<stop offset="1" stop-color="#D4E3EB"/>
</linearGradient>
<linearGradient id="paint37_linear_943_42725" x1="477.693" y1="278.277" x2="477.693" y2="340.968" gradientUnits="userSpaceOnUse">
<stop stop-color="#139EEC"/>
<stop offset="1" stop-color="#D4E3EB"/>
</linearGradient>
<linearGradient id="paint38_linear_943_42725" x1="29.1018" y1="168.375" x2="29.1018" y2="231.066" gradientUnits="userSpaceOnUse">
<stop stop-color="#139EEC"/>
<stop offset="1" stop-color="#D4E3EB"/>
</linearGradient>
<linearGradient id="paint39_linear_943_42725" x1="65.1477" y1="164.105" x2="65.1477" y2="226.797" gradientUnits="userSpaceOnUse">
<stop stop-color="#139EEC"/>
<stop offset="1" stop-color="#D4E3EB"/>
</linearGradient>
<linearGradient id="paint40_linear_943_42725" x1="515.437" y1="272.23" x2="515.437" y2="334.922" gradientUnits="userSpaceOnUse">
<stop stop-color="#139EEC"/>
<stop offset="1" stop-color="#D4E3EB"/>
</linearGradient>
<linearGradient id="paint41_linear_943_42725" x1="479.426" y1="276.5" x2="479.426" y2="339.191" gradientUnits="userSpaceOnUse">
<stop stop-color="#139EEC"/>
<stop offset="1" stop-color="#D4E3EB"/>
</linearGradient>
<linearGradient id="paint42_linear_943_42725" x1="30.8342" y1="166.648" x2="30.8342" y2="229.375" gradientUnits="userSpaceOnUse">
<stop stop-color="#139EEC"/>
<stop offset="1" stop-color="#D4E3EB"/>
</linearGradient>
<linearGradient id="paint43_linear_943_42725" x1="66.845" y1="162.379" x2="66.845" y2="225.07" gradientUnits="userSpaceOnUse">
<stop stop-color="#139EEC"/>
<stop offset="1" stop-color="#D4E3EB"/>
</linearGradient>
<linearGradient id="paint44_linear_943_42725" x1="517.167" y1="270.527" x2="517.167" y2="333.218" gradientUnits="userSpaceOnUse">
<stop stop-color="#139EEC"/>
<stop offset="1" stop-color="#D4E3EB"/>
</linearGradient>
<linearGradient id="paint45_linear_943_42725" x1="481.121" y1="274.797" x2="481.121" y2="337.523" gradientUnits="userSpaceOnUse">
<stop stop-color="#139EEC"/>
<stop offset="1" stop-color="#D4E3EB"/>
</linearGradient>
<linearGradient id="paint46_linear_943_42725" x1="32.5276" y1="164.949" x2="32.5276" y2="227.64" gradientUnits="userSpaceOnUse">
<stop stop-color="#139EEC"/>
<stop offset="1" stop-color="#D4E3EB"/>
</linearGradient>
<linearGradient id="paint47_linear_943_42725" x1="68.5735" y1="160.637" x2="68.5735" y2="223.363" gradientUnits="userSpaceOnUse">
<stop stop-color="#139EEC"/>
<stop offset="1" stop-color="#D4E3EB"/>
</linearGradient>
<linearGradient id="paint48_linear_943_42725" x1="518.864" y1="268.785" x2="518.864" y2="331.512" gradientUnits="userSpaceOnUse">
<stop stop-color="#139EEC"/>
<stop offset="1" stop-color="#D4E3EB"/>
</linearGradient>
<linearGradient id="paint49_linear_943_42725" x1="482.853" y1="273.098" x2="482.853" y2="335.789" gradientUnits="userSpaceOnUse">
<stop stop-color="#139EEC"/>
<stop offset="1" stop-color="#D4E3EB"/>
</linearGradient>
<linearGradient id="paint50_linear_943_42725" x1="34.259" y1="163.215" x2="34.259" y2="225.941" gradientUnits="userSpaceOnUse">
<stop stop-color="#139EEC"/>
<stop offset="1" stop-color="#D4E3EB"/>
</linearGradient>
<linearGradient id="paint51_linear_943_42725" x1="70.2698" y1="158.945" x2="70.2698" y2="221.636" gradientUnits="userSpaceOnUse">
<stop stop-color="#139EEC"/>
<stop offset="1" stop-color="#D4E3EB"/>
</linearGradient>
<linearGradient id="paint52_linear_943_42725" x1="520.595" y1="267.09" x2="520.595" y2="329.781" gradientUnits="userSpaceOnUse">
<stop stop-color="#139EEC"/>
<stop offset="1" stop-color="#D4E3EB"/>
</linearGradient>
<linearGradient id="paint53_linear_943_42725" x1="484.549" y1="271.359" x2="484.549" y2="334.086" gradientUnits="userSpaceOnUse">
<stop stop-color="#139EEC"/>
<stop offset="1" stop-color="#D4E3EB"/>
</linearGradient>
<linearGradient id="paint54_linear_943_42725" x1="35.9573" y1="161.531" x2="35.9573" y2="224.222" gradientUnits="userSpaceOnUse">
<stop stop-color="#139EEC"/>
<stop offset="1" stop-color="#D4E3EB"/>
</linearGradient>
<linearGradient id="paint55_linear_943_42725" x1="72.0032" y1="157.219" x2="72.0032" y2="219.945" gradientUnits="userSpaceOnUse">
<stop stop-color="#139EEC"/>
<stop offset="1" stop-color="#D4E3EB"/>
</linearGradient>
<linearGradient id="paint56_linear_943_42725" x1="522.306" y1="265.371" x2="522.306" y2="328.097" gradientUnits="userSpaceOnUse">
<stop stop-color="#139EEC"/>
<stop offset="1" stop-color="#D4E3EB"/>
</linearGradient>
<linearGradient id="paint57_linear_943_42725" x1="486.278" y1="269.684" x2="486.278" y2="332.375" gradientUnits="userSpaceOnUse">
<stop stop-color="#139EEC"/>
<stop offset="1" stop-color="#D4E3EB"/>
</linearGradient>
<linearGradient id="paint58_linear_943_42725" x1="37.6887" y1="159.805" x2="37.6887" y2="222.496" gradientUnits="userSpaceOnUse">
<stop stop-color="#139EEC"/>
<stop offset="1" stop-color="#D4E3EB"/>
</linearGradient>
<linearGradient id="paint59_linear_943_42725" x1="73.717" y1="155.535" x2="73.717" y2="218.226" gradientUnits="userSpaceOnUse">
<stop stop-color="#139EEC"/>
<stop offset="1" stop-color="#D4E3EB"/>
</linearGradient>
<linearGradient id="paint60_linear_943_42725" x1="524.021" y1="263.688" x2="524.021" y2="326.379" gradientUnits="userSpaceOnUse">
<stop stop-color="#139EEC"/>
<stop offset="1" stop-color="#D4E3EB"/>
</linearGradient>
<linearGradient id="paint61_linear_943_42725" x1="487.992" y1="267.957" x2="487.992" y2="330.683" gradientUnits="userSpaceOnUse">
<stop stop-color="#139EEC"/>
<stop offset="1" stop-color="#D4E3EB"/>
</linearGradient>
<linearGradient id="paint62_linear_943_42725" x1="39.4035" y1="158.129" x2="39.4035" y2="220.82" gradientUnits="userSpaceOnUse">
<stop stop-color="#139EEC"/>
<stop offset="1" stop-color="#D4E3EB"/>
</linearGradient>
<linearGradient id="paint63_linear_943_42725" x1="75.4319" y1="153.816" x2="75.4319" y2="216.543" gradientUnits="userSpaceOnUse">
<stop stop-color="#139EEC"/>
<stop offset="1" stop-color="#D4E3EB"/>
</linearGradient>
<linearGradient id="paint64_linear_943_42725" x1="525.735" y1="261.938" x2="525.735" y2="324.664" gradientUnits="userSpaceOnUse">
<stop stop-color="#139EEC"/>
<stop offset="1" stop-color="#D4E3EB"/>
</linearGradient>
<linearGradient id="paint65_linear_943_42725" x1="489.707" y1="266.25" x2="489.707" y2="328.941" gradientUnits="userSpaceOnUse">
<stop stop-color="#139EEC"/>
<stop offset="1" stop-color="#D4E3EB"/>
</linearGradient>
<linearGradient id="paint66_linear_943_42725" x1="41.1165" y1="156.371" x2="41.1165" y2="219.062" gradientUnits="userSpaceOnUse">
<stop stop-color="#139EEC"/>
<stop offset="1" stop-color="#D4E3EB"/>
</linearGradient>
<linearGradient id="paint67_linear_943_42725" x1="77.1447" y1="152.102" x2="77.1447" y2="214.793" gradientUnits="userSpaceOnUse">
<stop stop-color="#139EEC"/>
<stop offset="1" stop-color="#D4E3EB"/>
</linearGradient>
<linearGradient id="paint68_linear_943_42725" x1="527.45" y1="260.258" x2="527.45" y2="322.949" gradientUnits="userSpaceOnUse">
<stop stop-color="#139EEC"/>
<stop offset="1" stop-color="#D4E3EB"/>
</linearGradient>
<linearGradient id="paint69_linear_943_42725" x1="491.422" y1="264.527" x2="491.422" y2="327.218" gradientUnits="userSpaceOnUse">
<stop stop-color="#139EEC"/>
<stop offset="1" stop-color="#D4E3EB"/>
</linearGradient>
<linearGradient id="paint70_linear_943_42725" x1="42.8312" y1="154.656" x2="42.8312" y2="217.383" gradientUnits="userSpaceOnUse">
<stop stop-color="#139EEC"/>
<stop offset="1" stop-color="#D4E3EB"/>
</linearGradient>
<linearGradient id="paint71_linear_943_42725" x1="78.8596" y1="150.387" x2="78.8596" y2="213.078" gradientUnits="userSpaceOnUse">
<stop stop-color="#139EEC"/>
<stop offset="1" stop-color="#D4E3EB"/>
</linearGradient>
<linearGradient id="paint72_linear_943_42725" x1="529.179" y1="258.535" x2="529.179" y2="321.226" gradientUnits="userSpaceOnUse">
<stop stop-color="#139EEC"/>
<stop offset="1" stop-color="#D4E3EB"/>
</linearGradient>
<linearGradient id="paint73_linear_943_42725" x1="493.133" y1="262.848" x2="493.133" y2="325.539" gradientUnits="userSpaceOnUse">
<stop stop-color="#139EEC"/>
<stop offset="1" stop-color="#D4E3EB"/>
</linearGradient>
<linearGradient id="paint74_linear_943_42725" x1="44.5432" y1="152.969" x2="44.5432" y2="215.66" gradientUnits="userSpaceOnUse">
<stop stop-color="#139EEC"/>
<stop offset="1" stop-color="#D4E3EB"/>
</linearGradient>
<linearGradient id="paint75_linear_943_42725" x1="80.5891" y1="148.699" x2="80.5891" y2="211.39" gradientUnits="userSpaceOnUse">
<stop stop-color="#139EEC"/>
<stop offset="1" stop-color="#D4E3EB"/>
</linearGradient>
<linearGradient id="paint76_linear_943_42725" x1="530.877" y1="256.809" x2="530.877" y2="319.5" gradientUnits="userSpaceOnUse">
<stop stop-color="#139EEC"/>
<stop offset="1" stop-color="#D4E3EB"/>
</linearGradient>
<linearGradient id="paint77_linear_943_42725" x1="494.866" y1="261.078" x2="494.866" y2="323.769" gradientUnits="userSpaceOnUse">
<stop stop-color="#139EEC"/>
<stop offset="1" stop-color="#D4E3EB"/>
</linearGradient>
<linearGradient id="paint78_linear_943_42725" x1="46.2747" y1="151.215" x2="46.2747" y2="213.941" gradientUnits="userSpaceOnUse">
<stop stop-color="#139EEC"/>
<stop offset="1" stop-color="#D4E3EB"/>
</linearGradient>
<linearGradient id="paint79_linear_943_42725" x1="82.2854" y1="146.945" x2="82.2854" y2="209.636" gradientUnits="userSpaceOnUse">
<stop stop-color="#139EEC"/>
<stop offset="1" stop-color="#D4E3EB"/>
</linearGradient>
<linearGradient id="paint80_linear_943_42725" x1="532.61" y1="255.094" x2="532.61" y2="317.785" gradientUnits="userSpaceOnUse">
<stop stop-color="#139EEC"/>
<stop offset="1" stop-color="#D4E3EB"/>
</linearGradient>
<linearGradient id="paint81_linear_943_42725" x1="496.564" y1="259.363" x2="496.564" y2="322.09" gradientUnits="userSpaceOnUse">
<stop stop-color="#139EEC"/>
<stop offset="1" stop-color="#D4E3EB"/>
</linearGradient>
<linearGradient id="paint82_linear_943_42725" x1="47.9719" y1="149.547" x2="47.9719" y2="212.238" gradientUnits="userSpaceOnUse">
<stop stop-color="#139EEC"/>
<stop offset="1" stop-color="#D4E3EB"/>
</linearGradient>
<linearGradient id="paint83_linear_943_42725" x1="84.0178" y1="145.234" x2="84.0178" y2="207.961" gradientUnits="userSpaceOnUse">
<stop stop-color="#139EEC"/>
<stop offset="1" stop-color="#D4E3EB"/>
</linearGradient>
<linearGradient id="paint84_linear_943_42725" x1="534.306" y1="253.34" x2="534.306" y2="316.066" gradientUnits="userSpaceOnUse">
<stop stop-color="#139EEC"/>
<stop offset="1" stop-color="#D4E3EB"/>
</linearGradient>
<linearGradient id="paint85_linear_943_42725" x1="498.295" y1="257.652" x2="498.295" y2="320.343" gradientUnits="userSpaceOnUse">
<stop stop-color="#139EEC"/>
<stop offset="1" stop-color="#D4E3EB"/>
</linearGradient>
<linearGradient id="paint86_linear_943_42725" x1="49.7034" y1="147.785" x2="49.7034" y2="210.512" gradientUnits="userSpaceOnUse">
<stop stop-color="#139EEC"/>
<stop offset="1" stop-color="#D4E3EB"/>
</linearGradient>
<linearGradient id="paint87_linear_943_42725" x1="85.7141" y1="143.516" x2="85.7141" y2="206.207" gradientUnits="userSpaceOnUse">
<stop stop-color="#139EEC"/>
<stop offset="1" stop-color="#D4E3EB"/>
</linearGradient>
<linearGradient id="paint88_linear_943_42725" x1="536.035" y1="251.641" x2="536.035" y2="314.332" gradientUnits="userSpaceOnUse">
<stop stop-color="#139EEC"/>
<stop offset="1" stop-color="#D4E3EB"/>
</linearGradient>
<linearGradient id="paint89_linear_943_42725" x1="499.99" y1="255.91" x2="499.99" y2="318.637" gradientUnits="userSpaceOnUse">
<stop stop-color="#139EEC"/>
<stop offset="1" stop-color="#D4E3EB"/>
</linearGradient>
<linearGradient id="paint90_linear_943_42725" x1="51.3997" y1="146.098" x2="51.3997" y2="208.789" gradientUnits="userSpaceOnUse">
<stop stop-color="#139EEC"/>
<stop offset="1" stop-color="#D4E3EB"/>
</linearGradient>
<linearGradient id="paint91_linear_943_42725" x1="87.4456" y1="141.785" x2="87.4456" y2="204.512" gradientUnits="userSpaceOnUse">
<stop stop-color="#139EEC"/>
<stop offset="1" stop-color="#D4E3EB"/>
</linearGradient>
<linearGradient id="paint92_linear_943_42725" x1="537.75" y1="249.941" x2="537.75" y2="312.668" gradientUnits="userSpaceOnUse">
<stop stop-color="#139EEC"/>
<stop offset="1" stop-color="#D4E3EB"/>
</linearGradient>
<linearGradient id="paint93_linear_943_42725" x1="501.722" y1="254.254" x2="501.722" y2="316.945" gradientUnits="userSpaceOnUse">
<stop stop-color="#139EEC"/>
<stop offset="1" stop-color="#D4E3EB"/>
</linearGradient>
<linearGradient id="paint94_linear_943_42725" x1="53.1311" y1="144.371" x2="53.1311" y2="207.062" gradientUnits="userSpaceOnUse">
<stop stop-color="#139EEC"/>
<stop offset="1" stop-color="#D4E3EB"/>
</linearGradient>
<linearGradient id="paint95_linear_943_42725" x1="89.1593" y1="140.102" x2="89.1593" y2="202.793" gradientUnits="userSpaceOnUse">
<stop stop-color="#139EEC"/>
<stop offset="1" stop-color="#D4E3EB"/>
</linearGradient>
<linearGradient id="paint96_linear_943_42725" x1="539.469" y1="248.219" x2="539.469" y2="310.91" gradientUnits="userSpaceOnUse">
<stop stop-color="#139EEC"/>
<stop offset="1" stop-color="#D4E3EB"/>
</linearGradient>
<linearGradient id="paint97_linear_943_42725" x1="503.441" y1="252.488" x2="503.441" y2="315.179" gradientUnits="userSpaceOnUse">
<stop stop-color="#139EEC"/>
<stop offset="1" stop-color="#D4E3EB"/>
</linearGradient>
<linearGradient id="paint98_linear_943_42725" x1="54.8459" y1="142.672" x2="54.8459" y2="205.363" gradientUnits="userSpaceOnUse">
<stop stop-color="#139EEC"/>
<stop offset="1" stop-color="#D4E3EB"/>
</linearGradient>
<linearGradient id="paint99_linear_943_42725" x1="90.8743" y1="138.359" x2="90.8743" y2="201.05" gradientUnits="userSpaceOnUse">
<stop stop-color="#139EEC"/>
<stop offset="1" stop-color="#D4E3EB"/>
</linearGradient>
<linearGradient id="paint100_linear_943_42725" x1="553.872" y1="371.784" x2="565.437" y2="217.878" gradientUnits="userSpaceOnUse">
<stop stop-color="#139EEC"/>
<stop offset="0.876198" stop-color="#3465AF"/>
</linearGradient>
<linearGradient id="paint101_linear_943_42725" x1="517.84" y1="376.13" x2="529.433" y2="222.14" gradientUnits="userSpaceOnUse">
<stop stop-color="#139EEC"/>
<stop offset="0.876198" stop-color="#3465AF"/>
</linearGradient>
<linearGradient id="paint102_linear_943_42725" x1="69.2502" y1="266.237" x2="80.8301" y2="112.333" gradientUnits="userSpaceOnUse">
<stop stop-color="#139EEC"/>
<stop offset="0.876198" stop-color="#3465AF"/>
</linearGradient>
<linearGradient id="paint103_linear_943_42725" x1="105.282" y1="262.001" x2="116.86" y2="108.009" gradientUnits="userSpaceOnUse">
<stop stop-color="#139EEC"/>
<stop offset="0.876198" stop-color="#3465AF"/>
</linearGradient>
</defs>
</svg>
