<svg width="66" height="44" viewBox="0 0 66 44" fill="none" xmlns="http://www.w3.org/2000/svg">
<path d="M58.9466 0.277344H6.52995C3.12419 0.277344 0.363281 3.03825 0.363281 6.44401V37.2773C0.363281 40.6831 3.12419 43.444 6.52995 43.444H58.9466C62.3524 43.444 65.1133 40.6831 65.1133 37.2773V6.44401C65.1133 3.03825 62.3524 0.277344 58.9466 0.277344Z" fill="#60B7FF"/>
<path d="M14.5479 6.44336H7.76458C7.08343 6.44336 6.53125 6.99554 6.53125 7.67669V14.46C6.53125 15.1412 7.08343 15.6934 7.76458 15.6934H14.5479C15.2291 15.6934 15.7812 15.1412 15.7812 14.46V7.67669C15.7812 6.99554 15.2291 6.44336 14.5479 6.44336Z" fill="#EFEDEF"/>
<path d="M25.0299 38.8184H21.9466C21.5377 38.8184 21.1456 38.6559 20.8565 38.3668C20.5674 38.0777 20.4049 37.6856 20.4049 37.2767C20.4049 36.8678 20.5674 36.4757 20.8565 36.1866C21.1456 35.8974 21.5377 35.735 21.9466 35.735H25.0299C25.4388 35.735 25.831 35.8974 26.1201 36.1866C26.4092 36.4757 26.5716 36.8678 26.5716 37.2767C26.5716 37.6856 26.4092 38.0777 26.1201 38.3668C25.831 38.6559 25.4388 38.8184 25.0299 38.8184ZM34.2799 38.8184H31.1966C30.7877 38.8184 30.3956 38.6559 30.1065 38.3668C29.8174 38.0777 29.6549 37.6856 29.6549 37.2767C29.6549 36.8678 29.8174 36.4757 30.1065 36.1866C30.3956 35.8974 30.7877 35.735 31.1966 35.735H34.2799C34.6888 35.735 35.081 35.8974 35.3701 36.1866C35.6592 36.4757 35.8216 36.8678 35.8216 37.2767C35.8216 37.6856 35.6592 38.0777 35.3701 38.3668C35.081 38.6559 34.6888 38.8184 34.2799 38.8184ZM12.6966 23.4017H6.52995C6.12107 23.4017 5.72894 23.2393 5.43983 22.9502C5.15071 22.661 4.98828 22.2689 4.98828 21.86C4.98828 21.4512 5.15071 21.059 5.43983 20.7699C5.72894 20.4808 6.12107 20.3184 6.52995 20.3184H12.6966C13.1055 20.3184 13.4976 20.4808 13.7867 20.7699C14.0759 21.059 14.2383 21.4512 14.2383 21.86C14.2383 22.2689 14.0759 22.661 13.7867 22.9502C13.4976 23.2393 13.1055 23.4017 12.6966 23.4017ZM25.0299 23.4017H18.8633C18.4544 23.4017 18.0623 23.2393 17.7732 22.9502C17.484 22.661 17.3216 22.2689 17.3216 21.86C17.3216 21.4512 17.484 21.059 17.7732 20.7699C18.0623 20.4808 18.4544 20.3184 18.8633 20.3184H25.0299C25.4388 20.3184 25.831 20.4808 26.1201 20.7699C26.4092 21.059 26.5716 21.4512 26.5716 21.86C26.5716 22.2689 26.4092 22.661 26.1201 22.9502C25.831 23.2393 25.4388 23.4017 25.0299 23.4017ZM37.3633 23.4017H31.1966C30.7877 23.4017 30.3956 23.2393 30.1065 22.9502C29.8174 22.661 29.6549 22.2689 29.6549 21.86C29.6549 21.4512 29.8174 21.059 30.1065 20.7699C30.3956 20.4808 30.7877 20.3184 31.1966 20.3184H37.3633C37.7722 20.3184 38.1643 20.4808 38.4534 20.7699C38.7425 21.059 38.9049 21.4512 38.9049 21.86C38.9049 22.2689 38.7425 22.661 38.4534 22.9502C38.1643 23.2393 37.7722 23.4017 37.3633 23.4017ZM49.6966 23.4017H43.5299C43.1211 23.4017 42.7289 23.2393 42.4398 22.9502C42.1507 22.661 41.9883 22.2689 41.9883 21.86C41.9883 21.4512 42.1507 21.059 42.4398 20.7699C42.7289 20.4808 43.1211 20.3184 43.5299 20.3184H49.6966C50.1055 20.3184 50.4976 20.4808 50.7867 20.7699C51.0759 21.059 51.2383 21.4512 51.2383 21.86C51.2383 22.2689 51.0759 22.661 50.7867 22.9502C50.4976 23.2393 50.1055 23.4017 49.6966 23.4017Z" fill="#EFEDEF"/>
<path d="M57.7146 31.1113H44.7646C44.0834 31.1113 43.5312 31.6635 43.5312 32.3447V36.0447C43.5312 36.7258 44.0834 37.278 44.7646 37.278H57.7146C58.3957 37.278 58.9479 36.7258 58.9479 36.0447V32.3447C58.9479 31.6635 58.3957 31.1113 57.7146 31.1113Z" fill="#EFEDEF"/>
</svg>
