<svg width="251" height="42" viewBox="0 0 251 42" fill="none" xmlns="http://www.w3.org/2000/svg">
<path d="M18.127 30.8837V40.1952H18.5075V30.4258C18.3933 30.6166 18.2792 30.6547 18.127 30.8837Z" fill="#A5A5A5"/>
<path d="M33.4695 11.9561L26.6582 15.8485C26.6582 16.0011 26.6582 16.1538 26.6582 16.2683L33.6598 12.2995L33.4695 11.9561Z" fill="#A5A5A5"/>
<path d="M9.68562 25.58L1.39029 30.312V11.8802L10.3706 17.0701C10.4847 16.9938 10.5608 16.8793 10.675 16.803L1.00977 11.2314V30.9608L9.64757 25.9998C9.68562 25.8472 9.68562 25.7327 9.68562 25.58Z" fill="#A5A5A5"/>
<path d="M18.127 1.65234V11.1163C18.2411 11.1163 18.3933 11.1163 18.5075 11.1545V2.33924L34.6796 12.223V29.2047L33.538 30.0442L26.6506 26.0373C26.6506 26.19 26.6506 26.3426 26.6506 26.4953L33.5761 30.5022L35.0981 29.4337V12.0322L18.127 1.65234Z" fill="#A5A5A5"/>
<path d="M19.3456 20.0469C19.3075 20.1614 19.2695 20.3522 19.1934 20.543L19.3456 20.4666C19.3456 20.314 19.3456 20.1614 19.3456 20.0469Z" fill="#A5A5A5"/>
<path d="M19.4632 21.8782L18.8163 21.4966C18.7782 21.6111 18.7021 21.7255 18.6641 21.84L19.5393 22.3361C19.5012 22.1835 19.4632 22.0308 19.4632 21.8782Z" fill="#A5A5A5"/>
<path d="M18.1705 41.8365L0.171875 31.4566V10.6206L18.1705 0.202637L36.1691 10.6206V31.4566L18.1705 41.8365ZM2.64525 30.0065L18.1705 39.0125L33.6576 30.0065V12.0326L18.1705 3.06472L2.64525 12.0326V30.0065Z" fill="url(#paint0_linear_6000_88720)"/>
<path d="M18.8888 21.6113C17.9756 22.7562 16.9862 23.901 16.3774 25.2748C16.3394 25.3893 16.073 26.2288 16.073 26.3433C15.9208 27.6408 16.4916 28.6711 17.6712 29.1291C17.7853 29.1672 18.8127 29.1672 19.3455 28.6711C19.4216 28.5948 19.4977 28.5185 19.6118 28.4422C19.6118 28.4422 20.2207 27.8698 20.4109 26.3433C20.6012 24.7024 19.9923 23.1759 19.3455 21.6876C19.2313 21.4205 19.041 21.4205 18.8888 21.6113Z" fill="#49AA4C"/>
<path d="M7.70898 20.6574C8.24171 20.1613 8.73639 19.6652 9.30717 19.2073C11.8566 17.0702 14.4442 14.9332 16.9937 12.758C17.7547 12.1093 18.5538 12.1093 19.3148 12.758C20.19 13.4831 21.0652 14.2463 21.9404 14.9714C22.0165 15.0477 22.1307 15.124 22.2829 15.2385C22.2829 14.4371 22.2829 13.7121 22.2829 12.987C22.2829 12.4527 22.359 12.3383 22.9298 12.3383C23.6147 12.3383 24.2997 12.3383 25.0226 12.3383C25.4793 12.3383 25.5934 12.4527 25.5934 12.9107C25.5934 14.5135 25.5934 16.1162 25.5934 17.6808C25.5934 17.8716 25.7076 18.1006 25.8598 18.2151C26.6589 18.902 27.458 19.5507 28.2571 20.2376C28.3712 20.3521 28.4854 20.5048 28.5995 20.6192C28.5995 20.6574 28.5995 20.7337 28.5995 20.7719C28.3332 21.1153 28.0668 21.4206 27.8004 21.7259C27.496 22.0694 27.3058 22.1075 26.9633 21.8022C25.289 20.3903 23.6147 19.0165 21.9404 17.6045C20.7608 16.6505 19.6193 15.6583 18.4396 14.6661C18.2494 14.5135 18.1352 14.5135 17.945 14.6661C15.1291 17.0321 12.3133 19.3599 9.49743 21.7259C9.0408 22.1075 8.85054 22.1075 8.47002 21.6496C8.20366 21.3443 7.97534 21.0008 7.74703 20.6956C7.70898 20.7337 7.70898 20.6956 7.70898 20.6574Z" fill="url(#paint1_linear_6000_88720)"/>
<path d="M18.1681 15.6572C19.9185 17.1074 21.6308 18.5193 23.3812 19.9694C24.0281 20.5037 24.7131 21.0379 25.3599 21.6104C25.4741 21.7249 25.5883 21.9157 25.5883 22.0683C25.5883 24.0527 25.5883 26.0371 25.5883 28.0214C25.5883 28.5175 25.2838 28.861 24.8272 28.861C23.229 28.861 21.6308 28.861 20.0327 28.861C19.9566 28.861 19.1194 28.8228 19.0053 28.8228C20.6795 27.3727 20.6034 25.6173 19.7663 23.9382C19.2336 22.0301 19.6902 20.4274 17.1027 23.9382C15.7708 25.4265 15.8089 28.0596 17.331 28.8228C17.1788 28.8228 16.1894 28.861 16.0753 28.861C14.5912 28.861 13.0691 28.861 11.5851 28.861C10.9763 28.861 10.7099 28.5939 10.6719 27.9451C10.6719 25.9989 10.6719 24.0527 10.6719 22.1065C10.6719 21.9538 10.786 21.7249 10.9002 21.6104C13.3355 19.6641 15.7328 17.6798 18.1681 15.6572Z" fill="url(#paint2_linear_6000_88720)"/>
<path d="M18.8888 21.6113C17.9756 22.7562 16.9862 23.901 16.3774 25.2748C16.3394 25.3893 16.073 26.2288 16.073 26.3433C15.9208 27.6408 16.4916 28.6711 17.6712 29.1291C17.7092 29.1291 17.7473 28.8238 17.6331 28.7475C16.6057 28.175 16.1872 27.3355 16.4535 26.1525C16.7199 25.0458 17.3668 24.13 18.0136 23.2141C18.3181 22.7943 18.6605 22.3745 19.0411 21.9166C19.6879 23.5194 20.2207 25.084 19.9924 26.7631C19.8782 27.4881 19.6118 28.0987 19.003 28.5185C18.9269 28.5567 19.003 28.9764 19.3455 28.6711C19.4216 28.5948 19.4977 28.5185 19.6118 28.4422C19.6118 28.4422 20.2207 27.8698 20.4109 26.3433C20.6012 24.7024 19.9923 23.1759 19.3455 21.6876C19.2313 21.4205 19.041 21.4205 18.8888 21.6113Z" fill="url(#paint3_linear_6000_88720)"/>
<path d="M18.7004 23.3667C18.434 25.4656 18.434 27.5644 18.6243 29.6251C18.6243 29.7396 18.3199 29.7778 18.3199 29.6633C18.0916 27.8316 18.0916 26.038 18.4721 24.2444C18.4721 23.9773 18.5862 23.672 18.7004 23.3667Z" fill="url(#paint4_linear_6000_88720)"/>
<path d="M44.8203 18.4085C44.8203 16.5229 45.2542 14.8548 46.122 13.4043C46.9899 11.9537 48.1469 10.7933 49.6656 9.92303C51.1843 9.05272 52.7753 8.69009 54.5833 8.69009C56.6082 8.69009 58.4161 9.19777 60.0071 10.2131C61.5981 11.2285 62.7552 12.6065 63.4784 14.4196H59.7179C59.2116 13.4043 58.5608 12.679 57.6929 12.1713C56.8251 11.6636 55.8127 11.4461 54.6556 11.4461C53.4262 11.4461 52.2691 11.7362 51.2566 12.3164C50.2442 12.8966 49.521 13.6944 48.9424 14.7822C48.3639 15.8701 48.1469 17.1031 48.1469 18.4811C48.1469 19.859 48.4362 21.092 48.9424 22.1799C49.521 23.2677 50.3165 24.0655 51.2566 24.6457C52.2691 25.2259 53.3539 25.516 54.6556 25.516C55.8127 25.516 56.8251 25.2985 57.6929 24.7908C58.5608 24.2831 59.2839 23.5579 59.7179 22.5425H63.4784C62.7552 24.3556 61.5981 25.8061 60.0071 26.749C58.4161 27.7643 56.6082 28.1995 54.5833 28.1995C52.7753 28.1995 51.1843 27.7643 49.6656 26.9666C48.2193 26.0962 46.9899 24.9358 46.122 23.4853C45.2542 21.9623 44.8203 20.2942 44.8203 18.4085ZM66.0819 20.3667C66.0819 18.8437 66.3711 17.5382 67.022 16.3053C67.6729 15.1449 68.5407 14.202 69.6254 13.6218C70.7102 12.9691 71.9396 12.6065 73.2413 12.6065C74.3984 12.6065 75.4832 12.8241 76.351 13.3317C77.2188 13.7669 77.942 14.3471 78.5206 15.0724V12.8966H81.7026V27.9819H78.5206V25.7336C78.0143 26.4589 77.2912 27.0391 76.351 27.5468C75.4109 28.0544 74.3984 28.272 73.2413 28.272C71.9396 28.272 70.7825 27.9094 69.6978 27.2567C68.613 26.6039 67.7452 25.6611 67.0943 24.4282C66.3711 23.2677 66.0819 21.8898 66.0819 20.3667ZM78.4483 20.4392C78.4483 19.4239 78.2313 18.4811 77.7974 17.7558C77.3635 16.958 76.7849 16.3778 76.1341 16.0152C75.4109 15.58 74.6877 15.435 73.8922 15.435C73.0967 15.435 72.3735 15.6526 71.6503 16.0152C70.9272 16.3778 70.4209 16.958 69.9147 17.7558C69.4808 18.4811 69.2638 19.4239 69.2638 20.4392C69.2638 21.4546 69.4808 22.3974 69.9147 23.1952C70.3486 23.993 70.9272 24.5732 71.6503 25.0084C72.3735 25.4435 73.0967 25.5886 73.8922 25.5886C74.6877 25.5886 75.4832 25.371 76.1341 25.0084C76.8573 24.5732 77.3635 23.993 77.7974 23.2677C78.2313 22.3974 78.4483 21.4546 78.4483 20.4392ZM88.8621 15.0724C89.296 14.2746 89.9468 13.6944 90.67 13.2592C91.4655 12.8241 92.3333 12.6065 93.4181 12.6065V15.8701H92.6226C91.3932 15.8701 90.4531 16.1602 89.8022 16.813C89.1513 17.4657 88.8621 18.4811 88.8621 20.0766V28.0544H85.7524V12.8966H88.8621V15.0724ZM99.3482 15.1449C99.8544 14.4196 100.578 13.8394 101.518 13.3317C102.458 12.8241 103.47 12.6065 104.627 12.6065C105.929 12.6065 107.159 12.8966 108.243 13.5493C109.328 14.202 110.196 15.0723 110.774 16.3053C111.425 17.4657 111.715 18.8437 111.715 20.3667C111.715 21.8898 111.425 23.2677 110.774 24.4282C110.124 25.5886 109.328 26.5314 108.171 27.2567C107.086 27.9094 105.929 28.272 104.555 28.272C103.398 28.272 102.313 28.0544 101.445 27.6193C100.578 27.1841 99.8544 26.6039 99.2759 25.8787V28.0544H96.1662V7.74726H99.2759V15.1449H99.3482ZM108.533 20.3667C108.533 19.3514 108.316 18.4085 107.882 17.6833C107.448 16.8855 106.869 16.3053 106.146 15.9427C105.423 15.5075 104.7 15.3624 103.904 15.3624C103.109 15.3624 102.386 15.58 101.662 15.9427C100.939 16.3778 100.433 16.958 99.9268 17.6833C99.4928 18.481 99.2759 19.3514 99.2759 20.3667C99.2759 21.3821 99.4928 22.3249 99.9268 23.1227C100.361 23.9205 100.939 24.5007 101.662 24.8633C102.386 25.2985 103.109 25.4435 103.904 25.4435C104.7 25.4435 105.495 25.2259 106.146 24.8633C106.869 24.4282 107.448 23.848 107.882 23.0502C108.316 22.3249 108.533 21.4546 108.533 20.3667ZM121.405 28.272C119.959 28.272 118.657 27.9819 117.5 27.3292C116.343 26.6764 115.475 25.7336 114.752 24.5732C114.101 23.4128 113.74 22.0348 113.74 20.4392C113.74 18.9162 114.101 17.5382 114.752 16.3778C115.403 15.2174 116.343 14.2746 117.5 13.6218C118.657 12.9691 119.959 12.679 121.405 12.679C122.852 12.679 124.153 12.9691 125.31 13.6218C126.468 14.2746 127.408 15.1449 128.059 16.3778C128.709 17.5382 129.071 18.9162 129.071 20.4392C129.071 21.9623 128.709 23.3403 128.059 24.5007C127.335 25.6611 126.395 26.6039 125.238 27.2567C124.153 27.9094 122.852 28.272 121.405 28.272ZM121.405 25.516C122.201 25.516 122.924 25.2985 123.647 24.9358C124.37 24.5732 124.949 23.993 125.383 23.1952C125.817 22.3974 126.034 21.5271 126.034 20.3667C126.034 19.2788 125.817 18.336 125.383 17.6107C124.949 16.813 124.37 16.2328 123.719 15.8701C122.996 15.5075 122.273 15.2899 121.478 15.2899C120.682 15.2899 119.959 15.5075 119.236 15.8701C118.585 16.2328 118.006 16.813 117.645 17.6107C117.211 18.336 117.066 19.2788 117.066 20.3667C117.066 21.9623 117.5 23.2677 118.296 24.1381C119.091 25.0809 120.104 25.516 121.405 25.516ZM139.919 12.679C141.076 12.679 142.161 12.8966 143.101 13.4043C144.041 13.9119 144.764 14.6372 145.343 15.58C145.849 16.5229 146.138 17.6833 146.138 19.0613V27.9819H143.028V19.5689C143.028 18.191 142.667 17.1756 142.016 16.4503C141.365 15.7251 140.425 15.3624 139.268 15.3624C138.111 15.3624 137.171 15.7251 136.447 16.4503C135.797 17.1756 135.435 18.191 135.435 19.5689V27.9819H132.325V12.8966H135.435V14.6372C135.941 13.9845 136.592 13.5493 137.388 13.1867C138.183 12.8241 139.051 12.679 139.919 12.679ZM161.759 16.7404V19.4239H150.477V16.813H161.759V16.7404ZM177.669 24.1381H169.714L168.34 28.0544H165.085L171.883 8.9802H175.499L182.297 28.0544H178.97L177.669 24.1381ZM176.801 21.5997L173.691 12.7515L170.582 21.5997H176.801ZM184.25 20.3667C184.25 18.8437 184.539 17.5382 185.19 16.3053C185.841 15.1449 186.709 14.202 187.793 13.6218C188.878 12.9691 190.107 12.6065 191.409 12.6065C192.422 12.6065 193.362 12.8241 194.302 13.2592C195.242 13.6944 196.038 14.2746 196.616 14.9273V7.74726H199.798V28.0544H196.616V25.8061C196.11 26.5314 195.387 27.1116 194.447 27.6193C193.579 28.127 192.494 28.3445 191.337 28.3445C190.035 28.3445 188.806 27.9819 187.721 27.3292C186.636 26.6764 185.768 25.7336 185.118 24.5007C184.611 23.2677 184.25 21.8898 184.25 20.3667ZM196.688 20.4392C196.688 19.4239 196.471 18.4811 196.038 17.7558C195.604 16.958 195.025 16.3778 194.374 16.0152C193.651 15.58 192.928 15.435 192.132 15.435C191.337 15.435 190.614 15.6526 189.891 16.0152C189.167 16.3778 188.661 16.958 188.155 17.7558C187.721 18.4811 187.504 19.4239 187.504 20.4392C187.504 21.4546 187.721 22.3974 188.155 23.1952C188.589 23.993 189.167 24.5732 189.891 25.0084C190.614 25.4435 191.337 25.5886 192.132 25.5886C192.928 25.5886 193.651 25.371 194.374 25.0084C195.097 24.5732 195.604 23.993 196.038 23.2677C196.471 22.3974 196.688 21.4546 196.688 20.4392ZM205.511 10.9384C204.933 10.9384 204.499 10.7208 204.065 10.3582C203.703 9.99556 203.486 9.48788 203.486 8.90767C203.486 8.32747 203.703 7.89231 204.065 7.45716C204.426 7.09453 204.933 6.87695 205.511 6.87695C206.09 6.87695 206.524 7.09453 206.885 7.45716C207.247 7.81979 207.464 8.32747 207.464 8.90767C207.464 9.48788 207.247 9.92303 206.885 10.3582C206.524 10.7208 206.09 10.9384 205.511 10.9384ZM207.03 30.9555C207.03 32.406 206.668 33.4939 205.873 34.1466C205.15 34.7993 204.065 35.1619 202.691 35.1619H201.1V32.551H202.185C202.835 32.551 203.269 32.406 203.559 32.1884C203.848 31.9708 203.993 31.5357 203.993 30.9555V12.8966H207.102V30.9555H207.03ZM224.82 12.8966V27.9819H221.711V26.1688C221.204 26.8215 220.553 27.2567 219.758 27.6193C218.962 27.9819 218.095 28.127 217.227 28.127C216.07 28.127 214.985 27.9094 214.045 27.4017C213.105 26.894 212.381 26.1688 211.803 25.2259C211.297 24.2831 211.007 23.1227 211.007 21.7447V12.8966H214.117V21.3095C214.117 22.6875 214.479 23.7029 215.13 24.4282C215.78 25.1534 216.721 25.516 217.878 25.516C219.035 25.516 219.975 25.1534 220.626 24.4282C221.349 23.7029 221.638 22.6875 221.638 21.3095V12.8966H224.82ZM234.439 28.272C233.281 28.272 232.197 28.0544 231.257 27.6193C230.316 27.1841 229.593 26.6039 229.015 25.8787C228.436 25.1534 228.147 24.2831 228.147 23.4128H231.401C231.473 24.0655 231.763 24.5732 232.341 25.0084C232.92 25.4435 233.643 25.6611 234.439 25.6611C235.306 25.6611 235.957 25.516 236.463 25.1534C236.97 24.7908 237.187 24.3556 237.187 23.8479C237.187 23.2677 236.897 22.8326 236.391 22.615C235.885 22.3249 235.017 22.0348 233.86 21.7447C232.703 21.4546 231.835 21.1645 231.112 20.8744C230.389 20.5843 229.81 20.1491 229.232 19.4964C228.725 18.9162 228.436 18.1184 228.436 17.1031C228.436 16.3053 228.653 15.58 229.159 14.9273C229.666 14.2746 230.316 13.6944 231.184 13.3317C232.052 12.9691 233.137 12.7515 234.222 12.7515C235.957 12.7515 237.331 13.1867 238.344 14.057C239.428 14.9273 240.007 16.0877 240.079 17.6107H236.97C236.897 16.958 236.608 16.3778 236.174 16.0152C235.668 15.58 235.017 15.435 234.149 15.435C233.354 15.435 232.703 15.58 232.269 15.8701C231.835 16.1602 231.618 16.5954 231.618 17.1031C231.618 17.5382 231.763 17.8283 232.052 18.1184C232.341 18.4085 232.703 18.6261 233.137 18.7712C233.571 18.9162 234.149 19.1338 235.017 19.3514C236.102 19.6415 237.042 19.9316 237.693 20.2217C238.416 20.5118 238.995 20.9469 239.501 21.5271C240.007 22.1073 240.296 22.9051 240.296 23.8479C240.296 24.7183 240.079 25.4435 239.573 26.1688C239.067 26.8215 238.416 27.4017 237.548 27.7643C236.68 28.0544 235.596 28.272 234.439 28.272ZM247.311 15.435V23.7754C247.311 24.3556 247.456 24.7183 247.673 25.0084C247.962 25.2259 248.396 25.371 249.047 25.371H250.999V27.9819H248.541C247.167 27.9819 246.082 27.6193 245.286 26.9666C244.563 26.3138 244.129 25.2259 244.129 23.7754V15.435H242.321V12.8966H244.129V9.12525H247.311V12.8966H250.999V15.435H247.311Z" fill="#212529"/>
<defs>
<linearGradient id="paint0_linear_6000_88720" x1="1.04136" y1="2.61454" x2="35.0115" y2="38.9613" gradientUnits="userSpaceOnUse">
<stop stop-color="#2E599A"/>
<stop offset="1" stop-color="#4D94FE"/>
</linearGradient>
<linearGradient id="paint1_linear_6000_88720" x1="16.2246" y1="11.4782" x2="18.4912" y2="22.2716" gradientUnits="userSpaceOnUse">
<stop offset="0.0111982" stop-color="#19A9DF"/>
<stop offset="1" stop-color="#0B8DFF"/>
</linearGradient>
<linearGradient id="paint2_linear_6000_88720" x1="14.3382" y1="15.5124" x2="19.5894" y2="28.665" gradientUnits="userSpaceOnUse">
<stop offset="0.0111982" stop-color="#19A9DF"/>
<stop offset="1" stop-color="#0B8DFF"/>
</linearGradient>
<linearGradient id="paint3_linear_6000_88720" x1="18.2397" y1="21.4718" x2="18.2397" y2="29.1108" gradientUnits="userSpaceOnUse">
<stop stop-color="#025227"/>
<stop offset="1" stop-color="#095B2E"/>
</linearGradient>
<linearGradient id="paint4_linear_6000_88720" x1="18.4154" y1="23.3652" x2="18.4154" y2="29.7434" gradientUnits="userSpaceOnUse">
<stop stop-color="#025227"/>
<stop offset="1" stop-color="#00652E"/>
</linearGradient>
</defs>
</svg>
