<svg width="75" height="17" viewBox="0 0 75 17" fill="none" xmlns="http://www.w3.org/2000/svg">
<path d="M72.0536 12.7246C70.8957 12.7246 69.957 13.6633 69.957 14.8214C69.957 15.9791 70.8957 16.9179 72.0536 16.9179C73.2115 16.9179 74.1504 15.9791 74.1504 14.8214C74.1504 13.6633 73.2115 12.7246 72.0536 12.7246Z" fill="#17120F"/>
<path d="M65.1654 6.23716V5.5233H68.5065V16.6827H65.1654V15.9695C64.2215 16.6133 63.0822 16.9917 61.8533 16.9917C58.6012 16.9917 55.9648 14.3553 55.9648 11.1033C55.9648 7.85117 58.6012 5.21484 61.8533 5.21484C63.0822 5.21484 64.2215 5.59325 65.1654 6.23716ZM62.1267 13.9745C63.7988 13.9745 65.1542 12.689 65.1542 11.1033C65.1542 9.51756 63.7988 8.23234 62.1267 8.23234C60.4546 8.23234 59.0993 9.51756 59.0993 11.1033C59.0993 12.689 60.4546 13.9745 62.1267 13.9745Z" fill="#17120F"/>
<path d="M50.0268 5.22266C48.6922 5.22266 47.4291 5.63702 46.5846 6.78021V5.52346H43.2578V16.6822H46.6254V10.8179C46.6254 9.12093 47.7634 8.28993 49.1335 8.28993C50.6019 8.28993 51.4461 9.16714 51.4461 10.7948V16.6822H54.7833V9.58573C54.7833 6.98877 52.7185 5.22266 50.0268 5.22266Z" fill="#17120F"/>
<path d="M38.4286 6.97687V5.52344H35.0078V16.6827H38.4363V11.4725C38.4363 9.71471 40.3415 8.76983 41.6635 8.76983C41.677 8.76983 41.6896 8.77113 41.7031 8.7713V5.52409C40.3463 5.52409 39.0984 6.10504 38.4286 6.97687Z" fill="#17120F"/>
<path d="M29.9191 6.23716V5.5233H33.2604V16.6827H29.9191V15.9695C28.9752 16.6133 27.8359 16.9917 26.6072 16.9917C23.3551 16.9917 20.7188 14.3553 20.7188 11.1033C20.7188 7.85117 23.3551 5.21484 26.6072 5.21484C27.8359 5.21484 28.9752 5.59325 29.9191 6.23716ZM26.8805 13.9745C28.5526 13.9745 29.9081 12.689 29.9081 11.1033C29.9081 9.51756 28.5526 8.23234 26.8805 8.23234C25.2086 8.23234 23.8531 9.51756 23.8531 11.1033C23.8531 12.689 25.2086 13.9745 26.8805 13.9745Z" fill="#17120F"/>
<path d="M15.8516 16.6832H19.3487V0.550781H15.8516V16.6832Z" fill="#17120F"/>
<path d="M13.4388 0.546875H9.81501C9.81501 3.51703 8.44942 6.24316 6.06851 8.02668L4.63281 9.10187L10.1957 16.6874H14.7694L9.65086 9.70755C12.0772 7.2915 13.4388 4.04104 13.4388 0.546875Z" fill="#17120F"/>
<path d="M0.488281 16.6868H4.19134V0.546875H0.488281V16.6868Z" fill="#17120F"/>
</svg>
