<svg width="61" height="59" viewBox="0 0 61 59" fill="none" xmlns="http://www.w3.org/2000/svg">
<path d="M52.6867 13.9707H6.43672V12.1207L47.1367 8.8647V12.1207H52.6867V6.5707C52.6867 2.5007 49.39 -0.355699 45.3644 0.217801L8.21272 5.5236C4.18342 6.1008 0.886719 9.9007 0.886719 13.9707V50.9707C0.886719 52.9333 1.66636 54.8155 3.05413 56.2033C4.4419 57.5911 6.32412 58.3707 8.28672 58.3707H52.6867C54.6493 58.3707 56.5315 57.5911 57.9193 56.2033C59.3071 54.8155 60.0867 52.9333 60.0867 50.9707V21.3707C60.0867 19.4081 59.3071 17.5259 57.9193 16.1381C56.5315 14.7503 54.6493 13.9707 52.6867 13.9707ZM47.1367 39.8929C46.4076 39.8927 45.6857 39.7488 45.0123 39.4696C44.3388 39.1904 43.7269 38.7812 43.2115 38.2655C42.6961 37.7498 42.2874 37.1376 42.0086 36.4639C41.7298 35.7903 41.5865 35.0683 41.5867 34.3392C41.587 33.6101 41.7308 32.8882 42.01 32.2147C42.2893 31.5413 42.6984 30.9294 43.2141 30.414C43.7298 29.8986 44.342 29.4899 45.0157 29.2111C45.6894 28.9323 46.4113 28.789 47.1404 28.7892C48.6129 28.7897 50.0248 29.3751 51.0656 30.4166C52.1065 31.4581 52.6909 32.8705 52.6904 34.3429C52.6899 35.8153 52.1045 37.2273 51.063 38.2681C50.0215 39.3089 48.6092 39.8934 47.1367 39.8929Z" fill="#0B8DFF"/>
</svg>
