<svg width="163" height="50" viewBox="0 0 163 50" fill="none" xmlns="http://www.w3.org/2000/svg">
<rect x="0.623188" y="0.695454" width="160.783" height="48.6087" rx="6.85507" fill="black"/>
<rect x="0.623188" y="0.695454" width="160.783" height="48.6087" rx="6.85507" stroke="#A6A6A6" stroke-width="1.24638"/>
<path fill-rule="evenodd" clip-rule="evenodd" d="M11.7438 9.55116C11.3811 9.93505 11.168 10.5296 11.168 11.3011V38.8435C11.168 39.615 11.3811 40.2095 11.7438 40.5934L11.836 40.6832L27.2649 25.2543V24.8903L11.836 9.46143L11.7438 9.55116Z" fill="#00D7FE"/>
<mask id="mask0_516_55390" style="mask-type:alpha" maskUnits="userSpaceOnUse" x="27" y="19" width="13" height="12">
<path d="M32.405 30.4003L27.2637 25.2553V24.8914L32.4075 19.7476L38.6169 23.2748C40.3569 24.2644 40.3569 25.8822 38.6169 26.8706L32.5234 30.333L32.405 30.4003Z" fill="white"/>
</mask>
<g mask="url(#mask0_516_55390)">
<path fill-rule="evenodd" clip-rule="evenodd" d="M32.405 30.4003L27.2637 25.2553V24.8914L32.4075 19.7476L38.6169 23.2748C40.3569 24.2644 40.3569 25.8822 38.6169 26.8706L32.5234 30.333L32.405 30.4003Z" fill="url(#paint0_linear_516_55390)"/>
</g>
<mask id="mask1_516_55390" style="mask-type:alpha" maskUnits="userSpaceOnUse" x="11" y="25" width="22" height="17">
<path d="M32.5269 30.3321L27.2672 25.0724L11.7461 40.5935C12.3207 41.2005 13.2679 41.2753 14.3348 40.6695L32.5269 30.3321Z" fill="white"/>
</mask>
<g mask="url(#mask1_516_55390)">
<path fill-rule="evenodd" clip-rule="evenodd" d="M32.5269 30.3323L27.2672 25.0726L11.7461 40.5938C12.3207 41.2007 13.2679 41.2755 14.3348 40.6698L32.5269 30.3323Z" fill="url(#paint1_linear_516_55390)"/>
</g>
<mask id="mask2_516_55390" style="mask-type:alpha" maskUnits="userSpaceOnUse" x="11" y="9" width="22" height="17">
<path d="M32.5269 19.8132L14.3348 9.47576C13.2679 8.87002 12.3207 8.94481 11.7461 9.55179L27.2672 25.0729L32.5269 19.8132Z" fill="white"/>
</mask>
<g mask="url(#mask2_516_55390)">
<path fill-rule="evenodd" clip-rule="evenodd" d="M32.5269 19.8132L14.3348 9.47576C13.2679 8.87002 12.3207 8.94481 11.7461 9.55179L27.2672 25.0729L32.5269 19.8132Z" fill="url(#paint2_linear_516_55390)"/>
</g>
<path fill-rule="evenodd" clip-rule="evenodd" d="M129.475 38.7248H131.801V23.1438H129.475V38.7248ZM150.423 28.7562L147.757 35.5116H147.678L144.911 28.7562H142.405L146.555 38.1975L144.189 43.4498H146.616L153.01 28.7562H150.423ZM137.234 36.9549C136.471 36.9549 135.409 36.5748 135.409 35.6325C135.409 34.4297 136.733 33.9686 137.875 33.9686C138.898 33.9686 139.378 34.1892 140 34.4896C139.819 35.9329 138.576 36.9549 137.234 36.9549ZM137.515 28.416C135.831 28.416 134.087 29.1576 133.365 30.8015L135.429 31.6628C135.871 30.8015 136.692 30.5199 137.554 30.5199C138.757 30.5199 139.98 31.2415 140 32.5253V32.6848C139.579 32.4443 138.677 32.0841 137.574 32.0841C135.35 32.0841 133.084 33.3068 133.084 35.5914C133.084 37.6766 134.908 39.0202 136.952 39.0202C138.517 39.0202 139.378 38.3184 139.92 37.4958H140V38.6986H142.245V32.726C142.245 29.959 140.181 28.416 137.515 28.416ZM123.141 30.6532H119.833V25.3125H123.141C124.88 25.3125 125.867 26.7521 125.867 27.9822C125.867 29.19 124.88 30.6532 123.141 30.6532ZM123.082 23.1438H117.509V38.7248H119.833V32.8219H123.082C125.659 32.8219 128.193 30.9549 128.193 27.9822C128.193 25.0096 125.659 23.1438 123.082 23.1438ZM92.6936 36.9574C91.087 36.9574 89.7422 35.6126 89.7422 33.7654C89.7422 31.8984 91.087 30.5323 92.6936 30.5323C94.2802 30.5323 95.5241 31.8984 95.5241 33.7654C95.5241 35.6126 94.2802 36.9574 92.6936 36.9574ZM95.3633 29.6287H95.2836C94.7613 29.0068 93.758 28.4446 92.4929 28.4446C89.8419 28.4446 87.4127 30.7729 87.4127 33.7654C87.4127 36.7368 89.8419 39.0463 92.4929 39.0463C93.758 39.0463 94.7613 38.4842 95.2836 37.8411H95.3633V38.6039C95.3633 40.633 94.2803 41.7173 92.5328 41.7173C91.107 41.7173 90.2233 40.6928 89.8618 39.8291L87.834 40.6729C88.416 42.0788 89.9628 43.805 92.5328 43.805C95.2636 43.805 97.5732 42.1984 97.5732 38.2835V28.765H95.3633V29.6287ZM99.1798 38.7248H101.509V23.1426H99.1798V38.7248ZM104.942 33.5847C104.882 31.5369 106.528 30.4924 107.712 30.4924C108.637 30.4924 109.42 30.9536 109.68 31.6167L104.942 33.5847ZM112.171 31.8173C111.73 30.6333 110.383 28.4446 107.633 28.4446C104.902 28.4446 102.633 30.5922 102.633 33.7455C102.633 36.7169 104.882 39.0463 107.893 39.0463C110.324 39.0463 111.73 37.5606 112.312 36.6969L110.504 35.4917C109.902 36.3753 109.078 36.9574 107.893 36.9574C106.709 36.9574 105.865 36.4152 105.323 35.3521L112.411 32.4206L112.171 31.8173ZM55.6999 30.0712V32.3196H61.0805C60.9197 33.5847 60.4984 34.5083 59.8566 35.1514C59.0726 35.9341 57.8474 36.7966 55.6999 36.7966C52.387 36.7966 49.7958 34.1269 49.7958 30.814C49.7958 27.4999 52.387 24.8302 55.6999 24.8302C57.4872 24.8302 58.7922 25.5331 59.7556 26.4367L61.3422 24.8501C59.9962 23.5651 58.2101 22.5804 55.6999 22.5804C51.1618 22.5804 47.3467 26.276 47.3467 30.814C47.3467 35.3521 51.1618 39.0463 55.6999 39.0463C58.149 39.0463 59.9962 38.2437 61.442 36.7368C62.9276 35.2511 63.39 33.1634 63.39 31.4758C63.39 30.9536 63.3502 30.4725 63.2691 30.0712H55.6999ZM69.5085 36.9574C67.9019 36.9574 66.516 35.6325 66.516 33.7455C66.516 31.8373 67.9019 30.5323 69.5085 30.5323C71.1138 30.5323 72.4998 31.8373 72.4998 33.7455C72.4998 35.6325 71.1138 36.9574 69.5085 36.9574ZM69.5085 28.4446C66.5758 28.4446 64.1865 30.6732 64.1865 33.7455C64.1865 36.7966 66.5758 39.0463 69.5085 39.0463C72.44 39.0463 74.8293 36.7966 74.8293 33.7455C74.8293 30.6732 72.44 28.4446 69.5085 28.4446ZM81.116 36.9574C79.5094 36.9574 78.1235 35.6325 78.1235 33.7455C78.1235 31.8373 79.5094 30.5323 81.116 30.5323C82.7226 30.5323 84.1073 31.8373 84.1073 33.7455C84.1073 35.6325 82.7226 36.9574 81.116 36.9574ZM81.116 28.4446C78.1845 28.4446 75.7952 30.6732 75.7952 33.7455C75.7952 36.7966 78.1845 39.0463 81.116 39.0463C84.0475 39.0463 86.4368 36.7966 86.4368 33.7455C86.4368 30.6732 84.0475 28.4446 81.116 28.4446Z" fill="#FFFFFE"/>
<path d="M54.1658 12.4066V15.3259C54.0673 15.472 53.9102 15.6363 53.6948 15.8189C53.4794 15.9978 53.1818 16.1548 52.802 16.2899C52.4259 16.4214 51.9403 16.4871 51.3451 16.4871C50.8594 16.4871 50.4121 16.4031 50.0031 16.2352C49.5978 16.0635 49.2455 15.8152 48.946 15.4903C48.6503 15.1616 48.4202 14.7636 48.2559 14.2962C48.0952 13.8252 48.0149 13.2921 48.0149 12.6969V12.0779C48.0149 11.4827 48.0843 10.9514 48.223 10.4841C48.3654 10.0167 48.5736 9.62047 48.8474 9.29549C49.1213 8.96685 49.4572 8.71855 49.8553 8.55058C50.2533 8.37896 50.7097 8.29315 51.2246 8.29315C51.8344 8.29315 52.3438 8.39905 52.7527 8.61083C53.1653 8.81897 53.4867 9.10744 53.7167 9.47624C53.9504 9.84504 54.1001 10.265 54.1658 10.736H53.1087C53.0613 10.4475 52.9663 10.1846 52.8239 9.94728C52.6852 9.70993 52.4862 9.52006 52.2269 9.37765C51.9676 9.23159 51.6335 9.15856 51.2246 9.15856C50.8558 9.15856 50.5363 9.22611 50.266 9.36122C49.9958 9.49632 49.7731 9.68985 49.5978 9.9418C49.4226 10.1938 49.2911 10.4987 49.2035 10.8565C49.1195 11.2143 49.0775 11.6178 49.0775 12.067V12.6969C49.0775 13.1569 49.1304 13.5677 49.2363 13.9292C49.3459 14.2907 49.5011 14.5993 49.7019 14.8549C49.9027 15.1068 50.1419 15.2985 50.4194 15.43C50.7006 15.5615 51.011 15.6272 51.3505 15.6272C51.7266 15.6272 52.0315 15.5961 52.2652 15.5341C52.4989 15.4683 52.6815 15.3917 52.813 15.304C52.9444 15.2127 53.0448 15.1269 53.1142 15.0466V13.261H51.2684V12.4066H54.1658ZM60.6485 15.5176V16.3776H56.4255V15.5176H60.6485ZM56.6391 8.4027V16.3776H55.582V8.4027H56.6391ZM60.0898 11.8315V12.6914H56.4255V11.8315H60.0898ZM60.5937 8.4027V9.2681H56.4255V8.4027H60.5937ZM64.6773 8.4027V16.3776H63.6367V8.4027H64.6773ZM67.2407 8.4027V9.2681H61.0788V8.4027H67.2407ZM71.4479 8.4027V16.3776H70.3908V8.4027H71.4479ZM75.8163 8.4027V16.3776H74.7756V8.4027H75.8163ZM78.3796 8.4027V9.2681H72.2177V8.4027H78.3796ZM87.593 12.1382V12.6421C87.593 13.2409 87.5182 13.7777 87.3684 14.2524C87.2187 14.7271 87.0033 15.1306 86.7221 15.4629C86.441 15.7952 86.1032 16.0489 85.7088 16.2242C85.3181 16.3995 84.88 16.4871 84.3943 16.4871C83.9233 16.4871 83.4906 16.3995 83.0962 16.2242C82.7055 16.0489 82.3659 15.7952 82.0774 15.4629C81.7926 15.1306 81.5717 14.7271 81.4147 14.2524C81.2577 13.7777 81.1792 13.2409 81.1792 12.6421V12.1382C81.1792 11.5393 81.2558 11.0044 81.4092 10.5333C81.5662 10.0587 81.7871 9.65516 82.072 9.32288C82.3568 8.98694 82.6945 8.73133 83.0852 8.55606C83.4796 8.38079 83.9123 8.29315 84.3834 8.29315C84.869 8.29315 85.3072 8.38079 85.6979 8.55606C86.0923 8.73133 86.43 8.98694 86.7112 9.32288C86.996 9.65516 87.2133 10.0587 87.363 10.5333C87.5163 11.0044 87.593 11.5393 87.593 12.1382ZM86.5469 12.6421V12.1272C86.5469 11.6525 86.4976 11.2326 86.399 10.8675C86.304 10.5023 86.1635 10.1956 85.9772 9.94728C85.791 9.69898 85.5628 9.51093 85.2926 9.38313C85.026 9.25532 84.7229 9.19142 84.3834 9.19142C84.0547 9.19142 83.7571 9.25532 83.4906 9.38313C83.2277 9.51093 83.0013 9.69898 82.8114 9.94728C82.6252 10.1956 82.4809 10.5023 82.3787 10.8675C82.2764 11.2326 82.2253 11.6525 82.2253 12.1272V12.6421C82.2253 13.1204 82.2764 13.544 82.3787 13.9128C82.4809 14.278 82.627 14.5865 82.8169 14.8385C83.0104 15.0868 83.2386 15.2748 83.5015 15.4026C83.7681 15.5304 84.0657 15.5943 84.3943 15.5943C84.7375 15.5943 85.0424 15.5304 85.309 15.4026C85.5756 15.2748 85.8001 15.0868 85.9827 14.8385C86.1689 14.5865 86.3095 14.278 86.4045 13.9128C86.4994 13.544 86.5469 13.1204 86.5469 12.6421ZM94.9739 8.4027V16.3776H93.9113L89.8965 10.2266V16.3776H88.8394V8.4027H89.8965L93.9278 14.5701V8.4027H94.9739Z" fill="white"/>
<defs>
<linearGradient id="paint0_linear_516_55390" x1="37.485" y1="25.0737" x2="27.2637" y2="25.0737" gradientUnits="userSpaceOnUse">
<stop stop-color="#FFBC00"/>
<stop offset="1" stop-color="#FFDA03"/>
</linearGradient>
<linearGradient id="paint1_linear_516_55390" x1="29.6685" y1="30.0217" x2="16.3279" y2="41.0179" gradientUnits="userSpaceOnUse">
<stop stop-color="#E22652"/>
<stop offset="1" stop-color="#FF3A44"/>
</linearGradient>
<linearGradient id="paint2_linear_516_55390" x1="14.0963" y1="11.4203" x2="22.9908" y2="19.2412" gradientUnits="userSpaceOnUse">
<stop stop-color="#0ED574"/>
<stop offset="1" stop-color="#07F076"/>
</linearGradient>
</defs>
</svg>
