<svg width="105" height="27" viewBox="0 0 105 27" fill="none" xmlns="http://www.w3.org/2000/svg">
<g clip-path="url(#clip0_4152_26206)">
<rect width="103.781" height="27" transform="translate(0.912598)" fill="white"/>
<path d="M28.075 12.4204C31.8719 12.4204 32.8253 13.3401 32.8253 17.0498C32.8253 20.7595 31.8719 21.6792 28.075 21.6792C24.2781 21.6792 23.3247 20.7595 23.3247 17.0498C23.3247 13.3401 24.2781 12.4204 28.075 12.4204ZM26.351 17.1426C26.351 19.3504 26.5169 19.5923 28.075 19.5923C29.6331 19.5923 29.7991 19.3504 29.7991 17.1426C29.7991 14.9348 29.6331 14.6929 28.075 14.6929C26.5169 14.6929 26.351 14.9348 26.351 17.1426Z" fill="black"/>
<path d="M36.909 12.4204V13.6495C37.2128 12.8029 37.9075 12.4232 39.0409 12.4232C41.1137 12.4232 41.9294 12.831 42.1712 14.2851C42.444 12.9998 43.2147 12.4232 44.6378 12.4232C47.4053 12.4232 48.1028 13.2248 48.1028 16.417V21.682H45.2284V16.7967C45.2284 15.0417 45.0934 14.8448 43.8981 14.8448C42.8997 14.8448 42.475 15.4045 42.4919 16.6898V21.682H39.6484V16.7967C39.6484 15.0417 39.5134 14.8448 38.3012 14.8448C37.3337 14.8448 36.909 15.4045 36.909 16.6898V21.682H34.0347V12.4204H36.909Z" fill="black"/>
<path d="M52.1874 12.4204V13.6495C52.4911 12.8029 53.1858 12.4232 54.3192 12.4232C56.3921 12.4232 57.2077 12.831 57.4495 14.2851C57.7224 12.9998 58.493 12.4232 59.9161 12.4232C62.6836 12.4232 63.3811 13.2248 63.3811 16.417V21.682H60.5067V16.7967C60.5067 15.0417 60.3717 14.8448 59.1764 14.8448C58.178 14.8448 57.7533 15.4045 57.7702 16.6898V21.682H54.9267V16.7967C54.9267 15.0417 54.7917 14.8448 53.5796 14.8448C52.6121 14.8448 52.1874 15.4045 52.1874 16.6898V21.682H49.313V12.4204H52.1874Z" fill="black"/>
<path d="M70.1722 21.682V20.076C69.8994 21.1813 69.0837 21.6792 67.5847 21.6792C65.194 21.6792 64.6034 20.9985 64.6034 18.2901L64.5894 12.4204H67.4637V17.6095C67.4637 19.0917 67.5987 19.2576 68.8109 19.2576C69.7475 19.2576 70.1581 18.7879 70.1581 17.6685L70.1722 12.4204H73.0465V21.6792H70.1722V21.682Z" fill="black"/>
<path d="M77.1308 12.4204V14.0263C77.4177 12.921 78.2811 12.4232 79.8702 12.4232C82.2608 12.4232 82.8515 13.1038 82.8515 15.8123L82.8655 21.682H79.9912V16.5379C79.9912 15.0107 79.8702 14.8448 78.7199 14.8448C77.5696 14.8448 77.1477 15.3595 77.1477 16.5379L77.1337 21.682H74.2593V12.4204H77.1337H77.1308Z" fill="black"/>
<path d="M85.056 9.57959H85.9645C86.5495 9.57959 87.0248 10.0549 87.0248 10.6399V11.7002H85.0588C84.4738 11.7002 83.9985 11.2249 83.9985 10.6399C83.9985 10.0549 84.4738 9.57959 85.0588 9.57959H85.056ZM86.946 12.4202V21.6818H84.0717V12.4202H86.946Z" fill="black"/>
<path d="M94.5092 21.6816H92.6951C89.7898 21.6816 89.0642 21.0769 89.0642 18.6244V14.8416H88.1558V12.42H89.2161V10.665H91.9386V12.42H94.5092V14.8416H91.9386V17.8819C91.9386 18.9872 92.0454 19.1082 92.982 19.1082H94.5092V21.6788V21.6816Z" fill="black"/>
<path d="M104.631 15.57V21.6816H101.757V20.4413C101.453 21.4088 100.708 21.6816 99.2706 21.6816C96.4328 21.6816 95.7212 21.3947 95.7212 19.0632C95.7212 16.8554 96.4159 16.2957 99.1862 16.2957L101.757 16.2816V15.7669C101.757 14.6616 101.622 14.5407 100.396 14.5407C99.0203 14.5407 98.8684 14.6616 98.8993 15.7219H96.0249V15.4041C96.0249 13.0135 96.9024 12.4229 100.426 12.4229C103.951 12.4229 104.631 13.0585 104.631 15.57ZM100.396 19.8057C101.349 19.7916 101.757 19.4879 101.757 18.7932V18.3994L100.396 18.4135C98.9134 18.4135 98.7474 18.4725 98.7474 19.0941C98.7474 19.7607 98.9134 19.8338 100.396 19.8057Z" fill="black"/>
<path d="M7.32174 5.99064C8.90145 5.99064 10.1821 4.71004 10.1821 3.13033C10.1821 1.55062 8.90145 0.27002 7.32174 0.27002C5.74203 0.27002 4.46143 1.55062 4.46143 3.13033C4.46143 4.71004 5.74203 5.99064 7.32174 5.99064Z" fill="#34F5C6"/>
<path d="M5.57237 10.4064C6.65191 10.4064 7.52705 9.5313 7.52705 8.45176C7.52705 7.37221 6.65191 6.49707 5.57237 6.49707C4.49282 6.49707 3.61768 7.37221 3.61768 8.45176C3.61768 9.5313 4.49282 10.4064 5.57237 10.4064Z" fill="#3C16B6"/>
<path d="M11.6452 9.21377C12.6393 9.21377 13.4452 8.40788 13.4452 7.41377C13.4452 6.41966 12.6393 5.61377 11.6452 5.61377C10.6511 5.61377 9.84521 6.41966 9.84521 7.41377C9.84521 8.40788 10.6511 9.21377 11.6452 9.21377Z" fill="url(#paint0_linear_4152_26206)"/>
<g style="mix-blend-mode:hard-light">
<path d="M7.23432 11.5566H7.49307V26.9213H1.01025V17.7779C1.01025 14.3438 3.79744 11.5566 7.23151 11.5566H7.23432Z" fill="#FFC903"/>
</g>
<path d="M22.5546 26.6176C22.5546 26.7188 22.5546 26.8201 22.5518 26.9213H16.6708C16.6737 26.8201 16.6765 26.7188 16.6765 26.6176C16.6765 21.5466 12.5646 17.4348 7.49365 17.4348V11.5566C15.813 11.5566 22.5546 18.301 22.5546 26.6176Z" fill="#34F5C6"/>
<path d="M22.5546 4.7222C22.5546 4.62095 22.5546 4.51971 22.5518 4.41846H16.6708C16.6708 4.41846 16.6765 4.62095 16.6765 4.7222C16.6765 9.79314 12.5646 13.905 7.49365 13.905V19.7831C15.813 19.7831 22.5546 13.0388 22.5546 4.7222Z" fill="#3C16B6"/>
</g>
<defs>
<linearGradient id="paint0_linear_4152_26206" x1="9.52378" y1="8.40816" x2="17.0851" y2="4.95967" gradientUnits="userSpaceOnUse">
<stop stop-color="#FCB23F"/>
<stop offset="1" stop-color="#F25C2C"/>
</linearGradient>
<clipPath id="clip0_4152_26206">
<rect width="103.781" height="27" fill="white" transform="translate(0.912598)"/>
</clipPath>
</defs>
</svg>
