<svg width="24" height="24" viewBox="0 0 24 24" fill="none" xmlns="http://www.w3.org/2000/svg">
<path d="M16 16L12 12L8 16" stroke="black" stroke-width="1.5" stroke-linecap="round" stroke-linejoin="round"/>
<path d="M12 12V21" stroke="black" stroke-width="1.5" stroke-linecap="round" stroke-linejoin="round"/>
<path d="M20.3875 18.3895C21.3629 17.8578 22.1334 17.0164 22.5774 15.9981C23.0214 14.9799 23.1137 13.8427 22.8397 12.7662C22.5657 11.6896 21.941 10.735 21.0642 10.0529C20.1874 9.37088 19.1084 9.00023 17.9975 8.9995H16.7375C16.4348 7.82874 15.8707 6.74183 15.0875 5.82049C14.3043 4.89915 13.3224 4.16735 12.2156 3.6801C11.1089 3.19286 9.90607 2.96285 8.69764 3.00738C7.4892 3.0519 6.30659 3.3698 5.2387 3.93716C4.17081 4.50453 3.24543 5.3066 2.53214 6.28308C1.81885 7.25956 1.33621 8.38503 1.1205 9.57489C0.904789 10.7647 0.961624 11.988 1.28673 13.1528C1.61184 14.3175 2.19676 15.3934 2.99752 16.2995" stroke="black" stroke-width="1.5" stroke-linecap="round" stroke-linejoin="round"/>
<path d="M16 16L12 12L8 16" stroke="black" stroke-width="1.5" stroke-linecap="round" stroke-linejoin="round"/>
</svg>
